<?xml version="1.0" encoding="UTF-8"?>
<svg id="Calque_1" xmlns="http://www.w3.org/2000/svg" version="1.1" viewBox="0 0 595.28 595.28">
  <!-- Generator: Adobe Illustrator 29.1.0, SVG Export Plug-In . SVG Version: 2.1.0 Build 142)  -->
  <defs>
    <style>
      .st0 {
        fill: #a3b83f;
      }

      .st1 {
        fill: #b0c93d;
      }

      .st2 {
        fill: #75833a;
      }

      .st3 {
        fill: #b9cc4d;
      }

      .st4 {
        fill: #78873a;
      }

      .st5 {
        fill: #b0c93e;
      }

      .st6 {
        fill: #f8fbf5;
      }

      .st7 {
        fill: #728139;
      }

      .st8 {
        fill: #80943b;
      }

      .st9 {
        fill: #a9c03e;
      }

      .st10 {
        fill: #80923b;
      }

      .st11 {
        fill: #718038;
      }

      .st12 {
        fill: #b1ca3e;
      }

      .st13 {
        fill: #7c8f3e;
      }

      .st14 {
        fill: #78883a;
      }

      .st15 {
        fill: #76863a;
      }

      .st16 {
        fill: #a7bc3e;
      }

      .st17 {
        fill: #a6bb3e;
      }

      .st18 {
        fill: #728039;
      }

      .st19 {
        fill: #abc13e;
      }

      .st20 {
        fill: #aac23e;
      }

      .st21 {
        fill: #80943c;
      }

      .st22 {
        fill: #7e923b;
      }

      .st23 {
        fill: #b1c93e;
      }

      .st24 {
        fill: #748239;
      }
    </style>
  </defs>
  <g>
    <path class="st11" d="M530.25,299.74c.49-1.03.99-2.06,1.61-3.35-3.7.26-6.38-1.09-8.68-3.35h0c.56-1.4,1.12-2.81,1.68-4.21-.11-.84-.09-.89-1.02-1.29-3.26-1.38-5.77-3.63-7.75-6.53-5.03-7.36-9.34-15.12-12.58-23.41-5.04-12.88-9.9-25.84-14.82-38.77-1.02-2.68-1.97-5.38-2.96-8.07-.81-2.19-1.02-2.31-3.41-1.98-.76.1-1.53.17-2.29.24-5,.51-10.01,1.06-15.02,1.51-4.31.39-8.63.74-12.96.96-1.87.09-3.76-.24-5.65-.27-1.12-.02-2.31-.61-3.36.29,1.09.37,1.93,1.03,2.63,1.86-.71-.83-1.54-1.49-2.63-1.86-2.46,7.12-4.92,14.23-7.38,21.35-.25-.63-.6-1.24-.75-1.9-1.19-5.44-2.32-10.9-3.5-16.35-.47-2.18-.56-2.22-2.77-2.23-7.26-.02-14.52-.03-21.77-.04-.42,0-.87-.06-1.24.08-.23.09-.34.51-.5.78-.15.31-.34.6-.45.92-2.65,8.19-5.29,16.39-7.94,24.59-.21.65-.54,1.27-.82,1.89-1.94-8.85-3.88-17.71-5.83-26.56-.5-2.29-.51-2.27-2.85-2.41-7.46-.45-14.92-.85-22.37-1.4-3.82-.28-7.64-.71-11.22-2.3-1.91-.85-3.91-1.5-5.88-2.21-.43-.15-.89-.19-1.42-.29-.05.42-.08.69-.11.97.2.05.44.06.6.17-.16-.11-.4-.12-.6-.17-.55,1.83-1.1,3.67-1.66,5.5-.6-.15-1.21-.27-1.79-.45-1.66-.53-3.3-1.12-4.96-1.63-6.57-2.05-13.39-2.62-20.18-3.31-6.87-.69-13.74-1.32-20.61-1.98-2.22-.21-4.45-.4-6.66-.64-1.03-.11-1.65.16-1.59,1.31.4,1.23.84,2.45,1.21,3.68-.37-1.23-.82-2.45-1.21-3.68-1.03,4.18-2.07,8.36-3.1,12.54-1.27-.33-1.44-1.42-1.69-2.45-1.77-1.94-3.54-3.87-5.31-5.81-.81-.54-1.61-1.1-2.42-1.63-6.97-4.53-14.84-6.29-22.93-7.22-5.33-.61-10.7-.95-16.05-1.38-7.02-.56-14.05-1.08-21.08-1.61-.68-.05-1.38,0-2.12,0-.14.61-.27,1.14-.39,1.68-.62,3.1-1.25,6.2-1.87,9.3-.27-.54-.64-1.05-.8-1.62-.72-2.55-1.39-5.12-2.07-7.68-.53-1.99-.69-2.14-2.64-2.33-.49-.05-.98-.03-1.47-.05-6.07-.27-12.14-.55-18.22-.8-1.65-.07-3.3-.01-5.01-.01-.05.57-.09.99-.12,1.4-.07.12-.18.23-.2.36-1.43,7.83-2.79,15.67-4.33,23.47-.52,2.63-.31,5.06.38,7.61,3.38,12.46,6.66,24.96,9.97,37.44,1.02,3.83,2.03,7.67,3.04,11.5.07-.22.15-.45.24-.67-.08.22-.16.45-.24.67.51,2.24,1.01,4.49,1.54,6.72,1.5,6.31,3.02,12.62,4.53,18.94-.65-.61-1.47-1.12-1.92-1.86-1.06-1.72-2.15-3.47-2.84-5.35-1.02-2.81-1.78-5.73-2.52-8.64-4.48-17.6-8.92-35.22-13.39-52.83-1.46-5.76-2.99-11.49-4.49-17.24.92-5.07,1.85-10.13,2.75-15.2.7-3.97,1.36-7.95,2.04-11.93.02-.31.05-.63.09-1.23-1.26.47-2.29.83-3.31,1.23-3.61,1.42-7.33,2.3-11.23,2.03-1.73-.12-3.45-.47-5.18-.66-1.15-.13-2.31-.15-3.48-.22-.28.89-.47,1.53-.74,2.39-1.76-.44-3.45-.79-5.11-1.28-3.34-.99-6.63-2.17-10-3.06-5.7-1.49-11.11-3.68-16.35-6.33-.48-.24-.9-.59-1.35-.89h-.42c0,.41,0,.82,0,1.23,1.61,1.43,3.25,2.83,4.82,4.3-1.58-1.47-3.21-2.87-4.82-4.3-.73,5.04-1.47,10.08-2.2,15.12-.68.04-1.37.17-2.03.1-4.54-.47-9.08-.54-13.6.07-8.51,1.15-17.01,2.4-25.5,3.68-3.08.47-6.13,1.17-9.19,1.76-.04.75-.06,1.31-.09,1.87-.09.26-.22.51-.25.78-.85,7.41-1.72,14.82-2.5,22.24-.24,2.26-.46,4.47.17,6.81,4.49,16.49,8.82,33.02,13.23,49.53.92,3.43,1.94,6.83,2.91,10.24h0c.19.88.42,1.76.56,2.65.12.75.27,1.53.18,2.27-.72,5.81-1.5,11.62-2.24,17.43-.13,1.05-.18,2.12-.3,3.54,2.04-1.18,3.25-2.58,4.32-4.12.67-.96,1.38-1.88,2.07-2.82.14.61.29,1.22.42,1.83,2.91,13.71,5.93,27.39,8.68,41.13,2.18,10.91,3.22,21.94,2.62,33.09-.13,2.51-.28,5.02-.34,7.53-.02.74.24,1.49.38,2.24.25-.05.5-.1.75-.15-.04-.09-.08-.17-.13-.26.05.09.1.18.13.26.96-.88,1.93-1.77,3.07-2.82-.77,5.17-1.49,10.09-2.22,15,1.8-1.57,3.19-3.3,4.62-4.98,2.84-3.34,5.29-7.04,8.96-9.62.31-.15.64-.28.92-.46,6.52-4.29,13.33-8.08,20.27-11.67,3.52-1.82,7.02-3.7,10.42-5.74,1.65-.99,3.04-2.4,4.55-3.61.42-.36.87-.68,1.27-1.07,4.23-4.2,6.86-9.31,8.3-15.03.79-3.17,1.36-6.41,1.95-9.63.82-4.45,1.58-8.92,2.37-13.38.39-1.74.78-3.48,1.17-5.21.31-1.69.71-3.36.99-5.06-.28,1.69-.67,3.37-.99,5.06,1.18,1.95,2.15,3.93,1.3,6.3-.06.18,0,.4,0,.61h.43s0-.01,0-.01c-.14,0-.29,0-.43.01-.7,3.63-1.49,7.25-2.07,10.9-.65,4.07-1.09,8.17-1.64,12.25-.18,1.35-.44,2.7-.7,4.32.44-.28.63-.35.75-.47.29-.3.58-.61.82-.95,1.76-2.48,3.04-5.19,3.63-8.19.74-3.77,1.42-7.56,2.18-11.33.17-.85.55-1.66.83-2.49,2.84,5.78,6.27,11.17,10.87,15.73,7.03,7.42,15.51,10.67,25.71,8.98.25-.06.51-.12.76-.18,0,0,.02,0,.02,0,4.97-.57,9.2-2.75,12.84-6.08,3.96-3.63,5.97-8.4,7.27-13.47,1.25-4.87,2.31-9.79,3.43-14.69.59-2.58,1.11-5.18,1.65-7.77.42-1.15.83-2.31,1.25-3.46.29-1.64.55-3.29.89-4.92-.34,1.63-.6,3.28-.89,4.92.72,3.25,1.43,6.51,2.14,9.76-.09,1.88-.14,3.76-.29,5.63-.39,4.85-.82,9.7-1.24,14.56-.02.41-.03.82-.05,1.24-.02.22-.04.44-.1,1.12.4-.63.56-.87.72-1.12h0c1.02-2.05,2.04-4.11,3.06-6.16.22-.43.45-.85.68-1.28.22,3.55.3,6.99-.08,10.37-.38,3.33-1.22,6.61-1.94,10.35.83-.67,1.29-1.06,1.76-1.44,1.71-1.1,3.55-1.85,5.56-2.3,4.4-.99,8.83-1.33,13.33-1.32,6.02,0,12.03-.17,18.05-.27,3.56-.12,7.15.02,10.67-.42,7.07-.89,11.87-4.89,14.49-11.51.38-.97.69-1.98.98-2.99,1.34-4.7,2.67-9.41,4.01-14.11.12-.41.34-.79.6-1.39,1.5,4.59,1.65,6.96.65,11.14-.69,2.92-1.48,5.82-2.22,8.73-.16.64-.28,1.3-.49,2.27,1.73-.94,2.35-2.7,4.01-3.43-.19,4.19-.9,8.08-2.1,11.9-.33,1.04-.52,2.13-.77,3.2-.16.48-.33.97-.48,1.41.25.14.32.22.36.2.59-.2,1.18-.43,1.77-.62,4.13-1.3,8.25-2.64,12.69-2.2,1.32.13,2.65.19,3.97.24,5.37.22,10.75.33,16.12.66,5.74.36,11.45.15,17.17-.26,1.16-.08,2.3-.44,3.45-.67.35-.02.71,0,1.04-.08,5.95-1.52,10.29-4.93,12.36-10.84,1.34-3.83,2.56-7.69,3.85-11.54.21-.63.49-1.23.74-1.85.96,2.94,1.56,5.84,2.18,8.74,1.13,5.32,2.27,10.65,3.41,15.97-.03,1.23.76,1.27,1.69,1.23,2.86-.14,5.73-.25,8.59-.37,4.19-.17,8.39-.37,12.58-.5,1.11-.04,1.79-.41,2.17-1.52,2.93-8.45,5.91-16.88,8.88-25.31-1.31.07-2.63.15-3.94.23,1.31-.08,2.63-.16,3.94-.23.15-.02.29-.04.44-.06,1.13,5.72,2.24,11.45,3.41,17.16.5,2.44,1.1,4.85,1.66,7.27-.06.89.53.83,1.1.74,1.51-.24,3.03-.47,4.53-.75,5.54-1.02,11.08-2.05,16.62-3.08.21-.01.43,0,.62-.04,7.21-1.88,14.41-3.81,21.63-5.63,1.45-.37,2.25-1.08,2.78-2.46,1.91-5.01,3.98-9.97,5.88-14.99.54-1.44,1.24-2.59,2.69-3.18-.47-.07-.69-.24-.67-.59-.02.35.2.52.67.59,1.96-.88,3.92-1.75,5.88-2.63.3.6.67,1.19.89,1.82,1.24,3.62,2.43,7.25,3.66,10.86.17.5.01,1.29.92,1.28.18-.11.36-.21.54-.32,0,0,.05.03.05.03,5.39-2.25,10.41-5.18,15.36-8.25,5.01-2.08,9.5-5.04,13.71-8.42.88-.71,1.57-1.78,2.05-2.83,1.45-3.18,2.76-6.42,4.1-9.65,2.05-4.9,4.08-9.8,6.12-14.7-.16.07-.32.13-.48.19.16-.06.33-.12.48-.19ZM485.42,277.03c.72,2.12,1.44,4.24,2.19,6.46-.75-2.22-1.47-4.34-2.2-6.46-.17-.82-.29-1.65-.48-2.45.19.81.31,1.64.48,2.45ZM201.57,273.91c.11.61.17,1.24.27,1.86.5,1.65,1.09,3.28,1.49,4.95-.41-1.67-.99-3.3-1.49-4.95-.12.02-.24.02-.35.02.11,0,.22,0,.35-.02-.1-.62-.16-1.24-.27-1.86ZM150.37,251.43c-1.41-1.74-2.91-3.41-4.44-5.05.06-.82.15-1.29.4-1.51-.25.22-.34.68-.4,1.51,1.53,1.64,3.03,3.31,4.44,5.05ZM124.44,307.38c2.03,3.43,3.3,7.16,4.19,11.03.31,1.35.68,2.69,1.02,4.03,3.4-2.27,5.55-4.81,6.55-7.81-1.01,2.99-3.16,5.54-6.55,7.81-1.01.8-2.02,1.6-3.36,2.67-1.79-7.19-3.47-13.93-5.15-20.68,1.63.39,2.51,1.62,3.3,2.95ZM139.2,253.91c-1.03-.31-2.06-.62-3.21-.97,1.15.35,2.18.66,3.21.97.22-1.43.44-2.87.69-4.52-.25,1.65-.47,3.08-.69,4.52ZM125.32,248.49s.05-.05.07-.08c-.02.03-.05.05-.07.08-.03.13-.06.27-.09.41.03-.14.06-.27.09-.41-.42,0-.84,0-1.26,0,.42,0,.84,0,1.26,0ZM155.17,259.41h0c-.52.46-.86,1.01-1.11,1.6.25-.59.59-1.13,1.11-1.6ZM255.77,253.11s0,0,0,0c2.72,7.29,4.14,14.92,5.94,22.45,2.17,9.1,4.23,18.22,6.33,27.34.08.34.09.69.13,1.04-2.13-.03-2.18-.01-2.67-2.06-2.9-12.09-5.78-24.18-8.66-36.27-1.04-4.35-2.07-8.7-3.08-13.05-.16-.67-.21-1.37-.31-2.06.78.87,1.55,1.74,2.33,2.61ZM385.93,319.17c.22-.05.46-.08.71-.1h0c-.25.02-.49.05-.71.1ZM341.25,314.41c-1.23-.13-1.51-1.05-1.73-2.05-.89-4.02-1.81-8.04-2.71-12.06-2.46-10.97-4.91-21.93-7.36-32.9-.18-.81-.25-1.65-.37-2.48.66,1.21,1.56,2.35,1.93,3.64,1.12,3.95,2.11,7.94,3,11.95,2.39,10.74,4.69,21.5,7.02,32.26.12.54.15,1.1.22,1.65ZM310.62,337.21c-.13.54-.26,1.08-.38,1.61,0,0,0,0,0,0,.13-.54.25-1.08.38-1.61ZM371.08,264.88c.13-.01.25-.04.36-.07-.11.03-.23.05-.36.07.04.35.06.69.09,1.04-.03-.35-.05-.69-.09-1.04-.97-4.06-1.98-8.1-2.89-12.17.9,4.07,1.92,8.11,2.89,12.17ZM410.56,308.59c.02.35-.01.71.06,1.05-.07-.34-.04-.7-.06-1.05-.84-3.87-1.68-7.74-2.5-11.61.82,3.87,1.67,7.74,2.5,11.61ZM440.08,253.87h0c.31-.84.61-1.69.92-2.53-.2-.63-.15-1.21.02-1.78-.17.57-.22,1.15-.02,1.78.13-.15.26-.31.54-.64.65,1.27.87,2.52.95,3.81.35,5.5.69,11,1.03,16.5-1.16-5.3-2.33-10.6-3.47-15.9-.08-.39,0-.83.02-1.24ZM439.68,247.67s0,0,.01-.01c0,0,0,0-.01.01ZM447.13,230.81h0c-.11.45-.17.92-.3,1.36.13-.44.19-.91.3-1.36ZM453.12,332.51c.25,0,.49,0,.74,0,.9-.24,1.8-.49,2.71-.73-.9.24-1.8.49-2.71.73-.24,0-.49,0-.74,0ZM438.76,248.06c.22,0,.4-.04.55-.11-.15.07-.33.11-.55.11-.46-2.01-.97-4.02-1.38-6.04.41,2.02.91,4.03,1.38,6.04ZM413.97,254.78c.71,3.09,1.41,6.19,2.14,9.37-.73-3.18-1.43-6.27-2.14-9.37-.08-.67-.12-1.35-.21-2.02.09.67.13,1.35.21,2.02ZM364.72,229.85c-.77-1.21-1.65-2.34-2.83-3.24.02-.31.11-.51.24-.63-.14.12-.23.32-.24.63,1.18.9,2.06,2.03,2.83,3.24.31.48.6.98.88,1.48-.28-.5-.57-1-.88-1.48ZM263.12,227.9c-.29-.84-.57-1.68-.85-2.52h0c.28.84.56,1.68.85,2.52ZM230.35,209.42c1.49.08,2.98.16,4.48.24-1.5-.08-2.99-.16-4.48-.24-.18-.17-.37-.28-.56-.35.19.07.38.18.56.35ZM229.49,209c-.2-.03-.4-.02-.62,0,.22-.03.42-.04.62,0ZM140.06,206.05c1.05.97,1.63,2.18,2.07,3.45-.43-1.27-1.02-2.48-2.07-3.45-1.35-1.72-2.81-3.31-4.47-4.7,1.67,1.39,3.13,2.98,4.47,4.7ZM99.77,372.02c.08.82.28,1.64.39,2.47,1.1-.29,1.85-.99,2.52-1.78.27-.32.52-.65.77-.98-.25.33-.5.66-.77.98-.66.79-1.42,1.49-2.52,1.78-.11-.82-.31-1.65-.39-2.47ZM219.82,338.3c-.72.26-1.44.49-2.14.79.7-.3,1.43-.53,2.14-.79.47-.4.9-.85,1.41-1.2-.51.34-.94.8-1.41,1.2ZM336.08,340.09c-.04-.96-.41-1.87-.72-2.81-3.34-.14-6.7-.47-10.03-.51,3.34.04,6.69.37,10.03.51.31.94.67,1.85.72,2.81ZM360.18,337.7c-3.13.06-6.27.19-9.4.22,3.13-.03,6.27-.16,9.4-.22,0,0,0,0,0,0ZM390.09,336.61c.25.59.5,1.19.76,1.78h0c-.25-.59-.5-1.19-.76-1.78Z"/>
    <path class="st11" d="M284.98,211.09c1.1-2.27.72-4.76-1.01-6.65-.77-.84-1.63-1.57-2.87-1.29-1.21.27-1.12,1.42-1.38,2.32-.02.07-.03.13-.04.2-.32,1.27-.64,2.54-.97,3.81,1.77,1.94,3.54,3.88,5.31,5.81.32-1.4.64-2.81.96-4.21Z"/>
  </g>
  <path class="st12" d="M231.59,322.33c-.42,1.15-.83,2.31-1.25,3.46-.14.23-.3.45-.4.7-1.85,4.41-4.75,7.93-8.71,10.61-.51.34-.94.8-1.41,1.2-.72.26-1.44.49-2.14.79-5.58,2.37-11.36,3.21-17.32,1.94-2.64-.56-5.2-1.52-7.79-2.3-.79-.56-1.58-1.12-2.37-1.68-1.08-.77-2.24-1.44-3.21-2.33-4.14-3.77-7.83-7.92-10.74-12.75-4.68-7.76-8.46-15.94-10.87-24.66-3.05-11.01-5.73-22.12-8.61-33.18-.42-1.6-1.05-3.14-1.59-4.71-.29-.84-.45-1.76-.9-2.5-2.33-3.86-5.28-7.24-8.33-10.53.12-1.65.35-1.86,1.81-1.55,1.31.28,2.6.61,4.12.97-1.41-5.47-2.7-10.58-4.05-15.68-1.63-6.11-3.26-12.23-5-18.31-.59-2.05-1.08-4.2-2.75-5.76-1.79-2.29-3.79-4.36-6.21-6.02-2.03-1.39-3.97-2.91-5.95-4.37.05-.15.11-.29.16-.44,2.43-.27,4.87-.14,7.33.22-.22-.24-.46-.33-.7-.43-4.04-1.64-7.64-3.97-10.83-6.94-1.58-1.47-3.21-2.87-4.82-4.3,0-.41,0-.82,0-1.23.14,0,.28,0,.42,0,.45.3.87.65,1.35.89,5.24,2.65,10.65,4.84,16.35,6.33,3.37.88,6.66,2.07,10,3.06,1.65.49,3.35.84,5.11,1.28.27-.86.47-1.5.74-2.39,1.16.07,2.33.09,3.48.22,1.73.19,3.45.55,5.18.66,3.9.27,7.62-.61,11.23-2.03,1.02-.4,2.05-.76,3.31-1.23-.04.6-.07.91-.09,1.22-.27.22-.57.41-.79.67-1.84,2.09-4.13,3.49-6.75,4.39-.96.33-1.92.67-3.09,1.08.35,1.37.62,2.57.96,3.76,1.62,5.75,3.26,11.49,4.89,17.23,1.5,5.75,3.03,11.49,4.49,17.24,4.47,17.61,8.91,35.22,13.39,52.83.74,2.91,1.5,5.83,2.52,8.64.68,1.88,1.78,3.63,2.84,5.35.45.74,1.27,1.24,1.92,1.86.22.17.42.36.66.5,3.6,2.2,8.35.65,9-3.52.37-2.37.44-4.9.05-7.25-.71-4.24-1.83-8.41-2.85-12.59-.41-1.67-.99-3.3-1.49-4.95-.13-.82-.19-1.66-.4-2.47-3.6-14.33-7.15-28.67-10.84-42.98-2.76-10.66-5.7-21.27-8.58-31.9-.09-.32-.33-.59-.5-.88.04-.41.07-.83.12-1.4,1.71,0,3.36-.06,5.01.01,6.07.24,12.15.53,18.22.8.49.02.98,0,1.47.05,1.95.19,2.1.34,2.64,2.33.68,2.56,1.35,5.13,2.07,7.68.16.57.53,1.08.8,1.62.41,1.83.77,3.67,1.22,5.49,2.36,9.47,4.75,18.92,7.1,28.39,1.94,7.85,3.84,15.7,5.74,23.56,1.64,6.77,3.25,13.55,4.87,20.33.56,2.35,1.1,4.71,1.64,7.06.29,3.4.72,6.79.84,10.19.17,4.6.17,9.21-.78,13.76-.34,1.63-.6,3.28-.89,4.92ZM217.33,327.48c1.58-.96,2.45-2.52,3.06-4.13,1.48-3.92,2.3-8.04,2.35-12.21.05-4.03.4-8.09-.35-12.12-.48-2.59-.65-5.23-1.16-7.81-.83-4.22-1.77-8.43-2.77-12.62-2.25-9.39-4.55-18.78-6.88-28.15-2.58-10.39-5.21-20.77-7.84-31.15-.82-3.24-1.6-6.48-2.55-9.68-.82-2.78-.8-2.25-3.2-2.28-.8.03-1.6.07-2.51.1.08.71.08,1.12.18,1.51,2.73,10.21,5.56,20.4,8.17,30.63,3.27,12.8,6.4,25.63,9.52,38.46,1.38,5.67,2.66,11.36,3.84,17.07.29,1.4.32,3-.05,4.36-.88,3.21-1.89,6.43-4.02,9.11-.48.41-1.03.75-1.41,1.23-2,2.49-4.68,3.92-7.62,4.94-2.23.77-4.53.92-6.77.18-3.37-1.11-6.32-2.9-8.59-5.71-.61-.76-1.39-1.38-2.06-2.09-.58-.6-1.24-1.17-1.65-1.88-2.17-3.76-3.91-7.74-5-11.91-3.48-13.32-6.79-26.68-10.15-40.04-1.34-5.33-2.59-10.68-3.97-15.99-2.42-9.28-4.91-18.53-7.39-27.79-.45-1.67-.95-3.32-1.47-5.16-1.14.17-2.15.32-3.15.46-.92-.06-1.84-.11-2.89-.18.15.45.23.71.31.97,1.13,3.44,2.39,6.84,3.36,10.32,2.42,8.65,4.72,17.33,7.04,26.01.59,2.19,1.46,4.38,0,6.63-.24.37-.03,1.26.26,1.72,2.76,4.44,4.39,9.3,5.66,14.34,2.58,10.19,5.24,20.36,7.92,30.53,1.25,4.73,2.81,9.35,4.98,13.75,2.59,5.27,5.49,10.32,9.25,14.9,2.55,3.11,5.68,5.11,9.45,6.18,3.81,1.08,7.71,1.2,11.58.38,2.35-.5,4.81-.88,6.53-2.88Z"/>
  <path class="st5" d="M523.18,293.04c2.3,2.25,4.98,3.61,8.68,3.35-.62,1.29-1.11,2.32-1.61,3.35-.31.14-.67.22-.93.43-3.94,3.12-8.18,5.73-12.7,7.93-1.8.87-3.47,2.01-5.2,3.02-.67.34-1.34.69-2.02,1.02-3.53,1.77-7.06,3.53-10.59,5.3-1.51-4.34-3.02-8.69-4.55-13.03-.16-.45-.03-1.21-.93-.95-.34.07-.71.07-1.02.21-4.21,1.87-8.41,3.76-12.61,5.63-.72.32-1.09.82-1.08,1.62.04,4.05-.04,8.11.16,12.16.05,1.05-.09,1.89-.54,2.76-.46.14-.93.27-1.39.41-2.76.83-5.53,1.66-8.29,2.49-3.1.78-6.19,1.54-9.29,2.33-1.81.46-3.61.96-5.42,1.45-.49.01-.99-.03-1.46.05-3.5.55-7,1.11-10.49,1.71-2.05.35-4.08.8-6.11,1.21-1.53.17-3.07.35-4.6.52-.29-.69-.72-1.35-.86-2.07-2.26-11.22-4.47-22.44-6.73-33.66-.44-2.16-1.05-4.29-1.58-6.43-.29-1.41-1.31-1.61-2.53-1.6-3.56.01-7.12-.03-10.68-.03-.47,0-.94.11-1.62.2.31,1.6.57,3.09.88,4.56.82,3.87,1.67,7.74,2.5,11.61.02.35-.01.71.06,1.05,1.34,6.47,2.74,12.93,4.04,19.42.56,2.79.92,5.62,1.37,8.44-.15.02-.29.04-.44.06-2.63.14-5.26.33-7.89.41-5.62.18-11.24.29-16.86.44-.25-.59-.5-1.19-.76-1.78-.6-3.32-1.2-6.65-1.8-9.97-.55-2.52-1.1-5.05-1.64-7.57-.05-.63-.03-1.27-.16-1.87-1.02-4.55-2.13-9.08-3.1-13.64-2.74-12.87-5.43-25.75-8.15-38.62-.24-1.15-.55-2.29-.82-3.43-.69-3.55-1.39-7.1-2.06-10.66-1.24-6.55-3.05-12.9-6.32-18.75-1.12-2.01-2.24-4.04-4.13-5.48.04-.82.61-.86,1.19-.72.64.15,1.25.41,2.3.77-2.73-4.52-5.34-8.52-8.87-11.83-.77-.72-1.53-1.42-1.12-2.32-2.95-2.06-5.74-4-8.54-5.94-.16-.11-.4-.12-.6-.17.03-.27.06-.54.11-.97.52.1.99.14,1.42.29,1.97.71,3.97,1.36,5.88,2.21,3.59,1.59,7.4,2.01,11.22,2.3,7.45.55,14.91.95,22.37,1.4,2.34.14,2.35.12,2.85,2.41,1.94,8.85,3.89,17.71,5.83,26.56.14.38.32.74.42,1.13.56,2.23,1.1,4.46,1.64,6.69.39,1.84.8,3.67,1.17,5.51.75,3.75,1.49,7.51,2.2,11.27.28,1.5.45,1.68,2.04,1.77,2.02.12,4.03.31,6.05.37,2.36.06,4.73.02,7.4.02-.99-4.33-1.93-8.45-2.87-12.58-.1-.9-.14-1.81-.33-2.69-.65-3.06-1.38-6.11-2.04-9.17-.58-2.72-1.06-5.46-1.64-8.18-1.04-4.83-2.11-9.65-3.19-14.47-.53-2.36-1.1-4.71-1.65-7.06.16-.27.26-.69.5-.78.37-.14.82-.08,1.24-.08,7.26.01,14.52.02,21.77.04,2.21,0,2.3.05,2.77,2.23,1.18,5.45,2.32,10.9,3.5,16.35.14.66.49,1.27.75,1.9.57,3.06,1.11,6.12,1.72,9.16.41,2.02.91,4.03,1.38,6.04.44,1.94.88,3.87,1.32,5.81-.01.41-.1.85-.02,1.24,1.14,5.3,2.31,10.6,3.47,15.9,3.64,18.71,7.27,37.43,10.97,56.45.28-.49.5-.7.53-.94.18-1.87.46-3.75.45-5.62-.08-13.64-.19-27.28-.35-40.92-.06-4.82-.29-9.64-.44-14.45,0-.28-.03-.56-.05-.84-.25-3.47-.56-6.94-.73-10.42-.23-4.6-.34-9.21-.5-13.82,0-.14,0-.28-.02-.42-.27-3.82-.48-7.65-.83-11.47-.16-1.79-.42-3.61-.91-5.34-.97-3.44-3.37-6.07-5.31-8.97-.84-1.26-1.85-2.26-3.3-2.75,1.05-.89,2.24-.31,3.36-.29,1.88.03,3.78.36,5.65.27,4.32-.22,8.64-.57,12.96-.96,5.01-.45,10.01-1,15.02-1.51.76-.08,1.53-.14,2.29-.24,2.39-.32,2.6-.21,3.41,1.98.99,2.69,1.94,5.39,2.96,8.07,4.92,12.93,9.78,25.89,14.82,38.77,3.25,8.3,7.56,16.06,12.58,23.41,1.98,2.9,4.48,5.15,7.75,6.53.93.39.91.44,1.02,1.29-1.72.73-3.49.37-5.5.07.27.5.34.77.52.95,1.09,1.08,2.2,2.14,3.31,3.2ZM476.54,270.76c.27,3.26.56,6.51.81,9.77.25,3.28.29,6.59,1.07,10.19,3.29-2.15,6.96-2.78,9.96-4.96-1.04-3.07-2-5.9-2.96-8.72-.23-1.09-.37-2.2-.69-3.25-1.83-5.91-3.78-11.79-5.55-17.71-1.46-4.86-2.72-9.78-4.1-14.67-.33-1.17-.78-2.31-1.17-3.46-.18,2.64-.05,5.2.19,7.75.36,3.87.83,7.73,1.17,11.61.35,4.02.59,8.04.9,12.06.04.47.25.93.37,1.4ZM418.99,223.59c.29.54.61,1.06.85,1.61.44,1.02.97,2.02,1.21,3.09,1.54,6.92,3.03,13.85,4.51,20.78,1.05,4.89,1.91,9.83,3.15,14.68.63,2.48-.34,4.5-1,6.66-.09.31-.38.59-.63.82-1.33,1.23-2.67,2.45-4.03,3.65-2.16,1.89-4.57,3.15-7.56,3.02-3.76-.16-7.52-.35-11.29-.4-1.7-.02-3.32-.16-4.88-.89-3.29-1.54-5.86-3.87-7.15-7.26-1.01-2.65-1.69-5.44-2.34-8.21-1.26-5.41-2.42-10.85-3.59-16.29-1.57-7.34-3.1-14.69-4.69-22.02-.1-.44-.61-1.1-.97-1.12-1.56-.12-3.16-.31-5.1.24.53.72.84,1.3,1.3,1.74.95.92,1.44,1.95,1.51,3.32.06,1.15.44,2.31.81,3.43.94,2.85,2.17,5.61,2.89,8.51,1.68,6.82,3.09,13.7,4.67,20.54,1.07,4.6,2.05,9.25,3.44,13.76,1.67,5.41,3.09,10.87,3.58,16.48.3,3.49.96,6.87,1.66,10.27,1.04,5.04,2.05,10.08,3.1,15.11.67,3.2,1.35,6.39,2.09,9.58.43,1.86.94,2.1,2.79,1.59-.42-2.45-.77-4.92-1.26-7.36-1.64-8.11-3.25-16.22-5.04-24.29-.68-3.07.41-5.45,2.23-7.66,1.11-1.35,2.6-2.4,3.58-3.81.87-1.25,1.95-1.7,3.3-1.89.41-.06.87,0,1.24-.13,2.78-1.05,5.6-.91,8.45-.35.47.09.98.06,1.46-.02,1.16-.2,2.3-.53,3.47-.69,3.35-.45,6.33.29,8.84,2.73,2.6,2.53,4.14,5.65,4.86,9.1,1.54,7.34,2.85,14.73,4.3,22.09.5,2.52,1.09,5.03,1.71,7.52.27,1.11.94,1.83,2.66,1.48-2.18-11.15-4.19-22.26-6.47-33.32-2.3-11.16-4.57-22.33-6.9-33.49-2.31-11.07-4.67-22.14-7.01-33.22-1.43-.06-2.6-.5-3.75.61ZM514.26,297.85c-.9-1.07-1.73-2.18-2.69-3.17-1.79-1.86-3.15-4.06-3.38-6.56-.13-1.39-.44-2.32-1.34-3.28-.61-.65-1.04-1.48-1.5-2.26-1.45-2.46-2.92-4.91-4.32-7.41-1.16-2.07-2.35-4.13-3.33-6.29-1.64-3.62-3.12-7.31-4.68-10.96-.13-.31-.36-.58-.55-.87-.13.05-.26.1-.39.15.3,1.18.5,2.41.93,3.55,2.18,5.88,4.45,11.73,6.63,17.6.99,2.67,1.91,5.36,2.74,8.08.34,1.11.29,2.33.53,3.49.52,2.55,2.29,4.42,3.66,6.51,1.92,2.91,4.39,3.38,7.67,1.41Z"/>
  <path class="st23" d="M213.71,199.32c.12-.54.25-1.07.39-1.68.75,0,1.44-.04,2.12,0,7.03.53,14.05,1.05,21.08,1.61,5.35.43,10.72.77,16.05,1.38,8.09.93,15.96,2.68,22.93,7.22.82.53,1.61,1.08,2.42,1.63,1.77,1.94,3.54,3.88,5.31,5.81.25,1.03.42,2.12,1.69,2.45.24.72.45,1.45.73,2.16,1.3,3.38,2.91,6.67,3.87,10.14,1.65,5.95,2.94,12.01,4.32,18.03,1.62,7.04,3.16,14.09,4.77,21.13,1.12,4.87,2.29,9.73,3.45,14.59.3,1.27.69,2.51,1.04,3.77.79,3.96,1.67,7.91,2.36,11.88.92,5.34,2.27,10.63,1.5,16.15-.49,3.5-1.28,6.86-3.09,9.92-2.46,4.18-6.02,6.98-10.76,8-2.78.6-5.64.85-8.48,1.07-2.23.17-4.48.07-6.72.09-8.02.13-16.05-.5-24.06.37-4.79.52-9.57,1.19-13.36,4.64-.08-.44-.29-.9-.2-1.3.96-4.33,2.22-8.61,1.93-13.12-.02-.27.06-.55.08-.83.12-1.77.24-3.53.38-5.63-1.7,3.11-3.2,5.88-4.71,8.64-.13-.37-.41-.75-.38-1.11.15-1.99.39-3.97.57-5.96.2-2.26.37-4.52.56-6.79.17-1.72.41-3.44.48-5.17.1-2.42.12-4.84-.52-7.24-1.02-3.81-1.91-7.66-2.86-11.5-.12-.43-.25-.85-.37-1.28-.15-.7-.3-1.39-.45-2.09-.08-.62-.11-1.25-.26-1.85-.86-3.45-1.78-6.88-2.62-10.33-1.57-6.42-3.09-12.86-4.64-19.28-1.44-5.95-2.86-11.91-4.34-17.86-1.71-6.89-3.47-13.77-5.21-20.66-1.33-5.26-2.65-10.53-4.03-15.78-.12-.46-.64-.83-.97-1.23ZM253.44,250.5c.1.69.16,1.39.31,2.06,1.02,4.35,2.05,8.7,3.08,13.05,2.88,12.09,5.76,24.18,8.66,36.27.49,2.04.54,2.03,2.67,2.06.49.02.98.03,1.47.06,1.87.12,3.75.36,5.62.33,3.23-.05,4.86-1.9,4.63-5.11-.12-1.73-.22-3.49-.58-5.18-.86-4.02-1.88-8-2.82-11.99-2.59-10.98-5.19-21.95-7.77-32.93-1.07-4.54-1.98-9.12-3.18-13.63-.91-3.41-2.16-6.73-3.26-10.1-.43-2.04-1.91-3.18-3.58-4.12-3.97-2.25-8.38-2.78-13.13-3.34,2.49,11.02,5.2,21.79,7.88,32.57ZM230.35,209.42c-.73-.68-1.52-.42-2.52-.2.11.62.17,1.15.29,1.66,2.8,11.35,5.62,22.7,8.4,34.06,3.2,13.04,6.37,26.1,9.53,39.15,1.44,5.95,2.99,11.88,4.21,17.87.42,2.04,1,4.15.35,6.38-.44,1.53-.34,3.21,1.25,4.34.32.22.57.63.7,1.01.72,2.03,1.66,4,1.32,6.27-.1.68-.03,1.4-.01,2.1.04,1.58.38,2,1.97,2.03,1.24.02,2.49-.2,3.74-.26,1.04-.05,2.09-.07,3.13-.05,3.13.08,6.29.47,9.39.22,3.14-.25,6.23-.52,9.35.07.6.11,1.25,0,1.88-.05,1.04-.09,2.07-.24,3.1-.33,1.73-.15,3.46-.33,5.19-.39,3.2-.12,4.38-1.94,5.11-4.58,1.16-4.2,1.03-8.44.29-12.63-.99-5.6-2.2-11.17-3.44-16.73-1.39-6.24-2.94-12.44-4.37-18.67-1.05-4.53-2.01-9.09-3.04-13.62-.81-3.59-1.65-7.18-2.5-10.76-1.2-5.08-2.42-10.15-3.63-15.22-.8-3.35-2.38-6.33-3.95-9.38-1.43-2.78-3.43-4.71-5.99-6.21-1.03-.6-2.05-1.4-3.92-1.32.75.85,1.25,1.37,1.69,1.92,1.18,1.46,2.65,2.79,3.43,4.44,1.4,2.95,2.52,6.06,3.48,9.19,1.02,3.32,1.7,6.74,2.58,10.11.9,3.42,1.42,6.92,2.38,10.35,1.96,7.03,3.32,14.22,4.97,21.33,1.69,7.25,3.48,14.47,5.12,21.73.87,3.85,1.2,7.74-.72,11.44-.57,1.1-1.31,2.11-1.96,3.17-.32.52-.63,1.04-.94,1.56-.42.22-1.05.33-1.22.68-.83,1.67-2.45,2.22-3.94,2.95-2.53,1.24-5.13,2.17-8.04,1.84-1.72-.2-3.46-.4-5.19-.4-2.28,0-4.35-.77-6.02-2.09-3.33-2.63-5.82-5.85-6.79-10.2-2.12-9.43-4.47-18.8-6.7-28.21-2.43-10.28-4.79-20.58-7.23-30.86-1.75-7.38-3.51-14.75-5.42-22.09-.61-2.34-.75-4.51.54-6.59.58-.93,1.35-1.74,2.02-2.61.43-.56,1.27-.88,1.13-1.95-3.04-.16-6.02-.32-9-.47Z"/>
  <path class="st12" d="M66.42,206.37c.03-.56.05-1.11.09-1.87,3.06-.59,6.11-1.29,9.19-1.76,8.49-1.29,16.99-2.53,25.5-3.68,4.52-.61,9.06-.55,13.6-.07.67.07,1.36-.06,2.03-.1,1.45.43,2.88.88,4.34,1.28,4.22,1.17,8.13,2.94,11.09,6.28,1.56,1.75,2.91,3.69,4.35,5.54.03.21.01.43.09.62,2,4.69,3.06,9.66,4.37,14.55.5,1.87.86,3.8,1.01,5.73.49,6.31-1.32,11.95-5.24,16.93-.66.84-1.27,1.73-2.03,2.78,1.66.5,3.03.91,4.41,1.33.98.41,1.95.82,2.93,1.23,1.33.86,2.75,1.59,3.96,2.59,2.54,2.09,4.41,4.78,6.12,7.56,1.84,3.54,3.26,7.25,4.2,11.12,2.13,8.78,4.23,17.57,6.3,26.37,1.1,4.68,1.5,9.47,1.62,14.26.07,2.84-.13,5.71-.42,8.54-.24,2.27-.8,4.5-1.22,6.75-.39,1.74-.78,3.48-1.17,5.21-.53.89-1.14,1.74-1.57,2.67-2.77,5.97-7.2,10.42-12.79,13.71-4.27,2.51-8.68,4.78-13.02,7.15-.52.19-1.07.33-1.55.59-3.29,1.85-6.6,3.65-9.82,5.61-3.09,1.89-6.1,3.92-9.1,5.96-.59.4-.96,1.12-1.43,1.69-.56.53-1.17,1-1.66,1.59-2.27,2.73-4.5,5.49-6.77,8.23-.46.56-1,1.06-1.5,1.59-.25-.67-.19-1.11-.08-1.55,1.19-4.72,2.41-9.44,3.58-14.17.16-.67.12-1.39.17-2.08-.98.87-1.47,1.87-2.16,2.72-1.04,1.27-1.91,2.77-3.67,3.24-.15-1.1-.45-2.19-.43-3.29.05-2.71.34-5.42.37-8.13.08-6.48.24-12.96-.79-19.4-.72-4.52-1.28-9.07-2.07-13.58-.74-4.24-1.67-8.45-2.57-12.67-1.97-9.24-3.96-18.48-5.97-27.72-.15-.68-.44-1.33-.67-1.99-.12.02-.24.04-.36.05-.07.32-.13.63-.2.95-.38.4-.75.8-1.13,1.2-1.29,1.33-2.59,2.65-3.89,3.97-1.43-.33-.87-1.49-.75-2.23.71-4.53,1.59-9.04,2.29-13.57.36-2.32.94-4.66.14-7.02-.31-.92-.57-1.87-.82-2.81-2.19-8.15-4.36-16.3-6.55-24.44-2.72-10.1-5.43-20.19-8.18-30.28-.65-2.4-1.44-4.76-2.17-7.15ZM115.24,209.84c-1.88-.28-3.77-.82-5.65-.78-3.44.08-6.88.5-10.32.78-.75.14-1.49.31-2.24.41-2.74.36-5.49.68-8.23,1.05-2.4.33-4.78.7-7.18,1.06-2.2.39-2.37.69-1.82,2.7,2.87,10.62,5.7,21.24,8.56,31.86,2.02,7.53,4.01,15.07,6.11,22.57.71,2.52,1.05,4.94.31,7.53-.48,1.7-.35,3.47,1.36,4.7.48.35.91.92,1.13,1.48.73,1.88,1.5,3.77,1.99,5.72,1.17,4.65,2.23,9.33,3.25,14.01,1.07,4.89,2.09,9.78,3.06,14.69,1.24,6.26,2.51,12.53,3.6,18.82.65,3.76,1.03,7.56,1.43,11.36.24,2.28.28,4.58.47,6.87.04.45.26.96.57,1.29,1.24,1.32,2.54,2.58,3.86,3.9.61-.32,1.11-.56,1.58-.84,2.83-1.66,5.59-3.42,8.48-4.97,4.99-2.66,10.1-5.12,15.08-7.81,1.87-1.01,3.53-2.42,5.28-3.65.14-.03.32-.01.4-.1,2.24-2.24,4.04-4.77,5.09-7.8,1.69-4.85,2.18-9.9,2.44-14.97.12-2.28-.32-4.58-.35-6.87-.08-5.05-1.24-9.92-2.35-14.8-1.39-6.1-2.93-12.16-4.41-18.24-1.09-4.48-2.28-8.89-5.04-12.74-1.36-1.9-3.11-3.04-5.28-3.42-3.77-.65-6.97-2.1-9.61-5-1.5-1.64-2.25-3.52-2.86-5.49-.44-1.44.66-2.62,1.18-3.88.1-.25.14-.54.21-.81.5-.57,1.04-1.1,1.48-1.71.8-1.09,1.54-2.22,2.3-3.33.44-.6,1.01-1.15,1.3-1.82,1.36-3.15,1.68-6.51,1-9.81-1.04-5.02-2.39-9.98-3.67-14.94-.48-1.88-1.58-3.39-3.2-4.49-2.81-1.9-5.96-2.54-9.29-2.55ZM106.28,366.88c-.05,0-.11,0-.16,0v.64c.05,0,.11,0,.16,0v-.64Z"/>
  <path class="st1" d="M288.8,205.21c-.06-1.15.56-1.42,1.59-1.31,2.22.24,4.44.43,6.66.64,6.87.66,13.74,1.28,20.61,1.98,6.79.69,13.61,1.26,20.18,3.31,1.66.52,3.3,1.1,4.96,1.63.59.19,1.19.3,1.79.45.46.3.9.64,1.38.91,4.31,2.44,8.06,5.49,10.85,9.64,1.12,1.67,2.22,3.36,3.34,5.03.39,1.04.72,2.11,1.19,3.11,3.3,7.06,5.16,14.55,6.84,22.11.9,4.07,1.92,8.11,2.89,12.17.07.69.09,1.39.23,2.07.3,1.43.71,2.83,1.01,4.26.53,2.51,1,5.04,1.53,7.55.6,2.79,1.27,5.55,1.86,8.34.91,4.28,1.77,8.58,2.68,12.86.88,4.15,1.84,8.28,2.69,12.43.29,1.42.4,2.89.5,4.35.23,3.37-.06,6.69-1.22,9.89-.46.84-.92,1.68-1.38,2.52-1.1-.2-1.81.41-2.55,1.12-2.08,2.02-4.51,3.47-7.24,4.46-3.53,1.28-7.25,1.38-10.9,1.47-5.15.13-10.31.22-15.48-.26-5.19-.49-10.45-.36-15.68-.5-.42-.01-.87.06-1.25-.06-2.15-.66-4.3-.46-6.4.09-3.05.8-6.35.95-8.86,3.25-.09.08-.27.06-.4.09.13-.54.25-1.08.38-1.61.94-3.84,1.91-7.68,2.79-11.54.18-.8.32-1.72-.16-2.63-1.13,1.01-2.12,1.9-3.12,2.79-.14-.08-.28-.16-.42-.25.07-.73.04-1.49.21-2.2.81-3.38,1.82-6.72,2.46-10.13.36-1.95.4-4.05.12-6.01-.4-2.81-1.21-5.56-1.87-8.34-.7-2.98-1.39-5.96-2.14-8.92-.49-1.95-1.07-3.87-1.61-5.81.53-1.65-.39-3.14-.68-4.66-.92-4.99-2.2-9.91-3.33-14.86-1.12-4.88-2.21-9.77-3.35-14.65-1.03-4.41-2.17-8.79-3.18-13.2-.93-4.07-1.73-8.17-2.65-12.24-.66-2.92-1.46-5.81-2.14-8.72-.44-1.89-.71-3.83-1.19-5.71-.42-1.67-1.03-3.28-1.56-4.92ZM370.25,324.12c1.44-2.76,1.1-5.8.7-8.6-.76-5.42-2.05-10.77-3.16-16.14-.85-4.15-1.75-8.3-2.62-12.44-.98-4.61-1.94-9.22-2.93-13.83-.59-2.72-1.22-5.42-1.83-8.14-1.19-5.29-2.41-10.57-3.57-15.86-1.51-6.9-3.54-13.6-7.09-19.77-2.44-4.25-5.88-7.17-10.59-8.56-.39-.14-.78-.32-1.18-.41-4.67-1.08-9.29-2.36-14.13-2.61-3.18-.17-6.33-.81-9.5-1.17-2.9-.33-5.8-.62-8.71-.8-.99-.06-2.26-.57-2.81.49.84,2.14,1.82,3.95,2.26,5.88,1.67,7.24,3.12,14.54,4.75,21.8,2.3,10.24,4.71,20.46,7.05,30.69,2.36,10.3,4.72,20.6,7.03,30.91.52,2.3,1.11,4.72-.05,6.97-1.1,2.13-.65,4.02.28,6,.47,1,.89,2.06,1.11,3.14.61,3.07,1.29,3.65,4.49,3.73,1.24.03,2.49.18,3.72.39,1.15.2,2.27.74,3.42.81,3.76.23,7.52.35,11.28.45,2.59.06,5.18.02,7.77,0,.56,0,1.15.08,1.67-.08,2.58-.81,5.22-.81,7.88-.76.49.01,1.02.11,1.46-.04,1.24-.44,2.9-.26,3.3-2.05Z"/>
  <path class="st2" d="M306.88,284.17c.54,1.94,1.12,3.86,1.61,5.81.75,2.97,1.44,5.94,2.14,8.92.65,2.77,1.47,5.53,1.87,8.34.28,1.96.25,4.06-.12,6.01-.63,3.41-1.65,6.75-2.46,10.13-.17.71-.15,1.46-.21,2.2.14.08.28.16.42.25.99-.89,1.99-1.78,3.12-2.79.48.91.34,1.84.16,2.63-.88,3.86-1.85,7.69-2.79,11.54-.13.54-.26,1.08-.38,1.61-.05.5.12.87.68.75.47-.1.89-.41,1.36-.52,3.23-.79,6.45-2.01,9.72-2.21,4.43-.27,8.91.25,13.36.44.49,1.5,1.13,2.92.37,4.61-2.28,5.12-5.58,9.45-9.71,13.2-.59.53-1.26.76-1.9.29-2.15-1.57-4.38-1.88-6.81-.7-.4.2-.97.01-1.45.11-1.65.32-3.21.67-4.22,2.33-.5.82-1.53,1.39-2.42,1.88-1.33.73-2.35,1.67-3.1,3-.58,1.02-1.33,1.95-2.08,2.85-.14.16-.66,0-1.01,0,.25-1.07.45-2.15.77-3.2,1.2-3.82,1.91-7.71,2.1-11.9-1.66.74-2.28,2.49-4.01,3.43.21-.97.33-1.62.49-2.27.74-2.91,1.52-5.81,2.22-8.73.99-4.18.84-6.55-.65-11.14-.26.59-.48.98-.6,1.39-1.34,4.7-2.67,9.41-4.01,14.11-.29,1.01-.59,2.01-.98,2.99-2.61,6.62-7.42,10.62-14.49,11.51-3.52.44-7.11.3-10.67.42-.22-.7-.26-1.59-.72-2.06-.84-.85-1.03-1.76-.97-2.85.05-.91.05-1.83-.86-2.55-.47.1-1,.3-1.53.3-.37,0-1-.19-1.08-.43-.44-1.45-1.25-3.02-1-4.39.64-3.63,1.77-7.18,3.74-10.35.96-1.54,2.65-2.32,4.44-2.33,2.01-.02,2.47-.17,3.45-2.13,2.24-.02,4.49.09,6.72-.09,2.84-.22,5.7-.47,8.48-1.07,4.74-1.02,8.3-3.83,10.76-8,1.81-3.06,2.6-6.42,3.09-9.92.77-5.52-.58-10.81-1.5-16.15-.68-3.98-1.56-7.92-2.36-11.88.98-.1,1.05-.92,1.3-1.62.3-.84.58-1.72,1.71-1.77Z"/>
  <path class="st24" d="M438.76,248.06c-.46-2.01-.97-4.02-1.38-6.04-.61-3.05-1.15-6.11-1.72-9.16,2.46-7.12,4.92-14.23,7.38-21.35,1.45.5,2.46,1.49,3.3,2.75,1.93,2.9,4.34,5.53,5.31,8.97.49,1.73.74,3.55.91,5.34.34,3.82.56,7.65.83,11.47,0,.14.01.28.02.42.16,4.61.28,9.22.5,13.82.17,3.48.48,6.95.73,10.42.02.28.04.56.05.84.15,4.82.39,9.63.44,14.45.16,13.64.27,27.28.35,40.92.01,1.87-.27,3.75-.45,5.62-.02.23-.24.45-.53.94-3.7-19.02-7.33-37.74-10.97-56.44-.34-5.5-.69-11-1.03-16.51-.08-1.29-.3-2.54-.95-3.81-.28.33-.41.48-.54.64-.32-1.01,0-1.89.43-2.82,1.86-4.06,3.69-8.13,5.47-12.23.69-1.6,1.27-3.25,1.79-4.91.37-1.19.15-1.44-1.15-1.8-.87-1.73-1.78-3.43-4.03-3.62-1.04,2.22.68,4.45,3.61,4.83-.15.6-.21,1.23-.46,1.78-2.13,4.74-4.3,9.46-6.46,14.19-.29.64-.58,1.29-1.45,1.28ZM449.05,229.37c.27-.94.54-1.51.59-2.1.38-4.52-1.23-8.15-4.94-10.8-.66-.47-1.38-1.03-2.27-.4-.74.53-1,1.57-.48,2.64.39.81.91,1.57,1.46,2.27,1.84,2.35,3.78,4.63,4.74,7.54.07.22.37.36.91.84Z"/>
  <path class="st18" d="M192.56,338.73c2.6.78,5.15,1.74,7.79,2.3,5.96,1.27,11.73.43,17.32-1.94.7-.3,1.43-.53,2.14-.79.87,1.61,1.7,3.24,1.21,5.15-.64,2.48-1.24,4.98-2.06,7.4-1.57,4.63-3.72,8.96-7.13,12.56-1.05,1.11-2.08,2.16-3.77,2.42-1.16.18-2.47.54-2.91,1.97,0,0-.02,0-.02,0-.25.06-.51.12-.76.18-10.21,1.68-18.69-1.56-25.71-8.98.09-1.37.6-2.9.16-4.07-.56-1.46-.41-2.71-.03-4.03.35-1.2.88-2.33,1.32-3.45q1.97-.43,2.95-2.28c.23-.43.44-.89.77-1.24,1.34-1.38,2.69-2.74,4.09-4.07,1.14-1.09,2.34-2.07,4-.82.08.06.42-.22.64-.34Z"/>
  <path class="st10" d="M278.68,334.68c-.98,1.96-1.44,2.11-3.45,2.13-1.8.02-3.49.8-4.44,2.33-1.97,3.16-3.1,6.72-3.74,10.35-.24,1.37.57,2.94,1,4.39.07.24.7.43,1.08.43.53,0,1.06-.2,1.53-.3.91.72.91,1.64.86,2.55-.05,1.09.13,2,.97,2.85.46.47.49,1.36.72,2.06-6.02.1-12.03.28-18.05.27-4.5,0-8.93.34-13.33,1.32-2.01.45-3.85,1.19-5.56,2.3.27-1.43.51-2.85.8-4.27,1.13-5.56,2.29-11.12,3.41-16.69.31-1.56.53-3.13.79-4.7,3.79-3.44,8.57-4.12,13.36-4.64,8-.87,16.04-.24,24.06-.37Z"/>
  <path class="st8" d="M181.52,197.54c.17.29.41.57.5.88,2.88,10.63,5.83,21.24,8.58,31.9,3.7,14.3,7.25,28.65,10.84,42.98.2.8.27,1.64.4,2.47-.99.13-1.46-.29-1.84-1.25-.5-1.27-.98-1.19-2.28-.82-1.47.41-2.91,1.35-4.58.43-1.24-.69-1.6-.37-1.88,1.09-.18.92-.57,1.8-.87,2.7-1.01-3.83-2.03-7.67-3.04-11.5-3.31-12.48-6.59-24.98-9.97-37.44-.69-2.55-.9-4.99-.38-7.61,1.54-7.8,2.9-15.64,4.33-23.47.02-.13.13-.24.2-.36Z"/>
  <path class="st22" d="M303.02,364.85c.35,0,.87.17,1.01,0,.75-.9,1.51-1.83,2.08-2.85.75-1.33,1.77-2.27,3.1-3,.9-.49,1.92-1.06,2.42-1.88,1.02-1.65,2.58-2,4.22-2.33.47-.09,1.04.09,1.45-.11,2.43-1.18,4.66-.87,6.81.7.64.46,1.31.24,1.9-.29,4.13-3.75,7.43-8.09,9.71-13.2.75-1.69.12-3.11-.37-4.61.49-.03.98-.11,1.46-.08,3.61.23,7.22.63,10.83.7,4.18.08,8.36-.13,12.54-.21-.89,1.05-1.7,2.18-2.68,3.13-3.38,3.27-4.92,7.54-6.43,11.81-.33.95-.22,2.29.21,3.21.63,1.35,1.78,2.44,2.63,3.7.81,1.19,1.55,2.39,3.31,1.65.32.92.59,1.67.85,2.43-1.15.23-2.29.58-3.45.67-5.71.41-11.43.62-17.17.26-5.37-.33-10.75-.44-16.12-.66-1.33-.05-2.65-.11-3.97-.24-4.44-.44-8.56.9-12.69,2.2-.6.19-1.18.42-1.77.62-.04.01-.11-.06-.36-.2.15-.44.31-.92.48-1.41Z"/>
  <path class="st15" d="M358.08,363.62c-.27-.76-.53-1.51-.85-2.43-1.76.74-2.5-.46-3.31-1.65-.85-1.26-2-2.35-2.63-3.7-.43-.92-.55-2.26-.21-3.21,1.5-4.26,3.04-8.54,6.43-11.81.98-.95,1.79-2.08,2.68-3.13.84-.05,1.68-.06,2.51-.15,3.62-.37,7.17-.86,10.35-2.92,2.32-1.5,4.24-3.35,5.95-5.46.46-.84.92-1.68,1.38-2.52,1.25.13,1.71-.71,2-1.69.23-.79.32-1.62.54-2.42.64-2.32,1.73-3.32,3.74-3.47.55,2.52,1.1,5.05,1.64,7.57-.76,0-1.58-.13-2.01.74-1.97,3.95-4.35,7.74-4.52,12.37-.07,1.99,1.17,3.29,3,2.8.5-.13.94-.55,1.35-.9,1.69-1.39,2.89-3.17,3.98-5.03.25.59.5,1.19.76,1.78-.56,1.75-1.14,3.48-1.67,5.24-.72,2.38-1.54,4.7-2.01,7.18-.53,2.8-1.59,5.52-2.62,8.2-.65,1.7-1.63,3.26-2.49,4.88-.05.09-.25.09-.39.13-1.14-5.32-2.28-10.65-3.41-15.97-.62-2.9-1.21-5.8-2.18-8.74-.25.62-.53,1.22-.74,1.85-1.29,3.84-2.51,7.71-3.85,11.54-2.08,5.92-6.41,9.32-12.36,10.84-.33.08-.69.05-1.04.08Z"/>
  <path class="st10" d="M192.56,338.73c-.22.12-.56.4-.64.34-1.66-1.25-2.86-.27-4,.82-1.39,1.33-2.75,2.69-4.09,4.07-.33.34-.55.81-.77,1.24q-.99,1.85-2.95,2.28c-.43,1.11-.97,2.25-1.32,3.45-.38,1.32-.53,2.57.03,4.03.44,1.17-.07,2.7-.16,4.07-4.61-4.56-8.03-9.95-10.87-15.73.1-.89.11-1.8.31-2.66.47-2.02,1.02-4.03,1.57-6.04.17-.63.36-1.22-.3-1.68.19-.74.34-1.49.59-2.21.91-2.64.69-5.33.25-8-.09-.55-.48-1.19-.93-1.53-1.1-.85-2.19-.32-2.34,1.06-.3,2.75-.48,5.52-.88,8.26-.43,2.93-1.07,5.84-1.62,8.76-.14,0-.29,0-.43.01,0-.2-.06-.43,0-.61.84-2.37-.12-4.36-1.3-6.3.42-2.25.98-4.48,1.22-6.75.29-2.83.49-5.7.42-8.54-.12-4.79-.53-9.57-1.62-14.26-2.06-8.8-4.16-17.59-6.3-26.37-.94-3.87-2.36-7.58-4.2-11.12,1.16-.26,1.04-1.31,1.22-2.11.31-1.39.6-2.77,1.73-3.78.54,1.57,1.17,3.11,1.59,4.71,2.88,11.06,5.56,22.17,8.61,33.18,2.42,8.72,6.19,16.9,10.87,24.66,2.91,4.83,6.6,8.98,10.74,12.75.97.88,2.14,1.56,3.21,2.33.79.56,1.58,1.12,2.37,1.68Z"/>
  <path class="st21" d="M66.42,206.37c.73,2.38,1.52,4.74,2.17,7.15,2.75,10.09,5.46,20.19,8.18,30.28,2.19,8.14,4.37,16.29,6.55,24.44.25.94.5,1.89.82,2.81.8,2.36.22,4.71-.14,7.02-.7,4.53-1.58,9.04-2.29,13.57-.11.73-.68,1.9.75,2.23-.77.51-1.71.82-1.94,1.9-.02.1-.36.13-.55.2-.97-3.41-1.99-6.81-2.91-10.24-4.41-16.51-8.75-33.04-13.23-49.53-.63-2.33-.41-4.55-.17-6.81.78-7.42,1.65-14.83,2.5-22.24.03-.27.17-.52.25-.78Z"/>
  <path class="st8" d="M416.03,337.49c-.45-2.81-.81-5.64-1.37-8.44-1.3-6.48-2.69-12.94-4.04-19.42-.07-.34-.04-.7-.06-1.05.51-.47,1.12-.86,1.52-1.41,2.89-4,5.73-8.05,8.61-12.06.35-.49.88-.86,1.33-1.28.53,2.14,1.14,4.27,1.58,6.43,2.26,11.22,4.47,22.44,6.73,33.66.14.72.57,1.38.86,2.07-1.87,5.22-3.72,10.45-5.62,15.66-1.14,3.13-2.35,6.23-3.58,9.32-.15.38-.59.64-.89.95-.56-2.42-1.16-4.84-1.66-7.27-1.16-5.72-2.27-11.44-3.41-17.16Z"/>
  <path class="st21" d="M87.48,288.7c.07-.32.13-.63.2-.95.12-.02.24-.04.36-.05.23.66.52,1.31.67,1.99,2,9.24,4,18.48,5.97,27.72.9,4.21,1.83,8.43,2.57,12.67.79,4.51,1.35,9.06,2.07,13.58,1.03,6.44.87,12.92.79,19.4-.03,2.71-.32,5.42-.37,8.13-.02,1.09.28,2.19.43,3.29-.29.51-.8,1-.85,1.53-.34,4-.6,8.01-.88,12.01-.03.42-.02.84-.09,1.25-.56,3.42-1.16,6.83-1.69,10.25-.05.31.27.68.41,1.03-.25.05-.5.1-.75.15-.13-.75-.39-1.49-.38-2.24.06-2.51.2-5.02.34-7.53.59-11.15-.44-22.18-2.62-33.09-2.75-13.74-5.77-27.42-8.68-41.13-.13-.61-.28-1.22-.42-1.83.35-1.84.79-3.66,1.03-5.51.3-2.39.44-4.81.65-7.21.19-2.14.36-4.28.56-6.42.22-2.35.45-4.7.68-7.04Z"/>
  <path class="st21" d="M381.67,364.02c.13-.04.34-.04.39-.13.85-1.62,1.84-3.18,2.49-4.88,1.02-2.68,2.08-5.4,2.62-8.2.47-2.47,1.29-4.8,2.01-7.18.53-1.75,1.11-3.49,1.67-5.24,5.62-.14,11.24-.26,16.86-.44,2.63-.08,5.26-.27,7.89-.41-2.96,8.43-5.94,16.86-8.88,25.31-.39,1.12-1.06,1.49-2.17,1.52-4.2.14-8.39.33-12.58.5-2.87.12-5.73.23-8.59.37-.93.05-1.72,0-1.69-1.23Z"/>
  <path class="st18" d="M134.14,361.08c4.35-2.37,8.76-4.64,13.02-7.15,5.59-3.29,10.02-7.74,12.79-13.71.43-.93,1.04-1.78,1.57-2.67-.79,4.46-1.54,8.93-2.37,13.38-.6,3.22-1.16,6.46-1.95,9.63-1.43,5.72-4.07,10.83-8.3,15.03-.39.39-.84.72-1.27,1.07-.86-.09-1.63.01-2.3.69-.37.38-.91.67-1.42.84-1.75.58-3.52,1.13-5.3,1.61-.55.15-1.17.08-1.84.11-.05-.71-.14-1.19-.12-1.67.1-1.67-.31-2.98-2.01-3.74-.55-.24-1.01-.96-1.24-1.56-1.22-3.24-1.44-6.47.23-9.68.34-.64.34-1.46.49-2.2Z"/>
  <path class="st14" d="M134.14,361.08c-.16.74-.16,1.55-.49,2.2-1.67,3.21-1.46,6.44-.23,9.68.23.6.7,1.32,1.24,1.56,1.71.76,2.11,2.07,2.01,3.74-.03.47.06.95.12,1.67.67-.03,1.29.04,1.84-.11,1.78-.49,3.55-1.03,5.3-1.61.51-.17,1.05-.46,1.42-.84.67-.68,1.43-.79,2.3-.69-1.51,1.22-2.9,2.63-4.55,3.61-3.4,2.04-6.9,3.92-10.42,5.74-6.93,3.58-13.74,7.37-20.27,11.67-.29.19-.61.31-.92.46.77-2.43,1.33-4.96,2.37-7.27,1.44-3.21,1.98-6.61,2.59-9.99.26-1.44.22-2.95-1.37-3.84-.27-.15-.54-.51-.6-.82-.24-1.35-1.24-1.3-2.23-1.3.47-.57.84-1.29,1.43-1.69,3-2.04,6.01-4.07,9.1-5.96,3.22-1.96,6.53-3.76,9.82-5.61.48-.27,1.03-.4,1.55-.59Z"/>
  <path class="st22" d="M468.56,328.73c2.76-.83,5.53-1.66,8.29-2.49.46-.14.93-.27,1.39-.41-.14.53-.24,1.07-.42,1.59-.46,1.38-.92,2.76-1.44,4.11-.24.63-.05.91.57,1-1.45.59-2.15,1.74-2.69,3.18-1.9,5.02-3.96,9.98-5.88,14.99-.53,1.38-1.33,2.09-2.78,2.46-7.22,1.82-14.42,3.75-21.63,5.63-.2.05-.42.03-.62.04-.21-1.7.8-3.06,1.3-4.56,1.15-3.48,2.68-6.84,2.53-10.68-.1-2.5-1.95-3.19-3.79-3.04-1.66.13-3.32.22-4.97.36-1.04.09-1.54-.46-1.74-1.39-.3-1.35-.59-2.7-.89-4.05,2.04-.41,4.07-.86,6.11-1.21,3.49-.6,6.99-1.16,10.49-1.71.48-.08.98-.03,1.46-.05-.74,2.18-1.58,4.33-2.2,6.53-.59,2.09-1.09,4.25.01,6.18,1.2.06,2.27-.15,3.06.21,1.27.58,2.17.31,2.97-.62.72-.83,1.59-1.04,2.63-.97.7.05,1.46.18,2.09-.03,1.08-.37,2.4-.72,3.07-1.53,2.43-2.98,4.28-6.34,5.34-10.08.37-1.31-.04-2.06-1.28-2.63-.38-.17-.66-.55-.99-.84Z"/>
  <path class="st18" d="M112.24,374.93c.99,0,1.99-.05,2.23,1.3.05.3.32.67.6.82,1.59.89,1.63,2.4,1.37,3.84-.61,3.39-1.15,6.78-2.59,9.99-1.04,2.31-1.59,4.84-2.37,7.27-3.66,2.57-6.11,6.28-8.96,9.62-1.43,1.68-2.82,3.41-4.62,4.98.73-4.91,1.46-9.83,2.22-15-1.14,1.05-2.1,1.93-3.07,2.82-.15-.34-.46-.71-.41-1.03.53-3.42,1.12-6.84,1.69-10.25.07-.41.06-.83.09-1.25.28-4,.53-8.01.88-12.01.05-.53.55-1.02.85-1.53,1.76-.47,2.63-1.97,3.67-3.24.69-.84,1.18-1.84,2.16-2.72-.05.69,0,1.41-.17,2.08-1.17,4.73-2.38,9.45-3.58,14.17-.11.44-.18.88.08,1.55.5-.53,1.04-1.03,1.5-1.59,2.26-2.74,4.49-5.5,6.77-8.23.49-.58,1.1-1.06,1.66-1.59Z"/>
  <path class="st4" d="M435.79,335.48c.3,1.35.6,2.7.89,4.05.21.94.7,1.48,1.74,1.39,1.66-.14,3.32-.23,4.97-.36,1.84-.15,3.69.54,3.79,3.04.15,3.84-1.38,7.2-2.53,10.68-.5,1.5-1.52,2.85-1.3,4.56-5.54,1.03-11.08,2.06-16.62,3.08-1.51.28-3.02.51-4.53.75-.58.09-1.17.14-1.1-.74.3-.31.74-.58.89-.95,1.23-3.09,2.44-6.19,3.58-9.32,1.9-5.21,3.75-10.44,5.62-15.66,1.53-.17,3.07-.34,4.6-.52Z"/>
  <path class="st8" d="M213.71,199.32c.33.41.85.77.97,1.23,1.38,5.25,2.7,10.52,4.03,15.78,1.74,6.89,3.5,13.77,5.21,20.66,1.48,5.94,2.9,11.9,4.34,17.86,1.55,6.43,3.07,12.86,4.64,19.28.84,3.45,1.76,6.88,2.62,10.33.15.6.18,1.23.26,1.85-2.4.04-3.28,1.14-2.79,3.5.01.07.05.13.07.19.5,1.28.13,2.4-.63,3.45-.55-2.35-1.08-4.71-1.64-7.06-1.62-6.78-3.23-13.55-4.87-20.33-1.9-7.86-3.8-15.72-5.74-23.56-2.35-9.47-4.74-18.93-7.1-28.39-.45-1.82-.82-3.66-1.22-5.49.62-3.1,1.25-6.2,1.87-9.3Z"/>
  <path class="st8" d="M306.88,284.17c-1.13.05-1.41.93-1.71,1.77-.25.69-.33,1.51-1.3,1.62-.35-1.26-.73-2.5-1.04-3.77-1.17-4.86-2.34-9.72-3.45-14.59-1.61-7.04-3.15-14.09-4.77-21.13-1.38-6.02-2.67-12.08-4.32-18.03-.96-3.47-2.57-6.76-3.87-10.14-.27-.71-.49-1.44-.73-2.16,1.03-4.18,2.07-8.36,3.1-12.54.53,1.64,1.14,3.26,1.56,4.92.48,1.88.75,3.82,1.19,5.71.68,2.92,1.48,5.8,2.14,8.72.92,4.07,1.72,8.17,2.65,12.24,1.01,4.41,2.15,8.79,3.18,13.2,1.14,4.88,2.23,9.77,3.35,14.65,1.13,4.95,2.41,9.87,3.33,14.86.28,1.52,1.2,3.01.68,4.66Z"/>
  <path class="st18" d="M498.81,317.44c3.53-1.77,7.06-3.53,10.59-5.3.67-.34,1.34-.68,2.02-1.02.54.98.55,1.99.16,3.03-.37.98-.75,1.95-1.04,2.95-.2.69-.26,1.41-.46,2.55,1.21-.33,2-.55,3.05-.84-.26,1.51-.46,2.86-.73,4.19-.53,2.52-1.92,4.59-3.48,6.59-.54.7-1.03,1.25-2,1.29-.43.02-1.03.27-1.22.61-.66,1.21-1.57,2.35-1.44,3.85-4.95,3.07-9.97,6-15.36,8.25-.57-1.52.44-2.72.94-3.95,2.27-5.6,4.71-11.14,7.02-16.73.74-1.78,1.3-3.64,1.94-5.47Z"/>
  <path class="st24" d="M190.39,277.92c.3-.9.69-1.78.87-2.7.28-1.46.64-1.78,1.88-1.09,1.66.93,3.11-.01,4.58-.43,1.3-.37,1.77-.45,2.28.82.38.96.85,1.38,1.84,1.25.5,1.65,1.09,3.28,1.49,4.95,1.02,4.18,2.14,8.35,2.85,12.59.39,2.36.32,4.88-.05,7.25-.65,4.18-5.39,5.73-9,3.52-.23-.14-.44-.33-.66-.5-1.51-6.31-3.03-12.62-4.53-18.94-.53-2.24-1.03-4.48-1.54-6.72Z"/>
  <path class="st22" d="M397.99,248.43c-.54-2.23-1.08-4.46-1.64-6.69-.1-.39-.28-.76-.42-1.13.28-.63.6-1.24.82-1.89,2.65-8.19,5.29-16.39,7.94-24.59.1-.32.3-.61.45-.92.55,2.35,1.12,4.7,1.65,7.06,1.08,4.82,2.15,9.64,3.19,14.47.58,2.72,1.06,5.46,1.64,8.18.65,3.06,1.38,6.11,2.04,9.17.19.88.22,1.79.33,2.69-.87-.37-1.84-.59-2.58-1.13-1.42-1.05-2.45-2.46-2.83-4.24-.26-1.19-.95-1.71-2.2-1.78-2.12-.12-4.29-.22-5.78-2.04-1.38.6-2.89.91-2.59,2.84Z"/>
  <path class="st8" d="M498.81,317.44c-.64,1.82-1.2,3.68-1.94,5.47-2.32,5.59-4.75,11.12-7.02,16.73-.5,1.23-1.51,2.43-.94,3.95,0,0-.05-.03-.05-.03-.18.1-.36.21-.54.32-.91,0-.75-.78-.92-1.28-1.23-3.62-2.43-7.25-3.66-10.86-.22-.63-.59-1.21-.89-1.82,1.37-3.4,2.73-6.81,4.12-10.21,1.07-2.63,2.22-5.23,3.26-7.88,1.09-2.77,2.08-5.57,3.11-8.36.9-.26.77.5.93.95,1.52,4.34,3.03,8.69,4.55,13.03Z"/>
  <path class="st22" d="M504.26,335.33c-.13-1.51.78-2.65,1.44-3.85.18-.33.79-.59,1.22-.61.97-.04,1.45-.6,2-1.29,1.56-2,2.95-4.07,3.48-6.59.28-1.33.47-2.67.73-4.19-1.05.29-1.84.51-3.05.84.2-1.13.26-1.86.46-2.55.29-1,.68-1.98,1.04-2.95.39-1.04.38-2.04-.16-3.03,1.73-1.01,3.4-2.15,5.2-3.02,4.52-2.2,8.77-4.81,12.7-7.93.26-.21.62-.29.93-.43-2.04,4.9-4.07,9.8-6.12,14.7-1.35,3.23-2.65,6.47-4.1,9.65-.48,1.04-1.17,2.12-2.05,2.83-4.21,3.38-8.7,6.33-13.71,8.42Z"/>
  <path class="st2" d="M136.6,211.98c-1.44-1.85-2.8-3.79-4.35-5.54-2.96-3.34-6.87-5.1-11.09-6.28-1.45-.4-2.89-.86-4.34-1.28.73-5.04,1.47-10.08,2.2-15.12,1.61,1.43,3.25,2.83,4.82,4.3,3.19,2.98,6.79,5.3,10.83,6.94.24.1.49.19.7.43-2.46-.36-4.89-.48-7.33-.22-.05.15-.11.29-.16.44,1.98,1.46,3.92,2.98,5.95,4.37,2.42,1.66,4.42,3.73,6.21,6.02-.83,1.67-1.64,3.36-2.52,5.01-.2.37-.62.62-.95.93Z"/>
  <path class="st24" d="M232.42,293.46c.77-1.05,1.14-2.17.63-3.45-.03-.06-.06-.13-.07-.19-.49-2.36.4-3.46,2.79-3.5.15.7.3,1.39.45,2.09-.23.18-.45.36-.68.53.35.25.7.49,1.05.74.95,3.84,1.83,7.69,2.86,11.5.64,2.4.62,4.81.52,7.24-.07,1.73-.31,3.45-.48,5.17-.25.29-.63.54-.72.87-.34,1.26-.54,2.56-.88,3.83-1.06,4-2.15,8-3.27,11.98-.18.64-.59,1.22-.89,1.83-.71-3.25-1.43-6.5-2.14-9.76.29-1.64.55-3.29.89-4.92.95-4.55.94-9.16.78-13.76-.12-3.4-.55-6.8-.84-10.19Z"/>
  <path class="st11" d="M493.33,303.46c-1.03,2.79-2.03,5.59-3.11,8.36-1.04,2.64-2.19,5.24-3.26,7.88-1.39,3.4-2.75,6.8-4.12,10.21-1.96.88-3.92,1.75-5.88,2.63-.62-.09-.81-.37-.57-1,.51-1.36.98-2.74,1.44-4.11.17-.52.28-1.06.42-1.59.45-.87.59-1.7.54-2.76-.2-4.04-.12-8.1-.16-12.16,0-.8.36-1.3,1.08-1.62,4.21-1.87,8.4-3.77,12.61-5.63.31-.14.68-.14,1.02-.21Z"/>
  <path class="st13" d="M205.15,367.81c.44-1.43,1.76-1.79,2.91-1.97,1.69-.26,2.72-1.31,3.77-2.42,3.41-3.6,5.56-7.93,7.13-12.56.82-2.42,1.42-4.92,2.06-7.4.49-1.9-.34-3.54-1.21-5.15.47-.4.9-.85,1.41-1.2,3.96-2.67,6.87-6.2,8.71-10.61.1-.25.27-.47.4-.7-.55,2.59-1.07,5.19-1.65,7.77-1.11,4.9-2.18,9.82-3.43,14.69-1.3,5.07-3.31,9.83-7.27,13.47-3.63,3.34-7.87,5.51-12.84,6.08Z"/>
  <path class="st18" d="M241.26,339.69c-.26,1.57-.48,3.14-.79,4.7-1.12,5.57-2.28,11.13-3.41,16.69-.29,1.42-.54,2.85-.8,4.27-.47.38-.93.76-1.76,1.44.72-3.75,1.57-7.02,1.94-10.35.38-3.38.3-6.82.08-10.37-.23.43-.46.85-.68,1.28-1.02,2.05-2.04,4.11-3.06,6.16-.21,0-.42,0-.62,0,.02-.41.03-.82.05-1.24.22-.31.57-.58.65-.92.86-3.56,1.68-7.13,2.51-10.7.61-2.63,1.09-5.3,1.86-7.88.53-1.77.28-3.76,1.51-5.33,1.51-2.76,3.01-5.53,4.71-8.64-.14,2.1-.26,3.87-.38,5.63-.02.28-.09.56-.08.83.28,4.51-.97,8.79-1.93,13.12-.09.4.13.87.2,1.3Z"/>
  <path class="st18" d="M87.48,288.7c-.23,2.35-.46,4.69-.68,7.04-.2,2.14-.38,4.28-.56,6.42-.21,2.4-.35,4.82-.65,7.21-.24,1.85-.68,3.68-1.03,5.51-.69.94-1.4,1.87-2.07,2.82-1.08,1.55-2.29,2.94-4.32,4.12.12-1.42.17-2.48.3-3.54.74-5.81,1.52-11.62,2.24-17.43.09-.74-.06-1.52-.18-2.27-.14-.89-.37-1.77-.56-2.65.19-.06.53-.1.55-.2.23-1.08,1.18-1.39,1.94-1.9,1.3-1.32,2.59-2.65,3.89-3.97.38-.39.75-.8,1.13-1.2Z"/>
  <path class="st14" d="M171.31,217.67c-1.63-5.74-3.27-11.49-4.89-17.23-.33-1.19-.61-2.39-.96-3.76,1.16-.41,2.12-.75,3.09-1.08,2.62-.89,4.91-2.29,6.75-4.39.23-.26.53-.45.79-.67-.68,3.98-1.33,7.95-2.04,11.93-.9,5.07-1.83,10.13-2.75,15.2Z"/>
  <path class="st21" d="M360.16,227.49c-1.11-1.68-2.21-3.36-3.34-5.03-2.79-4.15-6.54-7.2-10.85-9.64-.48-.27-.92-.6-1.38-.91.55-1.83,1.1-3.67,1.66-5.5.2.05.44.06.6.17,2.8,1.93,5.59,3.88,8.54,5.94-.41.9.35,1.59,1.12,2.32,3.54,3.31,6.14,7.31,8.87,11.83-1.05-.36-1.67-.62-2.3-.77-.58-.14-1.15-.1-1.19.72-.58.29-1.16.58-1.73.87Z"/>
  <path class="st14" d="M169.36,332.9c.66.46.47,1.06.3,1.68-.54,2.01-1.1,4.01-1.57,6.04-.2.86-.21,1.77-.31,2.66-.28.83-.66,1.64-.83,2.49-.76,3.77-1.44,7.55-2.18,11.33-.59,3-1.87,5.7-3.63,8.19-.24.34-.53.65-.82.95-.12.13-.31.2-.75.47.27-1.62.52-2.97.7-4.32.55-4.08.99-8.18,1.64-12.25.58-3.65,1.37-7.26,2.07-10.9.14,0,.29,0,.43-.01.29.05.73.24.85.12.63-.64,1.28-1.3,1.74-2.06.85-1.42,1.58-2.92,2.35-4.39Z"/>
  <path class="st21" d="M238.74,327.45c-1.23,1.56-.97,3.56-1.51,5.33-.78,2.58-1.25,5.25-1.86,7.88-.83,3.57-1.65,7.14-2.51,10.7-.08.34-.43.62-.65.92.42-4.85.85-9.7,1.24-14.56.15-1.87.2-3.75.29-5.63.3-.61.71-1.19.89-1.83,1.12-3.99,2.2-7.98,3.27-11.98.34-1.26.54-2.56.88-3.83.09-.33.47-.58.72-.87-.19,2.26-.36,4.53-.56,6.79-.18,1.99-.42,3.97-.57,5.96-.03.36.25.74.38,1.11Z"/>
  <path class="st3" d="M279.67,205.67c.01-.07.02-.14.04-.2.26-.89.17-2.05,1.38-2.32,1.24-.28,2.1.46,2.87,1.29,1.73,1.88,2.11,4.37,1.01,6.65-.83-.82-1.68-1.62-2.5-2.46-.95-.97-1.87-1.97-2.81-2.96Z"/>
  <path class="st21" d="M279.67,205.67c.93.99,1.86,1.99,2.81,2.96.82.84,1.66,1.64,2.5,2.46-.32,1.4-.64,2.81-.96,4.21-1.77-1.94-3.54-3.87-5.31-5.81.32-1.27.64-2.54.97-3.81Z"/>
  <path class="st15" d="M523.18,293.04c-1.1-1.06-2.22-2.12-3.31-3.2-.18-.17-.25-.45-.52-.95,2.01.3,3.79.67,5.5-.07-.56,1.4-1.12,2.81-1.68,4.21Z"/>
  <path class="st21" d="M232.16,353.51c.21,0,.42,0,.62,0-.16.25-.32.49-.72,1.12.06-.67.08-.89.1-1.12Z"/>
  <path class="st13" d="M204.37,368c.25-.06.51-.12.76-.18-.25.06-.51.12-.76.18Z"/>
  <path class="st18" d="M488.31,343.87c.18-.11.36-.21.54-.32-.18.11-.36.21-.54.32Z"/>
  <path class="st19" d="M213.13,308.57c2.13-2.69,3.14-5.9,4.02-9.11.37-1.36.34-2.96.05-4.36-1.18-5.71-2.46-11.4-3.84-17.07-3.12-12.83-6.25-25.66-9.52-38.46-2.62-10.24-5.45-20.42-8.17-30.63-.1-.39-.1-.8-.18-1.51.91-.04,1.71-.07,2.51-.1.28.63.54,1.27.84,1.88.39.81.97,1.57,1.19,2.43,2.43,9.21,4.86,18.42,7.2,27.66,2.53,9.97,5,19.96,7.41,29.96,1.89,7.83,3.71,15.68,5.44,23.55.41,1.88.51,3.86.46,5.79-.06,2.21-.5,4.4-.69,6.61-.19,2.28-.35,4.58-.41,6.87-.1,4.03-1.2,7.81-2.67,11.52-.53,1.33-.63,2.73.54,3.88-1.71,2-4.18,2.38-6.53,2.88-3.87.82-7.77.7-11.58-.38-3.77-1.07-6.9-3.06-9.45-6.18-3.76-4.58-6.66-9.63-9.25-14.9-2.16-4.4-3.73-9.03-4.98-13.75-2.68-10.17-5.34-20.34-7.92-30.53-1.27-5.03-2.9-9.9-5.66-14.34-.29-.47-.51-1.35-.26-1.72,1.47-2.25.6-4.44,0-6.63-2.32-8.68-4.62-17.36-7.04-26.01-.97-3.48-2.23-6.88-3.36-10.32-.09-.26-.17-.52-.31-.97,1.05.06,1.97.12,2.89.18.17.37.24.85.51,1.1,1.18,1.09,1.78,2.49,2.22,3.97.52,1.73,1.01,3.48,1.49,5.22,2.04,7.52,4.11,15.04,6.09,22.58.74,2.82,1.47,5.67,1.79,8.56.2,1.83.55,3.56,1.17,5.27.34.92.76,1.81,1.01,2.75,2.12,7.79,4.22,15.59,6.31,23.38,2,7.46,3.55,15.05,6.15,22.35,1.42,3.99,3.34,7.69,5.86,11.05,1.28,1.71,2.48,3.62,4.55,4.53,2.16.96,4.32,2.01,6.58,2.63,4.78,1.31,10.76-.88,13.79-4.78.55-.71,1.1-1.44,1.7-2.11.83-.93.93-1.82,0-2.73Z"/>
  <path class="st10" d="M136.6,211.98c.32-.31.75-.56.95-.93.87-1.65,1.68-3.33,2.52-5.01,1.68,1.55,2.17,3.71,2.75,5.76,1.74,6.08,3.37,12.2,5,18.31,1.36,5.1,2.64,10.22,4.05,15.68-1.52-.36-2.82-.69-4.12-.97-1.46-.31-1.69-.1-1.81,1.55-.99.12-1.1.93-1.33,1.66-.52,1.66-1,3.33-1.58,4.97-.13.38-.59.64-.9.95-.61-1.93-1.21-3.87-1.97-6.29-.37,2.42-.66,4.33-.95,6.25-1.37-.41-2.75-.83-4.41-1.33.76-1.05,1.37-1.93,2.03-2.78,3.91-4.97,5.73-10.61,5.24-16.93-.15-1.93-.51-3.86-1.01-5.73-1.31-4.89-2.38-9.87-4.37-14.55-.08-.19-.06-.41-.09-.62Z"/>
  <path class="st0" d="M213.13,308.57c.93.91.83,1.8,0,2.73-.6.67-1.15,1.4-1.7,2.11-3.03,3.9-9.01,6.09-13.79,4.78-2.27-.62-4.42-1.68-6.58-2.63-2.07-.92-3.27-2.82-4.55-4.53-2.52-3.37-4.44-7.07-5.86-11.05-2.6-7.3-4.15-14.89-6.15-22.35-2.09-7.8-4.19-15.59-6.31-23.38-.26-.94-.68-1.83-1.01-2.75-.62-1.7-.97-3.43-1.17-5.27-.32-2.88-1.05-5.74-1.79-8.56-1.98-7.54-4.05-15.06-6.09-22.58-.47-1.75-.97-3.49-1.49-5.22-.44-1.49-1.04-2.88-2.22-3.97-.27-.25-.35-.73-.51-1.1,1.01-.15,2.01-.3,3.15-.46.53,1.84,1.03,3.49,1.47,5.16,2.47,9.26,4.97,18.52,7.39,27.79,1.39,5.31,2.63,10.67,3.97,15.99,3.36,13.35,6.66,26.72,10.15,40.04,1.09,4.17,2.83,8.16,5,11.91.41.71,1.08,1.27,1.65,1.88.68.71,1.45,1.33,2.06,2.09,2.27,2.81,5.22,4.61,8.59,5.71,2.24.74,4.53.59,6.77-.18,2.94-1.02,5.62-2.45,7.62-4.94.39-.48.94-.82,1.41-1.23Z"/>
  <path class="st0" d="M217.33,327.48c-1.17-1.16-1.07-2.55-.54-3.88,1.47-3.71,2.57-7.49,2.67-11.52.06-2.29.21-4.58.41-6.87.19-2.21.63-4.4.69-6.61.05-1.93-.05-3.91-.46-5.79-1.73-7.87-3.55-15.72-5.44-23.55-2.41-10-4.89-19.99-7.41-29.96-2.34-9.23-4.77-18.45-7.2-27.66-.23-.85-.8-1.61-1.19-2.43-.3-.62-.56-1.26-.84-1.88,2.4.03,2.37-.5,3.2,2.28.95,3.2,1.73,6.45,2.55,9.68,2.62,10.38,5.26,20.76,7.84,31.15,2.33,9.38,4.62,18.76,6.88,28.15,1,4.19,1.94,8.39,2.77,12.62.51,2.58.68,5.22,1.16,7.81.74,4.03.4,8.08.35,12.12-.05,4.18-.87,8.29-2.35,12.21-.61,1.62-1.48,3.17-3.06,4.13Z"/>
  <path class="st11" d="M142.12,253.96c.31-.31.77-.58.9-.95.58-1.64,1.06-3.31,1.58-4.97.23-.73.34-1.54,1.33-1.66,3.06,3.29,6,6.67,8.33,10.53.45.74.61,1.66.9,2.5-1.13,1.01-1.42,2.38-1.73,3.78-.18.8-.07,1.84-1.22,2.11-1.72-2.79-3.58-5.47-6.12-7.56-1.21-.99-2.63-1.73-3.96-2.59,0-.39-.01-.79-.02-1.18Z"/>
  <path class="st17" d="M418.99,223.59c1.14-1.11,2.32-.67,3.75-.61,2.34,11.08,4.7,22.15,7.01,33.22,2.33,11.16,4.6,22.33,6.9,33.49,2.28,11.06,4.29,22.17,6.47,33.32-1.72.34-2.39-.38-2.66-1.48-.62-2.5-1.21-5-1.71-7.52-1.45-7.36-2.77-14.75-4.3-22.09-.72-3.45-2.26-6.56-4.86-9.1-2.51-2.44-5.49-3.18-8.84-2.73-1.17.16-2.31.49-3.47.69-.48.08-.99.12-1.46.02-2.85-.56-5.67-.7-8.45.35-.38.14-.83.08-1.24.13-1.35.18-2.43.64-3.3,1.89-.99,1.41-2.48,2.47-3.58,3.81-1.82,2.21-2.91,4.58-2.23,7.66,1.79,8.07,3.4,16.19,5.04,24.29.49,2.44.84,4.91,1.26,7.36-1.85.51-2.36.27-2.79-1.59-.74-3.18-1.42-6.38-2.09-9.58-1.05-5.03-2.06-10.08-3.1-15.11-.7-3.4-1.36-6.78-1.66-10.27-.49-5.61-1.91-11.07-3.58-16.48-1.39-4.51-2.37-9.15-3.44-13.76-1.59-6.84-3-13.72-4.67-20.54-.71-2.9-1.95-5.66-2.89-8.51-.37-1.11-.76-2.27-.81-3.43-.07-1.37-.56-2.4-1.51-3.32-.45-.44-.77-1.02-1.3-1.74,1.94-.55,3.54-.36,5.1-.24.36.03.88.68.97,1.12,1.6,7.33,3.12,14.68,4.69,22.02,1.17,5.44,2.32,10.88,3.59,16.29.65,2.77,1.33,5.56,2.34,8.21,1.29,3.4,3.87,5.72,7.15,7.26,1.56.73,3.18.87,4.88.89,3.76.04,7.53.23,11.29.4,2.98.13,5.4-1.13,7.56-3.02,1.36-1.19,2.7-2.42,4.03-3.65.25-.23.54-.51.63-.82.66-2.16,1.63-4.18,1-6.66-1.23-4.85-2.1-9.78-3.15-14.68-1.48-6.93-2.97-13.87-4.51-20.78-.24-1.07-.77-2.07-1.21-3.09-.24-.56-.56-1.08-.85-1.61Z"/>
  <path class="st7" d="M397.99,248.43c-.3-1.93,1.21-2.23,2.59-2.84,1.49,1.82,3.66,1.91,5.78,2.04,1.24.07,1.94.59,2.2,1.78.38,1.79,1.41,3.19,2.83,4.24.74.54,1.71.76,2.58,1.13.94,4.13,1.89,8.25,2.87,12.58-2.67,0-5.04.05-7.4-.02-2.02-.05-4.03-.25-6.05-.37-1.59-.09-1.76-.27-2.04-1.77-.71-3.76-1.45-7.52-2.2-11.27-.37-1.84-.78-3.67-1.17-5.51Z"/>
  <path class="st10" d="M386.65,319.07c-2.01.15-3.1,1.14-3.74,3.47-.22.8-.31,1.63-.54,2.42-.29.98-.75,1.82-2,1.69,1.16-3.2,1.45-6.52,1.22-9.89-.1-1.46-.21-2.92-.5-4.35-.85-4.15-1.8-8.29-2.69-12.43-.91-4.28-1.77-8.58-2.68-12.86-.59-2.79-1.27-5.55-1.86-8.34-.54-2.51-1-5.04-1.53-7.55-.3-1.43-.71-2.83-1.01-4.26-.14-.68-.16-1.38-.23-2.07,1.04-.11,1.48-.78,1.77-1.71.24-.77.52-1.6,1.55-1.67.28,1.14.58,2.28.82,3.43,2.72,12.87,5.41,25.75,8.15,38.62.97,4.56,2.08,9.09,3.1,13.64.14.61.11,1.25.16,1.87Z"/>
  <path class="st7" d="M468.56,328.73c.33.29.61.66.99.84,1.24.58,1.65,1.32,1.28,2.63-1.06,3.74-2.91,7.1-5.34,10.08-.66.81-1.98,1.16-3.07,1.53-.63.21-1.39.08-2.09.03-1.04-.07-1.9.14-2.63.97-.8.92-1.7,1.2-2.97.62-.8-.37-1.86-.15-3.06-.21-1.1-1.93-.6-4.09-.01-6.18.62-2.21,1.45-4.36,2.2-6.53,1.81-.48,3.61-.98,5.42-1.45,3.09-.79,6.19-1.55,9.29-2.33Z"/>
  <path class="st7" d="M374.4,261.5c-1.04.07-1.32.91-1.55,1.67-.29.93-.73,1.6-1.77,1.71-.97-4.06-1.98-8.1-2.89-12.17-1.68-7.56-3.54-15.05-6.84-22.11-.47-1-.8-2.07-1.19-3.11.58-.29,1.16-.58,1.73-.87,1.89,1.43,3.01,3.46,4.13,5.48,3.27,5.86,5.08,12.21,6.32,18.75.67,3.55,1.37,7.1,2.06,10.66Z"/>
  <path class="st22" d="M476.54,270.76c-.13-.47-.34-.93-.37-1.4-.31-4.02-.55-8.04-.9-12.06-.34-3.87-.82-7.73-1.17-11.61-.23-2.55-.36-5.11-.19-7.75.39,1.15.84,2.29,1.17,3.46,1.38,4.89,2.64,9.81,4.1,14.67,1.78,5.93,3.72,11.8,5.55,17.71.33,1.06.47,2.17.69,3.26-2.47-.79-4.75-1.9-5.82-4.45-.61-1.45-1.53-2.06-3.06-1.83Z"/>
  <path class="st17" d="M514.26,297.85c-3.27,1.97-5.75,1.5-7.67-1.41-1.37-2.08-3.15-3.95-3.66-6.51-.23-1.15-.19-2.37-.53-3.49-.83-2.72-1.75-5.42-2.74-8.08-2.18-5.88-4.45-11.73-6.63-17.6-.42-1.14-.62-2.36-.93-3.55.13-.05.26-.1.39-.15.19.29.42.56.55.87,1.56,3.65,3.04,7.34,4.68,10.96.98,2.16,2.17,4.22,3.33,6.29,1.4,2.49,2.86,4.95,4.32,7.41.46.78.89,1.61,1.5,2.26.89.95,1.21,1.89,1.34,3.28.23,2.5,1.58,4.7,3.38,6.56.95.99,1.79,2.1,2.69,3.17Z"/>
  <path class="st7" d="M476.54,270.76c1.52-.23,2.45.37,3.06,1.83,1.07,2.55,3.35,3.66,5.82,4.45.96,2.83,1.92,5.66,2.96,8.72-3,2.18-6.67,2.81-9.96,4.96-.78-3.6-.82-6.91-1.07-10.19-.25-3.26-.54-6.52-.81-9.77Z"/>
  <path class="st11" d="M422.01,293.84c-.45.42-.97.79-1.33,1.28-2.88,4.01-5.72,8.05-8.61,12.06-.4.55-1.01.95-1.52,1.41-.84-3.87-1.68-7.74-2.5-11.61-.31-1.48-.58-2.97-.88-4.56.69-.09,1.15-.2,1.62-.2,3.56,0,7.12.04,10.68.03,1.22,0,2.24.19,2.53,1.6Z"/>
  <path class="st11" d="M390.09,336.61c-1.09,1.86-2.29,3.64-3.98,5.03-.42.34-.86.76-1.35.9-1.82.49-3.07-.8-3-2.8.17-4.63,2.55-8.42,4.52-12.37.43-.87,1.25-.73,2.01-.74.6,3.32,1.2,6.65,1.8,9.97Z"/>
  <path class="st22" d="M447.54,229.59c1.3.36,1.53.6,1.15,1.8-.52,1.66-1.1,3.32-1.79,4.91-1.78,4.1-3.61,8.17-5.47,12.23-.42.92-.74,1.81-.43,2.82-.31.84-.61,1.69-.92,2.53-.44-1.94-.88-3.87-1.32-5.81.87,0,1.16-.64,1.45-1.29,2.16-4.73,4.33-9.45,6.46-14.19.25-.55.31-1.19.46-1.78.14-.41.28-.81.41-1.22Z"/>
  <path class="st9" d="M286.23,309.4c.31-.52.62-1.05.94-1.56.65-1.06,1.39-2.07,1.96-3.17,1.92-3.69,1.59-7.59.72-11.44-1.64-7.26-3.44-14.48-5.12-21.73-1.65-7.11-3.02-14.3-4.97-21.33-.96-3.43-1.48-6.92-2.38-10.35-.88-3.36-1.55-6.79-2.58-10.11-.96-3.13-2.08-6.23-3.48-9.19-.78-1.65-2.25-2.98-3.43-4.44-.45-.56-.94-1.07-1.69-1.92,1.86-.08,2.89.72,3.92,1.32,2.56,1.5,4.56,3.43,5.99,6.21,1.57,3.05,3.15,6.03,3.95,9.38,1.21,5.07,2.43,10.14,3.63,15.22.85,3.58,1.69,7.17,2.5,10.76,1.03,4.54,2,9.09,3.04,13.62,1.44,6.23,2.98,12.43,4.37,18.67,1.24,5.56,2.45,11.12,3.44,16.73.74,4.19.87,8.43-.29,12.63-.73,2.64-1.91,4.46-5.11,4.58-1.73.07-3.46.24-5.19.39-1.04.09-2.07.24-3.1.33-.62.05-1.28.16-1.88.05-3.12-.59-6.21-.31-9.35-.07-3.11.24-6.26-.14-9.39-.22-1.04-.03-2.09,0-3.13.05-1.25.06-2.49.28-3.74.26-1.59-.03-1.93-.44-1.97-2.03-.02-.7-.09-1.41.01-2.1.34-2.26-.6-4.24-1.32-6.27-.13-.38-.38-.79-.7-1.01-1.59-1.13-1.69-2.81-1.25-4.34.65-2.23.06-4.35-.35-6.38-1.22-5.99-2.77-11.92-4.21-17.87-3.17-13.05-6.34-26.1-9.53-39.15-2.78-11.36-5.61-22.7-8.4-34.06-.13-.51-.18-1.04-.29-1.66,1-.22,1.79-.48,2.52.2.58.66,1.13,1.36,1.76,1.96,1.39,1.32,1.87,2.86,1.42,4.74-.14.57-.11,1.24.03,1.82.97,4.27,1.98,8.53,3,12.79,2.4,10.01,4.83,20.02,7.24,30.02,2.51,10.41,5.04,20.82,7.52,31.24.9,3.79,1.86,7.57,2.5,11.4.58,3.44,1.38,6.58,4.05,9.12,2.34,2.24,4.89,3.98,8.09,4.42,2.54.35,5.14.27,7.7.47,3.19.25,6.06-.71,8.82-2.14,2.37-1.23,3.52-3.25,3.73-5.86Z"/>
  <path class="st8" d="M262.27,225.39c1.1,3.36,2.35,6.68,3.26,10.1,1.2,4.51,2.12,9.09,3.18,13.63,2.58,10.98,5.17,21.96,7.77,32.93.94,4,1.96,7.98,2.82,11.99.36,1.69.46,3.45.58,5.18.23,3.21-1.41,5.06-4.63,5.11-1.87.03-3.75-.22-5.62-.33-.49-.03-.98-.04-1.47-.06-.04-.35-.05-.7-.13-1.04-2.1-9.11-4.16-18.24-6.33-27.34-1.8-7.53-3.22-15.17-5.94-22.45.16-.75.32-1.5.48-2.25,1.6-7.19,3.15-14.4,4.86-21.57.31-1.3-.12-2.88,1.15-3.91Z"/>
  <path class="st18" d="M262.27,225.39c-1.27,1.03-.84,2.6-1.15,3.91-1.71,7.17-3.26,14.37-4.86,21.57-.17.75-.32,1.5-.48,2.25-.78-.87-1.55-1.74-2.33-2.61-2.67-10.78-5.39-21.55-7.88-32.57,4.75.56,9.16,1.1,13.13,3.34,1.67.94,3.15,2.08,3.58,4.12Z"/>
  <path class="st0" d="M286.23,309.4c-.21,2.61-1.37,4.64-3.73,5.86-2.76,1.43-5.63,2.39-8.82,2.14-2.56-.2-5.16-.12-7.7-.47-3.2-.44-5.74-2.19-8.09-4.42-2.67-2.54-3.47-5.69-4.05-9.12-.64-3.83-1.6-7.62-2.5-11.4-2.48-10.42-5.01-20.83-7.52-31.24-2.41-10.01-4.84-20.01-7.24-30.02-1.02-4.26-2.03-8.52-3-12.79-.13-.58-.16-1.24-.03-1.82.45-1.88-.03-3.42-1.42-4.74-.63-.6-1.18-1.3-1.76-1.96,2.98.16,5.96.31,9,.47.14,1.06-.7,1.39-1.13,1.95-.67.87-1.44,1.68-2.02,2.61-1.29,2.08-1.15,4.25-.54,6.59,1.91,7.34,3.67,14.71,5.42,22.09,2.44,10.28,4.8,20.58,7.23,30.86,2.22,9.41,4.58,18.78,6.7,28.21.98,4.35,3.47,7.57,6.79,10.2,1.67,1.32,3.74,2.09,6.02,2.09,1.73,0,3.47.21,5.19.4,2.91.33,5.51-.6,8.04-1.84,1.49-.73,3.11-1.29,3.94-2.95.17-.34.8-.46,1.22-.68Z"/>
  <path class="st8" d="M236.59,289.68c-.35-.25-.7-.49-1.05-.74.23-.18.45-.36.68-.53.12.43.25.85.37,1.28Z"/>
  <path class="st20" d="M145.91,342.6c-1.75,1.23-3.41,2.64-5.28,3.65-4.98,2.69-10.08,5.15-15.08,7.81-2.89,1.54-5.66,3.31-8.48,4.97-.47.28-.97.51-1.58.84-1.32-1.32-2.62-2.58-3.86-3.9-.31-.33-.53-.84-.57-1.29-.19-2.29-.22-4.59-.47-6.87-.4-3.79-.78-7.6-1.43-11.36-1.09-6.29-2.35-12.55-3.6-18.82-.97-4.91-1.99-9.8-3.06-14.69-1.03-4.68-2.08-9.36-3.25-14.01-.49-1.95-1.26-3.84-1.99-5.72-.22-.56-.64-1.12-1.13-1.48-1.71-1.24-1.84-3.01-1.36-4.7.74-2.6.4-5.01-.31-7.53-2.1-7.51-4.09-15.04-6.11-22.57-2.85-10.62-5.69-21.24-8.56-31.86-.54-2.01-.37-2.32,1.82-2.7.9,1.83,2.91,2.83,4.98,2.3,1.08-.28,1.88-.14,2.62.81-.25.53-.39,1.11-.74,1.5-2.41,2.75-2.19,5.91-1.36,9.1,1.14,4.38,2.44,8.71,3.65,13.08,1.33,4.82,2.54,9.68,3.98,14.48,1.37,4.57,4.54,7.61,8.89,9.41,1.78.74,3.65.9,5.52.25,3.82-1.33,7.08-3.57,10.01-6.32,1.23-1.16,1.65-1.15,2.71.08.32.37.59.78.82,1.21.72,1.34,1.78,2.35,3.1,3.03,2.41,1.25,4.83,2.5,7.32,3.57,3.64,1.58,6.6,3.78,8.36,7.48,2.37,5.01,3.93,10.28,5.27,15.63,1.14,4.59,2.2,9.2,3.3,13.79.91,3.8,1.45,7.65,1.31,11.57-.03.9-.4,1.79-.37,2.68.1,3.91-.23,7.8-.9,11.64-.59,3.43-1.41,6.83-3.4,9.81-1.06,1.58-1.52,3.28-.76,5.14ZM109.36,270.34c-1.21-1.07-1.42-1.09-2.43-.29-.66.52-1.36.99-1.96,1.56-2.75,2.62-4.21,5.7-3.18,9.57.54,2.02,1.19,4.01,1.68,6.04,1.7,6.96,3.35,13.94,5.04,20.9,1.4,5.75,2.76,11.51,4.3,17.22.65,2.41,1.49,4.81,3.36,6.65,1.15,1.13,2.23,2.33,3.43,3.4,1.77,1.57,3.83,2.57,6.24,2.58,3.94.02,7.15-1.83,9.88-4.39,2.17-2.04,3.97-4.47,5.95-6.72.69-.78.43-1.55.02-2.32,2.42-2.8,3.65-6.22,5.02-9.57,1.04-2.55,1.22-5.22.68-7.81-1.36-6.53-2.75-13.06-4.56-19.47-1.98-7.01-4.55-13.83-10.59-18.59-.05-.04-.09-.11-.15-.15-.8-.55-1.54-1.22-2.41-1.62-1.46-.66-2.96-1.25-4.5-1.66-1.12-.29-2.4-.53-3.49-.27-4.35,1.04-8.54,2.54-12.35,4.95Z"/>
  <path class="st0" d="M145.91,342.6c-.76-1.86-.29-3.56.76-5.14,1.99-2.97,2.81-6.37,3.4-9.81.66-3.84,1-7.73.9-11.64-.02-.89.34-1.78.37-2.68.13-3.92-.4-7.77-1.31-11.57-1.1-4.6-2.15-9.21-3.3-13.79-1.33-5.35-2.89-10.62-5.27-15.63-1.75-3.71-4.72-5.91-8.36-7.48-2.49-1.08-4.91-2.33-7.32-3.57-1.32-.68-2.38-1.7-3.1-3.03-.23-.43-.51-.84-.82-1.21-1.06-1.23-1.49-1.23-2.71-.08-2.93,2.75-6.18,4.99-10.01,6.32-1.87.65-3.74.49-5.52-.25-4.35-1.81-7.51-4.84-8.89-9.41-1.44-4.79-2.65-9.65-3.98-14.48-1.21-4.36-2.51-8.7-3.65-13.08-.83-3.18-1.05-6.35,1.36-9.1.35-.4.49-.98.74-1.5-.74-.95-1.54-1.08-2.62-.81-2.07.53-4.08-.47-4.98-2.3,2.39-.36,4.78-.73,7.18-1.06,2.74-.37,5.49-.69,8.23-1.05.75-.1,1.49-.27,2.24-.41-.41.4-.77.89-1.25,1.18-.64.38-1.38.59-2.06.91-.88.42-1.41,1.07-1.31,2.11-1.1,1.17-2.31,2.24-3.26,3.52-1.62,2.18-2.87,4.45-2.01,7.45,2.4,8.35,4.59,16.76,6.99,25.11.53,1.83,1.43,3.62,2.48,5.22.82,1.26,2.03,2.32,3.23,3.27,2.22,1.78,4.62,2.69,7.51,1.35,3.2-1.48,6.03-3.44,8.6-5.81,2-1.84,3.92-3.77,5.88-5.66.42,0,.84,0,1.26,0-.07.27-.1.55-.21.81-.52,1.26-1.62,2.45-1.18,3.88.61,1.98,1.36,3.85,2.86,5.49,2.65,2.9,5.84,4.35,9.61,5,2.17.37,3.92,1.51,5.28,3.42,2.76,3.85,3.95,8.26,5.04,12.74,1.48,6.08,3.02,12.14,4.41,18.24,1.11,4.87,2.28,9.75,2.35,14.8.03,2.29.47,4.59.35,6.87-.26,5.07-.75,10.12-2.44,14.97-1.05,3.02-2.86,5.55-5.09,7.8-.08.08-.27.07-.4.1Z"/>
  <path class="st20" d="M94.65,214.04c-.1-1.04.43-1.7,1.31-2.11.68-.32,1.42-.52,2.06-.91.48-.29.83-.78,1.25-1.18,3.44-.28,6.87-.71,10.32-.78,1.88-.04,3.77.5,5.65.78,0,.76.62.83,1.14,1,3,.96,5.46,2.75,7.59,5.03.41.44.72,1,.98,1.55,2.07,4.29,3.35,8.87,4.33,13.49.79,3.72,1.42,7.54-.09,11.3-.15.37-.06.83-.08,1.25-.76,1.11-1.5,2.25-2.3,3.33-.44.61-.98,1.14-1.48,1.71-.42,0-.84,0-1.26,0,.78-1.71,1.64-3.39,2.32-5.14.57-1.47.95-2.97.7-4.64-.7-4.69-1.95-9.24-3.49-13.7-2.21-6.39-6.18-11.04-12.81-13.28-2.44-.82-4.79-.72-7.19-.43-3.12.39-6.06,1.49-8.94,2.74Z"/>
  <path class="st0" d="M129.1,243.45c.02-.42-.06-.88.08-1.25,1.51-3.76.88-7.58.09-11.3-.98-4.63-2.26-9.2-4.33-13.49-.27-.55-.57-1.11-.98-1.55-2.12-2.28-4.58-4.06-7.59-5.03-.52-.17-1.14-.23-1.14-1,3.33,0,6.49.65,9.29,2.55,1.62,1.09,2.72,2.61,3.2,4.49,1.28,4.97,2.63,9.92,3.67,14.94.68,3.3.36,6.66-1,9.81-.29.67-.86,1.22-1.3,1.82Z"/>
  <path class="st6" d="M142.12,253.96c0,.39.01.79.02,1.18-.98-.41-1.95-.82-2.93-1.23.29-1.91.58-3.82.95-6.25.76,2.42,1.36,4.36,1.97,6.29Z"/>
  <path class="st18" d="M106.28,366.88v.64c-.05,0-.11,0-.16,0v-.64c.05,0,.11,0,.16,0Z"/>
  <path class="st16" d="M370.25,324.12c-.4,1.8-2.06,1.61-3.3,2.05-.44.16-.97.05-1.46.04-2.65-.06-5.3-.05-7.88.76-.52.16-1.11.08-1.67.08-2.59,0-5.18.05-7.77,0-3.76-.09-7.53-.21-11.28-.45-1.15-.07-2.27-.61-3.42-.81-1.23-.21-2.48-.36-3.72-.39-3.2-.08-3.88-.66-4.49-3.73-.21-1.08-.64-2.14-1.11-3.14-.92-1.98-1.37-3.87-.28-6,1.16-2.25.56-4.67.05-6.97-2.31-10.31-4.67-20.61-7.03-30.91-2.34-10.23-4.75-20.45-7.05-30.69-1.63-7.25-3.08-14.55-4.75-21.8-.45-1.93-1.42-3.75-2.26-5.88.54-1.06,1.81-.55,2.81-.49,2.91.18,5.81.47,8.71.8,3.17.36,6.32,1,9.5,1.17,4.84.25,9.46,1.53,14.13,2.61.4.09.79.27,1.18.41.35.39.63.89,1.06,1.14,3.73,2.21,6.83,5.14,9.01,8.83,1.58,2.68,2.83,5.61,3.8,8.57,1.18,3.62,1.94,7.38,2.81,11.1,1.6,6.83,3.17,13.66,4.7,20.5,1.18,5.28,2.29,10.58,3.42,15.88,1.12,5.29,2.07,10.63,3.39,15.87,1.24,4.94,1.27,9.91,1.23,14.93,0,1.05-.07,2.1.02,3.14.11,1.32.26,2.67,1.67,3.38ZM365.71,308.66c-.08-1.11.07-2.3-.29-3.32-1.4-3.97-1.66-8.17-2.66-12.22-1.84-7.49-3.36-15.06-4.99-22.6-1.18-5.43-2.22-10.9-3.54-16.3-1.38-5.67-2.49-11.4-4.49-16.94-1.8-4.98-5.15-8.55-8.84-11.99-.45-.42-1-.81-1.57-1.02-2.94-1.08-5.87-2.23-8.88-3.08-2.05-.58-4.25-.63-6.35-1.06-1.85-.38-3.56-.17-5.32.51-2.05.79-3.53,2.26-4.92,3.82-2.12,2.4-3.66,4.96-2.54,8.45.72,2.24.99,4.62,1.5,6.93,1.82,8.28,3.64,16.57,5.48,24.84,2.18,9.77,4.4,19.53,6.59,29.3,1.4,6.24,2.7,12.51,4.22,18.72.68,2.76,1.65,5.48,4.07,7.35.55.42,1.02.96,1.49,1.48,1,1.1,2.11,2.01,3.61,2.38,1.75.43,3.46,1.26,5.21,1.33,2.19.09,4.34.49,6.61.24,5.3-.58,8.74-3.97,12.32-7.27,1.37-3.08,3.44-5.93,3.27-9.56Z"/>
  <path class="st0" d="M370.25,324.12c-1.4-.71-1.55-2.06-1.67-3.38-.09-1.04-.03-2.1-.02-3.14.04-5.01.01-9.99-1.23-14.93-1.32-5.24-2.26-10.58-3.39-15.87-1.13-5.3-2.24-10.59-3.42-15.88-1.53-6.84-3.1-13.68-4.7-20.5-.87-3.72-1.63-7.48-2.81-11.1-.96-2.96-2.21-5.9-3.8-8.57-2.18-3.69-5.28-6.63-9.01-8.83-.43-.25-.71-.76-1.06-1.14,4.71,1.39,8.15,4.32,10.59,8.56,3.55,6.18,5.58,12.87,7.09,19.77,1.16,5.29,2.38,10.58,3.57,15.86.61,2.71,1.25,5.42,1.83,8.14.99,4.61,1.96,9.22,2.93,13.83.88,4.15,1.77,8.29,2.62,12.44,1.1,5.37,2.4,10.72,3.16,16.14.39,2.81.74,5.84-.7,8.6Z"/>
  <path class="st3" d="M378.99,329.17c-1.71,2.12-3.63,3.96-5.95,5.46-3.18,2.06-6.73,2.55-10.35,2.92-.83.09-1.67.1-2.51.15-4.18.08-8.36.29-12.54.21-3.61-.07-7.22-.47-10.83-.7-.48-.03-.97.05-1.46.08-4.46-.18-8.93-.71-13.36-.44-3.27.2-6.49,1.42-9.72,2.21-.47.11-.89.42-1.36.52-.56.12-.72-.25-.68-.75.14-.03.32,0,.4-.09,2.5-2.3,5.81-2.45,8.86-3.25,2.1-.55,4.25-.75,6.4-.09.39.12.83.05,1.25.06,5.23.14,10.48.01,15.68.5,5.17.49,10.33.39,15.48.26,3.64-.09,7.37-.19,10.9-1.47,2.73-.99,5.16-2.44,7.24-4.46.74-.72,1.44-1.32,2.55-1.12Z"/>
  <path class="st5" d="M449.05,229.37c-.54-.49-.84-.63-.91-.84-.96-2.91-2.9-5.19-4.74-7.54-.55-.71-1.08-1.46-1.46-2.27-.51-1.08-.26-2.11.48-2.64.89-.63,1.61-.07,2.27.4,3.71,2.65,5.33,6.28,4.94,10.8-.05.59-.32,1.16-.59,2.1Z"/>
  <path class="st5" d="M447.54,229.59c-.14.41-.28.81-.41,1.22-2.93-.38-4.65-2.62-3.61-4.84,2.25.19,3.15,1.88,4.03,3.62Z"/>
  <path class="st1" d="M169.36,332.9c-.78,1.47-1.5,2.97-2.35,4.39-.46.76-1.11,1.42-1.74,2.06-.12.12-.56-.07-.85-.12.55-2.92,1.18-5.82,1.62-8.76.4-2.74.58-5.5.88-8.26.15-1.38,1.24-1.9,2.34-1.06.45.34.84.98.93,1.53.44,2.67.66,5.35-.25,8-.25.72-.39,1.47-.59,2.21Z"/>
  <path class="st12" d="M109.36,270.34c3.81-2.41,8.01-3.91,12.35-4.95,1.09-.26,2.37-.02,3.49.27,1.54.4,3.05,1,4.5,1.66.87.39,1.61,1.07,2.41,1.62.06.04.1.1.15.15,6.04,4.76,8.61,11.58,10.59,18.59,1.81,6.41,3.19,12.95,4.56,19.47.54,2.59.36,5.26-.68,7.81-1.37,3.36-2.6,6.77-5.02,9.57-1.46,1.4-2.88,2.85-4.41,4.17-2.58,2.22-5.21,4.31-8.43,5.71-3.11,1.36-5.38.24-7.61-1.58-1.08-.88-2.02-1.93-2.97-2.96-.47-.5-.97-1.07-1.18-1.7-.96-2.76-1.95-5.52-2.69-8.34-1.56-5.99-2.94-12.03-4.46-18.03-1.76-6.95-3.62-13.87-5.34-20.83-.27-1.1-.32-2.39-.03-3.47.59-2.23,1.61-4.29,3.54-5.76.49-.37.83-.93,1.23-1.41ZM121.14,304.42c1.68,6.75,3.36,13.49,5.15,20.68,1.34-1.06,2.35-1.86,3.36-2.67,6.04-4.03,8.14-8.94,6.88-15.69-.91-4.92-2.11-9.79-3.24-14.67-1.03-4.42-2.23-8.79-4.7-12.67-.38-.6-1.02-1.04-1.53-1.56-.8-1.24-2-1.58-3.4-1.69-2.69-.2-5.06.82-7.45,1.78-1.46.58-1.61.84-1.23,2.36.63,2.5,1.31,4.98,1.96,7.47,1.41,5.38,2.81,10.77,4.22,16.15,0,.17,0,.33-.01.5Z"/>
  <path class="st0" d="M109.36,270.34c-.41.48-.75,1.04-1.23,1.41-1.93,1.47-2.95,3.53-3.54,5.76-.29,1.09-.24,2.37.03,3.47,1.73,6.96,3.59,13.88,5.34,20.83,1.52,6,2.89,12.04,4.46,18.03.74,2.82,1.73,5.58,2.69,8.34.22.63.72,1.19,1.18,1.7.95,1.03,1.89,2.08,2.97,2.96,2.23,1.82,4.5,2.94,7.61,1.58,3.21-1.4,5.84-3.49,8.43-5.71,1.53-1.32,2.94-2.78,4.41-4.17.4.78.67,1.54-.02,2.32-1.98,2.25-3.78,4.68-5.95,6.72-2.73,2.56-5.95,4.41-9.88,4.39-2.41,0-4.47-1.02-6.24-2.58-1.2-1.07-2.28-2.27-3.43-3.4-1.87-1.84-2.71-4.24-3.36-6.65-1.54-5.71-2.9-11.47-4.3-17.22-1.7-6.96-3.34-13.94-5.04-20.9-.5-2.03-1.15-4.02-1.68-6.04-1.03-3.88.43-6.95,3.18-9.57.6-.57,1.3-1.04,1.96-1.56,1.01-.8,1.22-.77,2.43.29Z"/>
  <path class="st12" d="M94.65,214.04c2.88-1.25,5.82-2.35,8.94-2.74,2.39-.3,4.75-.4,7.19.43,6.63,2.24,10.6,6.9,12.81,13.28,1.54,4.46,2.8,9.01,3.49,13.7.25,1.67-.13,3.17-.7,4.64-.68,1.75-1.54,3.43-2.32,5.14-1.96,1.89-3.88,3.81-5.88,5.66-2.57,2.37-5.4,4.33-8.6,5.81-2.89,1.34-5.29.43-7.51-1.35-1.19-.96-2.41-2.01-3.23-3.27-1.04-1.6-1.95-3.39-2.48-5.22-2.4-8.35-4.58-16.76-6.99-25.11-.86-3,.38-5.26,2.01-7.45.95-1.28,2.16-2.35,3.26-3.52ZM104.34,240.5c.86,3.19,1.71,6.38,2.67,9.96,2.52-1.83,4.82-3.27,6.84-5.04,2.22-1.95,3.18-4.46,2.33-7.53-.9-3.28-1.52-6.64-2.43-9.91-.38-1.36-.49-2.93-1.85-3.85-.83-1.82-2.52-2.32-4.24-2.46-2.74-.23-5.32.63-8.16,1.49,1.64,5.89,3.24,11.62,4.85,17.36Z"/>
  <path class="st1" d="M365.71,308.66c.18,3.63-1.89,6.48-3.27,9.56-3.59,3.29-7.02,6.68-12.32,7.27-2.27.25-4.42-.15-6.61-.24-1.75-.07-3.47-.91-5.21-1.33-1.5-.37-2.61-1.28-3.61-2.38-.47-.52-.94-1.05-1.49-1.48-2.42-1.87-3.4-4.59-4.07-7.35-1.52-6.21-2.82-12.48-4.22-18.72-2.19-9.77-4.41-19.53-6.59-29.3-1.85-8.28-3.66-16.56-5.48-24.84-.51-2.31-.78-4.69-1.5-6.93-1.11-3.49.42-6.05,2.54-8.45,1.38-1.57,2.87-3.03,4.92-3.82,1.75-.68,3.46-.89,5.32-.51,2.1.43,4.3.48,6.35,1.06,3.01.85,5.94,2,8.88,3.08.57.21,1.12.6,1.57,1.02,3.7,3.44,7.05,7.01,8.84,11.99,2,5.54,3.11,11.27,4.49,16.94,1.31,5.4,2.36,10.87,3.54,16.3,1.64,7.54,3.16,15.11,4.99,22.6.99,4.05,1.26,8.25,2.66,12.22.36,1.01.2,2.21.29,3.32ZM329.08,264.92c.12.83.19,1.66.37,2.48,2.44,10.97,4.9,21.94,7.36,32.9.9,4.02,1.82,8.03,2.71,12.06.22,1,.5,1.92,1.73,2.05,2.01.19,4.02.48,6.03.55,1.5.05,3.03-.08,4.5-.35,1.15-.21,2.05-1,2.16-2.28.12-1.37.31-2.78.12-4.12-.31-2.2-.92-4.36-1.39-6.54-1.82-8.37-3.64-16.74-5.46-25.11-1.02-4.7-2.01-9.4-3.06-14.09-1.36-6.12-2.69-12.24-4.2-18.33-.53-2.13-.96-4.38-2.46-6.16-.47-1.45-1.37-2.56-2.63-3.4-4.02-2.67-8.62-3.24-13.47-3.93.58,2.66,1.09,5.03,1.61,7.4,1.48,6.67,2.94,13.33,4.45,19.99.49,2.15,1.1,4.27,1.66,6.4-.02.16-.03.32-.05.48Z"/>
  <path class="st8" d="M127.05,277.85c.52.51,1.15.96,1.53,1.56,2.48,3.88,3.68,8.25,4.7,12.67,1.13,4.88,2.33,9.75,3.24,14.67,1.25,6.76-.84,11.66-6.88,15.69-.34-1.34-.71-2.68-1.02-4.03-.89-3.87-2.15-7.6-4.19-11.03-.79-1.33-1.68-2.56-3.3-2.95,0-.17,0-.33.01-.5.5-.22,1-.45,1.57-.7.24-1.3.49-2.59.7-3.89.78-4.93,1.52-9.86,2.33-14.78.37-2.25.86-4.48,1.29-6.71Z"/>
  <path class="st11" d="M127.05,277.85c-.43,2.24-.92,4.46-1.29,6.71-.81,4.92-1.55,9.85-2.33,14.78-.21,1.3-.46,2.58-.7,3.89-.56.25-1.07.47-1.57.7-1.41-5.38-2.81-10.77-4.22-16.15-.65-2.49-1.33-4.97-1.96-7.47-.38-1.52-.23-1.78,1.23-2.36,2.39-.95,4.76-1.98,7.45-1.78,1.4.11,2.6.44,3.4,1.69Z"/>
  <path class="st8" d="M111.89,224.12c1.36.92,1.48,2.5,1.85,3.85.91,3.28,1.52,6.64,2.43,9.91.84,3.07-.11,5.58-2.33,7.53-2.01,1.77-4.32,3.21-6.84,5.04-.96-3.58-1.81-6.77-2.67-9.96,1.38-.39,2.18-1.32,2.6-2.67,1.23-3.89,2.46-7.78,3.76-11.64.25-.74.79-1.38,1.2-2.07Z"/>
  <path class="st7" d="M111.89,224.12c-.41.69-.95,1.33-1.2,2.07-1.3,3.87-2.53,7.75-3.76,11.64-.43,1.35-1.22,2.28-2.6,2.67-1.6-5.73-3.2-11.47-4.85-17.36,2.84-.86,5.42-1.72,8.16-1.49,1.72.15,3.41.64,4.24,2.46Z"/>
  <path class="st8" d="M337.5,237.98c1.49,1.78,1.93,4.03,2.46,6.16,1.5,6.08,2.83,12.21,4.2,18.33,1.05,4.69,2.04,9.39,3.06,14.09,1.82,8.37,3.64,16.74,5.46,25.11.47,2.18,1.08,4.34,1.39,6.54.19,1.34,0,2.75-.12,4.12-.11,1.28-1.01,2.07-2.16,2.28-1.47.27-3,.4-4.5.35-2.01-.06-4.02-.35-6.03-.55-.07-.55-.1-1.11-.22-1.65-2.33-10.75-4.64-21.51-7.02-32.26-.89-4.01-1.89-8-3-11.95-.37-1.29-1.27-2.43-1.93-3.64.02-.16.03-.32.05-.48.39-.32,1.03-.57,1.14-.98,1.33-4.59,2.62-9.19,3.86-13.81.89-3.34,1.67-6.71,2.54-10.06.15-.57.55-1.08.84-1.61Z"/>
  <path class="st11" d="M337.5,237.98c-.28.54-.69,1.04-.84,1.61-.88,3.35-1.65,6.72-2.54,10.06-1.23,4.62-2.52,9.22-3.86,13.81-.12.4-.75.66-1.14.98-.56-2.13-1.17-4.25-1.66-6.4-1.51-6.66-2.97-13.33-4.45-19.99-.52-2.37-1.03-4.74-1.61-7.4,4.85.69,9.45,1.26,13.47,3.93,1.26.84,2.16,1.95,2.63,3.4Z"/>
</svg>