<?xml version="1.0" encoding="UTF-8"?>
<svg id="Calque_1" xmlns="http://www.w3.org/2000/svg" version="1.1" viewBox="0 0 595.28 595.28">
  <!-- Generator: Adobe Illustrator 29.1.0, SVG Export Plug-In . SVG Version: 2.1.0 Build 142)  -->
  <defs>
    <style>
      .st0 {
        fill-rule: evenodd;
      }

      .st1 {
        fill: #245c29;
      }
    </style>
  </defs>
  <path class="st0" d="M436.62,381.89c1.64-.02,17-.54,15.64-4.49-.61-1.75-18.32-3.12-21.07-3.54-5.71-.86-11.34-2.01-16.78-3.95-1.36-.49-7.3-2.07-7.66-3.94-.07-.41,12.4-.21,13.34-.22,1.12,0,12.22-1.5,11.26-2.13-3.37-2.23-10.46-1.67-14.29-2.09-10.2-1.11-20.39-2.45-30.41-4.67-7.65-1.7-14.82-4.37-21.71-7.64v-.09c-12.78-7.12-33.8-25.2-44.6-32.03-.25-.16-.34-.48-.21-.75,1.04-2.04,4.69-6.48,6.85-7.09,3.97-1.1,8.46-.59,12.58-2.06,5.52-1.99,1.84-3.75,10.08-4.41,5.6-.47,6.51-.6,9.31,1.3l.07.04.84.42c.38.19.85-.02.95-.44,3.03-12.79-11.16-10.99-17.57-16.18-7.36-5.96-17.51-6.33-27.73-3.46-6.68,1.89-7.48,3.63-13.79.92-.17-.07-.3-.2-.37-.37-17.45-41.4-65.76-82.9-81.25-135.47-2.74-9.35-2.12-26.57-5.02-35.07-.17-.5-.86-.52-1.07-.04-1.62,3.59-1.88,11.93-2.15,14.81-.45,5.34-.06,10.73-.25,15.98-.02.68-.93.89-1.25.3-8.96-16.5-7.86-38.89-10.15-49.39-.09-.43-.57-.65-.96-.45-1.45.74-1.53,1.49-2.1,6.34-1.04,8.59-1.03,16.07-1.03,24.59,0,.61-.75.9-1.16.45,0,0-.01-.01-.02-.02-.14-.14-.5-.57-.65-.72l-.05-.08-3.26-8.83s-2.89-6.89-2.9-6.91c-5.55-10.5-3.69-9.8-6.97-13.39-.45-.5-1.12-.66-1.29,0-.17.64-.21,1.5-.21,2.48.01,3.74,1.55,15.52,2,20.72.05.59-.63.94-1.08.57-.38-.31-.81-.62-1.42-1.27,0,0-10.66-15.85-16.38-24.49-.12-.18-.26-.35-.47-.37-.33-.04-.62.19-.65.51-.79,7.47,5.53,21.03,7.42,29.13.15.63-.59,1.08-1.08.66l-9.04-7.77-.05-.04c-3.37-3.44-5.86-7.2-8.14-9.34-.44-.41-1.17-.06-1.11.54.59,6.78,11.79,26.22,15.04,32.86.25.5-.21,1.06-.75.93-10.06-2.35-15.96-10.5-18.63-11.07-.32-.07-.64.14-.74.46-1.53,5.07,5.9,12.74,10.26,17.53.03.04.06.08.09.13.36.69,2.11,2.94.84,7.79-.83,3.2,1.15,6.1,2.44,8.03-.12.06-.24.07-.32.11-.06.03-.13.05-.21.06l-1.17.2c-6.01.77-1.41,7.36.38,9.56.3.36.13.91-.32,1.05-1.26.39-1.57-.2-2.49,1.46-2.86,5.15,8.25,18.02,6.24,20.42-.12.14-.2.31-.19.5.34,4.75,3.73,6.27,5.62,9.22.19.3.11.71-.19.91-2.59,1.75-6.27,2.84-5.3,6.7.69,2.89,4.28,4.11,6.48,5.82.25.19.33.54.19.82-3.59,7.15-.3,11.4,5.46,15.72,1.81,1.32,2.43,1.92,4.12,3.41.18.16.26.41.21.65-1.57,7.05-2.64,7.35,5.31,12.12.66.37.44,10.96,3.83,14.12,1.56,1.44,6.34,4.98,7.98,6.28.31.25.34.71.05.99l-.31.31c-3.91,4.13,8.21,17.27,9.01,18.13l.09.08c2.43,1.61,7.3,7.69,8.77,12.83.1.33-.08.69-.4.82-5.93,2.36-6.3,2.41-14.01,1.76-9.6-.79-41.38-3.57-48.05-3.47-.22,0-.42.12-.54.31-2.59,4.28-2.36,6.17-.58,11.13.11.29,0,.63-.27.79-1.51.94-.93-.4-4.41,2.73-.14.13-.22.31-.22.49v2.58c0,.14.04.27.12.38.72,1.03,1.61,2.53,2.31,3.51,1.06,1.37,1.54,1.53,2.32,2.56.26.34.14.83-.25,1.02-1.46.71-1.95,1.06-2.44,3.18-.05.23.01.47.18.63,6.46,6.25,12.75-3.14,6.8,6.87-1.43,2.35-1.61,3.19-1.15,5.85.03.16.11.31.24.42,4.27,3.51,8.44,2.3,13.83,1.05.42-.1.82.22.82.65,0,7.29,2.98,3.67,9.9,2.62.31-.05.59.17.65.47,2.11,11.79,16.39-1.14,30.66-6.51,11.03-4.12,8.09-8.61,14.71-9.34,6.62-.74,27.44,5.52,30.53,10.23,1.54,2.35,1.54,4.19,3.9,5.44,2.31,1.23,5.83.68,7.84,1.85.07.04.13.1.18.16,1.59,2.01,2.4,5.59,4.43,8.05.13.15.32.24.52.24l9.34-.14c.23,0,.44.11.57.3,1.68,2.45,1.59,5.41,4.34,6.61,2.26,1.06,7.77.49,10.94.7.24.02.45.16.55.37,3.08,6.09,3.46,4.82,13.15,5.4,6.03.37,5.15,6.03,13.17,6.18,3.75.07,5.74-.96,8.39.81,1.99,1.25,3.16,2.65,5.89,4.12,2.28,1.18,4.56,1.99,7.43,1.47,1.31-.22,2.54-.72,3.35-1.3.02-.02.04-.03.06-.05l1.61-.23c1.45-.21,2.9.31,3.91,1.37,1.56,1.63,3.48,2.25,5.93.53.93-.65,1.78-.61,2.58-.14.01,0,.02.02.03.03,1.76,2.44,3.04,6.79,4.26,8.39,3.57,4.67,9.74,5.07,7.9-2.32-.16-.66-1.52-4.78-2.46-8.34-.37-1.39,1.49-2.25,2.3-1.05,2.04,3,4.18,5.93,6.47,8.75,1.2,1.49,14.63,14.88,13.65,7.28-1.03-8.09-2.26-8.37-5.78-15.64-2.81-5.81-1.37-6.45,2.78-2.15,11.42,11.83,15.5,15.24,31.88,19.78,11.4,3.15-.24-5.12-3.66-7.56-1.54-1.11-19.48-13.48-18.13-15.74.02-.04,19.91,11.81,21.65,12.55,5.13,2.18,10.96,3.28,16.45,1.83,4.19-1.1,5.81-4.23.44-4.93-1.71-.22-21.05-6.45-20.1-7.78.85-1.22,16.7-.21,18.72-.23Z"/>
  <g>
    <path class="st1" d="M88.91,483.95c-.38,9.76-4.74,15.07-12.04,15.07-10.24,0-13.46-9.1-13.46-32.51,0-23.51,3.79-32.22,13.36-32.22,7.39,0,11.66,4.45,12.42,15.83l-6.54,1.04c-.57-8.15-2.18-10.43-5.59-10.43-5.21,0-6.54,6.35-6.54,25.31,0,13.74.19,26.63,6.44,26.63,4.36,0,5.78-3.51,5.78-9.95l6.16,1.23Z"/>
    <path class="st1" d="M103.32,498.17v-63.22s7.87,0,7.87,0c10.62,0,14.12,5.97,14.12,15.73,0,7.11-1.8,12.51-6.73,13.93,5.59,1.42,8.53,7.68,8.53,15.64,0,11.28-4.55,17.91-15.35,17.91h-8.44ZM112.04,462.06c5.02,0,7.2-3.7,7.2-10.43,0-5.78-1.99-10.71-6.26-10.71h-3.13v21.14h2.18ZM112.23,492.19c6.63,0,8.15-5.12,8.15-12.04,0-9.48-3.22-12.42-7.3-12.42h-3.22v24.45h2.37Z"/>
    <path class="st1" d="M143.51,498.17v-63.22s9.1,0,9.1,0c6.35,0,10.24,2.65,12.51,7.3,2.56,5.21,4.17,12.32,4.17,24.36,0,7.96-.76,20.28-5.12,26.54-2.18,3.13-5.78,5.02-10.81,5.02h-9.86ZM153.08,492.19c2.46,0,4.64-1.04,5.97-3.22,2.75-4.64,3.32-14.22,3.32-22.46,0-10.52-1.33-17.82-2.94-20.85-1.61-3.13-3.22-4.74-7.01-4.74h-2.27s0,51.28,0,51.28h2.94Z"/>
    <g>
      <path class="st1" d="M208.46,460.76l-2.5-4.64c1.17-1.79,1.72-3.39,1.72-6.16,0-2.58-1.49-6.15-4.14-6.15-5.24,0-5.79,9.81-5.79,15.16,0,8.83,2.27,27.29,12.04,27.29,4.45,0,6.95-3.66,9.61-7.14l3.13,4.37c-4.46,8.11-9.22,16.05-18.52,16.05-12.5,0-17.66-16.41-17.66-28.53s4.77-35.22,20.94-35.22c4.45,0,7.34,3.3,9.92,7.14l1.56-1.6,2.65,4.81-12.97,14.63Z"/>
      <path class="st1" d="M252.38,498.12v-7.05h2.66v-24.69h-10.47v24.69h2.65v7.05h-18.28v-7.05h2.81v-46.81h-2.81v-7.04h18.28v7.04h-2.65v14.27h10.47v-14.27h-2.66v-7.04h18.29v7.04h-2.81v46.81h2.81v7.05h-18.29Z"/>
      <path class="st1" d="M281.38,498.12v-7.05h2.81v-46.81h-2.81v-7.04h18.44v7.04h-2.81v46.81h2.81v7.05h-18.44Z"/>
      <path class="st1" d="M313.42,444.26h-2.81v-7.04h18.44v7.04h-2.81v46.81h2.97c5.16,0,7.34-2.76,7.34-9.44h4.69l-.47,18.9h-5.55v-2.4h-24.61v-7.05h2.81v-46.81Z"/>
      <path class="st1" d="M351.17,444.26h-2.81v-7.04h18.44v7.04h-2.81v46.81h2.97c5.16,0,7.34-2.76,7.34-9.44h4.69l-.47,18.9h-5.55v-2.4h-24.61v-7.05h2.81v-46.81Z"/>
      <path class="st1" d="M401.27,491.07h2.81v-46.81h-2.81v-7.04h20.55c9.53,0,14.38,4.91,14.38,13.37,0,7.05-3.44,10.17-8.99,11.5v.18c7.97,2.05,11.88,7.14,11.88,16.58,0,12.49-4.77,19.26-18.44,19.26h-19.38v-7.05ZM416.9,459.33c4.3-.44,7.42-1.16,7.42-7.49,0-5.61-2.03-7.58-7.42-7.58v15.07ZM416.9,487.15c0,3.75,1.33,4.73,4.37,4.73,2.27,0,5-2.32,5-13.03,0-8.74-2.27-12.3-9.37-12.48v20.77Z"/>
      <path class="st1" d="M467.93,493.04c-2.19,3.92-6.17,6.51-10.39,6.51-7.11,0-11.8-5.09-11.8-13.83v-41.46h-2.81v-7.04h15.63v46.63c0,4.29,2.11,5.53,4.53,5.53s4.53-1.25,4.53-5.53v-39.59h-2.81v-7.04h15.63v53.85h2.81v7.05h-14.14l-1.17-5.08Z"/>
      <path class="st1" d="M491.61,491.07h2.81v-46.81h-2.81v-7.04h14.45c13.75,0,25.79,8.65,25.79,30.58,0,16.32-8.83,30.32-23.6,30.32h-16.65v-7.05ZM507.24,491.07c11.1,0,11.8-13.64,11.8-23.53,0-8.56-1.33-22.3-11.8-23.28v46.81Z"/>
    </g>
  </g>
</svg>