<?xml version="1.0" encoding="UTF-8"?>
<svg id="Calque_1" xmlns="http://www.w3.org/2000/svg" version="1.1" viewBox="0 0 595.28 595.28">
  <!-- Generator: Adobe Illustrator 29.1.0, SVG Export Plug-In . SVG Version: 2.1.0 Build 142)  -->
  <defs>
    <style>
      .st0 {
        fill: #f49002;
      }

      .st1 {
        fill: #fff;
      }

      .st2 {
        fill: #ffb700;
      }
    </style>
  </defs>
  <g>
    <path d="M381.28,146.11c7.19-1.14,12.72,8.46,9.92,15.07-1.05,2.47-.5,4.46.51,6.93,2.24,5.47,1.48,10.69-3.72,12.35-4.22,1.34-8.38,3.05-12.72,4.06-1.38.32-2.83.15-4.17-.64-3.64-2.14-6.78-4.92-10.64-6.89-4.2-2.14-4-13.94.14-16.85,2.41-1.7,3.74-3.75,4.96-6.13,3-5.83,8.24-7.47,15.71-7.9Z"/>
    <g>
      <path class="st0" d="M385.02,380.17c-.17.82-.28,1.57-.49,2.28-.52,1.81-.62,3.63-.18,5.47.41,1.73.75,3.49,1.3,5.18,1.78,5.52,5.47,9.54,10.23,12.65,1.74,1.14,3.71,1.64,5.77,1.79,2.84.2,5.68.75,8.61.23-.26.13-.51.31-.79.39-8.16,2.13-15.81.91-22.84-3.7-5.81-3.81-8.71-9.5-9.75-16.2-.24-1.56-.77-2.63-2.12-3.53-1.41-.94-2.6-2.24-3.77-3.49-.57-.6-1.1-.92-1.95-.91-3.08.04-6.1-.42-9.05-1.25-.97-.27-1.81-.22-2.76.16-5.38,2.14-10.95,3.34-16.77,3.14-.38-.01-.75-.04-1.18-.29.45-.14.89-.29,1.34-.4,6.4-1.54,12.3-4.09,17.33-8.45.55-.47,1-.96,1.82-.52,4.11,2.15,8.38,1.74,12.65.67.91-.23,1.47-.24,2.12.59,2.43,3.09,5.38,5.41,9.46,5.9.3.04.58.17,1.02.31Z"/>
      <path class="st0" d="M177.8,398.85c9.12-4.61,13.01-12.41,13.82-22.26,3.27-.1,6.52.22,9.45-1.27,2.87-1.46,5.17-3.65,7.47-6.15,1.3,1.07,2.56,2.12,3.81,3.16,5.48,4.55,11.61,6.91,18.86,5.95,2.98-.39,5.92-.79,8.67-2.09.71-.33,1.21-.23,1.57.72-1.92,1.06-3.82,2.22-5.96,2.78-3.14.81-6.3,1.83-9.49,2.02-4.85.29-9.67-.37-14.05-2.79-1.04-.58-1.96-1.39-3-2.14-1.1.67-2.25,1.35-3.38,2.05-2.68,1.67-5.58,2.8-8.65,3.44-.94.2-1.58.61-2.17,1.36-1.89,2.4-3.82,4.77-5.82,7.08-2.91,3.37-6.45,5.93-10.44,7.9-.22.11-.46.16-.69.24Z"/>
      <path class="st0" d="M293.63,376.97c-4.25,5.93-10.16,8.34-17.01,8.83,8.77-2.39,14.2-7.67,14.71-17.21,1.65.29,3.14.54,4.62.83,3.21.63,6.19-.2,9.07-1.51.98-.45,1.94-.97,2.84-1.57.81-.54,1.45-.68,2.16.14,1.04,1.2,2.45,1.81,3.97,2.14.7.15,1.03.54,1.37,1.15,2.91,5.22,6.85,9.29,12.76,11.09.41.13.81.29,1.16.58-7.05-.52-12.76-4.11-18.29-8.2-2.6,1.68-5.14,3.43-8.27,3.81-2.95.36-5.91,1.12-9.07-.08Z"/>
      <path class="st0" d="M178.77,169.81c7.12-2.13,12.59-2.46,19.29-.67,4.76-6.66,11.65-10.2,19.44-12.06,5.14-1.23,10.34-1.02,15.38.94-.37-.04-.74-.08-1.11-.13-.44-.06-.88-.13-1.32-.2-6.31-1.07-12.13.46-17.6,3.51-3.52,1.96-6.72,4.39-9.29,7.53-1.29,1.57-2.45,3.24-3.72,4.94-1.13-.35-2.25-.76-3.41-1.03-5.92-1.41-11.17.45-16.18,3.4-.76.44-1.52.88-2.46,1.42-1.24-5.36-3.97-9.53-8.02-12.96-3.99-3.38-8.52-5.49-13.79-6.52,2.16-.72,8.21.69,12.78,2.99,4.07,2.04,7.2,5.2,10.02,8.85Z"/>
      <path class="st0" d="M92.93,220.69c-2.3,4.26-3.53,8.86-4.06,13.63-.48,4.38.42,8.57,1.87,12.72,1.84,5.25,4.7,9.87,8.11,14.19.86,1.09,1.94,1.99,3.04,3.1-1.99,2.6-4.3,5.06-4.78,8.48-.46,3.23-.63,6.46.76,9.62-.95,1.2-1.88,2.38-2.87,3.62-.94-.43-1.79-.83-2.59-1.2-.03-.21-.11-.37-.06-.43,1.17-1.55,1.44-3.2,1.12-5.16-.6-3.69-.21-7.37.94-10.94.26-.8.06-1.47-.32-2.18-1.2-2.21-1.85-4.6-2.28-7.06-.21-1.23-.29-2.42.94-3.6-1.83-.28-2.49-1.48-3.01-2.81-1.77-4.47-3.14-9.04-2.8-13.92.38-5.38,1.66-10.56,3.96-15.45.47-1.01,1.14-1.92,1.72-2.88.11.09.21.18.32.27Z"/>
      <path class="st0" d="M491.38,300.44c2.18-3.38,3.51-6.99,3.76-10.94.26-4.18-1.83-7.41-4.66-10.5,1.38-.42,2.52-.74,3.64-1.12,2.42-.83,4.28-2.35,5.11-4.8.43-1.29.44-2.72.6-4.09.06-.55.01-1.11.01-1.79,7.35.58,11.99-3.01,15.17-9.29-.1.8-.14,1.61-.3,2.4-1,4.86-3.47,8.58-8.26,10.45-1.51.59-2.42,1.55-2.99,3.15-1.24,3.51-2.52,5.04-5.45,7.28.43,1.01,1.02,2.01,1.27,3.08.99,4.12.88,8.13-1.91,11.62-1.35,1.68-2.9,3.2-4.34,4.81-.59.65-1.07.53-1.65-.25Z"/>
      <path class="st0" d="M440.38,198.46h-5.56c.06-1.08.13-2.18.2-3.44,1.4,0,1.87-.99,2.44-2.12,1.11-2.21,2.42-4.32,3.79-6.38.49-.74.73-1.42.73-2.27-.01-6.66,1.81-12.82,5.2-18.51,3.3-5.55,8.21-8.74,14.6-9.63.18-.02.36,0,.63.27-.72.25-1.43.56-2.17.73-2.84.64-5.21,2.18-7.09,4.27-1.82,2.02-3.55,4.2-4.87,6.57-2.51,4.52-2.69,9.46-1.82,14.47.21,1.19.8,2.36.75,3.52-.05,1.29-1.58,1.66-2.35,2.56-1.74,2.01-3.01,4.24-3.69,6.81-.27,1.04-.52,2.09-.78,3.16Z"/>
      <path class="st0" d="M391.32,187.9c-.81.51-1.55,1.16-2.43,1.5-3.58,1.39-5.64,4.28-7.41,7.42-1.81,3.21-2.5,6.75-2.83,10.41-.34,3.77.16,7.34,1.55,10.82.09.22.08.49.11.72-1.96.97-3.87,1.91-5.8,2.86-1.11-2.17-2.22-4.34-3.36-6.58,0-.03.02-.21.1-.25,1.6-.72,1.97-2.1,2.17-3.69,1.08-8.57,5.4-15.24,12.13-20.47,1.71-1.33,3.65-2.24,5.75-2.75Z"/>
      <path class="st0" d="M451.72,357.95c-1.14-2.2-.38-4.43-.05-6.61.34-2.24,1.29-4.24,2.92-5.9,1.61-1.64,3.24-3.23,5.56-3.96-2.61-6.1-3.05-12.11-.56-18.12.64-1.54,1.11-3.39,3.38-4.41-1.42,3.98-2.62,7.56-2.38,11.44.24,3.92,1.63,7.43,3.88,10.88-5.75,4.39-9.99,9.92-12.75,16.69Z"/>
      <path class="st0" d="M318.78,341.99c-3.87-1.98-7.47-3.97-11.63-4.69-4.05-.7-8.03-.59-12.41.47.83-1.31,1.5-1.96,2.57-2.17,5.53-1.1,11.01-1.04,16.37.84,1.61.57,3.13,1.36,4.85,2.12,1.83-2.42,4.37-4.1,6.98-5.69,2.54-1.55,5.31-2.57,8.22-2.9,2.57-.3,4.82.8,6.99,2.83-8.66.15-16.39,1.91-21.95,9.18Z"/>
      <path class="st0" d="M256.61,175.88c9.13-.33,14.82,5.11,19.76,11.9h4.69c-.35,2.11-.67,4.08-.96,5.84-2.5.27-4.8.52-7.23.78-.15-.41-.33-.87-.5-1.34-1.54-4.36-3.57-8.45-6.77-11.83-2.47-2.61-5.3-4.72-8.99-5.35Z"/>
      <path class="st0" d="M465.98,385.14c.67-.2,1.03-.37,1.4-.4,4.8-.34,7.32-3.44,8.96-7.49.96-2.37,1.34-4.88.61-7.69,5.42-.51,9.59-3.32,13.78-6.3-.25.31-.47.64-.74.92-2.82,2.97-6.01,5.5-9.53,7.58-.88.52-1.33,1.08-1.43,2.22-.58,6.63-3.94,11.43-9.92,14.33-.87.42-1.02,1.02-1.15,1.77-.63,3.87-2.07,7.47-3.7,11-.28.62-.68,1.18-1.18,1.72,2.34-5.64,4.05-11.37,2.9-17.66Z"/>
      <path class="st0" d="M346.97,248.44c-3.85,3.53-8.33,5.85-13.38,7.04-2.2.51-4.19.25-6.17-.9,8.18-1.24,15.11-4.25,19.76-11.42,5.33,7.46,12.03,7.84,19.61,4.38-.6,1.16-1.2,2.04-2.51,2.54-5.28,2-10.35,1.42-15.35-.88-.52-.24-1.04-.48-1.56-.72-.05-.02-.12-.01-.38-.03Z"/>
      <path class="st0" d="M64.6,363.01c.31-1.74.55-3.48.93-5.2.8-3.63,2.4-6.96,4-10.29.47-.98.58-1.83.21-2.9-1.98-5.72-1.6-11.4.66-16.95.54-1.32,1.36-2.53,2.05-3.79.14.07.28.14.42.21-.64,1.42-1.47,2.79-1.88,4.28-.43,1.57-.63,3.25-.63,4.89,0,1.64.21,3.31.6,4.9.39,1.59,1.03,3.14,1.74,4.63.7,1.48,1.62,2.87,2.57,4.52-.14.17-.4.57-.73.91-1.63,1.7-3.3,3.36-4.92,5.07-2.15,2.28-3.37,5.05-4.16,8.04-.16.6-.35,1.18-.53,1.78-.11-.02-.22-.05-.33-.07Z"/>
      <path class="st0" d="M167.17,436.82c5.31-.03,8.79-5.02,8.09-10.04,2.39-1.55,3.45-3.99,4-6.74.54,2.73-.12,5.17-1.76,7.3-.51.67-.63,1.27-.71,2.05-.2,1.76-.36,3.57-.92,5.22-1.3,3.81-3.29,5.1-7.38,5.12-.69.89-1.38,1.87-2.15,2.78-2.43,2.87-5.53,4.65-9.19,5.41-2.04.43-3.95-.06-6.1-.96.46-.09.6-.17.68-.13,3.31,1.5,6.33.59,9.14-1.26,2.72-1.79,4.69-4.26,5.81-7.35.09-.24.14-.49.22-.73.08-.23.19-.46.28-.67Z"/>
      <path class="st0" d="M383.45,147.34c-9.37-.02-14.49,5.15-15.53,13.2-2.2-.09-4.27.46-6.03,1.76-1.77,1.31-2.47,3.3-2.84,5.74-.56-3.9,1.23-7.63,4.34-9.31.88-.48,1.37-1.02,1.73-2.04,1.43-4.02,4.02-7.06,8.26-8.32,1.76-.52,3.56-.99,5.38-1.18,1.53-.17,3.11.09,4.67.16Z"/>
      <path class="st0" d="M197.99,348.59c1.05.38,2.08.79,3.14,1.14,4.18,1.36,8.35,1.45,12.47-.24,3.24-1.32,5.69-3.55,7.43-6.58.24-.42.49-.83.98-1.64.18,2.1-.23,3.66-.82,5.14-.71,1.8-1.78,3.2-3.67,4.13-3.5,1.73-7.08,2.76-11,2.65-2.71-.08-5.05-1.21-7.34-2.44-.63-.34-.98-1.19-1.46-1.81.09-.12.18-.24.27-.36Z"/>
      <path class="st0" d="M506.13,368.3c.76,2.16.71,4.41.01,6.64-.3.95-.38,1.73.07,2.71.4.87.43,1.98.37,2.97-.22,3.4-3.03,6.27-6.41,6.77-.44.06-1,.34-1.23.69-1.05,1.6-2.46,2.53-4.37,2.71-2.21.21-4.18-.44-5.87-1.8-1.22-.98-2.3-2.13-2.76-3.98,4.53,5.84,9.61,4.06,13.29-.63,2.5.8,4.49-.09,5.76-2.33,1.58-2.81.7-5.26-1.4-7.1.89-2.34,1.7-4.44,2.54-6.65Z"/>
      <path class="st0" d="M221.48,200.28c.7.88,1.21,1.48,1.68,2.1,1.23,1.62,2.34,3.33,4.06,4.51,4.96,3.4,10.1,3.32,15.37.87,1.03-.48,1.98-1.1,3.37-1.87-.29.72-.33,1.23-.58,1.39-3.53,2.17-7.02,4.36-11.39,4.5-2.85.09-5.36-.7-7.8-2.1-3.52-2.01-4.92-5.03-4.71-9.4Z"/>
      <path class="st0" d="M191.1,411.32c5.95,1.07,8.15-.24,12.27-7.25,2.63.68,5.26.68,7.09-1.86,1.76-2.43,1.11-5.06.31-7.82,2.15,2.33,2.48,6.13.94,9.29-1.39,2.85-4.01,4.24-7.69,3.99-1.64,3.09-4.16,5.14-7.87,5.3-1.79.07-3.5-.22-5.05-1.65Z"/>
      <path class="st0" d="M515.48,254.06v-4.38c1.37-.14,2.75-.2,4.1-.43,3.63-.63,6.57-2.35,8.27-5.73.96-1.91,1.75-3.91,2.8-5.89-.18,1.17-.27,2.36-.57,3.5-.83,3.22-2.07,6.25-4.38,8.76-2.06,2.23-4.59,3.59-7.53,4.15-.79.15-1.63.02-2.69.02Z"/>
      <path class="st0" d="M469.76,196.25c-.59-.96-.81-1.88-.49-2.78.79-2.23,1.83-4.34,3.41-6.14,2.98-3.4,6.89-4,10.99-3.29,1.49.26,2.52,1.81,3.25,3.57-8.5-2.54-14.01.65-17.16,8.65Z"/>
      <path class="st0" d="M95.45,401.43c1.73,2.32,3.3,4.41,4.87,6.51-.03.05-.06.1-.08.15-1.11-.8-2.28-1.52-3.3-2.42-1.22-1.06-2.53-1.49-4.15-1.52-2.81-.06-5.5-.75-8.29-2.47,2.17.51,3.92,1.04,5.71,1.31,1.97.3,3.65-.8,5.26-1.56Z"/>
      <path class="st0" d="M156.48,428.57c4.57,2.91,8.09.99,11.43-1.87.31,1.63-.01,2.44-1.16,3-2.56,1.27-5.22,1.97-8.11,1.44-1.34-.25-1.74-.58-2.16-2.57Z"/>
      <path class="st0" d="M368.24,176.97c.78,2.44,2.09,4.35,4.21,5.65-2.73-.68-4.77-2.17-6-4.96.56-.22,1.1-.43,1.79-.69Z"/>
    </g>
    <g>
      <path d="M71.05,324.69c-1.84-3.56-3.29-7.28-4.2-11.21-1.59-6.9-.41-13.4,2.65-19.65.25-.51.52-1.19,1.21-.96.37.12.59.71.85,1.1.14.2.23.44.44.82-6.45,9.72-6.11,19.43.61,28.96-.76,1.47-1.61,2.82-2.19,4.28-2.18,5.46-2.5,11-.52,16.6.33.95.32,1.76-.13,2.71-1.63,3.52-3.34,7.01-4.21,10.84-1.86,8.18-1.46,15.93,4.03,22.83,2.67,3.36,5.34,6.69,9.27,8.67.8.4,1.07.93,1.06,1.8,0,1.08.12,2.16.27,3.23.61,4.32,3.22,7,7.25,8.25,2.11.65,4.34.94,6.54,1.21.93.12,1.69.34,2.43.91,1.66,1.29,3.36,2.53,5.06,3.76,3.04,2.18,6.47,3.23,10.18,3.41,1.45.07,2.91.07,4.37.08,4.27.03,8.07-1.67,11.86-3.34,3.91-1.73,6.72-4.77,9.26-8.08.31-.4.59-.83.97-1.36.63.29,1.26.55,1.85.87,3.73,1.96,7.45,2.06,11.1-.15.88-.53,1.59-.5,2.48-.09,1.33.61,2.75,1.02,4.09,1.59,2.19.93,4.43,1.01,6.75.65,2.01-.32,4.09-.35,6.04-.87,5.48-1.45,10.51-3.84,14.89-7.52,3.59-3.01,6.48-6.65,9.25-10.39.56-.76,1.15-1.21,2.12-1.41,3.92-.8,7.46-2.53,10.79-4.71.37-.24.75-.48,1.14-.7.1-.06.24-.06.43-.1.94.68,1.87,1.46,2.91,2.06,3.03,1.78,6.41,2.46,9.85,2.73,6.45.51,12.52-.92,18.2-3.98.39-.21.8-.38,1.29-.6.94.73,1.86,1.49,2.84,2.18,3.99,2.78,8.43,3.81,13.24,3.29.13-.01.25-.03.38-.04,2.59-.32,5.17-.58,7.29,1.45,6.41,2.82,12.85,2.68,19.33.22,3.29-1.25,6.09-3.17,8.23-6,.27-.35.58-.67.94-1.08,3,.92,6.04.48,9.05.04,3.11-.46,5.7-2.11,8.28-3.88,1.7,1.14,3.38,2.26,5.06,3.39,5.16,3.47,10.92,5.2,17.06,5.5,4.31.21,8.66.27,12.96-.01,3.94-.26,7.78-1.33,11.41-2.94.82-.36,1.54-.4,2.38-.15,3.01.89,6.09,1.38,9.23,1.25.83-.03,1.39.24,1.99.84,1.43,1.44,2.92,2.83,4.5,4.1.8.64,1.29,1.25,1.41,2.31.33,2.86,1.15,5.59,2.37,8.22,2.73,5.83,7.36,9.42,13.25,11.68,5.96,2.28,11.93,2.26,17.97.46,1.58-.47,3.18-.89,4.83-1.34.2.19.42.33.54.53,2.66,4.49,6.61,7.6,11.15,9.88,3.68,1.85,7.64,2.74,11.85,1.98,4.86-.88,9.58-2.06,13.79-4.79,6.21-4.04,10.44-9.65,13.01-16.53,1.06-2.85,1.82-5.81,2.79-8.96,1.81-.71,3.63-1.89,5.26-3.49,3.15-3.09,4.93-6.76,5.28-11.13.08-1.04.44-1.69,1.4-2.24,5.2-3,9.48-7.07,13.21-11.73,1.39-1.73,2.72-3.52,3.92-5.39,1.67-2.58,2.15-5.57,2.44-8.55.1-.98-.12-2.04-.41-3-.82-2.67-1.75-5.31-2.68-8.08,5.5-4.6,8.34-10.69,7.32-17.92-1.01-7.15-5.23-12.44-11.58-15.65,1.77-2.13,3.53-3.98,4.98-6.05,3.05-4.37,2.87-8.93.39-13.51-.09-.16-.12-.35-.22-.65,3.32-1.88,4.85-5.09,6.07-8.47.45-1.24,1.52-1.49,2.45-1.92,1.63-.75,3.17-1.59,4.45-2.89,2.14-2.16,3.35-4.78,3.9-7.72.36-1.93.63-3.88.96-5.92,2.95-.02,5.57-.88,7.92-2.54,2.14-1.51,3.63-3.52,4.76-5.85,1.71-3.51,2.32-7.23,2.4-11.1.09-4.53-1.7-8.18-4.91-11.18-1.01-.95-1.39-1.74-1-3.11.99-3.5-1.27-8.51-5.52-9.67-.42-.11-.82-.29-1.21-.44-.15-.92.26-1.32,1.03-1.24.48.05,1,.25,1.41.53,3.86,2.65,6.01,6.2,5.48,11.01-.11,1.01.14,1.66.78,2.37,3.4,3.81,5.33,8.24,5.12,13.4-.09,2.07-.44,4.2-1.07,6.17-2.1,6.59-6.32,11.24-12.99,13.48-.24.08-.48.17-.77.27-.07.23-.18.47-.19.71-.55,7.23-4.16,12.44-10.53,15.75-1.04.54-1.65,1.19-2.07,2.28-.97,2.53-2.55,4.68-4.68,6.51,3,7.53.9,13.76-5.01,19.04,2.86,1.69,4.77,3.99,6.57,6.39,5,6.72,5.62,13.9,2.07,21.42-1.19,2.52-2.73,4.87-4.23,7.51.05.14.19.56.35.97,2.35,5.9,2.5,11.72-.25,17.6-2.02,4.3-4.94,7.85-8.35,11.05-.45.42-.91.82-1.48,1.33,1.34.36,2.07-.05,2.77-1,2.02-2.72,4.73-4.19,8.19-4.15,2.76.04,4.78,1.32,5.93,3.79,1.33,2.86,1.66,5.88.83,8.95-.24.9-.26,1.62.18,2.53,1.18,2.44.76,4.88-.58,7.12-1.35,2.24-3.12,4.02-5.87,4.5-.39.07-.75.42-1.09.69-.35.28-.62.64-.96.92-3.34,2.71-8.16,2.3-11.21-.8-2.24-2.28-3.61-4.95-2.97-8.08.45-2.19.36-4.11-.22-6.23-.38-1.38.07-2.99.15-4.73-1.3.83-2.65,1.58-3.86,2.53-.41.32-.48,1.12-.65,1.71-.54,1.89-.91,3.85-1.61,5.67-1.56,4.05-4.31,7.19-7.92,9.56-.7.46-1.06,1-1.26,1.79-.52,2.03-1.07,4.07-1.7,6.07-1.54,4.9-4.19,9.14-7.93,12.66-4.73,4.45-10.15,7.64-16.51,9.17-7.84,1.88-14.93.26-21.25-4.65-2.01-1.56-3.82-3.37-5.7-5.08-.46-.42-.83-.95-1.21-1.4-4.2,1.16-8.28,1.81-12.44,1.74-5.04-.08-9.94-1.06-14.3-3.63-6.38-3.76-10.63-9.27-12.2-16.59-.43-2.02-1.02-3.62-3.02-4.62-1.08-.54-1.89-1.68-2.73-2.63-.51-.58-1.04-.88-1.8-.86-2.7.07-5.31-.47-7.91-1.15-.68-.18-1.5-.06-2.2.13-3.01.8-5.96,2.01-9.01,2.44-4.39.62-8.86.95-13.3.96-9.03.03-17.1-2.98-24.3-8.38-.15-.11-.33-.19-.59-.34-.35.16-.76.31-1.14.52-3.91,2.11-8.13,2.93-12.52,2.95-1.01,0-1.82.29-2.67.8-4.1,2.47-8.33,4.67-12.95,6.06-6.32,1.89-12.44,1.54-18.4-1.38-.47-.23-1.1-.31-1.62-.23-6.9,1.11-13.32-.14-19.2-3.94-.72-.47-1.36-.51-2.15-.22-4.13,1.56-8.39,2.57-12.81,2.88-6.02.42-11.84-.25-17.15-3.34-1.2-.7-2.13-.68-3.37-.13-3.32,1.46-6.71,2.75-10.07,4.12-.45.19-.98.39-1.26.75-.81,1.05-1.5,2.19-2.39,3.5,2.1-.29,3.98.04,5.83.66.36.12.86-.08,1.26-.24,2.58-1.04,4.72-.4,6.55,1.61.32.36.75.71,1.19.86,4.86,1.64,5.78,5.55,5.59,8.97-.15,2.79-1.26,5.3-3.44,7.24-1.1.98-2.33,1.69-3.77,1.61-1.36-.08-2.04.59-2.8,1.53-1.65,2.06-3.8,3.49-6.42,3.82-6.57.83-11.51-4.79-9.87-10.59.48-1.7,1.25-3.32,1.85-4.99.16-.45.33-.95.31-1.41-.08-1.5-.25-3-.39-4.57-.3.23-.69.5-1.05.8-4.86,4.12-10.24,7.38-16.32,9.34-5.89,1.9-11.79,1.96-17.57-.54-1.14-.49-2.07-.52-3.22.01-3.41,1.57-6.92,1.49-10.41.17-.65-.25-1.29-.53-1.98-.81-1.38,1.43-2.69,2.89-4.1,4.24-5.42,5.17-12.07,7.51-19.39,7.96-4.81.3-9.36-1.07-13.61-3.24-2.2-1.12-4.24-2.58-6.29-3.98-.82-.56-1.58-.94-2.61-.92-5.94.09-12.99-3.9-14.43-11.81-.28-1.55-.95-2.58-2.21-3.54-6.79-5.16-11.06-11.87-12.21-20.43-.9-6.68.16-13.08,2.65-19.28.12-.3.22-.6.37-.88,1.26-2.36,1.59-4.7,1-7.45-.95-4.45-.1-8.87,1.6-13.09.55-1.36,1.12-2.7,1.7-4.11ZM492.08,367.97c-3.16-.29-4.74.26-5.9,2.27-1.57,2.73-1.66,5.44.49,7.83-.01.21,0,.28-.03.33-.07.18-.14.36-.24.52-1.68,2.65-1.24,5.2.36,7.69.34.53.73,1.05,1.17,1.51,2.75,2.83,8.07,4.13,10.78,0,.24-.36.79-.67,1.23-.71,2.54-.22,4.23-1.72,5.45-3.74,1.23-2.04,1.78-4.21.49-6.51-.21-.38-.28-1.01-.12-1.4,1.29-3.16.89-6.24-.34-9.29-.69-1.72-1.69-3.2-3.64-3.59-2.72-.55-5.24-.05-7.26,1.93-.9.88-1.55,1.99-2.45,3.17ZM190.8,397.49c-.35.54-.69,1-.97,1.49-1.21,2.09-1.88,4.31-1.64,6.75.37,3.67,2.88,6.58,6.44,7.05,3.17.42,5.9-.66,7.92-3.23.51-.64.95-1.34,1.38-1.95,3.1.05,3.1.04,4.36-.68,5.4-3.09,5.48-9.86,1.34-14.24-.41-.43-1.11-.58-1.65-.9-.47-.28-.99-.55-1.35-.94-2.11-2.34-3.84-2.57-6.52-.8-.09.06-.23.03-.35.04-3.8-2.44-6.31-1.65-8.02.03-2.23,2.19-2.55,4.44-.95,7.38Z"/>
      <path d="M502.73,197.01c2.56,1.12,4.96,2.12,7.3,3.22.91.43,1.76,1.04,2.55,1.67.62.49,1.05,1.15.46,1.78-2.19-1.29-4.2-2.84-6.47-3.69-2.2-.82-4.67-.93-7.07-1.36.02-.1.01-.31.11-.44,1.95-2.76,3.01-5.87,3.64-9.16,1.23-6.38-2.51-14.34-8.27-17.37-1.35-.71-3.1-.92-4.1-1.93-.99-1-1.22-2.73-1.85-4.12-1.89-4.16-5.48-6.41-9.44-8.19-5.2-2.34-10.59-2.32-16.11-1.43-2.14.35-4.24.71-6.29,1.45-5.12,1.82-8.48,5.52-10.88,10.19-1.87,3.63-3.39,7.42-3.77,11.55-.16,1.71-.3,3.42-.35,5.13-.03.88-.24,1.61-.8,2.28-1.83,2.16-3.17,4.62-4.19,7.25-.37.96-.92,1.31-1.83.95-.32-2.09-.47-4.19-.99-6.19-1.39-5.24-4.3-9.5-8.88-12.46-6.49-4.19-13.26-4.19-20.16-1.04-.35.16-.67.37-1.02.52-4.4,1.88-7.04,5.34-8.65,9.69-.29.77-.75,1.07-1.44,1.33-1.66.63-3.39,1.17-4.94,2.02-8.34,4.59-13.63,11.48-15.42,20.92-.13.69-.39,1.38-.36,2.06.07,1.73-.81,2.7-2.51,3.33-.44-.38-.96-.82-1.47-1.27-2.11-1.88-4.43-3.39-7.03-4.54-3.11-1.38-6.27-1.49-9.53-.79-.55.12-1.11.22-1.44.28-.97-1.24-1.86-2.28-2.63-3.41-.25-.36-.33-.97-.23-1.41.66-2.97-.33-5.51-1.94-7.92-1.73-2.58-3.88-4.71-6.51-6.37-4.05-2.56-8.29-3.08-12.75-1.17-.46.2-.91.41-1.5.67-.21-.53-.41-.97-.55-1.43-1.8-5.65-5.21-10.18-9.78-13.84-2.86-2.29-6.19-3.46-9.91-3.48-3.59-.02-7.14.08-10.47,1.66-6.92,3.28-12.23,8-14.24,15.94-1.39,0-2.78.1-4.16-.05-.52-.06-1.11-.58-1.44-1.05-1.78-2.52-3.98-4.62-6.3-6.63-2.28-1.97-4.88-3.24-7.82-3.75-2.06-.36-4.15-.59-6.24-.72-1.07-.06-1.56-.43-1.9-1.44-.93-2.78-1.79-5.68-4.02-7.71-1.97-1.79-4.02-3.64-6.35-4.85-6.75-3.51-13.9-5.67-21.65-5.03-2.8.23-5.55.74-8.14,1.88-3.56,1.56-7.2,2.99-10.11,5.68-1.67,1.55-3.22,3.24-5.01,5.05-6.26-1.91-12.69-1.41-19.04.75-1.2-1.33-2.31-2.63-3.49-3.86-5.31-5.55-12.05-7.73-19.49-8.54-4.26-.46-8.21.4-12.18,1.62-2.67.82-5,2.29-7.05,4.11-5.46,4.87-8.97,10.87-9.98,18.2-.11.83-.34,1.4-1.11,1.82-8.37,4.56-12.08,12.04-13.18,21.14-.01.12-.08.24-.18.52-.87.39-1.84.86-2.83,1.27-3.46,1.4-6.61,3.36-9.41,5.78-6.26,5.42-10.36,12.19-11.94,20.37-.48,2.49-.94,5.02-1.01,7.54-.06,2,.53,4.01.77,6.03.08.67.08,1.37-.04,2.02-.05.27-.56.68-.78.63-.36-.08-.69-.44-.95-.75-.14-.17-.11-.49-.13-.74-.54-6.73-.27-13.38,1.99-19.82,1.59-4.54,3.87-8.72,6.8-12.55,3.93-5.13,8.74-9.26,14.38-12.4.96-.54,1.49-1.21,1.82-2.26,1.45-4.54,3.75-8.68,6.83-12.28,1.68-1.96,3.8-3.58,5.89-5.14,1.13-.84,1.65-1.78,1.95-3.07.98-4.19,2.66-8.08,5.07-11.67,4.55-6.79,11.06-10.35,18.93-11.74,3.35-.59,6.74-.79,10.08-.17,7.64,1.4,14.39,4.66,19.93,10.19.88.88,1.62,1.16,2.83.86,3.84-.94,7.71-.76,11.57-.02.68.13,1.37.27,2.05.4,1.55-1.4,3.06-2.76,4.57-4.12,1.81-1.64,3.85-2.9,6.06-3.95,5.41-2.56,11.03-4.32,17.03-4.62,1.64-.08,3.31.07,4.93.35,5.51.95,10.73,2.8,15.56,5.61,3.81,2.22,6.69,5.46,9.12,9.11.98,1.48,1.89,3.02,2.85,4.57,3.08.17,6.04.87,8.92,1.95,4.19,1.58,7.4,4.42,10.13,7.88,1.61,2.04,1.62,2.03,4.38,1.79.22-.43.49-.93.74-1.43,4.13-8.27,10.68-13.5,19.69-15.55,4.56-1.04,8.95-.3,13.17,1.75,5.29,2.56,8.77,6.87,11.72,11.72.85,1.4,1.48,2.95,2.22,4.45,1.41-.26,2.77-.61,4.14-.75,4.02-.39,7.74.57,11.06,2.84,2.64,1.8,5.01,3.88,6.53,6.84,1,1.94,1.34,3.96,1.54,6.05.07.76.05,1.53.15,2.29.18,1.46,1.37,2.47,2.82,2.43,6.31-.17,12.13,1.27,17.2,5.2.19.15.43.23.78.42.23-.82.43-1.53.63-2.24,1.94-7.02,5.21-13.27,10.68-18.22,2.91-2.63,6.22-4.66,9.85-6.14,1.19-.49,1.97-1.18,2.56-2.34,3.32-6.44,8.6-10.24,15.75-11.46,9.07-1.54,16.04,1.86,21.42,9.05,1.97,2.64,3.3,5.58,4.15,8.75.09.34.24.67.37,1.02,1.3-1.68,2.58-3.24,3.75-4.88.3-.42.36-1.05.4-1.6.16-2.22.17-4.46.4-6.67.41-3.94,2.17-7.42,3.95-10.89,1.27-2.46,2.82-4.7,4.94-6.5,3.17-2.7,6.85-4.42,10.91-5.21,4.91-.96,9.85-1.22,14.8-.1,7.06,1.6,12.21,5.57,15.12,12.24.53,1.21,1.28,1.85,2.5,2.34,6.03,2.41,9.67,6.86,10.82,13.27.8,4.42.36,8.76-1.14,12.99-.15.41-.28.83-.41,1.23Z"/>
      <path d="M154.9,449.26c-1.86-.1-3.63-.55-5.19-1.87-3.26-2.75-5.13-6.29-5.3-10.43-.2-4.81,1.38-9.03,5.77-11.74.36-.22.75-.5.96-.86.74-1.25,1.48-2.52,2.08-3.84.23-.51.22-1.22.08-1.78-.66-2.66-.12-4.99,1.51-7.2,1.57-2.13,3.63-3,6.15-2.58,1.22.2,2.02-.01,2.8-.99,1.09-1.36,2.51-2.3,4.2-2.85,4.3-1.4,9.44,1.25,9.64,6.31.07,1.63.63,2.98,1.55,4.38,2.45,3.72,2.48,7.99-.24,11.59-.65.86-.98,1.68-.96,2.77.04,2.27-.59,4.42-1.76,6.37-1.39,2.3-3.37,3.85-6.13,4.02-1.3.08-2.05.62-2.68,1.71-2.74,4.75-7.08,6.74-12.47,7ZM176.86,414.65c-.06-1.08-.04-1.98-.17-2.86-.38-2.53-2.02-4.27-4.04-5.53-2.17-1.35-4.59-.81-6.6,1.2-.97.98-1.77,2.13-2.77,3.35-2.76-1.39-5.49-1.42-7.58,1.14-1.96,2.39-1.97,5.14-.67,7.89-1.31,1.58-2.71,3.06-3.02,5.1-.13.88-.55,1.29-1.31,1.66-2.24,1.09-3.79,2.94-4.41,5.28-1.18,4.48-1.04,8.74,2.23,12.59,2.43,2.85,6.29,4.26,9.9,2.99,2.62-.92,5.07-2.07,6.94-4.21,1-1.14,1.97-2.31,3.01-3.53.17-.02.43-.07.68-.06,2.89.12,4.82-1.31,6.1-3.78,1.01-1.96,1.57-4.03,1.55-6.24,0-.98.19-1.76.83-2.6,2.49-3.29,2.93-9.37-.68-12.39Z"/>
      <path d="M317.47,332.98c7.4-3.19,12.53-4.16,15.48-2.84-5.82,1.41-10.58,4.31-14.5,8.67-6.6-3.79-13.56-4.69-21.05-3.06.31-.99.98-1.36,1.58-1.74,3.4-2.15,7.11-3.44,11.13-3.59,2.2-.08,4.22.82,6.16,1.8.39.2.75.47,1.19.75ZM324.27,332.02c-.04-.1-.09-.2-.13-.29-1.56.66-3.19,1.18-4.65,2.01-1.14.65-2.1.72-3.2.1-.44-.25-.93-.41-1.4-.6-3.56-1.4-7.16-1.68-10.8-.3-.35.13-.66.38-.99.57,5.31-.15,10.14,1.23,14.67,3.59,2.22-1.73,4.36-3.4,6.5-5.07Z"/>
      <path d="M460.71,321.28c-3.62,6.65-3.44,13.37-.39,20.16-5.88,2.8-9.05,7.31-9.34,13.88-.09-.29-.27-.57-.27-.86-.04-2.34-.18-4.69-.02-7.02.18-2.53,1.11-4.82,3.04-6.6.51-.47,1.07-.9.83-1.77-1.71-6.19.64-11.33,4.25-16.13.49-.65,1.01-1.27,1.51-1.9.13.08.26.15.4.23ZM458.31,340.38c-1.18-3.2-1.82-6.6-1.63-10.15-.95,1.5-1.24,3.18-1.34,4.86-.06,1.12-.07,2.37.36,3.36.57,1.29.41,2.14-.59,3.03-.47.42-.89.93-1.21,1.47-.39.65-.65,1.37-.97,2.06l.21.05c1.64-1.49,3.28-2.97,5.17-4.68Z"/>
      <path d="M333.12,255.71c5.23-1.49,9.98-3.8,13.94-7.58,5.42,2.88,10.91,4.13,16.91,1.9-2.48,3.95-11.44,5.98-16.16,3.13-4.42,3.17-9.47,3.26-14.69,2.55ZM357.97,252.7c-3.82-.04-7.39-1-10.61-2.71-2.45,1.53-4.74,2.96-7.03,4.39,2.09-.35,4.07-.98,5.99-1.74.99-.39,1.78-.51,2.87-.12,2.84,1.01,5.8,1.1,8.77.18Z"/>
      <path d="M92.84,263.33c.73,1.46,1.33,2.56,1.83,3.7.13.29,0,.74-.1,1.09-1.16,3.89-1.67,7.83-.88,11.85.35,1.79-.18,3.23-1.53,4.67-3.63-1.01-7.35-.75-11.01.78.36-1.67.5-1.88,2.02-2.09,2.7-.36,5.4-.63,8.37-.96.84-.75,1.09-1.86.9-3.35-.42-3.28-.5-6.6.36-9.85.25-.96.25-1.81-.23-2.74-.45-.87-.76-1.87.27-3.12Z"/>
      <path d="M223.32,207.16c6.98,6.58,13.93,5.27,21.04.54-1.15,3.41-6.96,6.62-11.34,6.56-3.29-.05-9.34-3.36-9.7-7.1ZM230.56,212.22c2.84,1.33,5.71,1.3,8.53-.34-2.8.55-5.6.98-8.53.34Z"/>
      <path d="M218.98,349.68c-4.84,7.44-15.74,5.97-19.12,1.52,1.74.6,3.21,1.18,4.72,1.6,1.61.45,3.26.5,4.91.14,1.55-.34,3.13-.58,4.62-1.09,1.54-.53,2.99-1.32,4.87-2.18ZM210.05,354.25s-.05-.06-.07-.09h-1.09s0,.06,0,.09h1.16Z"/>
      <path d="M469.51,192.68c.21-4.29,2.15-7.52,6.02-9.41,2.47-1.21,4.97-1.05,7.37.44-2.92.04-5.78.31-8.21,2.06-2.43,1.75-3.91,4.25-5.18,6.91ZM479.83,183.17c-1.88-.03-3.69.19-5.56,1.7,2.12-.65,3.84-1.17,5.56-1.7Z"/>
      <path d="M166.91,429.61c-1.97,2.84-6.09,3.6-8.19,1.67,1.43-.1,2.83-.06,4.17-.33,1.32-.27,2.58-.84,4.02-1.34Z"/>
    </g>
    <g>
      <path class="st2" d="M308.95,366.22c-5.33,3.69-11.02,4.7-17.2,2.8-.19,1.1-.37,2.09-.52,3.08-.84,5.38-4,8.98-8.53,11.78-5.49,3.4-15.71,2.1-19.8-1.25-.53-.44-1.04-.49-1.74-.45-2.98.16-5.97.36-8.94.2-3.83-.21-7.03-2.16-9.92-4.52-1.19-.97-2.06-1.28-3.68-.76-9.92,3.19-19.2,2.38-27.23-5.01-.84-.77-1.77-1.45-2.75-2.25-2.18,2.18-4.36,4.44-7.18,5.81-2.89,1.4-6.04,1.33-9.33,1.22-.13.68-.3,1.34-.37,2.01-.44,4.12-1.8,7.93-3.79,11.53-1.62,2.93-4.17,5-6.92,6.73-3.79,2.39-7.88,4.17-12.36,4.87-1.76.27-3.53.45-5.31.62-2.12.2-4.2.02-6.16-.91-.34-.16-.72-.25-1.07-.42-2.3-1.1-4.41-1.6-6.94-.11-2.31,1.35-5.07,1.02-7.6.05-1.12-.43-2.2-.97-3.23-1.44-1.71,1.9-3.38,3.82-5.13,5.65-.79.82-1.69,1.57-2.66,2.16-6.95,4.23-14.39,6.03-22.48,4.25-5.41-1.19-9.49-4.18-12.11-9.1-.15-.27-.33-.53-.53-.83-4.03,2.32-7.95,1.74-11.57-.65-3.84-2.53-3.94-6.68-4.17-10.84.01.02-.04-.13-.14-.18-5.53-2.76-9.27-7.35-12.23-12.55-4.19-7.35-3.92-14.87.1-22.21.93-1.7,2.4-3.11,3.72-4.57,1.14-1.27,2.4-2.43,3.63-3.66-1.72-2.48-3.04-5.01-3.87-7.76-1.08-3.59-1.36-7.26-.4-10.93.3-1.15.83-2.27,1.42-3.31.51-.9.48-1.56-.1-2.44-2.52-3.84-4.15-8.01-4.57-12.62-.36-3.92.67-7.59,2.24-11.1,1.62-3.63,3.73-6.95,6.49-9.86,4.14-4.37,9.1-6.14,15.05-4.92.68.14,1.38.23,2.05.42.55.16,1.06.43,1.76.73.66-.83,1.44-1.66,2.03-2.61.24-.4.19-1.07.07-1.58-.6-2.58-.55-5.18-.34-7.79.26-3.19,1.95-5.73,3.87-8.16.23-.29.49-.57.78-.89-3.53-3.45-6.35-7.38-8.47-11.71-1.5-3.07-2.63-6.35-3.61-9.64-1.28-4.3-.85-8.69-.01-13.04,1.46-7.56,5.24-13.76,11.23-18.55,2.74-2.19,5.69-4.09,8.99-5.38.89-.34,1.74-.77,2.5-1.1.69-2.69,1.24-5.3,2.02-7.84,1.88-6.06,5.67-10.62,11.19-13.73.99-.56,1.41-1.22,1.56-2.37.84-6.35,3.83-11.61,8.2-16.24,4.37-4.63,9.88-6.6,15.93-7.42,4.02-.55,7.88.44,11.55,1.97,6.39,2.67,11.39,6.94,14.39,13.3.59,1.25.91,2.62,1.41,4.08,6.56-4.28,13.49-6.61,21.45-3.62.87-1.13,1.76-2.27,2.63-3.42,3.63-4.79,8.26-8.32,13.79-10.55,6.13-2.48,12.4-2.93,18.84-.89,4.05,1.28,7.85,2.88,11.3,5.4,2.87,2.1,5.1,4.59,6.27,7.97.42,1.2.89,2.38,1.37,3.65,1.3.18,2.63.3,3.93.55,3.85.72,6.67,3.12,9.07,5.98,2.76,3.29,4.73,7.08,6.02,11.2.09.3.19.59.29.94,2.24-.23,4.41-.45,6.76-.7-.03.05.11-.1.12-.27.74-10.15,6.11-16.95,15.17-21.16,3.56-1.65,7.29-1.61,11.05-1.57,4.29.04,7.79,1.76,10.97,4.63,4.09,3.7,6.96,8.06,8.58,13.3.05.17.2.31.38.57.45-.19.91-.37,1.36-.56,4.31-1.77,8.46-1.38,12.45.97,3.09,1.82,5.47,4.34,7.41,7.33,1.65,2.56,1.91,5.34,1.4,8.02.99,1.39,1.86,2.62,2.87,4.04,4.7-1.44,9.39-.91,13.71,1.84,4.12,2.62,8.05,5.46,9.19,10.66,1.89-.9,3.58-1.72,5.3-2.54-.05-.21-.07-.39-.13-.56-1.13-3.14-1.55-6.35-1.4-9.71.12-2.7.49-5.31,1.22-7.89.92-3.26,2.75-6,4.92-8.53.57-.66,1.29-1.27,2.07-1.67,2.48-1.28,4.99-2.52,7.55-3.63.77-.34,1.25-.67,1.55-1.47,1.69-4.48,4.59-7.77,9.04-9.86,2.71-1.28,5.46-2.31,8.37-2.39,5.03-.15,9.86.63,13.94,4.09,5.37,4.55,8.25,10.22,8.35,17.28,0,.64.05,1.27.04,1.91-.01.62-.07,1.24-.11,1.96h4.74c.12-.39.31-.9.43-1.43.68-2.95,1.73-5.74,3.78-8.04.8-.89,1.74-1.66,2.77-2.62-.18-.68-.43-1.46-.6-2.25-1.19-5.49-1.14-10.97,1.53-15.99,1.93-3.64,4.48-6.95,8.06-9.27,2.19-1.43,4.7-1.91,7.16-2.52,1.23-.3,2.52-.33,3.78-.47,4.73-.5,9.3.14,13.61,2.15,4.74,2.21,8.41,5.51,9.89,10.75.27.96.67,1.46,1.67,1.78,9.47,3.1,13.19,13.45,10.92,21.08-.76,2.57-1.78,5-3.36,7.41,8.06.33,14.12,3.32,16.65,11.3,6.64.69,9.9,4.96,8.4,12.27,1.88,1.56,3.46,3.41,4.62,5.66,2,3.88,1.87,7.86.75,11.88-.39,1.39-1.08,2.71-1.76,4.01-2.21,4.24-6.01,5.81-10.52,6.11-.57.04-1.14,0-1.92,0,0,.63.05,1.18,0,1.73-.21,1.95-.33,3.93-.73,5.85-1.13,5.46-7.2,10.34-13.01,10.15-.56-.02-1.13,0-1.94,0,0,.8-.03,1.54,0,2.28.19,3.58-1.5,7.18-6.59,8.65-.67.19-1.35.35-2.29.59,6.49,6.89,4.63,13.99.76,21.38.73.52,1.5,1.16,2.36,1.65,4.91,2.84,7.8,7.2,9.5,12.47.97,3,.93,6.01.09,9.03-1.18,4.25-2.92,8.16-6.65,10.85-.14.1-.23.28-.32.39.76,2.21,1.43,4.39,2.24,6.52,1.54,4.05.63,7.9-.86,11.7-.94,2.4-2.57,4.37-4.21,6.34-2.21,2.67-4.54,5.14-7.49,7.01-2.77,1.76-5.72,3-9.13,3.36,0,1.39.11,2.66-.02,3.91-.48,4.64-2.36,8.46-6.75,10.56-1.22.58-2.67.68-4.19,1.04-.03.27-.18.7-.12,1.11.81,5.5-.62,10.6-2.8,15.55-1.38,3.14-3.6,5.71-6,8.09-3.73,3.71-8.09,6.36-13.29,7.5-1.99.43-3.94,1.07-5.95,1.35-5.23.71-9.97-.77-14.3-3.64-3.48-2.3-6.61-4.99-8.65-8.73-2.31.53-4.51,1.37-6.75,1.49-4.95.27-10.04.49-14.29-2.71-4.34-3.26-7.88-7.2-9.35-12.64-.76-2.83-1.63-5.64-1.24-8.62.15-1.18.47-2.34.69-3.4-2.14-.85-4.36-1.38-6.18-2.54-1.84-1.17-3.29-2.96-4.96-4.51-7.98,1.58-9.62,1.13-14.32-.63-.17.12-.39.25-.57.42-3.85,3.62-8.64,5.52-13.43,7.46-3.9,1.58-7.94,1.6-12.03,1.26-2.74-.23-5.41-.77-7.92-1.95-2.71-1.27-4.92-3.16-6.84-5.41-1.31-1.55-2.76-3-3.44-5.01-.11-.34-.6-.68-.97-.77-1.85-.43-3.43-1.32-4.9-2.81ZM317.54,333.23c-3.59-2.47-7.32-3.27-11.39-2.13-1.22.34-2.45.72-3.61,1.22-2.42,1.04-4.73,2.27-6.48,4.8,4.13-1.01,7.94-.69,11.8-.05,3.9.65,7.22,2.62,10.8,4.28,5.17-6.76,12.53-8.46,20.45-9.12-.74-.6-1.46-1.09-2.26-1.39-1.01-.37-2.06-.74-3.12-.84-1.82-.18-3.68-.38-5.47-.16-3.73.46-7.33,1.51-10.72,3.39ZM454.89,340.02c-2.63,1.98-3.9,4.69-4.21,7.86-.46,4.68-.11,7.37,1.12,9.02,2.67-6.29,6.59-11.59,11.97-15.69-.7-1.37-1.4-2.51-1.91-3.74-2.07-4.96-2.2-10-.51-15.09.2-.6.33-1.22.59-2.17-.61.37-.84.48-1.04.63-.25.19-.52.38-.72.62-2.45,2.89-4.42,6.07-5.62,9.68-.95,2.89-.43,5.78.32,8.89ZM347.2,244.03c-4.46,6.05-9.32,8.98-18.21,10.76,2.89.92,5.55,1.37,8.27,1.33,3.81-.06,7.45-.85,10.54-3.14,5.9,3.31,15.14.2,17.35-4.29-6.9,2.32-13.12,1.82-17.95-4.66ZM221.93,202.03c.04.47,0,.96.13,1.4.3,1.1.68,2.18,1,3.28,1.15,3.88,5.26,7.07,9.35,7.35,5.25.36,8.96-2.28,12.09-6.09.05-.06-.03-.23-.06-.43-8.93,4.13-16.65,3.31-22.5-5.51ZM198.86,349.5c1.74,2.92,2.34,3.39,5.94,4.66,4.91,1.74,10.23.4,13.41-3.67,1.3-1.67,2.09-3.74,3.07-5.65.16-.32.11-.75.19-1.46-6.03,8.49-13.87,8.98-22.61,6.12ZM469.71,194.95c3.36-7.17,8.66-9.83,16.16-8.28-.79-.98-1.57-1.8-2.43-2.51-2.03-1.68-4.35-2.06-6.81-1.22-4.76,1.61-7.72,6.55-6.92,12.01ZM171.29,356.31c1.52,1.58,3.56,2.05,5.71,2.42,1.26-1.45,2.47-2.86,3.7-4.28-3.23.64-6.29,1.24-9.41,1.86Z"/>
      <path class="st2" d="M151.78,425.72c.09-2.29,1.51-4.08,3.1-5.83-1.16-2.99-1.28-5.9,1.05-8.37,2.15-2.28,4.77-1.99,7.32-.92,1.07-1.23,2.07-2.37,3.05-3.52,1.95-2.28,6.41-1.76,8.19.42,1.47,1.81,2.59,3.58,2.38,6-.04.49.22,1.12.55,1.51,2.82,3.37,2.6,8.21-.66,11.14-.79.71-1.11,1.38-1.11,2.42-.03,4.71-3.03,7.98-7.75,8.57-.12.01-.23.1-.45.2-.19.51-.38,1.11-.63,1.68-1.95,4.44-5.04,7.6-9.89,8.72-3.12.72-5.71-.3-7.92-2.56-3.77-3.85-4.16-8.42-2.8-13.3.67-2.41,2.23-4.27,4.51-5.44.28-.14.56-.28.84-.43.05-.03.09-.09.25-.28ZM157.33,429.64c1.56,2.24,3.79,3.08,5.89,2.42,2.75-.86,4.09-2.19,4.1-4.16-3,2.04-6.12,3.48-10,1.73Z"/>
      <path class="st2" d="M389,164.44c2.27,2.34,3.36,5.07,3.14,8.32-.3,4.34-3.3,7.17-7.67,6.99-1.04-.04-1.72.15-2.45.97-2.78,3.12-5.98,3.49-10.09,1.85-1.32-.53-2.3-1.58-2.96-2.87-.34-.67-.67-1.36-1.03-2.09-2.16.39-4.24.34-5.94-1.2-.74-.67-1.48-1.44-1.95-2.31-1.41-2.64-1.57-5.49-.88-8.35.57-2.39,2.04-4.09,4.44-4.82,1.26-.39,2.56-.63,3.88-.95.52-1.6.95-3.46,1.7-5.18,2.12-4.83,6.25-6.8,11.18-7.4,1.63-.2,3.3-.1,4.87.6,3.27,1.46,5.03,3.97,5.39,7.51.26,2.52-.21,4.94-1.03,7.31-.18.53-.39,1.06-.6,1.62Z"/>
      <path class="st2" d="M486.64,378.2c-2.06-2.38-2.06-4.97-.77-7.64,1.26-2.6,3.53-3.08,6.21-2.64.3-.51.58-.98.88-1.45,1.81-2.91,5.11-4.37,8.32-3.83,2.05.34,3.26,1.57,4.1,3.32,1.18,2.47.57,4.82-.52,7.13-.22.46-.53.86-.87,1.39.24.32.49.67.75,1,1.47,1.86,1.72,3.92.95,6.11-.81,2.3-2.73,3.53-5.17,3.41-.38-.02-.76-.05-1.17-.07-1.55,2.03-3.44,3.5-6.02,4.02-2.73.55-4.94-.34-6.61-2.4-1.69-2.09-2.02-4.48-.8-6.97.22-.45.46-.89.72-1.37Z"/>
      <path class="st2" d="M190.61,397.52c-1.51-3.04-1.13-5.49,1.16-7.64,2-1.88,4.54-1.86,8.16.09.24-.15.5-.32.78-.48,2.07-1.18,4.18-.92,5.66.88.6.73,1.23,1.16,2.11,1.47,1.64.56,2.6,1.9,2.96,3.49.34,1.46.51,3.03.4,4.52-.21,2.82-2.52,4.86-5.38,4.95-.88.03-1.76-.14-2.85-.23-.26.48-.57,1.08-.9,1.67-1.22,2.22-2.79,4.08-5.18,5.15-1.51.68-3.07.84-4.66.66-1.65-.19-2.73-1.25-3.53-2.63-2.08-3.58-1.56-7.07.38-10.5.28-.49.61-.96.89-1.4Z"/>
    </g>
  </g>
  <g>
    <g>
      <path d="M190.93,302.4c-.91,4.54-2.37,8.59-4.52,12.4-.89,1.57-2.03,2.13-3.87,2.08-9.06-.24-18.12-.28-27.18-.51-4.76-.12-9.4.6-14.07,1.34-7.2,1.14-14.3,2.6-21.11,5.3-6.33,2.51-12.4,5.45-17.2,10.45-3.86,4.02-6.6,8.75-8.48,13.96-.96,2.66-.84,5.41-.04,8.1,2.12,7.12,6.42,12.42,13.3,15.39,1.97.85,4.12,1.4,6.24,1.71,6.08.9,12.09.43,17.94-1.56,7.92-2.7,15.25-6.58,21.9-11.6,7.15-5.41,13.46-11.72,18.85-18.94,6.28-8.41,11.93-17.21,16.31-26.75,1.67-3.64,2.9-7.49,4.2-11.29,2.99-8.77,5.27-17.72,6.72-26.88.75-4.72,1.49-9.46,1.94-14.21.45-4.63.78-9.34-.19-13.92-1.21-5.65-3.63-10.66-8.47-14.32-6.03-4.55-12.64-7.55-20.06-8.97-4.08-.78-8.11-.56-12.19-.26-9.66.71-18.46,4.31-27.17,8.13-12.91,5.67-24.07,13.87-33.65,24.18-5.79,6.24-10.07,13.49-13.31,21.32-2.05,4.95-3.98,9.96-4.76,15.31-.24,1.63-.27,3.3-.32,4.95-.06,2.03-.67,2.78-2.69,2.95-.69.06-1.45.11-2.09-.1-5.61-1.86-9.97-5.19-11.91-10.96-.49-1.45-.54-3.17-.36-4.71.81-6.76,3.29-12.9,6.89-18.68,7.58-12.17,17.17-22.53,28.45-31.27,5.54-4.29,11.52-8.01,17.31-11.98,5.14-3.53,10.82-5.97,16.56-8.31,2.07-.84,4.17-1.61,6.19-2.55,5.32-2.45,10.97-3.71,16.66-4.87,5.07-1.03,10.17-1.86,15.34-2.03,5.15-.17,10.31-.66,15.47.06,7.01.97,13.8,2.49,19.78,6.58,3.61,2.47,6.46,5.55,8.39,9.49,3.3,6.73,4.96,13.89,5.69,21.31.64,6.58.26,13.14-.44,19.67-1.12,10.49-3.43,20.76-6.77,30.76-2.36,7.07-4.87,14.11-7.63,21.03-2.55,6.39-5.62,12.57-9.18,18.49-5.43,9-11.96,17.15-18.82,25.08-6.6,7.63-14.05,14.32-22.27,20.07-7.44,5.21-15.47,9.38-24.44,11.49-2.93.69-5.83,1.52-8.83,1.51-3.24,0-6.49-.24-9.72-.54-1.77-.17-3.5-.67-5.25-1.05-3.77-.82-7.34-2.22-10.71-4.04-3.23-1.75-5.81-4.34-8.22-7.09-3.58-4.09-6.2-8.76-7.73-13.95-1.87-6.33-1.76-12.73.08-19.06,1.83-6.31,4.77-12.07,8.8-17.28,2.55-3.3,5.34-6.35,8.63-8.92,9.66-7.5,20.44-12.8,32.28-15.71,4.99-1.23,10.19-1.62,15.29-2.41,6.87-1.06,13.76-.47,20.62,0,5.08.35,10.15,1,15.22,1.43,2.03.17,4.08.12,6.12.16.76.02,1.52,0,2.5,0Z"/>
      <path d="M300.01,270.33c1.88-.7,3.4-1.35,4.98-1.84,6.06-1.85,12.03,1.44,13.83,7.51,1.1,3.69,1.13,7.41.62,11.18-.33,2.4-.74,4.79-.92,7.2-.11,1.5.03,3.05.26,4.55.22,1.36.92,1.89,2.28,1.77,1.26-.11,2.54-.35,3.71-.8,1.6-.62,3.17-1.38,4.63-2.26,4.82-2.91,9.41-6.14,13-10.57.84-1.04,1.6-2.15,2.26-3.3.41-.71.68-1.64-.13-2.27-.74-.58-1.66-.36-2.31.18-1.01.86-2.12,1.73-2.78,2.84-1.03,1.73-1.7,3.68-2.56,5.52-.26.55-.5,1.22-.96,1.54-3.32,2.38-6.71,4.66-10.46,6.33-.22.1-.47.12-.98.24.36-1.84.61-3.53,1.03-5.18,1.79-7.02,4.84-13.44,9.59-18.95,2.34-2.72,5.22-4.67,8.9-5.16,5.49-.72,10.3,3.7,10.2,9.28-.06,3.59-1.77,6.47-3.78,9.22-2.78,3.79-6.29,6.85-10.04,9.65-4.65,3.47-9.27,6.99-14,10.35-3.29,2.34-6.97,3.99-10.84,5.14-1.03.31-1.81.75-2.53,1.56-3.27,3.69-7.06,6.64-11.93,7.94-5.28,1.41-10.19.92-14.11-3.86-.13.87-.29,1.51-.3,2.16-.04,1.59-.02,3.19-.01,4.79,0,1.51-.39,2.88-1.27,4.13-2.79,3.99-6.64,6.65-10.95,8.72-1.28.62-2.44.37-3.52-.61-1.38-1.25-2.2-2.8-2.68-4.55-1.42-5.1-1.36-10.21-.07-15.32.28-1.11.57-2.21.63-3.49-1.08,1.08-2.15,2.16-3.23,3.24-2.16,2.17-4.27,4.39-6.49,6.5-1.05,1.01-2.23,1.91-3.46,2.7-4.8,3.08-8.79,2.49-12.47-1.72-1.53,1.14-3,2.35-4.58,3.39-7.05,4.63-14.65.64-17.72-4.2-1.51-2.37-2.2-5.01-2.1-7.83.04-1.07.11-2.15.17-3.32-3.72.73-7.17,2.31-11.19,2.48.28-.77.45-1.3.65-1.81,1.65-4.14,3.35-8.27,4.94-12.44.33-.87.8-1.33,1.65-1.63,2.04-.73,4.02-1.64,6.07-2.34,3.59-1.21,5.98-3.74,7.97-6.81,1.52-2.35,3.14-4.65,4.8-6.91,2.19-2.98,5.24-4.83,8.66-6.06,4.15-1.49,10.62-.47,13.65,4.85.06.1.19.16.4.34.56-.43,1.17-.85,1.74-1.33,2.35-1.99,5.06-2.59,8.06-2.12,2.53.4,3.68,2.18,2.71,4.56-.56,1.39-1.43,2.71-2.4,3.86-5.4,6.46-9.14,13.79-11.55,21.82-.2.67-.42,1.37-.42,2.05,0,.52.18,1.34.52,1.5.47.22,1.21.04,1.76-.18.51-.21.95-.64,1.35-1.05,1.92-1.96,3.87-3.89,5.71-5.93,7.12-7.9,12.33-16.99,16.77-26.6,5.55-12.03,9.45-24.63,13.41-37.22,2.12-6.75,3.96-13.58,5.96-20.37.54-1.83,1.17-3.64,1.88-5.42.37-.93.85-1.91,1.54-2.61,3.46-3.47,7.61-5.56,12.58-5.63,1.16-.02,2.43.34,3.46.88,1.68.87,2.79,2.3,2.35,4.37-.39,1.79-.68,3.66-1.42,5.31-1.57,3.48-3.38,6.86-5.14,10.26-5.35,10.33-10.12,20.89-12.95,32.23-.6,2.41-1.3,4.8-1.94,7.2-.19.72-.31,1.47-.5,2.35ZM292.72,297.05c.06,1.25.05,2.15.15,3.04.1.88.4,1.75.47,2.63.21,2.71,3.76,4.35,6.16,2.5,1.1-.85,2.19-1.78,3.11-2.82,3.4-3.85,5.63-8.37,6.95-13.28.55-2.04.58-4.32.35-6.44-.38-3.51-2.86-4.98-6.3-4.24-3.19.69-5.24,2.84-6.93,5.36-2.74,4.1-3.65,8.77-3.96,13.25ZM247.38,296.26c.04-1.41-.12-2.79-1.49-3.5-1.33-.69-2.73-.21-3.77.64-1.11.9-2.11,2.05-2.86,3.27-2.41,3.92-3.69,8.24-4.16,12.8-.07.68,0,1.41.17,2.08.39,1.5,1.4,1.94,2.74,1.22.56-.3,1.1-.67,1.54-1.12,3.68-3.7,6.1-8.14,7.54-13.12.21-.72.2-1.51.29-2.27Z"/>
      <path d="M434.28,291.67c-2.55,1.9-4.97,3.71-7.6,5.68-1.14-2.59-2.17-4.96-3.26-7.44,4.48-3.38,7.82-7.72,10.72-12.39,2.08-3.35,3.92-6.87,5.64-10.42,2.88-5.92,4.78-12.22,6.7-18.5,1.42-4.63,2.93-9.24,4.35-13.87.47-1.52.9-3.07,1.13-4.64.15-1.03.07-2.17-.23-3.17-.45-1.55-1.61-2.39-3.3-2.4-3.33-.01-6.62.23-9.89.92-10.16,2.14-19.01,6.85-26.84,13.59-1.98,1.71-3.98,3.4-6.08,4.95-2.18,1.61-4.61.57-5.14-2.14-1.12-5.68.58-10.49,4.8-14.36,4.28-3.93,9.31-6.74,14.66-8.88,6.72-2.68,13.73-4.38,20.9-5.3,4.87-.62,9.74-.67,14.68-.11,5.43.61,10.95.47,16.44.6,7.62.18,14.86-2.04,22.22-3.57,5.88-1.22,11.24-3.73,16.63-6.18,1.44-.66,2.75-1.61,4.12-2.42.44-.26.87-.54,1.31-.8,2.96-1.74,5.28-1.13,5.7,3.1.21,2.12-.79,3.99-1.8,5.76-1.95,3.39-5.02,5.61-8.44,7.25-4.23,2.03-8.73,3.2-13.45,3.43-3.95.2-7.91.31-11.84.74-4.57.5-9.04,1.55-13.4,3.08-1.5.53-2.72,1.34-3.82,2.44-2.99,2.98-5.13,6.55-6.73,10.38-2.65,6.35-5.39,12.7-7.43,19.26-2.72,8.76-5.96,17.39-7.59,26.46-1.08,6.02-1.98,12.08-2.92,18.13-1,6.36-2.01,12.72-2.91,19.1-.43,3.03-.69,6.09-.86,9.14-.26,4.91-.42,9.82-.53,14.73-.08,4.01-.17,8.04.02,12.05.38,8.05,1.7,15.97,3.57,23.8.46,1.92.95,3.84,1.27,5.79.17,1.05.22,2.2-.03,3.22-1.18,4.87-6.21,6.89-10.51,4.28-2.32-1.4-4.01-3.3-4.69-6.02-1.23-4.89-2.4-9.79-2.6-14.85-.24-6.12-.59-12.24-.47-18.36.22-10.98,1.63-21.87,2.85-32.78.76-6.73,1.92-13.38,3.15-20.02.56-2.99.96-6.01,1.48-9.26Z"/>
      <path d="M389.15,275.37c2.35-2.22,5.15-2.84,8.19-2.56.69.06,1.39.22,2.03.48,2.57,1.06,3.32,2.68,2.13,5.16-1.16,2.41-2.59,4.68-3.92,7-3.22,5.62-5.79,11.5-7.27,17.82-.36,1.51-.72,3.06-.45,5.03,6.64-4.56,11.62-10.41,16.67-16.29,1.67,2.65,3.21,5.1,4.85,7.69-.34.43-.77.98-1.2,1.52-1.35,1.7-2.7,3.4-4.04,5.1-4.78,6.03-10.12,11.46-16.45,15.88-1.9,1.33-4,2.02-6.25,2.15-2.29.13-4.19-.9-5.7-2.6-.2-.22-.34-.5-.55-.81-.29.17-.53.28-.71.43-3.45,2.83-7.5,4.01-11.87,4.16-1.58.05-3.2.05-4.74-.27-3.16-.66-5.4-2.49-6.2-5.77-.32-1.3-.58-2.6-.91-4.07-.33.21-.68.4-.98.64-2.75,2.17-5.44,4.43-8.26,6.5-2.42,1.77-5.2,2.75-8.23,2.67-4.31-.1-7.73-1.94-10.11-5.57-1.27-1.94-2.18-4.03-2.33-6.4-.06-.95.02-1.72.92-2.32,3.81-2.56,7.58-5.17,11.55-7.88.26,1,.5,1.95.76,2.89.61,2.2,1.95,3.78,4.21,4.27,2.44.53,4.81.1,6.49-1.85,1.57-1.82,2.98-3.83,4.22-5.89,3.72-6.17,7.28-12.44,11-18.61,1.81-3.01,3.95-5.79,6.63-8.12,2.32-2.01,4.97-3.31,7.91-4.08,3.45-.9,6.55.17,9.54,1.75,1.01.53,1.93,1.22,3.08,1.95ZM369.94,302.94c.34,1.47.55,2.99,1.07,4.38.49,1.31,1.39,1.47,2.63.77.27-.16.53-.36.77-.56,4.8-4.06,7.72-9.24,9.05-15.33.25-1.15.21-2.43.04-3.61-.34-2.38-1.9-3.34-4.12-2.43-1.2.49-2.47,1.2-3.3,2.16-3.58,4.16-5.8,8.94-6.13,14.61Z"/>
      <path d="M421.21,267.73c-.43.43-.89.77-1.18,1.22-1.73,2.66-2.88,5.57-3,8.76-.08,2.12.46,4.2,1.42,6.09,1.19,2.32,2.54,4.57,3.77,6.87,2.35,4.39,4.43,8.91,5.58,13.78.64,2.68.66,5.43.25,8.18-.69,4.53-1.23,9.1-2.72,13.47-1.38,4.06-3.08,7.97-5.68,11.43-2.3,3.07-5.14,5.54-8.66,7.05-3.46,1.49-6.6.78-8.89-1.42-1.57-1.51-2.57-3.44-3.29-5.54-1.87-5.46-1.34-10.82.6-16.1,1.61-4.38,3.67-8.57,6.28-12.43,1.96-2.89,4.22-5.58,6.53-8.6.71.77,1.34,1.28,1.76,1.93,3.09,4.75,2.91,3.88-.21,8-2.65,3.51-5.43,6.93-7.09,11.08-1.31,3.28-1.66,6.67-.91,10.13.51,2.34,1.92,3.02,4.09,2.09,1.28-.55,2.26-1.45,3.02-2.57,2.39-3.49,4.44-7.12,5.31-11.35,1.39-6.76.53-13.02-3.64-18.7-2.07-2.82-4.23-5.63-5.9-8.68-3.17-5.77-3.92-12.04-3.05-18.54.52-3.91,1.8-7.56,3.64-11.01,2.02-3.79,4.89-6.72,9.14-7.91,5.86-1.64,9.96,2,11.1,6.1.61,2.19.32,4.44-.12,6.64-.96,4.79-2.58,9.34-5.17,13.5-.9,1.44-1.99,2.77-3.14,4.36-.48-.63-.87-.96-1.04-1.39-.53-1.29-1.14-2.59-1.44-3.94-.39-1.75-.38-3.44.83-5.07.92-1.25,1.43-2.84,1.97-4.33.33-.92.62-1.96-.18-3.09Z"/>
      <path d="M122.68,303.31c-5.42,2.57-10.59,5.02-15.81,7.5.24-2.35.51-4.8.72-7.25.55-6.69,2.14-13.21,3.36-19.79,1.52-8.21,2.97-16.44,4.52-24.65.66-3.51,1.53-6.97,2.2-10.48.94-4.94,3.87-8.36,8.04-10.88,3.44-2.08,6.94-4.07,10.76-5.37,1.51-.51,3.04-.98,4.6-1.29,2.67-.53,3.98.74,3.75,3.5-.22,2.58-.99,4.98-2.32,7.22-4.2,7.09-8.08,14.35-11.03,22.05-1.98,5.17-3.7,10.48-5.04,15.84-1.2,4.81-1.75,9.79-2.53,14.7-.48,3.02-.83,6.05-1.21,8.9Z"/>
      <path d="M121.54,324.74c-.02.53.03.97-.07,1.38-1.63,6.46-3.7,12.74-7.59,18.25-1.45,2.05-3.2,3.81-5.38,5.08-.66.38-1.35.75-2.07.98-2.02.67-3.02.11-3.52-1.95-.15-.61-.24-1.27-.18-1.89.3-3.23.65-6.46,1.01-9.69.23-2.05,1.51-3.47,3.01-4.69,4.11-3.33,8.7-5.77,13.76-7.3.29-.09.6-.1,1.04-.16Z"/>
    </g>
    <g>
      <path class="st1" d="M216.82,245.17c-.31-1.07-.68-2.12-.93-3.2-1.51-6.55-4.67-12.26-8.97-17.33-2.89-3.4-6.68-5.66-10.68-7.59-4.38-2.11-8.88-3.85-13.6-5.04-1.16-.29-2.28-.83-3.32-1.43-.96-.55-.88-1.38.11-1.88.49-.25,1.08-.35,1.64-.44,3.99-.59,7.89.14,11.75,1,3.82.85,7.33,2.5,10.65,4.6,4.66,2.94,7.75,7.13,10.01,12.03,2.79,6.07,3.88,12.5,3.75,19.15-.14.04-.28.09-.42.13Z"/>
      <path class="st1" d="M98.15,325.58c.78-2.1,2.18-3.63,3.62-5.16,3.65-3.89,8.22-6.41,12.87-8.81,5.16-2.66,10.45-5.04,16.23-6.04,2.57-.45,5.14-1.02,7.74-1.22,2.65-.21,5.34-.04,8.01-.01.22,0,.45.16.69.6-2.02.4-4.03.9-6.06,1.18-12.11,1.69-23.37,5.7-33.62,12.37-2.61,1.7-5.02,3.71-7.51,5.59-.66.49-1.31,1-1.96,1.5Z"/>
      <path class="st1" d="M128.53,262.42c-.32-1.95-.08-3.8.42-5.61.85-3.07,1.89-6.07,3.47-8.87.91-1.6,1.62-3.32,2.39-4.99.21-.46.39-.96.43-1.46.14-1.6-1.14-2.69-2.68-2.25-.91.26-1.77.71-2.65,1.08-.58.25-1.15.51-2.14.95.38-.61.5-.92.72-1.13,2.4-2.28,5.15-3.93,8.41-4.66.19-.04.37-.08.56-.1,2.42-.29,3.38.78,2.69,3.14-.95,3.26-2.49,6.27-4.31,9.12-2.72,4.26-4.97,8.74-6.7,13.49-.16.45-.41.86-.61,1.29Z"/>
      <path class="st1" d="M100.78,379.88c9.8,5.52,20.45,5.89,31.57,5.46-.95.98-1.91,1.28-2.83,1.53-6.65,1.77-13.32,2.1-19.98.06-3.35-1.03-7.24-4.08-8.76-7.05Z"/>
      <path class="st1" d="M74.12,269.59c-.2.57-.41,1.15-.62,1.72-1.71,4.65-2.24,9.42-1.41,14.31.2,1.17.79,2.27,1.15,3.42.32,1.02.73,2.05.83,3.1.1,1.08-.54,1.54-1.59,1.2-.82-.26-1.75-.65-2.27-1.28-1.18-1.43-2.19-3.08-2.23-4.98-.04-2.02-.09-4.14.44-6.05.85-3.05,2.12-6,3.36-8.93.42-1,1.29-1.83,1.95-2.73.13.07.26.15.39.22Z"/>
      <path class="st1" d="M80.92,259.52c.22-.57.39-1.16.66-1.71,1.91-3.91,4.2-7.56,7.25-10.72,5.77-5.98,11.98-11.43,19.08-15.79.85-.52,1.78-.9,2.95-1.1-.14.35-.18.81-.43,1.04-.89.81-1.81,1.61-2.8,2.3-7.65,5.38-14.48,11.67-20.68,18.64-1.64,1.85-3.01,3.95-4.5,5.94-.4.53-.78,1.06-1.18,1.6-.12-.07-.23-.14-.35-.21Z"/>
      <path class="st1" d="M300.77,230.9c-.35-2.64.24-5.1.94-7.53.42-1.47.97-2.9,1.48-4.34.98-2.77,2.81-4.86,5.37-6.23,1.03-.55,2.27-.77,3.44-.96.44-.07,1.2.28,1.4.66.2.38.04,1.16-.26,1.53-.74.94-1.61,1.81-2.5,2.62-4.11,3.75-7.38,8.08-9.39,13.3-.13.33-.32.63-.48.94Z"/>
      <path class="st1" d="M430.56,362.79c.44,2.68.94,5.35,1.3,8.04.64,4.88,1.81,9.62,3.62,14.19.65,1.64,1.56,3.18,2.46,4.99-2.16-.23-3.43-1.42-4.34-3.1-1.41-2.6-2.33-5.38-2.82-8.28-.51-3.01-.93-6.04-1.12-9.08-.14-2.24.16-4.52.26-6.77.21,0,.43,0,.64,0Z"/>
      <path class="st1" d="M270.3,322.01c.2.72.32,1.07.4,1.43.69,3.09,2.26,5.61,4.72,7.61,1.52,1.23,1.68,2.55.62,3.54-1.52,1.4-3.32,1.37-4.49-.12-1.32-1.69-2.08-3.63-2.37-5.74-.27-1.97-.35-3.93.47-5.81.09-.21.28-.39.65-.9Z"/>
      <path class="st1" d="M234.93,287.35c1.1-2.38,2.75-4.34,4.72-5.96,2.51-2.07,5.39-2.85,8.58-1.72.65.23,1.26.6,1.84.98.61.39.79,1,.51,1.68-.3.73-.87,1.08-1.66,1.01-.31-.03-.62-.13-.93-.23-2.8-.93-5.43-.42-7.91,1-1.76,1.01-3.43,2.16-5.15,3.25Z"/>
      <path class="st1" d="M418.78,222.82c-6.17,4.31-11.37,9.52-15.36,16.08-1.19-5.84,8.18-15.69,15.36-16.08Z"/>
      <path class="st1" d="M443.91,272.26c.56,3-2.42,10.56-6.68,19.3-.37-3.48.61-6.8,1.5-10.1.93-3.41,3.25-6.08,5.17-9.2Z"/>
      <path class="st1" d="M382.78,278.29c-2.71-.3-5.21-.09-7.51.93-2.23,1-4.33,2.31-6.77,3.65,1.01-2.12,2.49-3.46,3.96-4.82,2.02-1.86,4.37-2.84,7.15-2.62,1.72.14,2.44.74,3.17,2.85Z"/>
      <path class="st1" d="M287.91,268.41c.39-4.42,4.63-16.24,6.43-18.1.62,4-3.06,14.87-6.43,18.1Z"/>
      <path class="st1" d="M410.95,269.12c.89-3.53,2.56-6.54,5.28-8.91,1.13-.99,2.46-1.59,3.93-1.85,1.61-.29,2.82.38,3.27,1.88-5.8.66-9.16,4.73-12.47,8.89Z"/>
      <path class="st1" d="M298.16,312.47c5.24-2.29,8.11-6.76,11.21-11.19-.07.52-.1,1.05-.23,1.56-.85,3.28-2.61,6.06-4.86,8.52-1.72,1.88-3.85,2.26-6.12,1.1Z"/>
      <path class="st1" d="M315.09,276.34c-.64-.62-1.13-1.09-1.61-1.57-2.12-2.13-4.57-2.86-7.48-1.85-1.11.39-2.24.89-3.52.63-.27-1.08.42-1.64,1.09-2.04,5.31-3.22,9.76-1.06,11.67,4.22.03.1-.05.23-.13.62Z"/>
      <path class="st1" d="M233.19,324.85c-.69.48-1.12.91-1.64,1.12-2.53,1.03-5.08.32-7.02-1.94-1.87-2.18-2.35-4.78-2.02-7.65.21.42.42.84.65,1.24.59,1.05,1.18,2.1,1.8,3.14,1.49,2.52,3.7,3.77,6.64,3.72.32,0,.63.03.95.06.06,0,.11.05.64.31Z"/>
      <path class="st1" d="M346.19,273.92c-1.99.39-3.79.51-5.41,1.13-1.56.6-2.92,1.71-4.7,2.8.31-.84.47-1.48.78-2.03,1.28-2.24,3.29-3.49,5.74-4.06,1.12-.26,2.16.13,2.99.91.3.29.4.8.61,1.26Z"/>
      <path class="st1" d="M362.99,319.57c-2.46,1.24-4.06,1.03-5.47-.52-1.31-1.45-1.39-3.84-.08-6,.92,2.91,2.38,5.28,5.55,6.52Z"/>
      <path class="st1" d="M273.18,297.59c.94,3.31-3.44,7.78-7.41,9.4,2.53-3.21,4.94-6.26,7.41-9.4Z"/>
      <path class="st1" d="M330.76,318.26c-1.93-.84-3.18-1.98-3.74-3.79-.64-2.06-.43-2.5,1.53-3.65.7,2.35,1.41,4.73,2.22,7.43Z"/>
      <path class="st1" d="M257.5,287.48c-.02-3.47,1.54-5.6,4.25-6.12.41-.08.89.21,1.33.33-.14.46-.23.93-.44,1.36-.09.2-.38.33-.61.44-1.75.84-3.2,2.04-4.54,3.99Z"/>
      <path class="st1" d="M410.31,341.11c-3.88,2.34-7.79.3-8.31-4.32,2.2,2.69,4.93,3.9,8.31,4.32Z"/>
      <path class="st1" d="M516.12,204.49c-.82,3.6-5.42,5.75-8.24,4.59,2.72-1.51,5.45-3.03,8.24-4.59Z"/>
      <path class="st1" d="M397.58,304.58c2.6-2.73,5.16-5.43,7.72-8.13-.05,2.98-4.08,7.24-7.72,8.13Z"/>
      <path class="st1" d="M390.34,281.88c.29-1.4.48-2.82.89-4.18.39-1.28,1.63-1.75,3.62-1.46-1.38,1.97-2.7,3.85-4.02,5.74l-.5-.09Z"/>
    </g>
  </g>
</svg>