<?xml version="1.0" encoding="UTF-8"?>
<svg id="Calque_1" xmlns="http://www.w3.org/2000/svg" version="1.1" viewBox="0 0 595.28 595.28">
  <!-- Generator: Adobe Illustrator 29.1.0, SVG Export Plug-In . SVG Version: 2.1.0 Build 142)  -->
  <defs>
    <style>
      .st0 {
        fill: #231916;
      }
    </style>
  </defs>
  <path class="st0" d="M397.31,286.65c-1.04-.13-2.05-.36-3.06-.56,1.01.2,2.03.43,3.06.56"/>
  <path class="st0" d="M400.84,286.91c-1.19-.07-2.39-.1-3.54-.26,1.15.15,2.35.19,3.54.26"/>
  <path class="st0" d="M394.25,286.09c-.58-.1-1.15-.24-1.7-.37l-1-.12c.89.21,1.81.31,2.7.49"/>
  <path class="st0" d="M403.74,287.12l-.7-.08c-.75-.01-1.48-.08-2.2-.13.98.06,1.9.21,2.9.21"/>
  <path class="st0" d="M474.59,256.03c-.73-1.25-2.11-1.95-3.56-1.78l-3.83.42c-22.37,2.53-41.88,2.28-59.67-.7-6.85-1.18-13.89-2.8-20.87-4.89-4.24-1.27-8.43-2.77-12.63-4.24,9.13-8.06,16.13-17,20.64-26.76,3.96-8.58,6.18-18.12,6.44-27.56.17-6.52-.58-13.46-2.29-20.64-.56-2.38-1.42-5.53-2.84-8.6-.62-1.28-1.91-2.08-3.33-2.08h-.2c-1.46.06-2.75,1.03-3.25,2.42-1.13,3.16-2.8,6.43-5.28,10.37-5.18,8.19-11.12,14.88-17.41,19.74-5.21,3.39-10.91,6.18-16.96,8.33-2.56.89-5.15,1.68-7.76,2.43-3.69,1.12-7.37,2.24-10.95,3.65-4.85,1.94-9.42,4.47-12.86,6.43-6.46,3.73-13.89,8.37-20.01,14.7-4.69,4.86-8.61,10.68-11.32,16.89-1.72,3.96-2.81,7.63-3.3,11.17-.09.64-.24,2.28.72,3.86.89,1.37,2.19,1.84,2.85,2.07,3.6,1.33,7.35,2.15,11.09,2.97-1.5.44-2.97.94-4.36,1.63-3.18,1.57-6.23,3.87-9.06,6.88-2.61,2.8-4.55,6.06-6.3,9.2-.44.79-1.21,1.53-2.21,2.11-1.19.71-2.55,1.07-3.97,1.08-2.34.01-4.52.4-6.2,1.03-.56.17-1.01.48-1.57.68-.02-.02-.05-.03-.08-.06-2.24-1.01-4.81-1.23-7.4-1.09,1.86-3.86,3.26-7.3,3.86-9.28.06-.15.08-.33.14-.51.21-1.12-.02-2.28-.7-3.23-.63-.89-2.18-1.78-3.28-1.86-4.72-.42-9.61-.52-14.36.2-4.6.72-8.92,2.25-12.19,3.49-6.36,2.4-12.56,5.29-18.53,8.08l-6.11,2.83c-2.35,1.08-4.74,2.13-7.16,3.06-8.54,3.25-17.18,4.64-25.91,4.01-6.64-.47-13.7-2.18-21.54-5.22-4.18-1.62-7.45-3.19-10.37-4.95-1.3-.82-3.34-.65-4.54.54-.7.7-1.07,1.68-1.07,2.64,0,1.04.43,2,1.19,2.71,23.84,21.88,41.09,33.75,63.89,33.75,2.47,0,4.93-.13,7.55-.43,2.8-.29,5.39-1.11,8.05-1.83-.83,3.13-1.41,6.39-1.48,9.73-.09,4.37.44,8.62.93,11.8.89,6.14,2.05,11.38,3.54,16.04,1.7,5.12,3.97,10,6.16,14.72.91,1.98,1.84,3.96,2.71,5.94,1.64,3.74,3.25,7.73,3.93,11.93l1.3,7.84c.27,1.7,1.72,2.99,3.45,3.06.06.01.12.01.19.01,1.64,0,3.1-1.09,3.54-2.69l2.05-7.72c4.47-16.78,9.41-30.2,15.28-41.94,1.53,1.23,2.95,2.5,4.73,3.72,3.11,2.14,6.18,4.29,9.08,6.73,3.81,3.17,7.33,6.79,10.52,10.79,3.97,5.01,7.63,10.82,10.84,17.28,3.81,7.72,7,16.26,9.73,26.14l.98,3.52c.38,1.37,1.54,2.38,2.93,2.63.21.02.4.03.62.03,1.19,0,2.33-.57,3.03-1.6l2.06-2.94c4.79-6.89,9.33-14.33,13.57-22.09,6.6-12.25,11.38-23.65,14.58-34.86,3.65-12.6,5.5-25.7,5.5-38.88,0-6.42-.45-12.07-1.36-17.3-.98-5.51-2.41-10.18-4.2-13.78-.58-1.91-1.6-3.53-2.31-4.58-1.12-1.74-2.46-3.33-3.84-4.87-3.74-4.22-7.59-7.5-11.8-10.06-1.4-.84-2.82-1.28-4.24-1.93,1.86-.02,3.72-.12,5.56-.28,7.76,5.07,14.49,11.89,21.34,18.98,4.05,4.2,8.21,8.54,12.78,12.47,5.23,4.54,10.33,8.01,15.6,10.65,3.13,1.56,6.31,2.8,9.49,3.72,3.54.99,7.09,1.58,10.56,1.72l1.81.05c6.09,0,12.61-1.28,20-3.91,6.85-2.43,13.44-5.68,19.54-9.61,5.49-3.52,10.91-7.77,16.59-13.02,7.75-7.16,14.84-15.21,21.15-23.96l2.24-3.16c.83-1.17.9-2.73.16-3.97M392.82,177.91c.69,4.29,1.07,8.44.94,12.42-.22,8.44-2.22,16.98-5.77,24.67-4.47,9.69-11.6,18.61-21.22,26.54-.21.19-.36.43-.52.63-5.63-2-10.94-3.75-16.33-5.14,5.12-3.16,9.82-6.49,13.88-10.03,2.57-2.25,4.89-4.59,6.91-7.02,5.66-6.83,9.97-13.39,13.27-19.5,4.68-8.65,7.33-16.38,8.84-22.57M290.89,254.85c.47-2.46,1.29-5.02,2.48-7.77,2.35-5.4,5.78-10.49,9.88-14.72,5.47-5.68,12.38-9.97,18.37-13.42,3.24-1.86,7.52-4.22,11.96-6,3.35-1.33,6.85-2.36,10.34-3.41,2.69-.8,5.4-1.62,8.06-2.56,6.62-2.32,12.83-5.39,18.75-9.27,6.81-5.22,12.96-12.18,18.38-20.44-2.54,10.14-8.19,24.59-21.22,40.37-5.53,6.7-13.43,12.74-22.9,18.19-.58-.12-1.18-.26-1.71-.33-5.08-.89-10.16-.94-15.05-.17-4.1.63-8.18,1.86-12.1,3.69-5.47,2.53-10.52,6.14-14.58,10.41l-2.2,2.32c-.93.97-1.23,2.4-.82,3.66.2.58.55,1.06.95,1.47-2.86-.58-5.78-1.04-8.6-2.01M172.1,299.78c9.84.77,19.5-.83,29.02-4.45,2.57-.99,5.12-2.12,7.62-3.26l6.16-2.85c5.86-2.74,11.94-5.57,18.02-7.87,2.96-1.12,6.81-2.48,10.75-3.1,2.22-.33,4.52-.3,6.77-.29-6.85,4.75-18.91,12.31-33.31,17.67-11.37,4.24-22.26,6.38-32.45,6.38-8,0-15.48-1.33-22.43-3.95,3.33.72,6.69,1.5,9.85,1.72M206.93,314.21c-15.21,1.68-27.36-2.32-40.59-11.17,4.17,1.2,8.49,2.05,12.99,2.42,1.11.09,2.25.16,3.4.2.56.01,1.14.02,1.72.02.45.01,1.26,0,1.93-.01.69-.01,1.37-.05,2.07-.07,1.37-.07,2.76-.17,4.17-.31,2.8-.28,5.65-.71,8.53-1.27,5.61-1.11,11.38-2.77,17.23-4.96,5.81-2.15,11.25-4.66,16.15-7.22,6.35-3.31,11.79-6.69,15.9-9.46-.83,1.76-1.83,3.63-3.07,5.65-5.29,2-10.17,4.48-14.41,7.49-6.21,4.47-10.84,9.99-13.91,15.93-3.84,1.32-7.87,2.33-12.11,2.76M236.32,360.61c-.38,5.8-.69,11.5-.92,16.91-.34-.89-.68-1.79-1.04-2.59-.9-2.05-1.83-4.04-2.77-6.07-2.2-4.74-4.29-9.22-5.84-13.89-1.36-4.26-2.45-9.1-3.3-14.84-.41-2.91-.91-6.74-.83-10.53.12-4.77,1.18-9.42,3.04-13.45,2.46-5.45,6.8-10.52,12.57-14.66,3.17-2.26,6.84-4.13,10.75-5.77-2.19,4.45-4.02,10.28-5.54,16.99-3.13,13.77-5.01,31.22-6.13,47.89M252.95,340.75c-5.3,9.83-9.78,20.89-13.86,33.8.77-16.12,1.98-30.34,3.62-42.27,2.61-19.08,6.25-32.36,10.6-38.33.08-.12.17-.22.26-.34.43-.15.87-.29,1.34-.42.99-.29,1.98-.44,2.97-.44,1.19,0,2.35.24,3.24.64.37.19.77.4,1.16.65,2.91,1.79,4.45,5.16,5.22,7.69,1.18,3.8,1.29,8.08.38,12.38-.94,4.4-2.9,8.61-5.67,12.17-3.17,4.04-6.2,8.77-9.26,14.47M309.46,404.97c-.45.68-.83,1.43-1.26,2.08-2.61-8.67-5.58-16.35-9.08-23.42-3.42-6.92-7.35-13.18-11.68-18.6-3.47-4.37-7.37-8.37-11.52-11.84-3.11-2.55-6.36-4.88-9.67-7.14-2.08-1.44-3.82-2.84-5.44-4.23,2.39-4.2,4.71-7.87,7.17-11.01,3.46-4.44,5.92-9.68,7.08-15.16,1.19-5.53.98-11.11-.55-16.07-.82-2.67-1.94-4.98-3.34-6.95.35-.02.63-.16.99-.16,2.53-.02,4.98-.71,7.19-1.89,3.59,4.44,14.92,19.16,23.61,38.99,14.38,32.74,12.38,57.92,6.5,75.4M318.19,274.57c3.59,2.17,6.9,5.01,10.18,8.65,1.13,1.28,2.24,2.62,3.17,4.03.73,1.11,1.19,1.93,1.62,3.23,1.7,3.49,2.93,7.54,3.8,12.38.83,4.79,1.21,10.02,1.21,16,0,12.49-1.71,24.89-5.17,36.85-3.09,10.68-7.66,21.62-14.02,33.38-.91,1.71-1.93,3.3-2.93,4.91,1.09-5.99,1.68-12.59,1.48-19.78-.38-13.32-3.52-28.72-11.17-46.16-2.98-6.78-6.27-12.99-9.46-18.4-6.36-10.82-12.32-18.52-14.76-21.52l-.58.48c1.18-.99,2.49-1.89,3.16-3.16,1.77-3.11,3.34-5.64,5.25-7.73,2.21-2.34,4.55-4.12,6.96-5.31,2.34-1.15,4.93-1.83,8.3-1.99,4.05,0,8.53,1.43,12.96,4.13M446.04,281.73c-5.35,4.95-10.44,8.94-15.55,12.22-5.65,3.62-11.72,6.63-18.05,8.88-6.57,2.35-12.3,3.48-17.53,3.48l-1.48-.03c-2.9-.12-5.88-.62-8.88-1.46-2.74-.78-5.52-1.85-8.21-3.2-4.73-2.35-9.33-5.52-14.09-9.64-4.3-3.7-8.35-7.93-12.67-12.43-7.02-7.26-14.3-14.79-23.19-20.35-2.77-1.71-5.63-3.09-8.53-4.26,3.37-.09,7.13-.01,11.1.4,10.02,1.02,21.36,4.1,31.25,11.6.75.56,1.49,1.15,2.21,1.77,5.05,4.26,9.97,8,15.05,10.97,4.78,2.8,9.75,4.8,15.06,6.04l10.52,1.3c.44.01.87.08,1.32.08,7.56-.09,15.9-1.86,25.38-5.33,8.61-3.14,18.16-7.7,28.92-13.7-3.98,4.82-8.11,9.48-12.63,13.66M404.33,283.05c-3.24.04-6.2-.43-9.11-.99,2.74.52,5.51,1,8.51,1,.1,0,.2.08.31.12l-10.79-1.34c.62.15,1.32.09,1.96.22-10.97-2.13-20.28-8.08-30.19-16.46-18.37-15.56-42.18-15.51-54.67-14.19,2.7-2.23,5.64-4.25,8.82-5.73,3.34-1.54,6.77-2.59,10.18-3.13,4.15-.63,8.34-.57,12.75.2.97.13,1.9.35,2.81.54,6.72,1.51,13.29,3.8,20.58,6.39l1.23.44c5.89,2.11,11.81,4.2,17.84,5.99,7.27,2.18,14.58,3.89,21.74,5.1,16.28,2.74,34.15,3.05,53.86,1.36-23.81,13.65-41.53,20.3-55.85,20.48"/>
  <path class="st0" d="M470.7,510.81c1.69-.5,3.61-2.12,5.79-4.84,3.3-4.09,4.94-8.89,4.94-14.43s-1.61-10.24-4.79-14.21c-2.76-3.42-6.17-5.47-10.25-6.15h-14.02v60.68h6.16v-19.86h5.75l10.3,19.86h7.12l-10.99-21.05ZM458.53,505.34v-27.5h6.07c2.85,0,5.33,1.3,7.47,3.94,2.14,2.6,3.2,5.86,3.2,9.76s-1.06,7.23-3.2,9.85c-2.13,2.64-4.61,3.95-7.47,3.95h-6.07Z"/>
  <path class="st0" d="M397.27,471.17h-5.33l-17.97,60.67h6.43l7.52-25.2h13.31l7.37,25.2h6.41l-17.74-60.67ZM389.86,500.06l4.72-16.11,4.73,16.11h-9.45Z"/>
  <path class="st0" d="M334,497.23c-1.57-1.99-2.74-3.11-3.48-3.33,2.1-2.57,3.17-5.7,3.17-9.32s-1.09-6.73-3.24-9.4c-2.17-2.67-4.83-4.01-8.04-4.01h-15.55v60.68h16.92c4.05-.68,7.41-2.67,10.07-6,3.28-4.06,4.93-8.86,4.93-14.36s-1.6-10.34-4.79-14.27M313.04,477.75h9.33c1.33,0,2.5.65,3.55,1.96,1.04,1.28,1.57,2.91,1.57,4.88s-.5,3.63-1.5,4.86c-.73.93-1.75,1.48-3.09,1.63h-9.86v-13.32ZM329.38,521.28c-2.12,2.64-4.6,3.95-7.44,3.95h-8.9v-27.53h8.9c2.84,0,5.32,1.32,7.44,3.96,2.12,2.64,3.18,5.92,3.18,9.84s-1.06,7.17-3.18,9.78"/>
  <polygon class="st0" points="267.84 471.17 267.84 477.8 250.24 477.8 250.24 498.21 267.84 498.21 267.84 504.82 250.24 504.82 250.24 531.84 244.09 531.84 244.09 471.17 267.84 471.17"/>
  <polygon class="st0" points="181.3 531.85 181.3 471.19 187.46 471.19 187.46 525.23 205.05 525.23 205.05 531.85 181.3 531.85"/>
  <polygon class="st0" points="140.23 471.17 140.23 477.8 119.74 477.8 119.74 498.21 140.23 498.21 140.23 504.82 119.74 504.82 119.74 525.23 140.23 525.23 140.23 531.84 113.58 531.84 113.58 471.17 140.23 471.17"/>
  <line class="st0" x1="140.71" y1="282.28" x2="140.71" y2="282.29"/>
  <path class="st0" d="M249.48,210.33c-10.25,0-18.55,8.3-18.55,18.54s8.3,18.55,18.55,18.55,18.54-8.3,18.54-18.55-8.3-18.54-18.54-18.54M249.48,240.76c-6.56,0-11.88-5.32-11.88-11.88s5.32-11.87,11.88-11.87,11.87,5.31,11.87,11.87-5.32,11.88-11.87,11.88"/>
  <path class="st0" d="M254.45,63.42c-28.7,0-51.95,23.25-51.95,51.94s23.25,51.93,51.95,51.93,51.93-23.26,51.93-51.93-23.25-51.94-51.93-51.94M254.45,156.16c-22.55,0-40.81-18.27-40.81-40.8s18.26-40.82,40.81-40.82,40.8,18.27,40.8,40.82-18.26,40.8-40.8,40.8"/>
  <path class="st0" d="M172.06,175.18c-14.34,0-25.96,11.62-25.96,25.97s11.62,25.96,25.96,25.96,25.96-11.62,25.96-25.96-11.62-25.97-25.96-25.97M172.06,219.69c-10.25,0-18.55-8.3-18.55-18.54s8.3-18.57,18.55-18.57,18.54,8.32,18.54,18.57-8.29,18.54-18.54,18.54"/>
</svg>