<?xml version="1.0" encoding="UTF-8"?>
<svg id="Calque_1" xmlns="http://www.w3.org/2000/svg" xmlns:xlink="http://www.w3.org/1999/xlink" version="1.1" viewBox="0 0 595.28 595.28">
  <!-- Generator: Adobe Illustrator 29.1.0, SVG Export Plug-In . SVG Version: 2.1.0 Build 142)  -->
  <defs>
    <style>
      .st0 {
        fill: url(#Dégradé_sans_nom_2);
      }

      .st1 {
        fill: #514641;
      }

      .st2 {
        fill: #a7a7a6;
      }

      .st3 {
        fill: #bca14f;
      }
    </style>
    <linearGradient id="Dégradé_sans_nom_2" data-name="Dégradé sans nom 2" x1="632.67" y1="95.48" x2="713.14" y2="109.66" gradientTransform="translate(-259.3 -12.55)" gradientUnits="userSpaceOnUse">
      <stop offset=".28" stop-color="#bca14f"/>
      <stop offset=".52" stop-color="#e1c67b"/>
      <stop offset=".84" stop-color="#bca14f"/>
    </linearGradient>
  </defs>
  <g>
    <path class="st3" d="M174.52,519.88c-1.37-1.61-6.11-7.48-7.96-7.48-2.09,0-2.41,2.09-2.41,4.42v1.69c0,3.86,5.07,4.18,5.07,8.12,0,2.57-1.85,4.98-16,4.98-12.7,0-14.31-2.17-14.31-4.9,0-4.18,4.02-2.01,4.99-8.68.72-4.51.8-9.65.8-14.24,0-4.98.08-10.77-.8-15.68-1.05-6.92-5.31-3.94-5.31-8.85,0-1.29-.73-5.79,16.89-5.79,3.78,0,12.14-.08,12.14,5.47,0,4.26-4.42,1.69-4.42,11.18,0,1.05.08,3.38,1.53,3.38,2.17,0,8.52-8.28,8.52-10.13,0-1.69-1.28-2.49-1.28-4.26,0-5.95,10.61-5.63,14.47-5.63,3.86,0,13.19-.4,13.19,5.31,0,6.59-8.36,2.65-11.18,5.47-1.61,1.61-8.44,6.52-8.44,9.89,0,2.17,1.93,4.1,3.22,5.63l16.8,19.22c2.41,2.74,7.32,2.41,7.32,7.32,0,4.02-4.1,4.42-7.24,4.42h-13.67c-3.14,0-3.22-.24-6.43-4.18l-5.47-6.67Z"/>
    <path class="st3" d="M241.68,498.56c0-10.21-.81-12.54-1.69-13.67-1.85-2.33-4.98-2.57-4.98-5.63,0-5.79,16.4-5.79,18.01-5.79,4.82,0,14.71.16,14.71,5.63,0,2.9-3.06,2.74-4.9,4.83-1.53,1.77-1.61,9-1.61,14.63v7.96c0,14.31.96,13.99,2.57,14.96,2.01,1.21,3.94,1.61,3.94,4.1,0,2.41-.72,6.03-18.33,6.03-3.38,0-13.51-.08-13.51-5.23,0-2.57,2.74-2.97,4.02-4.5.96-1.13,1.77-4.1,1.77-15.36v-7.96Z"/>
    <path class="st3" d="M339.55,493.74c.96.8,3.54,3.14,4.99,3.14,2.01,0,2.09-3.3,2.09-4.66,0-2.01-.08-5.47-.72-7.32-1.13-3.38-5.39-2.17-5.39-6.51,0-5.15,8.2-4.91,11.58-4.91,3.54,0,12.3-.4,12.3,5.15,0,4.58-4.26,2.9-5.63,6.59-1.05,2.9-1.05,7.88-1.05,10.94v20.83c0,3.62.48,14.63-4.91,14.63-1.61,0-2.97-.96-4.18-2.01l-24.85-22.27c-1.13-1.04-3.22-2.97-4.91-2.97-2.49,0-2.57,5.23-2.57,6.92,0,2.25.08,5.23.56,7.32,1.21,5.15,5.47,3.21,5.47,7.16,0,5.39-8.28,5.87-12.06,5.87-3.7,0-11.98-.48-11.98-5.71,0-4.26,4.66-2.57,5.47-7.72.56-3.46.72-8.52.72-12.14,0-5.79,0-11.66-.88-17.45-1.28-8.04-7.08-4.91-7.08-9.73,0-5.71,10.86-5.39,14.47-5.39,4.98,0,5.87.32,9.49,3.54l19.06,16.73Z"/>
    <path class="st3" d="M429.7,520.12c2.82,0,4.91-2.09,4.91-4.99,0-6.67-8.44-.16-8.44-7.56,0-5.87,12.14-6.27,16.24-6.27,15.12,0,16,4.26,16,6.59,0,2.09-1.77,3.54-3.7,3.86-2.09.24-2.25.64-2.81,2.74-3.14,11.74-14.47,17.37-25.89,17.37-17.05,0-31.92-11.82-31.92-29.59,0-16.97,14.39-29.03,31.6-29.03,7.08,0,10.94,2.17,13.03,2.17,1.45,0,3.54-1.21,4.98-1.21,4.98,0,7.96,8.2,7.96,12.3,0,3.94-2.01,7.96-6.35,7.96-7.96,0-7.96-11.18-18.9-11.18-6.99,0-11.5,5.79-11.5,14.31,0,16.57,9.65,22.52,14.79,22.52Z"/>
  </g>
  <g>
    <path class="st1" d="M152.83,423.35h15.58s0,31.33,0,31.33h-4.97s-2.24-4.48-2.24-4.48h-.17c-2.24,3.57-5.14,5.39-9.7,5.39-4.06,0-7.21-1.41-9.37-3.4-3.23-2.98-4.89-7.63-4.89-19.4v-15.42c0-11.85,1.66-16.49,4.89-19.48,2.65-2.4,6.14-3.48,10.53-3.48,4.72,0,8.12,1.25,10.61,3.48,3.07,2.82,4.97,7.05,4.97,17.99v.42h-11.36v-.42c0-6.63,0-11.27-4.23-11.27-4.23,0-4.23,4.64-4.23,10.36v20.14c0,6.3,0,10.36,4.39,10.36,4.97,0,4.97-5.3,4.97-11.69v-.5s-4.81,0-4.81,0v-9.95Z"/>
    <path class="st1" d="M196.28,452.2c-3.23-2.98-4.89-7.46-4.89-19.4v-15.42c0-12.02,1.66-16.49,4.89-19.48,2.57-2.32,5.97-3.48,10.53-3.48s7.96,1.16,10.52,3.48c3.23,2.98,4.97,7.46,4.97,19.48v15.42c0,11.93-1.74,16.41-4.97,19.4-2.57,2.32-5.97,3.48-10.52,3.48s-7.96-1.16-10.53-3.48ZM211.11,435.12v-20.14c0-5.72,0-10.36-4.31-10.36-4.23,0-4.23,4.64-4.23,10.36v20.14c0,5.72,0,10.36,4.23,10.36,4.31,0,4.31-4.64,4.31-10.36Z"/>
    <path class="st1" d="M256.63,430.65v17.99s.08,6.05.08,6.05h-11.27s.08-6.05.08-6.05v-47.16s-.08-6.05-.08-6.05h14.59c12.85,0,16.08,8.04,16.08,17.82v.17c0,6.05-1.57,11.27-5.97,14.34l7.13,26.94h-11.77s-5.8-24.04-5.8-24.04h-3.07ZM256.63,421.45h2.07c5.14,0,6.14-3.73,6.14-8.21v-.17c0-4.47-1.08-8.21-5.97-8.21h-2.24s0,16.58,0,16.58Z"/>
    <path class="st1" d="M309.69,395.42l-.08,6.05v47.16s.08,6.05.08,6.05h-11.27s.08-6.05.08-6.05v-47.16s-.08-6.05-.08-6.05h11.27Z"/>
    <path class="st1" d="M333.99,454.68l.08-6.05v-47.16s-.08-6.05-.08-6.05h11.27s-.08,6.05-.08,6.05v43.6s13.01,0,13.01,0v9.61s-24.2,0-24.2,0Z"/>
    <path class="st1" d="M379.1,454.68l.08-6.05v-47.16s-.08-6.05-.08-6.05h11.27s-.08,6.05-.08,6.05v43.6s13.01,0,13.01,0v9.61s-24.2,0-24.2,0Z"/>
    <path class="st1" d="M432.15,454.68h-11.11s9.78-59.26,9.78-59.26h15.17s9.78,59.26,9.78,59.26h-11.02s-1.66-11.77-1.66-11.77h-9.37s-1.58,11.77-1.58,11.77ZM435.14,433.05h6.55s-2.07-15.25-2.07-15.25c-.33-2.82-.83-6.8-1-9.04h-.42c-.17,2.24-.58,6.22-.99,9.04l-2.07,15.25Z"/>
  </g>
  <path class="st2" d="M454.34,203.79c-1.27-1.57-2.16-3.42-2.28-5.43-.2-3.31-1.16-4.69-3.09-7.17-1.23-1.58-2.03-3.47-2.17-5.46-.36-5.41-3.88-7.01-5.88-7.35-2.28-.37-4.25-7.8-1.96-9.13,2.29-1.33,10.28-6.59-1.94-18.06-3.99-3.82-8.4-11.05-8.4-18.1,0-7.05-.28-6.75-4.47-8.47-4.19-1.71-25.14-12.38-35.81-1.33-10.68,11.04-27.51,32.17-29.97,33.24-10.03,4.35-25.08,6.46-35.31,12.69-10.22,6.22-21.14,29.54-38.92,33.53-17.78,4.01-33.12-10.65-58.9,1.36-25.78,12-51.34,55.54-52.23,71.99-.88,16.45-4,22.66-12.88,26.67-8.9,4.01-13.34,8-16.9,23.12-3.55,15.11-9.77,27.95-4,36.89,5.78,8.95,7.55,8.95,13.78,8.95,6.22,0,38.22,0,38.22,0,5.16,0,7.64-6.04,4.97-10.24-2.67-4.19-15.43-7.81-6.86-16.75,8.57-8.96,28.67-23.39,33.34-30.67,4.72-7.37,5.72-6.29,9.91,1.53,4.19,7.81,14.86,26.66,16.57,49.14.19,4.77-1.33,7,6.67,7h33.08c4.36,0,8.37-2.82,9.45-7.05.48-1.88.33-3.89-1.19-5.67-4.58-5.34-10.67-7.81-10.48-18.1.19-10.29-3.81-18.29,2.86-18.48,6.67-.18,17.33.33,20.76-2.52,3.42-2.86,6.09-3.62,7.05,5.91.95,9.52,3.81,17.19-.76,20.23-4.57,3.05-11.42,9.37-7.62,17.53,3.82,8.15,4.58,8.15,10.67,8.15,6.1,0,25.34,0,25.34,0,0,0,3.43,1.94,7.62-9.29,4.19-11.24,14.29-27.64,12.38-48.59-.57-7.63,4.57-4.38,4.96-.95.3,2.74,1.22,13.89,1.57,18.24.12,1.44.55,2.83,1.26,4.08.75,1.31,1.98,3.27,4.02,6.12,4.77,6.66,11.43,9.86,5.53,13.86-5.91,4-6.86,6.1-6.86,9.52,0,3.43-1.14,7.01,5.9,7.01h39.89c2.67,0,5.28-1.04,7.09-3.01,1.1-1.19,2.3-2.84,3.51-5.14,4-7.62,7.43-9.91,4.19-32.95-3.24-23.06-2.86-41.15-14.09-59.83-3.05-4.95-3.43-29.52-3.43-34.67,0-5.15,5.52-4.19,8.57-3.62,3.05.58,7.44.2,15.44-8.38,7.11-7.62,16.18-14.94,11.82-20.35ZM425.54,169.84c-3.15,0-6.3-4.72-6.3-4.72,4.72,1.57,12.6-1.57,12.6-1.57,0,0-3.15,6.3-6.3,6.3Z"/>
  <path class="st0" d="M448.93,77.82c-.12.08-.24.17-.36.26-1.97,1.95-2.13,4.31-1.22,6.08.32.62.2,1.36-.37,1.76l-6.24,4.47c-3.17,2.26-7.51,2.2-10.97-.68-.5-.42-.89-.96-1.19-1.54l-8.32-16.09s0,0,0-.01c.96-.72,1.65-1.79,1.86-3.05.61-3.67-3.13-7.08-7.44-4.94-.12.08-.25.18-.36.26-1.89,1.87-2.12,4.12-1.33,5.87.24.53.12,1.16-.31,1.56l-11.7,11.11c-1.93,1.84-4.66,2.67-7.3,2.24-2.23-.37-4.27-1.64-5.58-3.49l-4.45-6.27c-.39-.55-.27-1.28.22-1.75.71-.69,1.22-1.61,1.39-2.66.61-3.67-3.13-7.08-7.44-4.94-.12.08-.25.18-.36.26-2.73,2.7-2,6.2.27,7.81.34.24.52.64.55,1.05,0,0,0,.01,0,.02l-1.63,33.92c.08,1.05.87,1.91,1.91,2.08l14.72,2.44c11.2-4.85,27.25,3.27,30.86,4.74.28.12,2.25.82,3.76,1.36,1.18.42,2.4.67,3.65.76l6.71.46c1.03.17,2.05-.39,2.47-1.35l11.56-32.19s0,0,0,0c.16-.37.44-.69.83-.82,1.65-.54,2.95-1.95,3.25-3.78.61-3.67-3.13-7.08-7.44-4.94Z"/>
</svg>