<?xml version="1.0" encoding="UTF-8"?>
<svg id="Calque_1" xmlns="http://www.w3.org/2000/svg" version="1.1" viewBox="0 0 595.28 595.28">
  <!-- Generator: Adobe Illustrator 29.1.0, SVG Export Plug-In . SVG Version: 2.1.0 Build 142)  -->
  <defs>
    <style>
      .st0 {
        fill: #d3a27c;
      }

      .st1 {
        fill: #fff;
      }
    </style>
  </defs>
  <path class="st0" d="M96.23,264.72c8.23,0,16.1,3.2,22.31,8.5.73.74.83,1.83.09,2.56l-5.66,5.95c-.73.73-1.55.73-2.37,0-3.93-3.48-8.78-5.31-13.81-5.31-11.43,0-20.48,9.78-20.48,21.22s9.05,20.93,20.57,20.93c5.12,0,9.05-1.56,10.88-2.29v-7.77h-7.32c-1,0-1.74-.73-1.74-1.65v-7.22c0-1,.73-1.74,1.74-1.74h17.55c.92,0,1.65.83,1.65,1.74v23.41c0,.73-.37,1.18-.73,1.46,0,0-9.42,5.95-22.68,5.95-18.19,0-32.82-14.45-32.82-32.73s14.63-33.01,32.82-33.01"/>
  <path class="st0" d="M133.12,267.37c0-.91.73-1.74,1.74-1.74h26.14c10.97,0,19.94,8.78,19.94,19.66,0,8.4-5.58,15.27-13.53,18.46l12.53,23.23c.64,1.19,0,2.65-1.56,2.65h-9.6c-.82,0-1.28-.45-1.46-.83l-12.16-24.22h-10.15v23.31c0,.91-.82,1.74-1.74,1.74h-8.41c-1,0-1.74-.83-1.74-1.74v-60.53ZM160,294.81c4.85,0,9.05-4.21,9.05-9.33,0-4.85-4.21-8.87-9.05-8.87h-14.9v18.19h14.9Z"/>
  <path class="st0" d="M194.05,267.37c0-.91.73-1.74,1.74-1.74h37.21c1.01,0,1.74.83,1.74,1.74v7.5c0,.91-.73,1.74-1.74,1.74h-27.06v15h22.59c.91,0,1.73.83,1.73,1.73v7.6c0,1-.83,1.74-1.73,1.74h-22.59v16h27.06c1.01,0,1.74.83,1.74,1.74v7.5c0,.91-.73,1.74-1.74,1.74h-37.21c-1,0-1.74-.83-1.74-1.74v-60.53Z"/>
  <path class="st0" d="M247.83,267.37c0-.91.73-1.74,1.74-1.74h37.21c1,0,1.74.83,1.74,1.74v7.5c0,.91-.74,1.74-1.74,1.74h-27.06v15h22.59c.91,0,1.73.83,1.73,1.73v7.6c0,1-.83,1.74-1.73,1.74h-22.59v16h27.06c1,0,1.74.83,1.74,1.74v7.5c0,.91-.74,1.74-1.74,1.74h-37.21c-1,0-1.74-.83-1.74-1.74v-60.53Z"/>
  <path class="st0" d="M301.62,266.37c0-.91.82-1.65,1.74-1.65h2.28l38.04,40.41h.09v-37.76c0-.91.73-1.74,1.74-1.74h8.4c.92,0,1.74.83,1.74,1.74v61.53c0,.92-.83,1.65-1.74,1.65h-2.19l-38.22-41.96h-.09v39.31c0,.91-.73,1.74-1.74,1.74h-8.32c-.92,0-1.74-.83-1.74-1.74v-61.53Z"/>
  <path class="st0" d="M380.14,295.87v-.12l-1.28-1.41c-2.44-2.56-4.21-5.18-4.15-8.78,0-4.63,3.84-9.87,11.51-9.87,6.83,0,11.52,4.45,11.52,9.93,0,6.28-6.22,10-7.44,11.1l7.01,7.06c.98-1.95,1.76-4.44,2.19-6.77.24-1.27.61-1.95,2.02-1.52l3.35.97c1.59.43,1.15,1.76,1.03,2.38-1.03,4.39-2.98,8.23-3.78,9.69l5.43,5.12c.73.73,1.34,1.4-.12,2.8l-2.5,2.56c-.73.67-1.71.8-2.68-.18l-4.39-4.45c-1.09,1.28-5.36,5.18-13.29,5.18s-12.86-5.24-12.86-11.46c0-8.05,7.31-11.58,8.41-12.25M385.38,313.06c4.57,0,6.94-2.56,7.86-3.6l-9.08-9.63c-.98.61-5.18,2.62-5.18,7.5,0,3.35,2.81,5.73,6.4,5.73M391.17,286c0-2.32-2.01-4.58-5.18-4.58-2.81,0-4.51,1.89-4.51,4.14-.06,2.14,1.34,3.54,3.17,5.49l1.34,1.34c.92-.55,5.18-2.62,5.18-6.4"/>
  <path class="st0" d="M452.57,264.72c9.23,0,15.91,2.93,22.12,8.5.82.74.82,1.83.09,2.56l-5.58,5.76c-.64.73-1.56.73-2.28,0-3.84-3.38-8.96-5.4-14.08-5.4-11.7,0-20.39,9.79-20.39,21.31s8.78,21.12,20.48,21.12c5.49,0,10.15-2.1,13.99-5.21.73-.64,1.73-.55,2.28,0l5.66,5.85c.74.64.55,1.83-.09,2.47-6.22,6.03-14.08,8.87-22.21,8.87-18.28,0-33.01-14.54-33.01-32.82s14.72-33.01,33.01-33.01"/>
  <path class="st0" d="M506.56,264.72c14.05,0,25.3,11.31,25.3,25.37s-11.25,25.23-25.3,25.23-25.24-11.17-25.24-25.23,11.18-25.37,25.24-25.37M506.56,303.79c7.57,0,13.77-6.2,13.77-13.7s-6.2-13.84-13.77-13.84-13.7,6.27-13.7,13.84,6.19,13.7,13.7,13.7"/>
  <path class="st0" d="M488.05,329.63c-.91,0-1.74-.74-1.74-1.58v-3.29c0-.83.83-1.58,1.74-1.58h38.18c.91,0,1.74.75,1.74,1.58v3.29c0,.83-.83,1.58-1.74,1.58h-38.18Z"/>
  <path class="st1" d="M88.01,324.04c-5.33-1.93-10.35-5.24-14.05-9.84-3.74-4.54-6.03-10.47-6.05-16.51-.04-6.04,2.22-11.98,5.93-16.55,3.67-4.63,8.68-7.96,14-9.91-4.76,3.1-8.9,6.93-11.94,11.42-3,4.5-4.8,9.73-4.72,15.03-.03,5.3,1.79,10.52,4.82,15,3.06,4.48,7.22,8.29,12,11.36"/>
  <path class="st1" d="M138.38,271.24c1.29,8.8,1.59,17.6,1.64,26.4-.05,8.8-.34,17.6-1.64,26.4-1.3-8.8-1.59-17.6-1.64-26.4.05-8.8.35-17.6,1.64-26.4"/>
  <path class="st1" d="M200.31,271.24c1.29,8.8,1.59,17.6,1.64,26.4-.05,8.8-.34,17.6-1.64,26.4-1.3-8.8-1.59-17.6-1.64-26.4.05-8.8.35-17.6,1.64-26.4"/>
  <path class="st1" d="M253.95,271.24c1.29,8.8,1.59,17.6,1.64,26.4-.05,8.8-.34,17.6-1.64,26.4-1.3-8.8-1.59-17.6-1.64-26.4.05-8.8.35-17.6,1.64-26.4"/>
  <path class="st1" d="M307.59,271.24c1.29,8.8,1.59,17.6,1.64,26.4-.05,8.8-.34,17.6-1.64,26.4-1.3-8.8-1.59-17.6-1.64-26.4.05-8.8.35-17.6,1.64-26.4"/>
  <path class="st1" d="M349.92,271.24c1.29,8.8,1.59,17.6,1.64,26.4-.05,8.8-.34,17.6-1.64,26.4-1.3-8.8-1.59-17.6-1.64-26.4.05-8.8.35-17.6,1.64-26.4"/>
  <path class="st1" d="M500.76,271.23c-7.51,3.74-12.19,11.14-12.16,18.81-.09,7.66,4.63,15.04,12.15,18.77-4.16-.62-8.2-2.93-10.99-6.38-2.85-3.4-4.44-7.89-4.44-12.4.03-4.5,1.63-8.98,4.47-12.38,2.78-3.44,6.8-5.78,10.97-6.42"/>
  <path class="st1" d="M443.68,324.04c-5.33-1.93-10.35-5.24-14.05-9.84-3.74-4.54-6.03-10.47-6.05-16.51-.04-6.04,2.22-11.98,5.93-16.55,3.67-4.63,8.68-7.96,14-9.91-4.76,3.1-8.9,6.93-11.94,11.42-3,4.5-4.8,9.73-4.72,15.03-.03,5.3,1.79,10.52,4.82,15,3.06,4.48,7.22,8.29,12,11.36"/>
</svg>