<?xml version="1.0" encoding="UTF-8"?>
<svg id="Calque_1" xmlns="http://www.w3.org/2000/svg" version="1.1" viewBox="0 0 595.28 595.28">
  <!-- Generator: Adobe Illustrator 29.1.0, SVG Export Plug-In . SVG Version: 2.1.0 Build 142)  -->
  <defs>
    <style>
      .st0 {
        fill: #1d1d1b;
      }
    </style>
  </defs>
  <path class="st0" d="M414.31,326.9c26.4-29.06,40.86-66.36,40.86-105.85s-13.96-75.51-39.47-104.3l.1-.15-5.39-5.54s0,0,0,0c0,0,0,0,0,0l-8.33-8.53-.24.37c-20.58-18.24-45.21-30.59-72.14-36.12l-.02-.17-6.99-1.13h-.02s-12.85-2.05-12.85-2.05l.08.55c-8.07-.61-16.3-.62-24.48.02l.08-.54-12.85,2.05h0s-.01,0-.01,0l-6.99,1.13-.02.17c-26.92,5.54-51.54,17.87-72.1,36.09l-.24-.36-8.33,8.51s0,0,0,0h0s-5.39,5.55-5.39,5.55l.1.15c-25.53,28.78-39.5,65.52-39.5,104.31s14.46,76.81,40.89,105.86l-.1.17,5.38,5.37,8.59,8.59.25-.41c20.24,17.4,44.25,29.22,70.32,34.62l.03.19,6.97,1.11s.02,0,.03,0l12.85,2.07-.08-.55c4.15.32,8.29.49,12.42.49s8.25-.17,12.38-.49l-.08.55,12.85-2.06h.02s6.98-1.12,6.98-1.12l.03-.18c26.1-5.4,50.12-17.23,70.36-34.63l.25.41,8.59-8.6,5.37-5.36-.11-.17ZM404.58,308.79c-.08-.2-.16-.39-.23-.58-.09-.23-.18-.46-.26-.69-.19-.51-.38-1.02-.57-1.54-.08-.22-.15-.43-.23-.64-.22-.64-.44-1.28-.65-1.94-.03-.09-.06-.19-.09-.28-.25-.77-.48-1.54-.71-2.32-.04-.15-.08-.3-.13-.45-.18-.62-.36-1.26-.53-1.89-.07-.24-.13-.49-.19-.73-.15-.57-.3-1.14-.44-1.71-.06-.25-.13-.51-.19-.77-.15-.6-.29-1.21-.42-1.82-.05-.22-.1-.44-.15-.67-.37-1.69-.72-3.42-1.04-5.19-.04-.21-.07-.42-.11-.64-.12-.67-.24-1.35-.35-2.04-.05-.29-.09-.58-.14-.87-.1-.63-.2-1.27-.3-1.92-.04-.3-.09-.59-.13-.89-.1-.7-.2-1.42-.3-2.13-.03-.23-.06-.46-.09-.69-.13-.96-.25-1.94-.37-2.93,0-.04,0-.07-.01-.11-.11-.94-.22-1.88-.32-2.84-.03-.3-.06-.6-.09-.9-.07-.71-.14-1.42-.21-2.15-.03-.35-.07-.7-.1-1.06-.06-.71-.13-1.42-.19-2.14-.03-.34-.06-.68-.08-1.02-.07-.82-.13-1.66-.19-2.5-.02-.24-.04-.47-.05-.71-.08-1.08-.15-2.18-.22-3.28-.01-.24-.03-.48-.04-.71-.05-.87-.11-1.74-.15-2.63-.02-.39-.04-.8-.06-1.19-.04-.75-.08-1.5-.11-2.26-.02-.43-.04-.86-.06-1.29-.04-.77-.07-1.55-.1-2.34-.02-.41-.04-.81-.05-1.22-.04-.95-.07-1.91-.1-2.87,0-.24-.02-.49-.03-.73-.04-1.2-.08-2.42-.11-3.66-.01-.38-.02-.76-.03-1.14-.02-.87-.05-1.75-.07-2.64-.01-.48-.02-.97-.03-1.46-.02-.81-.04-1.63-.05-2.45,0-.5-.02-1-.03-1.51-.01-.87-.03-1.75-.04-2.64,0-.44-.01-.88-.02-1.33-.02-1.32-.04-2.65-.05-4.01v-.02c.01-1.39.03-2.76.05-4.12,0-.48.01-.95.02-1.42.01-.88.03-1.76.04-2.62,0-.55.02-1.11.03-1.65.01-.79.03-1.57.05-2.35.01-.55.02-1.09.04-1.64.02-.81.04-1.61.06-2.41.01-.49.02-.98.04-1.46.03-1.06.06-2.1.1-3.14.02-.45.03-.89.05-1.33.03-.96.07-1.91.11-2.85.02-.5.04-.99.06-1.49.03-.71.06-1.41.09-2.11.03-.52.05-1.04.08-1.56.03-.67.07-1.33.11-1.99.03-.51.06-1.02.08-1.52.04-.68.08-1.36.12-2.03.03-.46.06-.93.09-1.39.06-.94.13-1.87.19-2.79.03-.41.06-.82.09-1.23.06-.81.13-1.62.19-2.42.04-.44.08-.87.11-1.3.06-.63.11-1.26.17-1.88.04-.45.09-.9.13-1.35.06-.6.12-1.19.18-1.78.05-.44.09-.88.14-1.31.07-.62.14-1.23.22-1.84.05-.39.09-.77.14-1.16.11-.9.23-1.8.35-2.68.04-.27.08-.54.12-.82.1-.73.21-1.46.32-2.19.06-.37.11-.72.17-1.09.09-.57.18-1.15.28-1.71.06-.38.13-.76.2-1.14.1-.54.19-1.08.29-1.62.07-.37.14-.73.21-1.1.11-.57.23-1.14.34-1.7.06-.31.13-.62.19-.92.18-.85.37-1.69.56-2.52.04-.16.08-.31.11-.47.16-.68.33-1.36.5-2.02.08-.3.16-.59.23-.89.14-.52.28-1.04.42-1.56.09-.32.18-.63.27-.94.14-.5.29-.99.44-1.48.09-.3.18-.6.28-.9.16-.53.34-1.05.51-1.56.08-.24.16-.49.24-.74.26-.75.52-1.49.79-2.22.04-.12.09-.23.13-.34.23-.62.47-1.23.71-1.84.1-.25.2-.49.31-.74.13-.31.26-.61.39-.92,19.74,24.47,30.48,54.77,30.48,86.63s-11.05,63.05-31.38,87.75ZM312.62,83.5c.04.31.09.62.13.93.17,1.3.34,2.6.51,3.9.21,1.62.42,3.25.63,4.87.17,1.34.33,2.69.49,4.03.19,1.59.38,3.18.57,4.76.16,1.36.31,2.72.46,4.08.18,1.58.35,3.15.52,4.72.15,1.37.29,2.75.43,4.12.16,1.56.32,3.13.48,4.69.14,1.38.27,2.77.4,4.15.15,1.56.29,3.11.44,4.67.12,1.39.25,2.77.37,4.16.13,1.56.27,3.11.39,4.67.11,1.39.22,2.78.33,4.17.12,1.56.24,3.12.35,4.68.1,1.38.2,2.76.3,4.15.11,1.57.21,3.15.31,4.72.09,1.37.18,2.74.26,4.11.09,1.58.18,3.17.27,4.75.07,1.37.15,2.73.22,4.1.08,1.59.16,3.19.23,4.78.06,1.35.13,2.7.19,4.05.07,1.63.13,3.26.2,4.88.05,1.32.1,2.64.15,3.96.06,1.68.11,3.36.16,5.04.04,1.26.08,2.53.11,3.79.05,1.77.08,3.54.12,5.32.02,1.18.05,2.35.08,3.53.04,1.98.06,3.96.08,5.94.01.96.03,1.93.04,2.89,0,.32,0,.64,0,.96h-48.39c0-.31,0-.62,0-.93,0-.98.03-1.97.04-2.96.02-1.96.05-3.93.08-5.89.02-1.16.05-2.32.07-3.48.04-1.79.07-3.58.12-5.36.03-1.24.07-2.48.11-3.72.05-1.71.1-3.42.16-5.12.04-1.28.1-2.55.14-3.83.07-1.67.13-3.35.2-5.02.06-1.3.12-2.6.18-3.89.08-1.65.16-3.3.24-4.95.07-1.31.14-2.62.22-3.94.09-1.64.18-3.27.28-4.91.08-1.32.16-2.64.25-3.97.1-1.62.21-3.25.32-4.87.09-1.33.19-2.66.29-3.99.12-1.62.24-3.24.36-4.85.1-1.33.21-2.66.32-3.99.13-1.62.27-3.24.41-4.85.12-1.32.23-2.65.35-3.98.15-1.62.3-3.24.45-4.87.13-1.32.25-2.65.38-3.97.16-1.62.33-3.24.49-4.85.14-1.33.27-2.65.42-3.98.18-1.62.36-3.24.54-4.85.15-1.32.3-2.64.45-3.96.19-1.63.39-3.27.58-4.9.16-1.3.31-2.6.48-3.9.21-1.65.42-3.3.64-4.95.17-1.28.33-2.57.5-3.85.04-.31.09-.62.13-.94,10.02-1.09,20.18-1.07,29.96-.03ZM189.83,134.4c.13.31.27.62.4.94.1.24.2.48.3.73.25.62.49,1.25.73,1.89.04.1.08.19.11.29.27.73.54,1.48.79,2.23.08.23.15.47.23.7.18.53.35,1.06.52,1.6.09.29.18.57.27.86.15.51.3,1.02.45,1.53.08.3.17.59.25.89.15.54.3,1.09.45,1.65.07.27.14.53.21.8.19.75.38,1.5.56,2.26.02.08.04.16.06.24.2.85.39,1.71.57,2.57.05.25.11.51.16.77.13.62.26,1.24.38,1.87.06.32.12.64.18.96.11.59.22,1.19.32,1.79.06.33.12.66.17.99.11.64.21,1.28.32,1.93.05.29.09.58.14.87.14.89.27,1.8.4,2.72,0,.05.01.1.02.15.13.97.26,1.96.39,2.95.04.29.07.58.1.87.09.71.17,1.43.25,2.16.04.36.08.72.12,1.08.07.68.15,1.37.21,2.06.04.37.07.74.11,1.11.07.73.14,1.47.2,2.22.03.33.06.65.09.98.09,1.04.17,2.1.25,3.17,0,.03,0,.06,0,.09.08,1.11.16,2.23.23,3.36.02.33.04.67.06,1,.05.8.1,1.61.15,2.43.02.42.05.83.07,1.25.04.76.08,1.53.12,2.31.02.42.04.84.06,1.27.04.83.08,1.67.11,2.51.02.37.03.74.05,1.12.05,1.18.09,2.37.13,3.57,0,.04,0,.08,0,.13.04,1.25.08,2.51.12,3.78.01.4.02.81.03,1.21.02.89.05,1.77.07,2.67.01.48.02.96.03,1.45.02.85.04,1.71.05,2.58,0,.49.02.98.03,1.47.02.93.03,1.86.05,2.8,0,.43.01.86.02,1.29.02,1.34.04,2.69.05,4.06,0,.03,0,.06,0,.09-.01,1.37-.03,2.72-.05,4.06,0,.41-.01.81-.02,1.22-.01.92-.03,1.84-.05,2.74,0,.48-.02.96-.03,1.44-.02.85-.03,1.7-.05,2.53,0,.46-.02.93-.03,1.38-.02.92-.04,1.82-.07,2.72-.01.36-.02.72-.03,1.07-.04,1.25-.07,2.48-.11,3.7,0,.19-.01.37-.02.56-.04,1.02-.07,2.03-.11,3.03-.01.4-.03.79-.05,1.19-.03.79-.07,1.58-.1,2.37-.02.42-.04.84-.06,1.25-.04.77-.08,1.54-.12,2.3-.02.39-.04.78-.06,1.17-.05.88-.1,1.76-.15,2.62-.01.24-.03.49-.04.73-.07,1.1-.14,2.19-.22,3.27-.02.25-.04.5-.06.75-.06.82-.12,1.64-.19,2.44-.03.36-.06.71-.09,1.06-.06.7-.12,1.39-.18,2.08-.03.37-.07.73-.1,1.1-.07.7-.14,1.39-.21,2.08-.03.32-.06.64-.1.96-.09.89-.19,1.76-.29,2.63-.01.11-.03.22-.04.32-.11.97-.24,1.93-.36,2.88-.04.27-.07.54-.11.81-.09.68-.18,1.35-.28,2.01-.05.32-.09.65-.14.97-.09.61-.19,1.22-.28,1.82-.05.32-.1.64-.15.96-.11.63-.21,1.25-.32,1.87-.05.27-.09.54-.14.8-.16.88-.33,1.74-.5,2.6-.01.04-.02.08-.03.13-.16.8-.33,1.6-.51,2.39-.06.26-.12.53-.18.79-.13.57-.26,1.13-.39,1.69-.07.29-.14.59-.22.88-.13.53-.27,1.06-.4,1.58-.07.28-.15.56-.22.84-.16.58-.32,1.15-.48,1.72-.06.2-.12.41-.18.62-.23.76-.46,1.52-.7,2.27-.05.15-.1.3-.15.45-.19.59-.39,1.18-.59,1.76-.09.25-.18.5-.27.75-.17.48-.34.95-.52,1.43-.1.26-.2.53-.3.79-.07.18-.15.36-.22.55-20.34-24.69-31.41-55.38-31.41-87.76s10.75-62.18,30.51-86.64ZM205.14,323.66c.14-.29.28-.59.43-.88.24-.5.49-1,.72-1.5.15-.33.3-.66.45-.99.22-.48.43-.96.64-1.44.15-.34.29-.69.44-1.04.2-.48.4-.96.59-1.44.14-.36.28-.72.42-1.08.19-.48.37-.97.56-1.46.14-.37.27-.73.4-1.1.18-.5.35-1,.53-1.51.13-.36.25-.73.37-1.1.17-.53.34-1.06.51-1.59.11-.36.23-.71.34-1.08.17-.57.34-1.14.51-1.72.1-.33.19-.66.29-.99.19-.67.37-1.35.55-2.03.07-.25.14-.5.2-.75.24-.94.48-1.89.71-2.86.01-.05.02-.1.04-.15.21-.91.42-1.82.62-2.75.06-.3.12-.61.19-.91.14-.68.28-1.36.42-2.06.07-.37.14-.75.21-1.12.12-.64.24-1.28.35-1.92.07-.4.14-.81.21-1.21.11-.63.21-1.26.32-1.9.07-.42.13-.85.2-1.28.1-.63.19-1.27.29-1.91.06-.44.13-.88.19-1.32.09-.65.18-1.3.26-1.95.06-.44.12-.89.17-1.34.08-.67.17-1.36.25-2.04.05-.44.1-.87.15-1.31.08-.73.16-1.46.23-2.2.04-.41.09-.82.13-1.23.08-.84.16-1.69.24-2.54.03-.32.06-.64.09-.96.21-2.37.39-4.8.56-7.28.03-.39.05-.79.08-1.18.06-.85.11-1.7.16-2.57.03-.49.05-.98.08-1.47.04-.79.09-1.58.13-2.38.03-.53.05-1.06.08-1.59.04-.77.07-1.55.11-2.33.02-.56.05-1.13.07-1.69.03-.77.06-1.55.09-2.33.02-.58.04-1.17.06-1.77.03-.78.05-1.56.08-2.35.02-.6.04-1.2.05-1.81.02-.81.04-1.62.06-2.44.01-.6.03-1.19.04-1.8.02-.86.04-1.72.06-2.59.01-.58.02-1.16.04-1.74.02-.97.03-1.95.05-2.93,0-.49.02-.98.02-1.48.02-1.49.04-2.99.06-4.51v-.1s0-.1,0-.1c-.02-1.56-.04-3.1-.06-4.63,0-.49-.02-.96-.02-1.45-.02-1.03-.03-2.07-.05-3.09-.01-.57-.02-1.12-.03-1.68-.02-.92-.04-1.85-.06-2.76-.01-.59-.03-1.18-.04-1.77-.02-.86-.05-1.72-.07-2.58-.02-.59-.04-1.18-.05-1.77-.03-.84-.06-1.68-.08-2.5-.02-.58-.04-1.16-.06-1.74-.03-.82-.06-1.63-.1-2.43-.02-.57-.05-1.15-.07-1.71-.04-.8-.07-1.59-.11-2.38-.03-.56-.06-1.11-.08-1.66-.04-.8-.09-1.59-.13-2.37-.03-.52-.06-1.05-.09-1.56-.05-.85-.11-1.68-.16-2.51-.03-.44-.06-.89-.09-1.33-.08-1.09-.16-2.16-.24-3.23-.01-.18-.03-.36-.04-.53-.1-1.24-.2-2.45-.32-3.66-.03-.37-.07-.73-.11-1.1-.08-.83-.16-1.66-.24-2.48-.05-.46-.1-.92-.15-1.37-.08-.71-.15-1.42-.24-2.13-.06-.49-.12-.96-.18-1.45-.08-.66-.16-1.32-.25-1.98-.06-.49-.13-.98-.2-1.46-.09-.63-.18-1.27-.27-1.89-.07-.49-.14-.97-.22-1.45-.09-.61-.19-1.23-.29-1.83-.08-.48-.15-.95-.23-1.42-.1-.6-.21-1.2-.32-1.8-.08-.46-.16-.92-.25-1.37-.11-.61-.23-1.21-.35-1.81-.09-.43-.17-.86-.26-1.29-.13-.63-.27-1.26-.4-1.88-.08-.38-.17-.77-.25-1.15-.17-.75-.35-1.48-.53-2.22-.06-.25-.12-.49-.18-.74-.24-.97-.49-1.93-.75-2.87-.08-.28-.16-.56-.24-.84-.19-.66-.37-1.33-.57-1.98-.11-.36-.22-.72-.33-1.08-.17-.56-.35-1.13-.53-1.69-.12-.38-.25-.75-.38-1.13-.18-.53-.35-1.05-.54-1.57-.14-.38-.27-.76-.41-1.14-.18-.51-.37-1.01-.56-1.51-.14-.38-.29-.75-.44-1.13-.19-.49-.39-.99-.59-1.47-.15-.37-.31-.74-.46-1.1-.21-.49-.42-.97-.64-1.45-.16-.35-.32-.71-.48-1.06-.23-.49-.46-.98-.69-1.47-.16-.33-.32-.66-.48-.99-.26-.52-.52-1.03-.78-1.54-.15-.29-.3-.58-.45-.87-.03-.06-.06-.13-.1-.19,16.81-15.56,36.88-26.53,58.88-32.2-.12.92-.23,1.84-.34,2.76-.15,1.21-.3,2.41-.45,3.62-.22,1.76-.42,3.53-.63,5.29-.14,1.17-.28,2.34-.41,3.52-.21,1.85-.41,3.69-.61,5.54-.12,1.09-.24,2.18-.35,3.26-.21,2.04-.42,4.07-.62,6.11-.09.9-.18,1.8-.27,2.7-.28,2.86-.54,5.72-.8,8.58,0,.08-.01.15-.02.23-.26,2.96-.51,5.92-.75,8.89-.07.82-.12,1.63-.19,2.45-.17,2.12-.33,4.25-.48,6.37-.08,1.07-.15,2.14-.22,3.22-.13,1.87-.25,3.74-.37,5.61-.07,1.17-.14,2.35-.21,3.52-.11,1.77-.21,3.54-.31,5.32-.07,1.22-.13,2.45-.19,3.67-.09,1.73-.17,3.46-.25,5.2-.06,1.24-.11,2.47-.16,3.71-.07,1.72-.14,3.45-.21,5.18-.05,1.24-.09,2.47-.13,3.71-.06,1.74-.11,3.49-.16,5.23-.04,1.21-.07,2.42-.1,3.63-.05,1.81-.08,3.63-.12,5.44-.02,1.14-.05,2.27-.07,3.41-.03,1.98-.06,3.96-.08,5.94,0,.97-.03,1.94-.04,2.91-.03,2.92-.04,5.84-.04,8.77v.06c0,2.94.01,5.89.03,8.83,0,.97.02,1.95.04,2.92.02,1.97.04,3.94.07,5.91.02,1.17.04,2.34.07,3.51.03,1.77.07,3.54.11,5.31.03,1.26.07,2.52.1,3.77.05,1.69.1,3.38.15,5.06.04,1.29.09,2.58.14,3.87.06,1.66.13,3.32.19,4.98.05,1.3.11,2.6.17,3.9.08,1.67.15,3.33.24,4.99.06,1.29.13,2.58.2,3.86.09,1.69.19,3.38.29,5.07.07,1.26.14,2.51.22,3.77.11,1.75.23,3.5.34,5.25.08,1.19.16,2.39.24,3.58.13,1.92.28,3.83.43,5.75.08,1.02.15,2.05.23,3.07.23,2.92.47,5.83.73,8.75.04.44.08.89.12,1.33.22,2.49.45,4.98.69,7.46.1,1.08.21,2.16.32,3.23.18,1.86.37,3.72.56,5.58.13,1.21.26,2.41.39,3.62.19,1.73.37,3.47.57,5.2.14,1.26.29,2.51.43,3.77.2,1.69.39,3.37.6,5.05.15,1.27.31,2.54.47,3.82.11.89.22,1.78.33,2.66-21.39-5.55-41.01-16.13-57.59-31.09.02-.04.04-.09.07-.14ZM282.52,358.52c-.04-.3-.08-.59-.12-.89-.18-1.35-.35-2.71-.52-4.06-.2-1.58-.41-3.16-.6-4.74-.17-1.37-.33-2.75-.5-4.13-.19-1.56-.37-3.12-.55-4.67-.16-1.39-.31-2.78-.47-4.18-.17-1.55-.34-3.09-.51-4.64-.15-1.4-.29-2.8-.44-4.2-.16-1.54-.31-3.08-.46-4.62-.14-1.41-.27-2.81-.4-4.22-.14-1.54-.29-3.08-.42-4.61-.13-1.4-.25-2.81-.37-4.21-.13-1.54-.26-3.08-.38-4.62-.11-1.41-.23-2.81-.33-4.22-.12-1.54-.23-3.08-.34-4.62-.1-1.4-.2-2.81-.3-4.21-.1-1.55-.2-3.1-.3-4.64-.09-1.4-.18-2.8-.26-4.2-.09-1.56-.18-3.11-.26-4.66-.08-1.39-.15-2.78-.23-4.18-.08-1.57-.15-3.14-.23-4.72-.06-1.37-.13-2.75-.19-4.12-.07-1.59-.13-3.18-.19-4.78-.05-1.36-.1-2.71-.15-4.07-.06-1.63-.1-3.27-.15-4.9-.04-1.31-.08-2.62-.11-3.93-.04-1.72-.08-3.44-.11-5.15-.03-1.23-.06-2.46-.07-3.68-.03-1.91-.05-3.81-.07-5.72,0-.22,0-.43,0-.65h48.33c0,.06,0,.12,0,.17-.02,2.08-.04,4.16-.08,6.24-.02,1.08-.04,2.16-.07,3.25-.04,1.87-.07,3.74-.12,5.61-.03,1.17-.07,2.34-.1,3.51-.05,1.78-.1,3.56-.16,5.34-.04,1.22-.09,2.45-.14,3.67-.06,1.73-.13,3.46-.2,5.19-.05,1.25-.11,2.5-.17,3.75-.08,1.7-.16,3.41-.24,5.11-.06,1.26-.13,2.53-.2,3.79-.09,1.69-.19,3.38-.29,5.06-.08,1.27-.16,2.54-.24,3.82-.11,1.68-.22,3.37-.33,5.05-.09,1.27-.18,2.55-.27,3.82-.12,1.68-.24,3.35-.37,5.03-.1,1.28-.2,2.55-.3,3.83-.14,1.68-.27,3.36-.42,5.04-.11,1.27-.22,2.54-.33,3.8-.15,1.69-.31,3.37-.46,5.06-.12,1.26-.24,2.52-.36,3.78-.17,1.7-.34,3.4-.51,5.1-.13,1.24-.25,2.48-.39,3.72-.18,1.72-.37,3.45-.57,5.17-.14,1.22-.27,2.44-.41,3.66-.2,1.75-.41,3.49-.62,5.23-.14,1.2-.29,2.39-.43,3.59-.22,1.79-.45,3.58-.68,5.37-.15,1.15-.29,2.29-.44,3.44-.05.34-.1.69-.14,1.03-10.04,1.09-20.14,1.09-30.23,0ZM332.61,354.89c.12-.96.24-1.93.36-2.89.14-1.14.28-2.29.42-3.43.23-1.84.44-3.69.65-5.53.13-1.1.26-2.2.38-3.31.22-1.93.43-3.87.63-5.8.11-1.01.22-2.02.32-3.03.23-2.16.44-4.33.65-6.5.08-.77.16-1.55.23-2.32.57-5.94,1.09-11.89,1.56-17.83.05-.64.09-1.28.14-1.92.18-2.31.35-4.61.51-6.92.07-.95.13-1.91.19-2.86.14-2,.27-4,.39-6,.07-1.06.13-2.12.19-3.18.11-1.9.22-3.8.32-5.7.06-1.11.11-2.21.17-3.32.09-1.87.18-3.73.27-5.6.05-1.11.1-2.23.14-3.34.08-1.87.15-3.73.22-5.6.04-1.1.08-2.21.12-3.31.06-1.91.12-3.82.17-5.73.03-1.05.06-2.09.08-3.14.05-2.04.09-4.07.13-6.1.02-.92.04-1.84.05-2.76.04-2.34.07-4.68.09-7.03,0-.61.01-1.22.02-1.83.05-5.99.05-11.97,0-17.96,0-.62-.02-1.24-.02-1.86-.02-2.33-.05-4.67-.09-7-.02-.92-.04-1.83-.06-2.75-.04-2.04-.08-4.08-.14-6.11-.03-1.04-.06-2.07-.09-3.11-.06-1.92-.11-3.84-.18-5.76-.04-1.1-.08-2.2-.12-3.29-.07-1.87-.14-3.74-.22-5.61-.05-1.11-.1-2.22-.15-3.33-.09-1.87-.18-3.75-.27-5.62-.06-1.1-.11-2.19-.17-3.29-.1-1.91-.22-3.82-.33-5.72-.06-1.05-.12-2.1-.19-3.15-.13-2.02-.26-4.03-.4-6.05-.06-.93-.12-1.87-.19-2.8-.17-2.32-.34-4.63-.52-6.95-.05-.63-.09-1.26-.14-1.89-.47-5.94-1-11.88-1.57-17.81-.08-.8-.16-1.61-.24-2.41-.21-2.13-.43-4.27-.65-6.4-.11-1.04-.23-2.07-.34-3.11-.2-1.9-.41-3.8-.63-5.7-.13-1.13-.26-2.27-.39-3.4-.21-1.8-.43-3.61-.65-5.41-.14-1.18-.29-2.36-.44-3.54-.12-.94-.23-1.87-.35-2.81,22.01,5.67,42.09,16.65,58.92,32.24-.03.06-.06.11-.09.17-.17.32-.34.65-.51.98-.25.47-.49.95-.73,1.43-.17.35-.34.71-.51,1.06-.22.46-.44.92-.66,1.39-.17.37-.34.75-.51,1.12-.2.46-.41.92-.61,1.39-.16.38-.32.77-.49,1.16-.19.47-.38.94-.57,1.41-.15.39-.31.78-.46,1.18-.18.48-.36.97-.54,1.46-.14.4-.29.79-.43,1.2-.17.5-.34,1-.51,1.51-.13.4-.27.79-.4,1.2-.17.53-.34,1.07-.5,1.61-.12.38-.24.76-.35,1.15-.18.62-.36,1.24-.53,1.87-.09.32-.18.63-.27.95-.25.94-.5,1.89-.74,2.85-.07.3-.14.61-.22.92-.16.68-.33,1.35-.48,2.03-.1.42-.18.84-.28,1.26-.13.58-.26,1.17-.38,1.76-.1.46-.18.92-.28,1.38-.11.57-.23,1.13-.33,1.71-.09.48-.18.97-.26,1.45-.1.57-.2,1.14-.3,1.71-.08.5-.17,1-.25,1.5-.09.58-.18,1.16-.27,1.74-.08.51-.15,1.02-.23,1.54-.09.59-.17,1.18-.25,1.78-.07.52-.14,1.04-.21,1.57-.08.6-.15,1.22-.23,1.83-.07.53-.13,1.06-.2,1.6-.07.63-.14,1.27-.21,1.91-.06.53-.12,1.06-.17,1.59-.07.69-.14,1.4-.21,2.1-.05.49-.1.98-.14,1.48-.1,1.11-.2,2.24-.29,3.38-.04.46-.07.94-.11,1.41-.06.84-.13,1.68-.19,2.53-.04.56-.07,1.13-.11,1.7-.05.71-.1,1.41-.14,2.13-.04.61-.07,1.22-.11,1.83-.04.69-.08,1.39-.12,2.09-.03.63-.06,1.27-.1,1.9-.03.7-.07,1.41-.1,2.12-.03.65-.06,1.3-.08,1.96-.03.71-.06,1.43-.09,2.16-.03.66-.05,1.32-.07,1.99-.03.74-.05,1.48-.07,2.23-.02.67-.04,1.34-.06,2.01-.02.77-.04,1.55-.06,2.33-.02.66-.03,1.32-.05,1.99-.02.83-.04,1.67-.05,2.51-.01.64-.03,1.27-.04,1.91-.02.95-.03,1.91-.05,2.86,0,.55-.02,1.1-.03,1.65-.02,1.52-.04,3.05-.06,4.61v.1s0,.1,0,.1c.01,1.52.04,3.02.06,4.5,0,.5.02,1,.02,1.49.02.98.03,1.96.05,2.92.01.59.02,1.17.04,1.75.02.86.04,1.72.06,2.56.01.62.03,1.24.05,1.85.02.79.04,1.59.06,2.37.02.64.04,1.27.06,1.9.02.74.05,1.48.07,2.21.02.65.05,1.29.07,1.94.03.71.05,1.42.08,2.12.03.63.05,1.27.08,1.89.03.7.06,1.38.09,2.07.03.62.06,1.25.09,1.87.03.68.07,1.35.11,2.02.03.61.07,1.22.1,1.82.04.68.08,1.35.13,2.02.04.57.07,1.15.11,1.72.05.77.11,1.52.17,2.28.06.81.12,1.62.19,2.42.06.81.13,1.62.2,2.41.05.54.1,1.08.15,1.62.06.63.11,1.25.18,1.87.06.56.12,1.11.17,1.67.06.58.12,1.17.19,1.75.06.56.13,1.11.19,1.66.07.56.13,1.13.2,1.69.07.55.14,1.09.21,1.63.07.55.15,1.09.22,1.63.07.54.15,1.07.23,1.6.08.54.16,1.07.24,1.6.08.52.16,1.05.24,1.56.09.53.18,1.05.26,1.58.09.51.17,1.01.26,1.52.09.52.19,1.04.29,1.56.09.49.18.98.28,1.47.1.53.21,1.05.32,1.58.09.46.19.92.29,1.38.13.61.27,1.2.4,1.79.13.55.25,1.11.38,1.65.18.74.36,1.47.54,2.2.1.4.21.79.32,1.18.14.53.28,1.06.43,1.59.12.42.24.83.36,1.25.14.49.28.98.43,1.46.13.42.26.84.39,1.25.15.47.3.94.45,1.41.14.41.28.82.42,1.23.16.46.32.92.48,1.37.14.4.29.81.44,1.21.17.45.34.91.52,1.36.15.39.3.78.46,1.16.18.45.37.91.56,1.35.16.37.31.75.47,1.12.2.46.4.91.61,1.36.16.35.32.71.48,1.06.22.48.46.96.69,1.44.15.31.3.63.45.94.02.04.04.09.06.13-16.59,14.96-36.22,25.54-57.63,31.09Z"/>
  <g>
    <path class="st0" d="M104.86,435.55v38.29h50.87v-38.29c0-1.64,1.33-2.96,2.96-2.96h13.01c1.64,0,2.96,1.33,2.96,2.96v92.08c0,1.64-1.33,2.96-2.96,2.96h-13.01c-1.64,0-2.96-1.33-2.96-2.96v-38.43h-50.87v38.43c0,1.64-1.33,2.96-2.96,2.96h-13.01c-1.64,0-2.96-1.33-2.96-2.96v-92.08c0-1.64,1.33-2.96,2.96-2.96h13.01c1.64,0,2.96,1.33,2.96,2.96Z"/>
    <path class="st0" d="M261.1,434.35l40.67,92.08c.87,1.96-.57,4.16-2.71,4.16h-13.49c-1.19,0-2.26-.71-2.73-1.8l-9.41-22.05h-43.57l-8.73,21.98c-.45,1.13-1.54,1.87-2.75,1.87h-13.41c-2.11,0-3.54-2.14-2.74-4.09l37.97-92.08c.46-1.11,1.54-1.83,2.74-1.83h15.45c1.17,0,2.24.69,2.71,1.77ZM235.62,492.36h31.64l-16.56-38.8-15.08,38.8Z"/>
    <path class="st0" d="M357.9,431.32c8.96,0,17.61,2.1,25.94,6.3,1,.5,1.63,1.56,1.63,2.68v9.93c0,2.23-2.38,3.65-4.35,2.6-8.39-4.48-15.95-6.72-22.66-6.72-4.77,0-8.5.92-11.19,2.77-2.69,1.85-4.03,4.32-4.03,7.4,0,3.7,2.5,7.11,7.51,10.24,1.4.94,6.81,3.56,16.21,7.86,8.04,3.79,13.84,8,17.4,12.63,3.56,4.63,5.33,10.2,5.33,16.7,0,8.42-3.03,15.21-9.09,20.38-6.06,5.17-13.9,7.75-23.54,7.75-6.27,0-11.66-.69-16.17-2.07-4.11-1.25-8.67-3.33-13.69-6.24-.92-.53-1.5-1.54-1.5-2.6v-10.93c0-2.41,2.74-3.78,4.7-2.37,8.74,6.27,17.04,9.41,24.91,9.41,4.63,0,8.37-1,11.23-3.02,2.85-2.01,4.28-4.67,4.28-8,0-4.54-2.48-8.23-7.44-11.09-4.12-2.25-9.43-4.94-15.93-8.07-7.72-3.51-13.48-7.6-17.3-12.28-3.81-4.67-5.72-10.1-5.72-16.28,0-8.23,3.06-14.79,9.19-19.68,6.13-4.89,14.22-7.33,24.27-7.33Z"/>
    <path class="st0" d="M439.55,435.55v38.29h50.87v-38.29c0-1.64,1.33-2.96,2.97-2.96h13.01c1.64,0,2.97,1.33,2.97,2.96v92.08c0,1.64-1.33,2.96-2.97,2.96h-13.01c-1.64,0-2.97-1.33-2.97-2.96v-38.43h-50.87v38.43c0,1.64-1.33,2.96-2.97,2.96h-13.01c-1.64,0-2.97-1.33-2.97-2.96v-92.08c0-1.64,1.33-2.96,2.97-2.96h13.01c1.64,0,2.97,1.33,2.97,2.96Z"/>
  </g>
</svg>