<?xml version="1.0" encoding="UTF-8"?>
<svg id="Calque_1" xmlns="http://www.w3.org/2000/svg" version="1.1" viewBox="0 0 595.28 595.28">
  <!-- Generator: Adobe Illustrator 29.1.0, SVG Export Plug-In . SVG Version: 2.1.0 Build 142)  -->
  <defs>
    <style>
      .st0 {
        fill: #1d1d1b;
      }

      .st1 {
        fill: none;
        stroke: #1d1d1b;
        stroke-miterlimit: 10;
        stroke-width: 23.45px;
      }
    </style>
  </defs>
  <path class="st0" d="M274.61,379.58l-12.89-2.07c-32.85-5.27-62.74-20.57-86.46-44.24l-5.39-5.39,4-6.49c12.92-20.96,15.65-50.73,16.16-98.33-.51-48.46-3.42-78.82-17.27-99.82l-4.27-6.47,5.41-5.56c23.88-24.52,54.3-40.33,87.98-45.7l12.89-2.06-1.83,12.93c-13.64,96.24-13.69,193.9-.14,290.27l1.82,12.93ZM194.12,324.6c16.64,15.01,36.32,25.62,57.77,31.18-11.38-89.22-11.33-179.44.13-268.55-22.07,5.68-42.2,16.68-59.06,32.3,12.96,24.15,15.84,55.87,16.34,103.54-.5,46.65-3.19,77.66-15.18,101.53Z"/>
  <path class="st0" d="M183.88,341.87l-8.62-8.62c-29.86-29.86-46.3-69.53-46.3-111.73s15.97-80.71,44.95-110.34l8.35-8.54,6.58,9.97c16.48,24.99,19.91,58.1,20.46,110.45v.2c-.55,51.07-3.75,83.45-19.03,108.23l-6.4,10.38ZM178.84,134.61c-19.82,24.54-30.61,54.94-30.61,86.92s11.1,63.27,31.51,88.04c7.92-20.05,9.86-47.16,10.29-86.4-.43-40.47-2.52-68.26-11.19-88.55Z"/>
  <path class="st0" d="M299.33,379.57l1.81-12.92c13.55-96.39,13.5-194.06-.15-290.31l-1.83-12.93,12.89,2.06c33.68,5.37,64.11,21.18,88.01,45.73l5.41,5.56-4.27,6.47c-13.84,20.98-16.76,51.31-17.27,99.93.52,47.55,3.26,77.29,16.16,98.22l4,6.49-5.39,5.39c-23.71,23.67-53.62,38.97-86.49,44.24l-12.88,2.07ZM321.91,87.19c11.47,89.13,11.51,179.34.13,268.59,21.47-5.56,41.16-16.17,57.8-31.18-11.98-23.87-14.68-54.86-15.18-101.33v-.21c.51-47.67,3.39-79.38,16.34-103.53-16.88-15.64-37.02-26.65-59.1-32.34Z"/>
  <path class="st0" d="M286.99,379.52c-8.41,0-16.91-.68-25.26-2.02l-7.03-1.12-.99-7.05c-13.8-98.15-13.75-197.62.15-295.65l1-7.03,7.01-1.13c16.72-2.68,34.06-2.63,50.21-.04l7.01,1.13,1,7.03c13.9,98.03,13.95,197.51.15,295.69l-.99,7.04-7.02,1.13c-8.32,1.34-16.81,2.02-25.23,2.02ZM271.8,359.42c10.1,1.09,20.26,1.09,30.34,0,12.23-91.63,12.18-184.35-.14-275.85-9.81-1.06-20.01-1.07-30.06.02-12.32,91.5-12.36,184.22-.14,275.83Z"/>
  <path class="st0" d="M390.1,341.88l-6.4-10.38c-15.27-24.78-18.47-57.15-19.03-108.23.56-52.56,3.98-85.67,20.46-110.65l6.58-9.97,8.35,8.55c28.96,29.64,44.91,68.82,44.91,110.33s-16.43,81.85-46.26,111.72l-8.62,8.63ZM395.13,134.62c-8.68,20.3-10.76,48.13-11.19,88.64.43,39.12,2.36,66.23,10.29,86.29,20.39-24.77,31.48-55.56,31.48-88.03s-10.77-62.36-30.58-86.9Z"/>
  <polygon class="st0" points="385.18 333.78 393.21 328.44 385.05 333.58 383.74 331.58 400.05 321.31 401.1 322.91 385.18 333.78"/>
  <rect class="st0" x="256.08" y="213.53" width="61.72" height="19.27"/>
  <path class="st0" d="M188.88,333.69l-16.11-10.59c.36-.54.67-.99.94-1.47l16.7,9.62c-.48.84-1.01,1.64-1.54,2.44Z"/>
  <polygon class="st0" points="326.46 371.23 310.47 369.66 294.55 367.58 294.77 365.84 326.61 370.14 326.46 371.23"/>
  <path class="st1" d="M253.03,367.5"/>
  <polygon class="st0" points="247.55 371.83 247.33 370.14 279.16 365.84 279.38 367.49 247.55 371.83"/>
  <g>
    <path class="st0" d="M166.26,430.97c1.06,0,1.97.38,2.74,1.15.77.77,1.15,1.68,1.15,2.73v93.11c0,1.06-.38,1.97-1.15,2.73s-1.69,1.15-2.74,1.15h-11.67c-1.06,0-1.98-.38-2.74-1.15-.77-.77-1.15-1.68-1.15-2.73v-38.05h-43.52v38.05c0,1.06-.39,1.97-1.15,2.73s-1.69,1.15-2.74,1.15h-11.67c-1.06,0-1.97-.36-2.74-1.08-.77-.72-1.15-1.66-1.15-2.81v-93.11c0-1.06.38-1.96,1.15-2.73s1.68-1.15,2.74-1.15h11.67c1.06,0,1.97.38,2.74,1.15.77.77,1.15,1.68,1.15,2.73v37.04h43.52v-37.04c0-1.06.38-1.96,1.15-2.73.77-.77,1.68-1.15,2.74-1.15h11.67Z"/>
    <path class="st0" d="M257.35,430.97c1.54,0,2.69.41,3.46,1.22.77.82,1.44,2.04,2.02,3.68l35.31,91.09c.1.29.15.63.15,1.01,0,1.06-.39,1.97-1.15,2.73s-1.68,1.15-2.74,1.15h-10.38c-1.92,0-3.27-.41-4.04-1.22-.77-.82-1.3-1.61-1.58-2.38l-6.2-16h-45.54l-6.2,16c-.29.77-.82,1.56-1.59,2.38-.77.81-2.12,1.22-4.04,1.22h-10.38c-1.06,0-1.97-.38-2.74-1.15s-1.15-1.68-1.15-2.73c0-.38.04-.72.14-1.01l35.31-91.09c.57-1.64,1.25-2.86,2.02-3.68.77-.81,1.92-1.22,3.46-1.22h15.85ZM265.28,494.24l-15.86-41.08-15.85,41.08h31.71Z"/>
    <path class="st0" d="M394.27,430.97c1.06,0,1.97.38,2.74,1.15s1.15,1.68,1.15,2.73c0,.49-.1.92-.29,1.3l-34.16,60.1v31.71c0,1.06-.38,1.97-1.15,2.73-.77.77-1.68,1.15-2.73,1.15h-11.53c-1.06,0-1.97-.38-2.74-1.15-.77-.77-1.15-1.68-1.15-2.73v-31.71l-34.16-60.1c-.19-.38-.28-.81-.28-1.3,0-1.06.38-1.96,1.15-2.73.77-.77,1.68-1.15,2.73-1.15h10.81c1.93,0,3.36.48,4.33,1.44s1.54,1.68,1.73,2.16l23.35,40.79,23.35-40.79c.19-.48.77-1.2,1.73-2.16.96-.96,2.4-1.44,4.32-1.44h10.81Z"/>
    <path class="st0" d="M466.63,430.97c1.54,0,2.69.41,3.46,1.22.77.82,1.44,2.04,2.02,3.68l35.31,91.09c.1.29.15.63.15,1.01,0,1.06-.39,1.97-1.15,2.73-.77.77-1.68,1.15-2.74,1.15h-10.38c-1.92,0-3.27-.41-4.04-1.22-.77-.82-1.3-1.61-1.58-2.38l-6.2-16h-45.54l-6.2,16c-.29.77-.82,1.56-1.59,2.38-.77.81-2.12,1.22-4.04,1.22h-10.38c-1.06,0-1.97-.38-2.74-1.15-.77-.77-1.15-1.68-1.15-2.73,0-.38.04-.72.14-1.01l35.31-91.09c.57-1.64,1.25-2.86,2.02-3.68.77-.81,1.92-1.22,3.46-1.22h15.85ZM474.56,494.24l-15.86-41.08-15.85,41.08h31.71Z"/>
  </g>
</svg>