<?xml version="1.0" encoding="UTF-8"?>
<svg id="Calque_1" xmlns="http://www.w3.org/2000/svg" version="1.1" viewBox="0 0 595.28 595.28">
  <!-- Generator: Adobe Illustrator 29.1.0, SVG Export Plug-In . SVG Version: 2.1.0 Build 142)  -->
  <g id="Illustration_40">
    <g>
      <path d="M84.88,275.67c4.66-2.3,8.38-4.56,12.38-6.04,14.21-5.29,28.44-5.37,42.43.9,17.02,7.62,28.07,20.16,31.64,38.68.39,2,.58,4.07.59,6.11.07,17.29.06,34.58.09,51.87,0,4.58-2.05,7.98-6.23,9.75-3.8,1.61-7.67,1.39-11.07-1.24-2.84-2.2-4.06-5.14-4.05-8.76.06-15.99,0-31.99.03-47.98,0-7.26-1.84-14.05-6.58-19.56-8.68-10.09-20.46-15.14-34.64-11.62-9.1,2.25-15.3,7.88-20.28,15.6-3.36,5.2-4.24,10.72-4.27,16.55-.09,15.55,0,31.11-.05,46.68-.03,7.37-4.56,11.63-11.62,11.15-5.59-.38-9.69-4.56-9.78-10.17-.09-6.37-.02-12.75-.02-19.13,0-39.98-.02-79.96,0-119.94,0-8.51,8.28-13.72,15.67-9.91,3.8,1.96,5.7,5.2,5.74,9.47.03,3.67.02,7.35.02,11.02v36.59Z"/>
      <path d="M283.03,365.79c-6.85,5.16-13.94,8.77-21.92,10.44-16.27,3.41-31.6,1.57-45.91-7.47-7.99-5.06-14.03-11.71-18.9-19.66-10.16-16.61-10.28-34.04-2.25-50.98,6.87-14.51,18.63-25.11,34.39-29.66,19.04-5.5,37.24-3.5,53.82,8.56,8.52,6.21,14.21,14.2,18.83,23.44,3.46,6.92,4.43,14.14,4.52,21.56.19,14.79-.1,29.59.12,44.38.12,7.89-6.85,12.05-12.73,11.34-4.45-.54-8.2-4.4-9.6-10.14-.1-.41-.18-.82-.39-1.81M283.38,321.74c0-19.83-15.94-35.25-36.37-35.35-20.78-.09-36.89,17.47-36.77,35.52.11,17.74,15.78,35.33,36.8,35.16,20.53-.17,36.55-15.68,36.34-35.34"/>
      <path d="M388.34,286.4h-4.31c-17.06,0-34.12.02-51.18-.03-5.09,0-9.22-3.42-10.27-8.27-.96-4.46,1.3-9.25,5.66-11.32,1.5-.71,3.33-1,5.01-1,26.19-.06,52.37-.02,78.56-.05,4.62,0,8.02,1.89,9.84,6.09,1.78,4.1,1.18,8.01-1.79,11.47-9.23,10.73-18.44,21.48-27.69,32.2-5.57,6.46-11.2,12.87-16.8,19.3-5.53,6.34-11.06,12.68-16.59,19.03-.67.77-1.27,1.6-2.38,3.02,2.02.14,3.25.29,4.49.29,16.95.02,33.9-.03,50.85.04,6.58.03,10.71,4.22,10.63,10.47-.07,5.77-4.22,10.09-10.03,10.1-26.51.05-53.03,0-79.54.04-4.09,0-7.13-1.74-9.09-5.22-2.09-3.72-2.12-7.67.5-11,4.34-5.49,9.11-10.66,13.68-15.97,1.06-1.23,2.09-2.49,3.14-3.72,10.04-11.75,20.06-23.51,30.12-35.24,4.85-5.65,9.8-11.21,14.68-16.83.73-.84,1.32-1.81,2.5-3.44"/>
      <path d="M490.61,310.75c9.67,0,19.34-.07,29.01.03,5.98.06,10.57,3.91,11.91,9.64,1.29,5.52-1.4,11.51-6.58,13.81-1.91.86-4.18,1.23-6.3,1.25-18.58.09-37.15.08-55.73.04-8.19-.02-13.21-4.78-13.2-12.35,0-7.53,5.1-12.38,13.18-12.42,9.23-.04,18.47,0,27.71,0"/>
      <path d="M490.56,377.79c-9.45,0-18.9.03-28.35-.02-7.48-.04-12.33-4.77-12.48-12-.16-7.35,4.68-12.49,12.27-12.53,19.12-.11,38.24-.11,57.35,0,7.55.04,12.48,5.2,12.41,12.47-.08,7-5.21,12.01-12.53,12.06-9.56.06-19.11.01-28.67.01"/>
      <path d="M490.64,290.3c-9.67,0-19.34.06-29-.02-5.85-.05-10.59-3.84-11.59-9-1.3-6.83,1.32-12.39,7.11-14.68,1.47-.58,3.16-.81,4.76-.82,19.22-.05,38.46-.09,57.68,0,6.42.03,11.11,4.15,12.07,10.11.96,6.03-2.22,11.73-7.88,13.71-1.59.56-3.4.68-5.1.68-9.34.07-18.68.03-28.03.03v-.02Z"/>
    </g>
  </g>
</svg>