<?xml version="1.0" encoding="UTF-8"?>
<svg id="Calque_1" xmlns="http://www.w3.org/2000/svg" version="1.1" viewBox="0 0 595.28 595.28">
  <!-- Generator: Adobe Illustrator 29.1.0, SVG Export Plug-In . SVG Version: 2.1.0 Build 142)  -->
  <defs>
    <style>
      .st0 {
        fill: #231f20;
      }
    </style>
  </defs>
  <path class="st0" d="M164.52,349.33c.3-6.22.58-12.54.83-18.96.25-6.42.38-12.95.38-19.57v-25.89c0-6.62-.13-13.12-.38-19.49-.25-6.37-.53-12.87-.83-19.49,1.3.2,2.56.38,3.76.52,1.21.15,2.41.22,3.62.22s2.41-.07,3.61-.22c1.2-.15,2.46-.32,3.76-.52-.3,6.62-.58,13.12-.83,19.49-.25,6.37-.37,12.87-.37,19.49v8.28c0,.8.3,1.2.9,1.2.4,0,1.1-.45,2.11-1.36,3.51-3.01,7.2-6.42,11.06-10.24,3.86-3.81,7.75-7.77,11.66-11.89,3.91-4.12,7.77-8.3,11.59-12.57,3.81-4.26,7.48-8.4,10.99-12.41,1.1.2,2.16.38,3.16.52,1,.15,2,.22,3.01.22,1.2,0,2.41-.07,3.61-.22,1.2-.15,2.41-.32,3.61-.52-3.51,3.01-7.48,6.57-11.89,10.68-4.42,4.12-8.86,8.33-13.32,12.64-4.47,4.32-8.73,8.56-12.79,12.72-4.06,4.17-7.45,7.8-10.16,10.92,8.13,9.13,16.33,18.43,24.61,27.92,8.28,9.48,16.68,18.99,25.21,28.52-1.5-.2-3.01-.3-4.52-.3h-8.65c-1.36,0-2.74.1-4.14.3-3.61-4.12-7.6-8.83-11.96-14.15-4.36-5.32-8.63-10.46-12.79-15.43-4.16-4.96-7.93-9.43-11.29-13.39-3.36-3.96-5.84-6.75-7.45-8.35-.81-.8-1.41-1.2-1.81-1.2-.5,0-.75.3-.75.9v13.09c0,6.62.12,13.15.37,19.57.25,6.42.53,12.74.83,18.96-2.31-.2-4.77-.3-7.38-.3s-5.07.1-7.37.3"/>
  <path class="st0" d="M262.19,251.66c0-2.11.75-3.92,2.26-5.42,1.5-1.5,3.31-2.26,5.42-2.26s3.91.75,5.42,2.26c1.5,1.5,2.26,3.31,2.26,5.42s-.76,3.91-2.26,5.42c-1.51,1.5-3.31,2.26-5.42,2.26s-3.91-.76-5.42-2.26c-1.51-1.51-2.26-3.31-2.26-5.42M264.3,305.99c0-4.51-.08-9.26-.23-14.22-.15-4.97-.48-9.61-.98-13.92,2.81.5,5.06.75,6.77.75s3.96-.25,6.78-.75c-.5,4.32-.83,8.96-.98,13.92-.15,4.97-.23,9.71-.23,14.22v15.65c0,4.51.08,9.26.23,14.22.15,4.97.48,9.46.98,13.47-2.31-.2-4.57-.3-6.78-.3s-4.46.1-6.77.3c.5-4.01.83-8.5.98-13.47.15-4.97.23-9.71.23-14.22v-15.65Z"/>
  <path class="st0" d="M302.08,315.92c0-12.34,2.93-22.02,8.8-29.05,5.87-7.02,14.42-10.54,25.66-10.54,5.32,0,9.91.83,13.77,2.49,3.86,1.66,7.1,3.86,9.71,6.62,2.61,2.76,4.54,6,5.8,9.71,1.26,3.72,1.88,7.68,1.88,11.9,0,1-.02,1.98-.08,2.93-.05.95-.12,1.93-.22,2.94-5.42-.1-10.79-.2-16.11-.3-5.32-.1-10.68-.15-16.1-.15-3.31,0-6.6.05-9.86.15-3.26.1-6.55.2-9.86.3-.1.5-.15,1.25-.15,2.26v1.96c0,3.92.58,7.58,1.73,10.99,1.16,3.41,2.84,6.34,5.04,8.8,2.21,2.46,4.92,4.42,8.13,5.87,3.21,1.46,6.92,2.18,11.14,2.18,2.01,0,4.06-.28,6.17-.83,2.11-.55,4.16-1.3,6.17-2.26,2-.96,3.88-2.08,5.64-3.39,1.75-1.3,3.28-2.71,4.59-4.22l.75.45-.9,7.38c-3.01,2.41-6.75,4.46-11.21,6.17-4.46,1.7-9.1,2.56-13.92,2.56-5.42,0-10.36-.83-14.83-2.49-4.47-1.65-8.33-4.06-11.59-7.22-3.26-3.16-5.77-6.9-7.52-11.21-1.76-4.31-2.63-8.98-2.63-14M336.85,281.16c-3.71,0-6.85.85-9.41,2.56-2.56,1.7-4.66,3.84-6.32,6.39-1.65,2.56-2.91,5.37-3.76,8.43-.85,3.06-1.38,5.95-1.58,8.65,3.11.1,6.35.21,9.71.3,3.36.1,6.65.16,9.86.16s6.67-.05,10.08-.16c3.41-.09,6.72-.2,9.94-.3,0-2.7-.22-5.57-.68-8.58-.45-3.01-1.35-5.82-2.71-8.43-1.36-2.61-3.24-4.76-5.64-6.47-2.41-1.71-5.57-2.56-9.48-2.56"/>
  <path class="st0" d="M413.15,246.09c-2.21,0-4.09.43-5.64,1.28-1.56.85-2.84,1.96-3.84,3.31-1,1.36-1.73,2.93-2.18,4.74-.45,1.81-.68,3.72-.68,5.72,0,1.81.17,4.42.52,7.83.35,3.41.78,6.68,1.28,9.78,2.61,0,5.2-.02,7.75-.08,2.56-.05,5.14-.08,7.75-.08-.1.5-.18,1-.22,1.51-.05.5-.08,1-.08,1.5s.02,1,.08,1.51c.05.5.12,1,.22,1.5-2.61-.1-5.19-.2-7.75-.3-2.56-.1-5.14-.15-7.75-.15,0,10.94.02,21.8.08,32.58.05,10.79.22,21.65.53,32.58-1.11-.2-2.21-.3-3.31-.3h-3.16c-2.1,0-4.31.1-6.62.3.7-10.93,1.1-21.75,1.21-32.43.1-10.69.15-21.6.15-32.74-1.81,0-3.62.05-5.42.15-1.81.1-3.61.2-5.42.3.1-.5.18-1,.23-1.5.05-.5.07-1,.07-1.51s-.02-1-.07-1.5c-.05-.5-.13-1-.23-1.51,1.81,0,3.64.03,5.5.08,1.85.05,3.63.08,5.34.08,0-2.91.3-6.07.9-9.48.6-3.41,1.48-6.77,2.63-10.08,1.16-3.31,2.54-6.44,4.14-9.41,1.61-2.96,3.41-5.44,5.42-7.45,1.81-1.81,4.09-3.41,6.85-4.82,2.76-1.4,5.59-2.1,8.5-2.1,1.1,0,2.1.15,3.01.45-.1,2.01-.22,4.02-.38,6.02-.15,2.01-.23,4.01-.23,6.02l-.9.45c-2.41-1.5-5.17-2.26-8.28-2.26"/>
  <path class="st0" d="M438.29,342.26c0-2.31.85-4.32,2.56-6.02,1.7-1.71,3.71-2.56,6.02-2.56s4.32.85,6.02,2.56c1.71,1.7,2.56,3.71,2.56,6.02s-.85,4.24-2.56,5.79c-1.7,1.56-3.71,2.34-6.02,2.34s-4.32-.78-6.02-2.34c-1.71-1.55-2.56-3.48-2.56-5.79"/>
  <path class="st0" d="M393.99,435.51h-192.7c-76.02,0-137.87-61.85-137.87-137.87s61.85-137.87,137.87-137.87h192.7c76.02,0,137.87,61.85,137.87,137.87s-61.85,137.87-137.87,137.87M201.29,167.28c-71.88,0-130.36,58.48-130.36,130.36s58.48,130.36,130.36,130.36h192.7c71.88,0,130.36-58.48,130.36-130.36s-58.48-130.36-130.36-130.36h-192.7Z"/>
</svg>