<?xml version="1.0" encoding="UTF-8"?>
<svg id="Calque_1" xmlns="http://www.w3.org/2000/svg" version="1.1" viewBox="0 0 595.28 595.28">
  <!-- Generator: Adobe Illustrator 29.1.0, SVG Export Plug-In . SVG Version: 2.1.0 Build 142)  -->
  <defs>
    <style>
      .st0 {
        fill: #c98028;
      }
    </style>
  </defs>
  <path class="st0" d="M425.69,386.41c-1.09,1.67-2.74,2.28-4.3,2.93-12.13,5.08-24.78,7.81-37.91,8.81-23.67,1.81-46.98-1.41-70.33-4.4-6.26-.8-12.47-2.08-18.83-2.19-2.28-.04-3.69.66-4.98,2.65-7.8,12.05-16.45,23.39-27.9,32.31-6.48,5.06-13.67,8.53-21.84,9.85-6.27,1.01-8.76-1.59-7.59-7.91.98-5.27,3.71-9.69,7.19-13.49,11.88-12.99,25.28-23.69,43.27-26.95,1.56-.28,2.72-.97,3.44-2.38,4.86-9.52,9.72-19.04,14.58-28.56-.19-.14-.38-.28-.58-.43-1.64,1.89-3.27,3.8-4.93,5.68-4.96,5.62-10.17,10.99-15.95,15.79-.45.37-.92.72-1.4,1.06-6.14,4.34-8.81,3.43-10.71-4.01-2.1,2.95-4.03,5.68-5.99,8.4-2.62,3.64-5.47,7.07-9.03,9.87-1.92,1.52-3.91,2.89-6.28,3.61-4.25,1.29-6.3-.23-6.38-4.73-.05-2.67.69-5.19,1.48-7.7,4.11-13.06,10.42-25.13,16.72-37.21.9-1.72,1.83-3.43,2.72-5.16.12-.23.08-.53.19-1.33-4.29,2.75-7.36,6.24-10.37,9.69-10.25,11.73-19.91,23.92-28.78,36.73-2.42,3.5-5.54,5.65-9.66,6.43-2.62.5-3.31-.28-2.49-2.76.21-.64.53-1.25.77-1.89.23-.61.41-1.24.35-2.05-2.53,2.79-5.1,5.47-7.75,8.08-2.79,2.75-5.72,5.3-9.37,6.85-2.33.99-4.8,2.19-7.18.36-2.39-1.84-2.37-4.61-1.94-7.24.84-5.12,2.87-9.88,4.86-14.64.43-1.03.82-2.08,1.03-3.23-4.31,5.56-8.44,11.18-13.1,16.39-2.93,3.27-5.91,6.49-9.98,8.39-4.29,2-6.31.92-7.23-3.74-.58-2.95-.19-5.85.6-8.66,5.28-18.66,15.02-34.5,30.16-46.8,3.65-2.96,7.75-5.22,12.28-6.58,1.18-.36,2.21-.74,2.26-2.24.22-7.07,3.91-12.58,8.38-17.54,10.4-11.52,23.09-19.87,37.25-26.08.8-.35,1.64-.76,2.49-.81,5.15-.3,7.65-3.47,9.65-7.87,3.4-7.51,7.29-14.8,11.26-22.77-1.69.77-2.24,1.77-2.93,2.61-5.84,7.05-12.06,13.74-19.24,19.47-1.53,1.22-3.16,2.27-5.05,2.86-3.23,1-5,0-5.82-3.31-.81-3.27.7-6.3,1.09-10.07-2.64,2.92-4.93,5.44-7.21,7.98-3.28,3.64-7.03,6.71-11.18,9.3-1.49.93-3.06,1.72-4.8,2.08-2.76.57-4.49-.48-5.33-3.19-.53-1.72-.41-3.45-.08-5.19.82-4.33,2.35-8.45,4.21-12.41,5.7-12.16,11.85-24.07,19.17-35.37,2.67-4.12,6.29-6.18,10.88-7.04.75-.14,1.59-.52,2.18.21.69.85.11,1.68-.31,2.42-3.35,5.82-6.75,11.6-10.07,17.43-4.48,7.86-8.8,15.81-12.04,24.29-.63,1.64-1.22,3.29-1.29,5.07-.08,2.18.99,2.63,2.73,1.64,2.05-1.16,3.77-2.76,5.31-4.52,6.74-7.71,12.78-15.92,18.17-24.63,5.89-9.52,12.76-18.13,22.43-24.16,3.35-2.09,6.95-3.48,10.8-4.26,1.64-.33,3.49-.72,4.88.1,2.96,1.75,4.32.26,6.03-1.93,2.1-2.68,4.74-4.91,8.16-5.87.82-.23,1.83-.44,2.5.26.8.83.05,1.66-.37,2.37-10.53,17.76-18.68,36.76-28.59,54.85-2.43,4.44-4.93,8.83-7.35,13.27-.58,1.07-1.53,2.02-1.42,3.53,21.32-1.09,42.62-1.69,64.05-6.35-.82,1.7-1.77,1.78-2.56,2.02-14.3,4.33-28.88,7.12-43.84,7.79-6.31.28-12.61.81-18.93,1.07-2.04.08-2.86,1.34-3.75,2.75-5.51,8.73-11.46,17.14-18.52,24.71-8.7,9.32-18.27,17.24-31.21,19.86-1.48.3-1.88,1.07-1.82,2.44.05,1.06.02,2.16-.56,3.12-.49.82-1.29,1.56-2.11.71-2.95-3.06-5.75-1.29-8.43.22-3.58,2.02-6.63,4.77-9.44,7.75-7.24,7.7-13.42,16.15-18.04,25.69-1.19,2.46-2.18,5-2.78,7.67-.29,1.27-.9,2.94.42,3.8,1.41.92,2.53-.53,3.51-1.36,2.9-2.48,5.29-5.44,7.59-8.46,5.61-7.35,10.94-14.9,15.82-22.75,2.4-3.87,5.33-6.95,10.17-7.49.96-.11,2.02-.57,2.72.35.71.93-.04,1.86-.46,2.71-4.31,8.72-8.92,17.29-12.55,26.33-1.34,3.34-2.53,6.74-3.29,10.27-.24,1.12-.6,2.44.5,3.26,1.26.93,2.41,0,3.45-.68,3.8-2.51,6.53-6.06,9.33-9.57,9.23-11.56,15.68-24.79,22.85-37.6,2.9-5.17,6.03-10.22,9.14-15.27,2.45-3.98,6.51-5.34,10.76-6.33.57-.13,1.25-.2,1.62.33.55.78,0,1.49-.38,2.14-3.18,5.46-6.42,10.9-9.56,16.38-4.55,7.93-8.94,15.95-12.9,24.2-.32.68-.61,1.37-.56,2.27,3.84-4.81,7.6-9.7,11.55-14.43,6.49-7.76,13.1-15.43,20.95-21.89,2.86-2.36,5.81-4.61,9.29-5.97,1.58-.62,3.44-1.64,4.91-.09,1.33,1.41.46,3.2-.21,4.67-1.42,3.09-2.93,6.15-4.59,9.12-6.46,11.55-12.78,23.17-17.85,35.42-.37.9-.79,1.78-1.09,2.7-.6,1.8-1.93,4.14,0,5.29,1.84,1.1,3.64-.93,4.85-2.36,5.23-6.19,9.6-12.97,13.56-20.03,3.99-7.12,7.35-14.59,12.19-21.24,5.14-7.06,10.97-13.37,18.45-18.03,3.35-2.09,6.96-3.46,10.81-4.24,1.54-.31,3.34-.72,4.59.05,3.23,1.98,4.66.16,6.49-2.13,2.06-2.57,4.64-4.74,7.98-5.63.82-.22,1.84-.43,2.49.3.74.84-.02,1.66-.43,2.38-13.6,23.5-24.17,48.6-38.13,71.91-1.07,1.79-.58,2.44,1.36,2.48.87.02,1.74.23,2.61.28,1.36.09,2.84.49,4.04.08,1.71-.57-.06-2.21.52-3.33.76-1.46,1.16-3.12,2.02-4.51,4.91-7.96,10.36-15.53,16.49-22.61.31-.35.61-.77,1.75-.62-4.72,8.73-10.15,16.84-14.39,25.65,1.08.61,1.72-.21,2.39-.6,12.18-7.21,21.08-17.68,28.92-29.2,2.78-4.09,2.53-8.19-.21-12.25-1.53-2.27-3.3-4.32-5.14-6.34-6.71-7.35-6.47-13.3.91-20.13,6.11-5.65,13.48-9.17,21.23-11.93,3.59-1.28,6.99-2.94,10.39-4.63,1.41-.7,2.94-1.52,4.24.06,1.25,1.52.06,2.71-.84,3.85-6.28,7.93-12.57,15.85-18.88,23.76-.64.8-1.25,1.68-3.05,2.1,3.78-8.01,8.55-14.77,13-21.71-.66-.43-1.13-.18-1.54.01-6.94,3.34-13.08,7.72-17.57,14.06-2.95,4.17-2.64,6.01,1.12,9.5,2.35,2.18,4.8,4.27,7.13,6.47,5.15,4.87,5.77,10.02,1.7,15.9-7.03,10.17-15.62,18.85-25.59,26.17-5.98,4.39-12.23,8.27-19.26,10.99,39.05,5.56,78.05,10.3,116.98-1.6ZM216.82,328.99c-.06,2.22.8,3.16,2.85,2.64,3.92-1,7.41-2.84,10.56-5.38,10.32-8.31,17.5-19.14,24.32-30.25.48-.78,1.57-1.68.9-2.54-.69-.88-1.82-.01-2.69.26-16.06,5.11-26.91,16.07-34.33,30.8-.74,1.46-1.12,3.09-1.61,4.47ZM281.76,392.97c-1.44-.4-2.36-.03-3.3.15-8.27,1.62-15.26,5.45-20.99,11.68-5.68,6.19-11.04,12.56-13.46,20.82-.89,3.02.19,4.1,3.16,3.31,3.33-.89,6.36-2.43,9.06-4.53,10.87-8.43,18.27-19.67,25.53-31.43ZM253.43,268.91c.08.5-.25,1.51.67,2.05,1.03.6,1.9-.05,2.64-.65,1.13-.91,2.21-1.9,3.23-2.94,9.71-9.87,17.87-20.97,25.37-32.57,1.16-1.79,2.1-3.72,3.06-5.62.53-1.05.96-2.28.1-3.3-.87-1.03-2.18-.68-3.29-.44-2.25.48-4.08,1.82-5.75,3.3-10.78,9.55-18.97,20.97-24.62,34.21-.76,1.78-1.39,3.63-1.41,5.95ZM280.29,366.17c.11.6-.35,1.74.74,2.31,1.03.54,1.88-.15,2.64-.74.91-.72,1.78-1.51,2.6-2.33,10.56-10.69,19.43-22.69,27.32-35.44.81-1.31,1.51-2.74,1.98-4.2.67-2.06-.13-3.17-2.44-3-2.69.2-4.76,1.68-6.65,3.34-10.9,9.57-19.13,21.09-24.81,34.42-.72,1.69-1.32,3.45-1.37,5.65Z"/>
  <path class="st0" d="M468.66,149.67c-10.04,4.8-20.17,9.34-30.91,12.4,2.28-2.69,5.42-4.02,8.33-5.64,10.8-5.99,21.66-11.87,32.53-17.75,1.44-.78,3.01-1.37,4.56-1.91,1-.35,2.22-.71,3.03.19.94,1.04-.11,2-.61,2.87-3.82,6.67-7.8,13.25-11.5,19.98-13.57,24.62-27.22,49.19-38.54,74.96-.77,1.75-2.21,4.08-.42,5.33,1.76,1.24,3.54-.9,4.9-2.18,6.16-5.8,10.49-12.98,15.05-20,.65-1,1.02-3.21,2.62-2.42,1.45.71.79,2.72.19,4-3.22,6.92-7.6,13.12-12.45,18.97-3.1,3.74-6.36,7.36-10.25,10.35-2.35,1.8-4.85,3.24-7.7,4.05-3.71,1.06-5.36-.13-5.5-3.98-.03-.94,0-1.89,0-3.52-1.78,1.68-3.08,2.93-4.4,4.15-3.02,2.81-6.3,5.22-10.37,6.31-3.84,1.03-6.3-.67-6.71-4.62-.29-2.78.37-5.43,1.28-8.01,1.52-4.3,3.18-8.55,5.06-13.58-.89,1.05-1.37,1.53-1.76,2.07-4.61,6.4-9.37,12.67-14.93,18.29-1.99,2.01-4.17,3.8-6.78,4.99-4.21,1.92-6.22.94-7.12-3.52-.28-1.4-.35-2.84-.54-4.52-1.22.77-1.65,1.86-2.28,2.78-4.57,6.64-8.76,13.59-15.16,18.76-2.22,1.79-4.56,3.34-7.39,3.96-3.12.68-4.87-.56-5.26-3.76-.38-3.07.47-5.98,1.38-8.87,4.23-13.43,10.77-25.83,17.24-38.25.72-1.38,1.48-2.74,2.2-4.12.12-.24.13-.54.28-1.24-1.88.8-3.09,1.99-4.29,3.16-8.32,8.11-15.46,17.22-22.54,26.37-4.46,5.77-8.78,11.66-13.02,17.59-2.32,3.24-5.48,4.88-9.22,5.6-2.4.46-3.15-.4-2.3-2.71.96-2.64,2.1-5.21,2.73-8.23-1.06,1.11-2.16,2.2-3.18,3.34-3.92,4.38-8.31,8.2-13.53,10.96-2.16,1.14-4.55,2.35-6.86.63-2.41-1.8-2.3-4.58-1.87-7.23.72-4.45,2.3-8.66,4.2-12.71,5.76-12.35,11.98-24.45,19.47-35.87,2.36-3.6,5.5-5.68,9.58-6.51,1.08-.22,2.38-1.12,3.28-.02.91,1.12-.2,2.2-.75,3.16-3.19,5.57-6.47,11.09-9.64,16.67-4.43,7.78-8.71,15.64-11.92,24.02-.49,1.27-.93,2.57-1.2,3.9-.23,1.1-.71,2.47.42,3.26,1.17.81,2.21-.19,3.14-.85,1.83-1.3,3.38-2.9,4.9-4.56,9.87-10.7,16.86-23.26,23.57-36.02,2.16-4.11,4.65-8.05,7.29-12.59-3.01.62-5.49,1.14-8.27,1.71.24-.67.25-1.05.43-1.16,6.11-3.83,12.61-6.88,19.36-9.37.88-.33,2.02-.83,2.73.06.75.94-.19,1.82-.65,2.62-5.07,8.87-10.23,17.68-15.21,26.59-2.83,5.06-5.35,10.3-7.52,15.76,3.85-4.81,7.6-9.71,11.56-14.43,7.13-8.5,14.33-16.95,23.27-23.67,2.1-1.58,4.22-3.17,6.71-4.08,1.68-.62,3.62-1.82,5.17-.18,1.41,1.49.35,3.36-.31,4.94-1.99,4.77-4.68,9.18-7.18,13.69-5.68,10.21-11.06,20.56-15.49,31.38-.73,1.79-1.58,3.58-1.58,5.58,0,1.73.85,2.34,2.43,1.64,1.73-.76,3.06-2.02,4.22-3.5,5.91-7.52,10.85-15.65,15.41-24.05,6.41-11.81,13.04-23.49,23.39-32.48,5.43-4.71,11.26-8.72,18.49-10.06,5.55-1.03,8.83,2.4,7.29,7.51-.52,1.73-1.27,2.89-3.24,1.06-2.22-2.06-4.64-.8-6.76.33-4.08,2.16-7.51,5.21-10.64,8.57-7.27,7.8-13.51,16.34-18.05,26.04-1.28,2.73-2.44,5.53-2.7,8.58-.07.84-.28,1.85.69,2.36.93.49,1.7-.13,2.39-.64,3.4-2.52,5.98-5.84,8.53-9.15,5.7-7.4,11.08-15.04,15.99-22.99,2.41-3.9,5.38-6.89,10.21-7.41.95-.1,2-.55,2.68.45.58.85-.05,1.7-.43,2.46-3.69,7.51-7.63,14.89-10.98,22.56-1.99,4.55-3.79,9.17-4.91,14.02-.28,1.2-.73,2.63.54,3.5,1.27.87,2.46-.05,3.45-.78,4.28-3.15,7.97-6.87,10.21-11.76,11.04-24.17,23.29-47.72,36.29-70.89,2.26-4.04,4.52-8.08,6.77-12.12-.2-.18-.41-.37-.61-.55Z"/>
  <path class="st0" d="M178.03,247.45c7.07-3.88,13.82-8.4,21.59-10.86,1.33-.42,3.02-1.63,4.09-.45,1.21,1.33-.53,2.64-1.18,3.81-3.72,6.68-7.56,13.29-10.99,20.17,3.88-4.66,7.71-9.34,11.64-13.96,3.91-4.6,8-9.03,12.67-12.88,1.2-.99,2.48-1.88,3.79-2.71,1.58-1.01,3.33-2.01,5.16-.89,1.69,1.02,1.26,2.94,1.2,4.54-.12,3.04-.77,5.99-2.15,8.72-4.62,9.16-11.13,16.83-18.91,23.43-3.21,2.72-6.86,4.82-11.01,5.82-1.97.47-2.04,1.3-1.48,3.1,2.75,8.95,8.8,14.94,16.8,19.26,1.71.92,3.49,1.73,5.21,2.63.66.34,1.76.61,1.52,1.5-.3,1.09-1.46.65-2.28.63-.58-.01-1.15-.17-1.72-.29-11.63-2.37-20.58-8.03-24.48-19.91-.27-.83-.64-1.63-.95-2.45-.57-1.48-1.21-1.22-1.96-.12-3.7,5.35-7.03,10.92-10.25,16.73.48.13.73.27.98.26,6.66-.26,7.4.55,6.3,7.06-.54,3.2-1.79,6.15-3.44,8.94-3.38,5.72-7.34,10.99-12.05,15.7-3.18,3.18-5.29,7.15-7.83,10.88,16.18-6.68,31.83-14.19,44.9-27.38.25,2.59-.8,3.57-1.56,4.56-7.89,10.2-17.61,18.12-29.54,23.13-8.45,3.55-16.69,7.48-24.42,12.43-1.31.84-2.77,1.98-4.09.21-1.28-1.73.22-2.82,1.29-3.94,9.14-9.56,17.15-19.9,22.01-32.35.74-1.89,1.24-3.89,1.63-5.88.23-1.18.62-2.65-.7-3.48-1.14-.72-2.28.04-3.3.55-3.67,1.85-7,4.23-10.13,6.86-18.93,15.97-32.89,35.4-40.76,59.01-.8,2.39-1.41,4.86-1.92,7.33-.24,1.18-.56,2.65.73,3.48,1.15.75,2.26-.06,3.27-.6,2.75-1.48,5.17-3.46,7.63-5.37,7.45-5.79,14.27-12.36,21.98-17.83,7.89-5.59,16.08-10.64,25.43-13.44,1.48-.44,3.56-1.73,4.55-.01,1.08,1.89-1.37,2.62-2.47,3.66-4.53,4.29-7.68,9.54-10.35,15.07-5.7,11.83-11.43,23.65-18.54,34.73-1.26,1.96-2.53,3.92-3.85,5.85-.98,1.44-.57,1.98,1.09,2.23,19.04,2.87,38.02,6.23,57.24,7.78,2.36.19,4.82.19,7.7,1.32-5.75,1.18-10.96,1.11-16.11.81-8.54-.49-17.09-.62-25.62-1.44-8.43-.81-16.81-2.02-25.16-3.32-3.1-.48-4.72.47-6.54,2.81-11.35,14.6-24.28,27.59-39.91,37.68-4.92,3.18-10.18,5.69-15.84,7.33-2.94.85-5.92,1.18-8.95.84-2.88-.32-4.28-1.9-4.53-4.8-.28-3.22.67-6.17,2.01-9.01,3.26-6.92,7.41-13.27,12.74-18.74,5.49-5.63,10.94-11.27,17.81-15.42,9.03-5.46,18.51-8.56,29.12-7.58,2.48.23,3.89-.67,5.15-2.78,7-11.7,13.44-23.68,19.05-36.11.34-.76.99-1.46.66-2.61-2.5.33-4.44,1.8-6.38,3.16-8.8,6.13-16.78,13.27-24.78,20.37-3.36,2.99-6.89,5.71-11.15,7.34-5.24,2.01-7.98.64-9.26-4.76-1.19-5.01-.11-9.89,1.35-14.64,3.46-11.22,9.6-21.04,16.48-30.39,12.02-16.33,25.93-30.79,42.98-42,1.09-.72,1.87-1.64,2.48-2.79,8.72-16.63,17.45-33.24,26.18-49.86.22-.41.39-.86.75-1.67-2.5.55-4.62,1.12-6.79,1.47-1.27.2-2.7.85-3.8-.52l-.02.03ZM118.99,408.48c-2.36.05-4.49.05-6.6.57-9.21,2.28-17.11,6.43-23.09,14.2-5.25,6.83-10.22,13.73-13.06,21.93-.6,1.73-1.38,3.73.22,5.22,1.41,1.31,3.33.72,5.02.3,4.51-1.13,8.47-3.36,12.17-6.12,11.32-8.43,19.85-19.39,27.82-30.82,1.02-1.46,3.24-3.07,2.45-4.61-.81-1.58-3.39-.34-4.95-.66ZM192.85,265.71c7.03-2.16,12.98-5.86,17.36-11.79.78-1.05,1.16-2.46,1.49-3.76.36-1.42,1.6-3.29.06-4.28-1.56-1-2.76.82-3.83,1.85-2.03,1.94-4.05,3.9-5.93,5.99-3.35,3.72-6.58,7.55-9.15,12Z"/>
  <path class="st0" d="M392.94,282.15c-38.22,9.08-76.47,17.78-115.76,24.53.92-2.03,2.27-2.1,3.34-2.43,14.03-4.38,28.35-7.69,42.57-11.39,23.82-6.2,47.74-12,71.71-17.61,1.76-.41,3.24-1.13,4.5-2.47,2.05-2.19,4.68-3.46,7.54-4.24,3.11-.85,3.54-.44,3,3.02,3.69-.85,7.26-1.69,10.83-2.51,23.62-5.4,47.29-10.52,71.23-14.36,3.74-.6,7.51-1.11,11.33-.9.95.05,2.27-.08,2.48,1.05.27,1.5-1.26,1.5-2.2,1.76-13.63,3.64-27.47,6.44-41.23,9.55-18.22,4.12-36.42,8.28-54.65,12.35-2.17.48-3.53,1.61-4.76,3.41-3.99,5.81-6.71,12.28-9.91,18.5-8.19,15.91-16.77,31.62-24.1,47.96-1.35,3.01-2.67,6.05-3.31,9.33-.2,1.01-.81,2.25.35,2.94,1.19.71,2.28-.19,3.12-.96,4.38-4.01,8.43-8.35,12.19-12.95,4.2-5.13,7.77-10.57,10.49-16.72,5.35-12.14,12.67-22.99,23.24-31.33,4.32-3.41,9.01-6.12,14.49-7.23,5.18-1.05,7.54.95,7.49,6.27-.03,3.63-1.28,6.86-3.33,9.79-7.15,10.24-16.86,17.47-27.91,22.87-3.37,1.65-5.13,3.87-5.98,7.24-.67,2.64-1.53,5.26-1.25,8.02.34,3.44,2.37,4.75,5.66,3.81,4.04-1.15,7.4-3.47,10.45-6.22,9.95-8.98,18.72-18.94,25.01-30.89,3.31-6.28,6.58-12.57,10.2-18.69,2.58-4.37,6.73-5.95,11.26-7.04.57-.14,1.25-.21,1.61.34.52.78-.03,1.49-.4,2.15-3.75,6.59-7.52,13.18-11.28,19.77-.33.59-.65,1.18-.61,2.06,2.62-3.21,5.21-6.46,7.88-9.63,4.89-5.8,9.78-11.6,15.58-16.55,1.86-1.59,3.76-3.12,5.98-4.14,3.15-1.45,4.91-.34,4.99,3.08.08,3.56-.58,7.01-2.24,10.15-2.77,5.24-5.68,10.4-8.59,15.57-4.47,7.93-11.92,12.34-19.57,16.52-.73.4-1.7.48-2.15,1.5,27.77,5.35,54.36,2.33,79.46-11.22.65,1.77-.35,2.15-.93,2.66-14.01,12.18-30.6,18.16-48.8,20.32-13.71,1.62-26.91-1.38-40.09-4.43-2.4-.56-3.52-.11-4.6,1.95-1.68,3.18-3.59,6.23-5.44,9.32-2.4,4.02-6,6.27-10.57,7.03-.66.11-1.41.33-1.95-.21-.71-.72-.14-1.47.19-2.13,1.77-3.54,3.58-7.07,5.13-10.81-3.03,2.54-5.81,5.3-8.85,7.76-5.32,4.31-10.93,8.15-17.47,10.38-8.07,2.76-12.12-.1-12.37-8.66-.02-.55-.07-1.1-.15-2.22-3.03,3.79-5.67,7.23-8.46,10.53-4.35,5.14-9.11,9.87-14.75,13.61-2.54,1.69-5.54,3.64-8.34,1.74-2.86-1.95-1.8-5.5-1.19-8.41,1.5-7.1,4.65-13.61,7.75-20.1,9.59-20.11,20.05-39.76,31.14-59.09.51-.89,1.31-1.71,1.04-3.27ZM404.89,326.44c.43-.19.9-.33,1.29-.58,8.29-5.38,14.9-12.37,19.8-20.95.82-1.44,1.32-3.02,1.41-4.7.14-2.9-.8-3.59-3.43-2.36-2.92,1.36-4.84,3.82-6.79,6.24-5.37,6.69-9.24,14.22-12.27,22.35ZM450.19,318.09c4.47-1.25,8.5-3.16,12.15-5.74,4.62-3.28,7.49-7.81,8.63-13.39.17-.83.45-1.85-.46-2.4-.88-.53-1.74.05-2.37.62-1.8,1.63-3.55,3.32-5.25,5.05-4.76,4.84-8.93,10.16-12.69,15.86Z"/>
  <path class="st0" d="M178.05,247.42c-6.74,14.98-15.11,28.96-25.72,41.55-9.97,11.83-20.96,22.5-34.91,29.65-3.82,1.96-7.84,3.44-12.2,3.74-6.07.42-10.56-2.24-12.99-7.85-2.45-5.66-3.02-11.66-2.71-17.71,1.03-20.15,9.39-37.5,20.73-53.69,3.3-4.7,6.86-9.2,10.78-13.41.64-.68,1.32-2.04,2.24-1.41,1.18.81,0,1.93-.5,2.76-7.77,13.13-14.03,26.91-18.04,41.64-2.52,9.26-3.77,18.66-2.46,28.27.28,2.03.76,4.01,1.59,5.89,2.73,6.16,7.08,8.11,13.47,6.07,5.91-1.89,10.63-5.64,15.04-9.79,9.1-8.54,16.19-18.63,22.2-29.5,7.85-14.21,13.98-29.11,17.11-45.1,1.39-7.06,2.4-14.21.98-21.42-.28-1.41-.78-2.83-1.45-4.1-1.75-3.34-4.13-4.31-7.75-3.4-3.89.98-6.99,3.33-10.01,5.8-.66.54-.95,1.22-.58,2.07,4.3,9.89,2.06,19.72-.54,29.43-3.26,12.18-7.81,23.85-15.21,34.22-2.49,3.49-5.22,6.78-8.9,9.14-5.67,3.62-10.09,2.1-12.23-4.28-1.55-4.64-1.54-9.42-.79-14.15,3.36-21.07,12.96-38.94,27.94-54.02,2.4-2.42,2.27-3-1-4.25-4.69-1.79-9.43-.98-14.11-.04-17.59,3.52-32.61,11.86-45.3,24.45-1.15,1.14-2.06,2.52-3.09,3.78-.31-.28-.62-.55-.92-.83.93-1.29,1.75-2.67,2.8-3.86,12.95-14.68,28.77-24.57,48.13-28.36,6.42-1.26,12.82-1.46,18.46,2.77,1.35,1.01,2.19-.01,3.06-.69,3.54-2.76,7.25-5.24,11.3-7.21,2.11-1.03,4.3-1.83,6.6-2.28,7.38-1.45,12.52,1.31,15.14,8.46,2.51,6.85,2.02,13.97,1.19,21.05-1.08,9.25-4.18,17.97-7.37,26.65,0,0,.02-.03.02-.03ZM150.07,219.38c-.07-2.15.05-4.3-.54-6.39-.22-.78-.07-1.97-1.17-2.11-.83-.11-1.25.82-1.74,1.4-5.04,5.97-9.33,12.46-13,19.34-6.4,12-11.17,24.6-13.74,37.99-.41,2.12-.65,4.21.58,6.22,1.06,1.74,2.34,2.2,4.14,1.14,2.13-1.26,3.87-2.93,5.4-4.84,4.97-6.2,8.75-13.1,11.7-20.44,4.17-10.4,7.92-20.93,8.38-32.3Z"/>
  <path class="st0" d="M324.52,199.05c-.03-4.76,4.91-11.29,9.51-12.57,2.42-.67,4.21.51,4.62,3.04.79,4.91-5.53,12.93-10.55,13.38-2.3.21-3.55-1.14-3.57-3.85Z"/>
  <path class="st0" d="M245.09,215.44c-.06-4.74,4.85-11.28,9.46-12.6,2.53-.72,4.37.56,4.69,3.26.57,4.9-5.65,12.66-10.53,13.14-2.32.23-3.58-1.1-3.61-3.8Z"/>
</svg>