<?xml version="1.0" encoding="UTF-8"?>
<svg id="Calque_1" xmlns="http://www.w3.org/2000/svg" version="1.1" viewBox="0 0 595.28 595.28">
  <!-- Generator: Adobe Illustrator 29.1.0, SVG Export Plug-In . SVG Version: 2.1.0 Build 142)  -->
  <rect x="443.69" y="365.11" width="88.17" height="15.1"/>
  <polygon points="428.53 365.11 428.53 365.11 428.53 215.07 412.01 215.07 412.01 380.21 428.53 380.21 428.53 365.11"/>
  <polygon points="303.61 283.12 258.89 215.07 240.25 215.07 294.68 296.71 303.61 283.12"/>
  <polygon points="366.47 215.07 312.68 296.93 312.68 296.93 303.81 310.41 303.8 311.32 303.8 380.21 320.94 380.21 320.94 311.32 385.1 215.07 366.47 215.07"/>
  <g>
    <path d="M92.8,339.46c-7.54-11.18-11.91-25.28-11.91-41.59,0-41.99,27.84-70.07,66.76-70.07,6.03,0,11.79.68,17.23,1.96l8.79-13.38c-8.15-2.54-16.88-3.85-26.02-3.68-47.89-.94-84.93,38.69-84.22,84.93-.32,21.19,7.25,40.88,20.08,55.96l9.29-14.14Z"/>
    <path d="M211.57,241.44l-9.12,13.89c7.63,11.31,11.97,25.67,11.97,42.31,0,42.23-28.07,69.83-66.76,69.83-6.11,0-11.97-.72-17.52-2.09l-8.83,13.44c8.25,2.59,17.09,3.93,26.35,3.75,47.89.94,84.93-38.45,84.22-84.93.33-21.23-7.32-41.04-20.3-56.2"/>
  </g>
  <polygon points="84.16 380.21 102.29 380.21 210.81 215.07 192.67 215.07 191.78 216.42 191.78 216.42 84.16 380.21"/>
</svg>