<?xml version="1.0" encoding="UTF-8"?>
<svg id="Calque_1" xmlns="http://www.w3.org/2000/svg" version="1.1" viewBox="0 0 595.28 595.28">
  <!-- Generator: Adobe Illustrator 29.1.0, SVG Export Plug-In . SVG Version: 2.1.0 Build 142)  -->
  <defs>
    <style>
      .st0 {
        fill: #036837;
      }
    </style>
  </defs>
  <path class="st0" d="M413.1,243.3c1.15.03,2.14.04,3.13.1,1.65.1,3.29.32,4.9.69,2.23.51,4,1.73,5.32,3.59,1.1,1.54,1.72,3.28,2.04,5.14.52,2.99.19,5.93-.64,8.82-.57,2-1.41,3.88-2.45,5.67-1.25,2.15-2.73,4.13-4.34,6.03-2.65,3.12-5.49,6.07-8.47,8.87-6.6,6.21-13.55,12-20.84,17.38-5.02,3.71-10.14,7.28-15.32,10.75-15.8,10.57-31.4,21.43-46.98,32.32-2.24,1.56-4.47,3.13-6.72,4.67-1.39.95-2.29,2.24-2.87,3.79-.03.07-.02.16-.03.24-.02.11.14.25.25.21.39-.14.78-.27,1.16-.42,5.05-2.07,10.08-4.15,15.13-6.2,12.82-5.21,25.69-10.27,38.66-15.11,12.65-4.72,25.39-9.22,38.23-13.39,11.08-3.6,22.23-6.94,33.47-10,1.91-.52,3.83-1.02,5.75-1.53.16-.04.31-.11.45-.19.05-.03.08-.14.07-.22,0-.08-.04-.16-.09-.23-.61-.86-1.44-1.34-2.48-1.45-.16-.02-.33-.02-.49-.03-1.62-.07-3.05-.7-4.37-1.59-.88-.59-1.49-1.42-1.86-2.42-.25-.66-.43-1.34-.48-2.04-.06-.7-.13-1.4-.11-2.1.05-1.65.12-3.3.24-4.95.26-3.34.51-6.68.38-10.03-.09-2.28-.47-4.52-1.19-6.69-.12-.35-.23-.71-.32-1.07-.31-1.2-.17-2.38.13-3.55.35-1.38.95-2.64,1.8-3.78,1.69-2.29,3.39-4.58,5.12-6.86.7-.92,1.45-1.8,2.22-2.67,1.12-1.28,2.33-2.46,3.67-3.51,5.71-4.51,11.27-9.19,16.81-13.91,4.12-3.51,8.24-7.02,12.36-10.53.16-.13.31-.27.48-.4.71-.56,1.43-1.13,2.15-1.68.29-.23.6-.45.92-.62.76-.4,1.44-.27,2.02.35.51.56.84,1.22,1.08,1.93.27.83.42,1.68.49,2.55.12,1.62-.05,3.22-.49,4.78-.36,1.29-.97,2.44-1.91,3.43-1.88,1.98-3.78,3.94-5.83,5.74-2.4,2.1-4.98,3.96-7.81,5.45-2.68,1.41-5.15,3.14-7.54,4.99-2.29,1.77-4.48,3.66-6.61,5.62-.36.33-.71.69-1.03,1.07-.85,1-.97,2.16-.67,3.39.06.23.19.46.32.67.23.37.58.58,1.02.63.54.06,1.07,0,1.6-.1,2.07-.4,4.13-.8,6.2-1.22,2.67-.54,5.34-1.08,8.01-1.63,2.95-.61,5.9-1.23,8.85-1.88,2.18-.48,4.38-.84,6.6-1.08,1.19-.13,2.39-.14,3.59-.2.2,0,.41.04.61.07.15.02.29.2.3.35,0,.08.02.16.02.25-.04.87-.18,1.72-.45,2.55-.34,1.05-.94,1.93-1.8,2.61-.42.33-.87.62-1.32.92-4.31,2.79-8.86,5.14-13.55,7.22-6.11,2.72-12.26,5.37-18.45,7.92-.72.3-1.44.62-2.16.94-.23.1-.22.32,0,.48.03.02.06.05.1.08,1.27.8,2.62,1.4,4.1,1.7.32.07.65.1.98.13,1.5.12,2.97-.04,4.43-.35,5.17-1.11,10.34-2.18,15.49-3.39,7.4-1.74,14.73-3.71,21.93-6.18,8.19-2.8,16.1-6.23,23.65-10.47.22-.12.43-.25.65-.35.5-.24.92-.15,1.36.26.19.18.29.4.24.67-.14.77-.29,1.54-.56,2.28-.5,1.38-1.27,2.59-2.23,3.69-.71.81-1.5,1.54-2.31,2.24-3.21,2.81-6.66,5.3-10.32,7.5-3.79,2.28-7.76,4.23-11.83,5.98-2.73,1.18-5.51,2.23-8.27,3.33-3.91,1.56-7.81,3.16-11.72,4.73-4.18,1.68-8.38,3.29-12.67,4.67-1.93.62-3.87,1.18-5.83,1.69-.52.13-1.03.3-1.53.49-.8.32-1.39.85-1.72,1.68-.21.53-.49,1.05-.78,1.55-1.01,1.74-2.46,2.98-4.35,3.7-.42.16-.85.33-1.29.45-2.36.62-4.65,1.46-6.94,2.27-8.73,3.07-17.42,6.24-26.06,9.54-12.62,4.82-25.07,10.05-37.39,15.6-10.32,4.65-20.68,9.2-31.02,13.81-12.87,5.73-25.7,11.53-38.42,17.59-6.27,2.98-12.5,6.03-18.7,9.15-2.07,1.04-4.09,2.17-6.07,3.37-1.66,1.01-3.32,2.01-4.98,3.02-.25.15-.5.3-.75.43-.22.11-.45.22-.68.3-.64.23-1.24.06-1.67-.47-.43-.53-.69-1.13-.77-1.8-.09-.78-.09-1.57.12-2.34.18-.64.35-1.28.59-1.89,2.07-5.3,4.71-10.29,8.11-14.86,1.43-1.93,2.99-3.74,4.68-5.46,4.7-4.79,9.78-9.14,15.11-13.2,3.95-3.01,8.02-5.83,12.11-8.64,14.11-9.67,28.31-19.21,42.49-28.78,5.62-3.79,11.24-7.58,16.82-11.42,6.03-4.15,11.9-8.51,17.57-13.13,4.1-3.35,8.08-6.83,11.89-10.51,1.04-1,2.05-2.04,3.07-3.07.56-.56,1.01-1.2,1.21-1.99.25-.96.13-1.88-.27-2.78-.19-.43-.5-.76-.89-1-.17-.11-.36-.22-.55-.28-1.28-.46-2.59-.85-3.95-1.01-1.86-.22-3.71-.14-5.56.13-1.43.21-2.87.38-4.29.61-4.79.78-9.45,1.99-13.89,3.98-.83.37-1.64.78-2.47,1.16-.49.22-1,.37-1.56.35-.44-.02-.81-.16-1.1-.48-.19-.21-.37-.45-.5-.7-.3-.59-.49-1.23-.53-1.9-.07-1.04.04-2.07.37-3.06.21-.63.43-1.25.71-1.85.86-1.79,1.79-3.54,2.85-5.22.64-1.01,1.33-1.99,2.11-2.91.75-.88,1.57-1.7,2.51-2.39,1.14-.85,2.38-1.48,3.76-1.85,3.2-.84,6.41-1.61,9.66-2.22,2.07-.39,4.16-.68,6.26-.87,1.27-.12,2.56-.12,3.68-.16Z"/>
  <path class="st0" d="M209.31,225.76c-.12,1.52.14,3.16.22,4.81,0,.12.03.26.09.36.06.1.17.2.27.22.49.12.99.06,1.48,0,1.19-.17,2.36-.43,3.49-.81,1.45-.49,2.89-1,4.35-1.45,6.3-1.97,12.62-3.92,18.98-5.72,5.33-1.5,10.69-2.88,16.1-4.01,2.63-.55,5.27-1.03,7.91-1.48,1.34-.23,2.71-.33,4.07-.36.21,0,.41,0,.62.01,1.09.05,1.87.57,2.4,1.51.31.55.51,1.14.63,1.74.19.93.33,1.87.34,2.83.01,2.21-.58,4.24-1.74,6.11-.46.74-.98,1.43-1.58,2.07-3.01,3.24-6.05,6.45-9.27,9.49-2.07,1.96-4.25,3.8-6.52,5.54-11.33,8.67-23.03,16.8-35.17,24.3-2.07,1.28-4.14,2.57-6.28,3.74-.33.18-.64.38-.95.58-.9.57-1.39,1.39-1.49,2.45-.07.74-.14,1.48-.15,2.23-.05,4.5-.12,9.01.06,13.51.07,1.65.07,3.31.1,4.96.06,2.85.13,5.7.18,8.55.06,3.43-.1,6.86-.24,10.29-.18,4.31-1.21,8.41-3.15,12.27-.57,1.14-1.17,2.28-1.79,3.4-.28.5-.63.97-.97,1.43-.28.36-.63.66-1.05.85-.49.23-.96.19-1.41-.09-.39-.25-.68-.6-.93-.98-.37-.55-.63-1.16-.87-1.78-.57-1.51-1.01-3.06-1.34-4.64-.46-2.23-.72-4.48-.8-6.76-.09-2.77-.25-5.53-.38-8.3,0-.08,0-.17-.01-.25-.11-2.77-.21-5.53-.33-8.3-.12-2.89-.27-5.78-.4-8.67-.02-.37-.03-.74-.04-1.11-.1-2.1-.18-4.21-.3-6.31-.03-.62-.13-1.23-.26-1.84-.24-1.09-.88-1.43-1.93-1.05-.54.2-1.07.45-1.57.73-1.23.68-2.46,1.36-3.66,2.09-7.8,4.75-15.54,9.58-23.19,14.57-5.29,3.45-10.61,6.87-16.04,10.11-1.67,1-3.33,1.99-5.03,2.93-3.3,1.83-6.38,3.98-9.3,6.36-1.63,1.33-3.24,2.69-4.89,4.01-4.57,3.68-9.33,7.11-14.18,10.43-4.6,3.15-9.23,6.26-13.84,9.4-4.88,3.33-9.7,6.74-14.35,10.41-1.49,1.18-2.97,2.37-4.42,3.6-1.71,1.44-3.47,2.81-5.28,4.11-1.48,1.06-2.96,2.11-4.43,3.18-1.41,1.02-2.78,2.08-4.1,3.2-.38.32-.78.62-1.19.89-.5.33-1.05.48-1.65.37-.16-.03-.31-.1-.46-.16-.16-.06-.27-.25-.23-.39.06-.24.11-.48.19-.72.44-1.21,1.04-2.34,1.83-3.36.53-.69,1.12-1.33,1.73-1.94,1.05-1.05,2.11-2.1,3.15-3.16,7.15-7.31,14.77-14.08,22.77-20.44,2.94-2.34,5.94-4.62,8.96-6.86,8.73-6.47,17.45-12.96,26.2-19.4,11.11-8.19,22.42-16.09,33.91-23.75,5.26-3.51,10.49-7.06,15.81-10.48,3.58-2.3,7.19-4.56,10.85-6.73.53-.32,1.06-.65,1.55-1.02,1.58-1.17,2.66-2.7,3.16-4.61.18-.68.33-1.37.4-2.06.1-1.03.15-2.06.17-3.09.04-1.73.06-3.47.06-5.21,0-1.57-.17-3.13-.46-4.68-.03-.16-.07-.33-.15-.46-.06-.09-.19-.19-.29-.19-.2,0-.41.06-.6.12-2.98.85-5.9,1.87-8.8,2.97-4.01,1.53-7.96,3.23-11.86,5.03-6.45,2.97-12.92,5.92-19.34,8.95-8.3,3.92-16.38,8.24-24.22,13.02-3.39,2.06-6.72,4.22-9.99,6.46-.61.42-1.2.88-1.82,1.29-.34.23-.69.45-1.06.63-.69.32-1.28.15-1.75-.46-.33-.43-.55-.92-.7-1.44-.27-.93-.31-1.87-.16-2.82.15-.9.37-1.78.68-2.63.72-1.94,1.51-3.84,2.47-5.68.69-1.32,1.46-2.59,2.38-3.77,1.49-1.93,3.31-3.44,5.49-4.54,7.46-3.74,14.9-7.51,22.36-11.25,6.09-3.06,12.22-6.04,18.41-8.89,7.88-3.63,15.88-6.98,24.08-9.84.55-.19,1.09-.39,1.63-.6,1.72-.67,2.88-1.88,3.54-3.6.31-.81.54-1.65.72-2.49.4-1.86.96-3.67,1.77-5.41,1.29-2.78,3.05-5.19,5.45-7.12.68-.55,1.39-1.04,2.14-1.48.29-.17.58-.32.88-.46.26-.12.53-.24.8-.32,1.33-.36,2.15-.04,2.74,1.2.25.53.4,1.08.51,1.65.2.98.29,1.96.3,2.95,0,.45,0,.91,0,1.5ZM246.03,237.01c-.45-.28-.95-.32-1.41-.49-.65-.24-1.28-.2-1.94-.02-1.94.55-3.9,1.07-5.85,1.6-7.12,1.94-14.24,3.89-21.33,5.96-1.11.32-2.22.65-3.32,1-.55.18-1.08.41-1.6.66-1.03.49-1.68,1.32-2,2.4-.16.55-.26,1.13-.34,1.7-.19,1.27-.24,2.55-.27,3.83-.01.58-.08,1.15-.11,1.73-.04.62-.06,1.24-.09,1.85-.03.63.09,1.23.24,1.84.17.65.45,1.24.87,1.76.17.21.41.26.66.12.25-.14.5-.3.74-.45,4.76-2.98,9.53-5.93,14.28-8.93,6.84-4.33,13.58-8.8,20.21-13.43.37-.26.74-.52,1.1-.8.08-.06.1-.21.15-.32Z"/>
  <path class="st0" d="M304.1,233.76c2.43-.2,4.69-.82,6.89-1.69,1.57-.62,3.13-1.29,4.69-1.96,1.82-.78,3.63-1.59,5.51-2.23,1.17-.4,2.36-.76,3.58-.96,1.43-.24,2.86-.46,4.31-.25.45.06.9,0,1.36-.04.7-.07,1.4-.12,2.1-.13,1.07-.01,1.8.53,2.21,1.5.17.42.3.86.41,1.3.43,1.81.69,3.66.74,5.52.08,3.12-.56,6.07-2.16,8.79-1.28,2.19-2.8,4.19-4.58,5.99-.58.59-1.18,1.16-1.76,1.74-4.61,4.63-9.21,9.26-13.81,13.89-.73.73-1.4,1.52-2.04,2.33-.84,1.08-1.26,2.31-1.33,3.67-.04.78-.03,1.57.09,2.35.05.37.09.74.14,1.11.07.53.2,1.05.43,1.54.43.92,1.15,1.39,2.16,1.37.37,0,.74-.05,1.1-.12,1.05-.2,2.11-.4,3.15-.65,1.66-.39,3.34-.53,5.04-.53,1.82,0,3.63-.13,5.44-.33,1.44-.16,2.87-.33,4.3-.57,1.79-.29,3.59-.59,5.38-.89,2.52-.42,5.05-.86,7.59-1.17,2.34-.28,4.68-.49,7.04-.46.29,0,.58,0,.87-.03.92-.12,1.62-.56,2.07-1.39.32-.59.49-1.23.59-1.88.1-.65.19-1.31.22-1.97.1-1.98.09-3.97-.05-5.95-.04-.58-.08-1.15-.12-1.73-.06-.82-.12-1.65-.17-2.47-.15-2.48-.22-4.96-.04-7.43.12-1.65.4-3.28.9-4.86.61-1.96,1.54-3.74,2.8-5.35,1.23-1.57,2.67-2.93,4.25-4.14.36-.27.76-.5,1.15-.73.18-.1.37-.18.57-.23.86-.19,1.36,0,1.79.73.23.38.42.81.55,1.24.2.67.37,1.35.49,2.04.38,2.11.63,4.25.81,6.39.26,3.13.39,6.27.36,9.41-.04,3.26-.1,6.53-.33,9.79-.01.21-.03.41-.03.62,0,1.49-.26,2.96-.44,4.44-.1.82-.21,1.64-.31,2.46-.28,2.38-.55,4.76-.84,7.14-.28,2.34-.59,4.67-.89,7.01-.19,1.52-.37,3.03-.56,4.55-.12.99-.35,1.95-.69,2.88-.78,2.18-2.18,3.87-4.07,5.17-.38.26-.77.47-1.21.63-1.06.38-1.82.03-2.37-.78-.35-.52-.57-1.1-.72-1.7-.25-.96-.41-1.94-.52-2.92-.13-1.19-.29-2.38-.42-3.57-.35-3.17-.52-6.34-.22-9.52.08-.79.03-1.57-.1-2.35-.02-.12-.03-.25-.07-.37-.3-1-.9-1.73-2.31-1.55-.58.08-1.12.26-1.67.44-3.26,1.05-6.52,2.11-9.79,3.15-8.5,2.71-17.03,5.31-25.56,7.89-.39.12-.79.23-1.18.39-1.2.48-1.98,1.33-2.24,2.6-.08.4-.16.81-.18,1.22-.02.62-.02,1.24.05,1.86.3,2.71.44,5.44.6,8.16.09,1.4.07,2.81.06,4.21,0,.99-.18,1.97-.46,2.93-.42,1.41-1.25,2.51-2.51,3.26-.49.29-1.03.52-1.55.78-.34.17-.71.2-1.09.18-.35,0-.65-.15-.87-.41-.16-.18-.32-.39-.42-.61-.17-.37-.34-.76-.45-1.15-.61-2.23-1.38-4.41-2.15-6.59-.7-1.99-1.29-4.01-1.79-6.06-.27-1.12-.6-2.23-1-3.32-.29-.78-.62-1.53-1.05-2.24-.34-.57-.74-1.1-1.22-1.56-.8-.76-1.73-1.25-2.83-1.44-.37-.06-.73-.13-1.1-.18-.43-.06-.79-.27-1.07-.57-.22-.24-.43-.5-.6-.78-.31-.54-.51-1.13-.6-1.75-.24-1.7.03-3.27.97-4.75,1.17-1.86,2.02-3.88,2.63-5.99.44-1.51.73-3.05.93-4.61.19-1.44.24-2.88.25-4.33,0-2.02-.02-4.05-.22-6.07-.16-1.52-.21-3.05-.37-4.57-.14-1.36-.2-2.72-.3-4.08-.09-1.2-.09-2.39,0-3.59.08-1.03.14-2.06.32-3.08.29-1.63.72-3.22,1.39-4.74,1.07-2.43,2.65-4.47,4.68-6.16.44-.37.9-.72,1.41-1.13ZM309.45,250.03s-.01,0-.02,0c.02.37.01.74.05,1.11.17,1.56.35,3.11.53,4.66,0,.08.04.17.1.22.05.05.16.09.22.07.15-.06.29-.15.41-.26,1.81-1.69,3.6-3.39,5.29-5.2,1.47-1.56,2.84-3.21,4.09-4.95.31-.44.61-.88.91-1.33.09-.14.15-.29.22-.44.07-.14-.06-.35-.23-.36-.87-.06-1.73-.04-2.59.08-2.17.3-4.26.95-6.3,1.71-.46.17-.9.41-1.31.68-.58.36-.98.88-1.15,1.55-.09.36-.18.72-.2,1.09-.03.45,0,.91,0,1.36Z"/>
  <path class="st0" d="M287.67,264.46c-.02,1.57-.03,3.14-.06,4.71-.05,2.27-.2,4.54-.41,6.8-.11,1.15-.2,2.3-.33,3.45-.16,1.35-.32,2.71-.54,4.05-.44,2.77-.98,5.53-1.69,8.25-1.4,5.42-3.33,10.64-6,15.57-2.85,5.28-6.42,10.01-10.83,14.09-.52.48-1.06.92-1.61,1.36-.39.31-.82.56-1.29.74-.92.35-1.68.19-2.37-.52-.38-.39-.68-.84-.91-1.32-.34-.71-.68-1.42-.96-2.15-1.96-5.1-3.5-10.32-4.71-15.64-.67-2.94-1.21-5.91-1.67-8.88-.24-1.55-.4-3.11-.61-4.67-.3-2.21-.42-4.44-.64-6.66-.04-.37-.04-.74-.06-1.11-.06-1.07-.13-2.15-.17-3.22-.03-1.16-.09-2.32-.02-3.47.08-1.49.35-2.95.73-4.39,1.04-3.9,2.66-7.55,4.93-10.9.81-1.2,1.72-2.32,2.78-3.32.66-.63,1.38-1.19,2.19-1.6.48-.25.99-.39,1.55-.37.53.02.96.22,1.32.59.32.33.55.72.71,1.15.28.74.46,1.5.51,2.29.03.49.04.99.06,1.49.08,2.93.13,5.87.24,8.8.07,1.73.24,3.46.38,5.19.07.91.18,1.81.28,2.71.28,2.76.78,5.48,1.34,8.19.15.73.3,1.46.43,2.19.13.69.29,1.38.54,2.03.3.78.71,1.49,1.36,2.04.17.14.42.09.52-.11.03-.08.07-.15.1-.22.03-.08.05-.16.07-.24.54-1.61.93-3.26,1.21-4.93.39-2.28.64-4.58.8-6.89.14-2.14.31-4.28.49-6.43.1-1.19.25-2.38.36-3.57.11-1.15.21-2.3.3-3.46.08-.99.16-1.98.22-2.97.32-4.95.45-9.91.25-14.87-.07-1.69-.17-3.38-.36-5.07-.15-1.4-.34-2.79-.5-4.18-.3-2.53-.17-5.03.67-7.46.27-.78.59-1.54,1.04-2.25.36-.56.77-1.08,1.34-1.44.81-.51,1.64-.51,2.46-.03.47.27.86.66,1.15,1.11.32.48.62.98.88,1.49.86,1.75,1.48,3.59,1.96,5.47.47,1.84.81,3.71,1.06,5.6.34,2.58.59,5.17.75,7.77.1,1.53.25,3.05.37,4.57.01.12.02.25.03.37.17,3.43.39,6.85.35,10.28Z"/>
  <path class="st0" d="M529.07,224.92c0,6.03-3.96,11.43-10.32,12.85-4.8,1.07-9.6-.46-12.74-3.72-2.05-2.12-3.22-4.64-3.59-7.57-.78-6.12,3.04-12.27,9.59-14.05,4.13-1.12,8.03-.51,11.57,1.94,2.92,2.02,4.65,4.86,5.29,8.35.13.73.14,1.48.2,2.22ZM505.55,224.79c0,1.24.06,1.89.32,2.9,1.53,5.98,7.31,8.79,12.53,7.4,3.16-.84,5.35-2.87,6.61-5.87.96-2.28,1.08-4.66.48-7.05-1.31-5.21-5.93-8.27-10.91-7.69-2.91.34-5.24,1.68-6.98,4.02-1.4,1.88-2.07,4.02-2.05,6.3Z"/>
  <path class="st0" d="M521.79,231.53c-.07.05-.1.08-.14.09-.86.12-1.72.07-2.59.03-.18,0-.31-.14-.37-.29-.13-.3-.26-.61-.34-.92-.19-.67-.36-1.36-.52-2.04-.24-.99-.71-1.83-2.37-1.94-.45-.03-.91,0-1.36,0-.33,0-.5.2-.51.57-.01.29-.01.58-.02.87,0,.83,0,1.65,0,2.48,0,.29,0,.58-.02.87-.01.24-.16.4-.37.42-.04,0-.08.02-.12.02-.62,0-1.24,0-1.86,0-.36,0-.5-.16-.52-.54,0-.21,0-.41,0-.62,0-3.55,0-7.1,0-10.64,0-1.04-.05-1.16,1.14-1.29,1.36-.15,2.71-.22,4.08-.22.79,0,1.56.09,2.34.23.53.1,1.03.28,1.52.51.42.2.75.5,1.01.89.44.63.63,1.35.63,2.1,0,.82-.34,1.52-.95,2.07-.37.34-.81.57-1.25.79-.39.19-.42.39-.06.59,1.01.56,1.53,1.47,1.83,2.53.1.36.17.72.26,1.08.15.6.3,1.2.45,1.8.05.2.08.4.12.58ZM513.67,222.43s0,0-.01,0c0,.45-.01.9,0,1.35.01.43.19.6.59.63.7.05,1.39,0,2.08-.11.41-.06.79-.21,1.14-.44.32-.21.53-.49.68-.85.29-.68-.02-1.67-.64-2.08-.34-.23-.71-.4-1.13-.46-.69-.1-1.39-.09-2.09-.01-.41.04-.61.22-.63.61-.02.45,0,.9,0,1.35Z"/>
</svg>