<?xml version="1.0" encoding="UTF-8"?>
<svg id="Calque_1" xmlns="http://www.w3.org/2000/svg" version="1.1" viewBox="0 0 595.28 595.28">
  <!-- Generator: Adobe Illustrator 29.1.0, SVG Export Plug-In . SVG Version: 2.1.0 Build 142)  -->
  <defs>
    <style>
      .st0 {
        fill: #1d1d1b;
      }
    </style>
  </defs>
  <path class="st0" d="M230.55,310.37c-.22,8.26-.14,16.55-2.07,24.67-.84,3.55-1.97,6.94-4.41,9.74-1.83,2.08-3.82,2.38-5.83.56-1.18-1.07-2.29-2.52-2.74-4-.9-2.99-1.68-6.1-1.88-9.2-.62-9.74-1.04-19.5-1.35-29.26l-5.16-72.94c-.51-6.12-1.3-12.24-1.4-18.36-.05-3.51.59-7.19,1.72-10.52,1.26-3.73,4.43-4.36,7.59-1.97,1.15.88,2.25,2.06,2.87,3.35,1.11,2.28,1.98,4.71,2.71,7.15,2.89,9.55,4.46,19.35,4.93,29.29.55,11.39,4.52,27.05,3.79,38.48l1.23,33.01ZM179.94,293.92c.04,8.42.62,16.83.58,25.25-.11,21.07-.54,42.13-.64,63.2-.04,9.93.65,19.86.53,29.78-.1,8-1.13,15.88-6.67,22.45-1.11,1.31-1.17,3.6-1.46,5.48-.2,1.31.06,2.69.07,4.04.06,7.43,3.52,13.01,9.74,16.73,9.95,5.96,20.87,7.95,32.15,5.68,11.58-2.33,14.4-11.26,9.27-20.35-.59-1.04-1.23-2.09-2.01-2.99-3.47-4.01-5.13-8.83-5.67-13.92-.49-4.61-.44-9.31-.23-13.95.12-2.63,1.69-3.38,4.11-2.29,1.77.79,3.41,1.91,5.01,3.03,8.39,5.84,17.49,3.24,22.82-4.44,5.19-7.49,8.15-15.93,8.3-24.89.25-14.07,4.23-27.55,5.64-41.42.69-6.84,1.09-27.6.32-35.11l-1.26-30.8c.28-8.47-1.93-32.45-1.94-34.18-.04-5.52.53-11.11-.11-16.56-1.47-12.52-1.17-22.98-3.35-35.39-1.35-7.72-5.02-14.76-10.4-20.4-7.66-8.03-17.28-9.25-27.55-3.31-2.86,1.65-5.53,3.63-8.32,5.41-3.08,1.97-4.6,1.45-4.77-2.08-.34-7.14-2.47-6.18-7.77-6.12-.75,0-1.5.13-2.24.27-9.93,1.92-18.58,6.48-26.97,12.03-8.58,5.67-9.26,22.39.05,26.92,2.71,1.32,3.91,3.78,4.33,6.51.86,5.65,1.64,11.32,2.15,17,.5,5.69,3.85,29.37,4.1,35.08l2.19,29.35Z"/>
  <path class="st0" d="M64.38,328.65c-.46-7.4-.44-14.76.96-22.04.38-1.97,1.29-3.84,2.06-6.06,2.96-3.54,3.76,3.96,4.42,6.06,2.73,8.71,3.11,17.69,3.54,26.76.5,10.53,7.53,36.55,7.53,36.55,1.58,8.25,5.19,15.7,10.19,22.43,6.68,8.99,14.17,8.66,19.43-2.26,2.65-5.49,3.74-11.35,3.8-17.5.11-11.41-1.76-22.45-4.96-33.36,0,0-10.41-17.11-10.41-26.05,0-1.19.09-2.4.24-3.62.94-7.59,4.39-14.67,9.03-20.75,6.15-8.05,7.08-17.24,3.68-27.69-2.37-7.28-6.83-13.08-12.06-18.32-10.43-10.45-19.15-22.47-25-36.03-4.66-10.81-9.31-21.59-11.43-33.21-1.32-7.21-1.07-14.47,1.29-21.43,3.7-10.92,11.75-17.66,22.16-21.58,8.98-3.39,18.89-3.81,28.26-1.72,2.43.54,4.93.93,7.27,1.74,2.98,1.03,5.78,1.15,8.78-.01,3.96-1.53,7.42-.29,10.19,2.78,4.77,5.29,7.72,11.46,8.6,18.55.46,3.72-.41,7.22-2.32,10.39-2.26,3.74-6.27,4.69-9.8,2.1-2.18-1.6-3.97-3.74-5.95-5.62-3.37-3.21-6.6-6.56-10.15-9.56-3.97-3.35-8.86-3.6-13.73-2.83-2.93.46-5.47,2.01-6.26,5.17-.95,3.83-.9,7.74,2.48,10.36,3.06,2.37,6.51,4.31,9.94,6.12,3.98,2.11,8.23,3.72,12.22,5.81,12.75,6.7,20.49,17.14,23.77,31.23,2.98,12.79,4.2,25.69,4.78,38.76,1.02,23.08.42,46.25-2.17,69.21-.78,6.91-.43,13.94-.21,20.92l-1.24,34.7c-.34,10.99-2.25,21.83-4.82,32.53-2.4,9.97-4.16,20.09-5.01,30.31-1.06,12.68-6.47,23.56-17.9,30.89-3.15,2.02-6.71,3.25-10.43,3.7-13.85,1.67-26.27-2.05-37.34-10.28-4.95-3.68-7.2-9.15-8.44-15.02-.5-2.35-.88-4.74-1.08-7.13-.95-11.55-1.87-23.1-2.69-34.65-.81-11.41-1.69-22.82-2.21-34.24l.96-36.09Z"/>
  <path class="st0" d="M277.46,272.02c-.05,1.03-.69,17.09-.77,18.69-.25,5.05-.63,10.1-.92,15.15-.16,2.84-.27,5.69-.33,8.54-.24,10.66-.39,21.33-.7,31.99-.07,2.35-.12,16.81.19,22.62.51,9.61.19,19.17-1.05,28.69-.77,5.92-1.82,11.74-4.49,17.28-1.77,3.68-3.32,7.59-2.78,12.09.38,3.13-.28,19.13.1,23.81.52,6.44,3.23,11.92,9.88,14.33,1.81.65,3.81.75,5.68,1.25,9.33,2.48,18.44,1.36,27.39-1.73,2.85-.99,4.96-3.24,5.49-6.16.77-4.25,1.17-8.6,1.27-12.93.09-4.19-.23-8.42-.7-12.59-.67-5.97-.56-11.91-3.92-17.57-3.78-6.38-3.66-14.08-4.06-21.36-.36-6.56-.07-13.14-.19-19.72-.22-12-.74-24-.74-36,0-11.07.32-22.14.87-33.2l2.5-42.37c.07-4.78-.24-9.57-.53-14.35-.05-.81-.29-6.82-.27-9.01.04-4.61-.38-9.23-.62-13.84-.12-2.4-.21-4.8-.4-7.2-.47-5.99-1.24-11.97-1.42-17.97-.3-10.22-.38-20.45-.28-30.67.07-7.21.61-14.42.87-21.63.16-4.35.38-8.71.2-13.04-.22-5.35-1.62-6.48-7.03-6.06-4.04.31-8.08.78-12.1,1.34-7.35,1.03-14.38,2.99-20.7,7.1-6.35,4.14-6.81,10.02-.66,14.56,4.55,3.37,6.21,7.78,6.78,13.11.86,7.96.7,15.95,1.04,23.92.53,12.15,1.46,24.28,2.07,36.43.52,10.25.77,20.52,1.28,30.77l-.96,15.72Z"/>
  <path class="st0" d="M342.63,269.3l-.31-23.33c-.52-7.21-1.01-14.06-1.51-20.91-.49-6.57-.99-13.13-1.5-19.69-.12-1.5-.41-2.99-.44-4.49-.1-4.8-2.15-8.71-5.5-11.96-2.37-2.31-3.84-4.92-3.97-8.31-.21-5.32,1.72-9.2,6.61-11.74,6.58-3.42,13.41-5.99,20.67-7.46,2.79-.57,5.55-1.33,8.35-1.82,4.23-.74,5.89.6,6.03,4.95.16,5.11.13,10.23.2,15.35.16,11.8.56,23.57,1.68,35.34.95,9.98,1.22,20.02,1.82,30.64l-.62,29.35c-.11,1.04-.42,2.07-.49,3.11-.61,9.74-1.3,19.47-1.72,29.22-.29,6.6-.28,13.21-.24,19.81.08,14.98.04,29.96.47,44.92.23,7.77,1.57,15.51,2.03,23.28.26,4.38,1.04,8.59,2.57,12.63,3.37,8.89,3.85,18.17,4.09,27.5.11,4.06.12,8.12.27,12.17.13,3.58-1.07,6.8-2.48,9.97-1.57,3.55-4.49,5.67-8.03,6.72-4.14,1.21-8.25,2.81-12.72,2.33-4.59-.49-9.25-.63-13.75-1.53-9.52-1.91-12.95-8.18-13.27-15.8-.32-7.64-.23-15.29-.31-22.94-.07-6.88,1.93-13.36,4.42-19.6,2.27-5.69,3.33-11.57,3.73-17.53.57-8.37.56-16.79.69-25.19.1-6.59.02-13.18.02-19.78l1.33-33.67c-.5-3.45-.35-9.47-.29-11.71.05-2.1.08-4.21.14-6.31.06-2.1.12-4.21.25-6.31l1.78-17.19Z"/>
  <path class="st0" d="M339.45,343.06"/>
  <path class="st0" d="M438.33,316.19"/>
  <path class="st0" d="M437.97,310.2"/>
  <path class="st0" d="M408.35,237.67c-.27-5.09-.59-10.18-1.06-15.25-.13-1.47-.85-2.87-1.25-4.32-1.26-4.55-3.95-7.29-8.95-7.21-.43,0-.86-.21-1.79-.45-.43-2.3-1.21-4.76-1.3-7.24-.22-5.86-.14-11.72-.12-17.59,0-3.33.52-6.18,4.64-7.11,2.3-.52,3.11-2.79,2.43-5.57-.57-2.32-1.55-4.54-2.33-6.81-1.86-5.42-3.38-10.87-2.98-16.74.46-6.64,3.36-11.68,8.89-15.36,9.14-6.08,19.18-7.16,29.77-5.81,7.22.92,13.64,3.34,18.73,8.76,4.73,5.03,5.5,13.43-.45,19.54-3.8,3.9-10.35,3.72-15.17-.33-1.93-1.62-3.39-3.79-5.15-5.63-1.74-1.84-3.43-3.79-5.43-5.31-1.89-1.43-4.27-1.61-6.39-.33-2.23,1.36-3.25,3.54-3.02,6.15.27,3.22,1.2,6.23,3.69,8.49,1.67,1.52,3.42,2.94,5.2,4.32,3.96,3.05,7.86,6.11,9.56,11.11.56,1.66,1.91,2.23,3.54,2.27,2.41.06,4.82.09,7.22.13,4.45.09,5.77,1.55,5.59,6.06-.11,2.69-.08,5.39-.15,8.09-.12,4.95-.2,9.9-.43,14.84-.06,1.27-.58,2.51-.94,3.95-1.74-.26-3.04-.56-4.36-.64-3.08-.2-5.51,1.47-5.67,4.51-.38,7.19-.46,14.4-.53,21.61l-1.31,62.71-1.48,35.77c.35,6.41.55,12.84.61,19.26l.79,9.41c.86,7.74,1.54,15.51,2.68,23.22.66,4.45,2.44,8.6,5.22,12.31,2.85,3.8,4.35,8.4,4.63,12.98.72,11.97,1.26,23.98,1.09,35.96-.11,8.21-4.34,14.31-12.7,16.6-3.3.9-6.73,1.66-10.13,1.83-6.27.31-12.54.94-18.83-.57-11.12-2.67-15.04-9.08-15.85-19.13-.76-9.5-.96-19.09-.66-28.62.11-3.71,1.48-7.89,3.61-10.9,3.85-5.43,5.13-11.51,6.03-17.69,2.02-13.82,1.89-27.74,1.79-41.69-.03-4.17,0-8.43.2-12.65.38-8.35.88-16.72.58-25.06-.31-8.51.81-16.9,1.04-25.35l.91-46.49Z"/>
  <path class="st0" d="M513.68,273.97,484.09,245.56l-1.46,33.09c-.56,5.17-.17,10.36-.81,15.59-1,8.14-.71,16.45-.84,24.69-.1,6.61.04,13.23-.02,19.84-.1,9.76-.44,19.52-.4,29.28.04,10.59-1.4,20.95-4.32,31.1-.49,1.69-1.34,3.36-2.35,4.8-2.28,3.24-4.09,6.61-4.31,10.67-.15,2.99-.63,5.98-.54,8.95.24,8.1.46,16.21,1.19,24.28.33,3.65,1.75,7.12,4.17,10.23,3.78,4.86,9.22,6,14.56,7.15,6.54,1.41,13.18.41,19.73-.54,1.33-.19,2.63-.62,3.96-.9,10.14-2.17,14.77-8.67,14.98-19.07.16-7.65-.1-15.31-.32-22.96-.12-4.04-.3-8.11-.94-12.09-.58-3.63-.99-7.41-3.48-10.5-4.78-5.95-6.49-13.05-7.43-20.43-1.78-13.99-2.46-28.05-2.66-42.14-.05-3.14-.6-6.28-.54-9.41.06-3.43.64-6.84.86-10.27.29-4.64.39-9.3.69-13.94.57-8.83,1.27-17.66,1.82-26.49M489.45,320.53c-.37-.11-.73-.22-1.1-.34.37.11.73.22,1.1.34h0Z"/>
  <path class="st0" d="M484.09,245.56c-.73-8.33-1.39-16.55-2.21-24.74-.18-1.76-.88-3.48-1.46-5.18-.99-2.87-3.19-4.17-6.1-4.59-4.27-.61-5.09-1.39-5.17-5.75-.13-6.91-.07-13.83-.03-20.75.02-3.07.87-5.4,4.36-6.43,2.84-.83,3.38-2.3,2.5-5.31-1.09-3.75-2.4-7.44-3.78-11.1-1.92-5.11-2.14-10.47-1.06-15.58,1.19-5.69,4.45-10.47,9.73-13.47,9.18-5.2,19.11-5.91,29.3-4.71,4.98.59,9.6,2.37,13.93,4.92,8.36,4.9,9.62,15.09,5.34,21.43-4.04,5.97-10.94,5.61-15.06,2.81-2.31-1.58-4.17-3.84-6.18-5.84-2.12-2.1-3.91-4.68-6.35-6.27-4.17-2.72-8.42-.29-9.09,4.7-.53,3.95,1.17,7.08,3.72,9.76,1.65,1.73,3.64,3.14,5.56,4.59,3.76,2.85,7.2,5.97,8.95,10.5.71,1.82,1.95,2.55,3.81,2.52,2.55-.03,5.11-.09,7.66-.02,3.42.09,4.65,1.16,4.7,4.6.12,7.37.15,14.74,0,22.11-.1,5.13-.61,5.44-5.78,5.32-3.59-.08-5.27,1.14-5.64,4.97-.47,4.92-.79,9.88-.67,14.81l.54,47.62"/>
  <path class="st0" d="M334.78,150.28c2.87,1.97,6.1,2.35,9.45,2.31,7.32-.22,14.34-1.67,20.38-6.04,1.99-1.44,3.95-3.41,4.99-5.59,2.38-4.94-.64-9.82-6.55-11.51-5.69-1.62-11.33-.76-16.89.44-4.57.99-8.76,3.05-12.3,6.22-4.74,4.25-4.3,10.56.92,14.15Z"/>
</svg>