<?xml version="1.0" encoding="UTF-8"?>
<svg id="Calque_1" xmlns="http://www.w3.org/2000/svg" version="1.1" viewBox="0 0 595.28 595.28">
  <!-- Generator: Adobe Illustrator 29.1.0, SVG Export Plug-In . SVG Version: 2.1.0 Build 142)  -->
  <defs>
    <style>
      .st0, .st1 {
        fill: #2d2d32;
      }

      .st1 {
        fill-rule: evenodd;
      }
    </style>
  </defs>
  <path class="st0" d="M504.61,365.43c-.62-1.21-8.66-17.11-10.21-20.16h22.69c.61,1.23,8.52,17.13,10.03,20.16h-22.51M394.67,365.43c1.51-3.04,9.42-18.93,10.03-20.16h22.52c-1.51,3.04-9.42,18.93-10.03,20.16h-22.52M308.01,231.54h22.51c.7,1.4,54.47,109.23,55.03,110.35-.5,1-9.45,19.01-11.31,22.75-2.2-4.42-64.46-129.54-66.23-133.1M460.9,232.32c2.15,4.31,41.75,83.92,43.49,87.41h-22.61c-.69-1.38-19.72-39.64-19.72-39.64-.21-.44-.67-.72-1.15-.72s-.94.28-1.15.72c0,0-19.04,38.26-19.73,39.64-1.37,0-19.22,0-22.62,0,1.74-3.49,41.35-83.1,43.5-87.42M388.52,290.49c.56-1.11,28.74-57.56,29.43-58.95h22.51c-1.73,3.47-38.5,77.38-40.64,81.67-1.86-3.74-10.81-21.73-11.3-22.73"/>
  <path class="st0" d="M63.42,231.54h22.52c.7,1.4,54.47,109.23,55.03,110.35-.5,1-9.45,19.01-11.31,22.75-2.2-4.42-64.46-129.54-66.23-133.1M143.93,290.49c.56-1.11,28.73-57.56,29.43-58.95h22.52c-1.73,3.47-38.5,77.38-40.64,81.67-1.86-3.74-10.81-21.73-11.3-22.73"/>
  <path class="st0" d="M226.87,361.02c-7.84-3.28-15.11-8.28-21.58-14.85,0,0,0,0,0,0-6.54-6.51-11.51-13.81-14.78-21.69-3.27-7.88-4.92-16.58-4.92-25.86s1.66-17.88,4.92-25.77c3.27-7.88,8.24-15.22,14.79-21.79,0,0,0,0,0,0,6.41-6.58,13.63-11.57,21.47-14.85,7.84-3.28,16.53-4.94,25.84-4.94s17.88,1.66,25.73,4.95c7.84,3.28,15.1,8.28,21.58,14.85,6.62,6.58,11.64,13.91,14.94,21.8,3.3,7.88,4.97,16.55,4.98,25.76,0,9.34-1.67,18.08-4.97,25.96-3.3,7.88-8.32,15.14-14.92,21.58,0,0,0,.01-.02.02-6.48,6.58-13.74,11.57-21.58,14.85-7.84,3.28-16.5,4.94-25.73,4.94s-17.89-1.66-25.74-4.95M234.69,255.09c-5.51,2.3-10.65,5.78-15.27,10.36,0,0,0,0-.01.01-4.5,4.58-7.92,9.7-10.17,15.2-2.25,5.5-3.39,11.55-3.39,17.95s1.14,12.45,3.39,17.99c2.25,5.54,5.67,10.7,10.16,15.34,0,0,.01.02.02.03,4.62,4.51,9.76,7.95,15.27,10.21,5.51,2.26,11.54,3.41,17.92,3.41,12.76,0,23.86-4.59,32.99-13.63,0,0,0,0,.01-.01,4.56-4.65,8.03-9.81,10.31-15.34,2.29-5.54,3.45-11.59,3.45-18s-1.16-12.44-3.45-17.95c-2.28-5.5-5.75-10.62-10.31-15.21-4.56-4.58-9.65-8.07-15.13-10.37-5.48-2.3-11.49-3.46-17.87-3.46s-12.41,1.16-17.92,3.46"/>
  <path class="st1" d="M529.54,255.58c-1.54,2.79-3.7,4.96-6.48,6.5-2.79,1.54-5.7,2.31-8.73,2.31s-5.95-.77-8.73-2.31c-2.78-1.54-4.95-3.71-6.5-6.5-1.55-2.79-2.33-5.7-2.33-8.72s.79-5.99,2.36-8.81c1.57-2.81,3.76-4.97,6.57-6.48,2.8-1.51,5.68-2.27,8.63-2.27s5.82.75,8.63,2.27c2.8,1.51,4.99,3.68,6.55,6.48,1.57,2.82,2.35,5.75,2.35,8.81s-.78,5.93-2.32,8.72h0ZM526.98,239.53c-1.31-2.35-3.13-4.15-5.47-5.42-2.34-1.26-4.74-1.89-7.19-1.89s-4.86.63-7.2,1.89c-2.33,1.26-4.16,3.07-5.47,5.42-1.32,2.35-1.98,4.79-1.98,7.33s.65,4.95,1.94,7.27c1.3,2.32,3.11,4.12,5.43,5.42,2.33,1.29,4.75,1.94,7.28,1.94s4.95-.65,7.28-1.94c2.33-1.29,4.13-3.1,5.42-5.42,1.29-2.32,1.93-4.74,1.93-7.27s-.66-4.98-1.97-7.33h0ZM520.02,251.39c.64,2.74,1.11,4.63,1.49,5.39h-2.62c-.32-.55-.76-2.24-1.28-4.68-.58-2.71-1.66-3.73-3.96-3.81h-2.38v8.5h-2.54v-19.33c1.28-.26,3.15-.44,4.86-.44,2.71,0,4.48.52,5.7,1.63.96.84,1.55,2.18,1.55,3.73,0,2.56-1.66,4.28-3.7,4.98v.09c1.49.52,2.39,1.92,2.88,3.96h0ZM518.27,242.63c0-2.53-1.83-3.64-4.51-3.64-1.22,0-2.07.12-2.5.24v7.13h2.59c2.71,0,4.42-1.49,4.42-3.73h0Z"/>
</svg>