<svg width="30" height="30" viewBox="0 0 30 30" fill="none" xmlns="http://www.w3.org/2000/svg">
<g clip-path="url(#clip0_212_188)">
<path d="M25 10.625V28.125H5V10.625" stroke="#020202" stroke-width="2.5" stroke-miterlimit="10"/>
<path d="M28.75 13.125L15 1.875L1.25 13.125" stroke="#020202" stroke-width="2.5" stroke-miterlimit="10"/>
<path d="M10 14.375H11.25C12.2446 14.375 13.1984 14.7701 13.9017 15.4733C14.6049 16.1766 15 17.1304 15 18.125V19.375H13.75C12.7554 19.375 11.8016 18.9799 11.0983 18.2767C10.3951 17.5734 10 16.6196 10 15.625V14.375Z" stroke="#020202" stroke-width="2.5" stroke-miterlimit="10"/>
<path d="M18.75 16.875H20V18.125C20 19.1196 19.6049 20.0734 18.9017 20.7767C18.1984 21.4799 17.2446 21.875 16.25 21.875H15V20.625C15 19.6304 15.3951 18.6766 16.0983 17.9733C16.8016 17.2701 17.7554 16.875 18.75 16.875Z" stroke="#020202" stroke-width="2.5" stroke-miterlimit="10"/>
<path d="M15 28.125V19.375" stroke="#020202" stroke-width="2.5" stroke-miterlimit="10"/>
</g>
<defs>
<clipPath id="clip0_212_188">
<rect width="30" height="30" fill="white"/>
</clipPath>
</defs>
</svg>
