<svg width="284" height="87" viewBox="0 0 284 87" fill="none" xmlns="http://www.w3.org/2000/svg">
<rect x="1.67344" y="1.17344" width="280.653" height="84.3097" stroke="#3A7498" stroke-width="2.34689"/>
<path d="M13.0803 23.9699L13.1336 24.0218L13.0803 23.9699ZM39.1726 11.1477C49.5563 11.1996 58.7685 16.1312 64.5194 23.6585C55.7333 25.1639 48.0121 28.642 42.9001 36.9479C44.8171 28.9015 45.7223 20.6476 39.1726 11.1477Z" fill="#3A7498"/>
<path d="M64.8879 24.1256C68.6686 29.213 70.9051 35.4943 70.9051 42.2947C63.4501 39.803 52.9067 39.5434 45.8777 42.0871C54.0782 38.5052 60.3084 32.4315 64.8879 24.1256Z" fill="#3A7498"/>
<path d="M70.8525 43.2283C70.6927 48.9905 68.9355 54.3375 65.9535 58.9057L64.569 60.7745C61.9066 55.1161 58.0193 50.3922 51.6826 46.4469C58.2323 47.7447 64.569 46.0835 70.8525 43.2283Z" fill="#3A7498"/>
<path d="M13.0803 23.9699L13.1336 24.0737C23.8367 25.5273 32.0372 31.0299 35.4984 36.5326C31.0787 22.5683 37.0427 16.7023 37.7882 11.1477C27.6175 11.5111 18.6715 16.4946 13.0803 23.9699Z" fill="#3A7498"/>
<path d="M13.1309 24.0728L13.0776 24.0209C9.24365 29.1082 6.95392 35.4415 6.95392 42.2938C6.95392 42.761 6.95392 43.2802 6.95392 43.7474C14.0361 39.9578 25.8575 39.9578 34.058 41.7228C24.1003 38.3485 17.1778 32.4306 13.1309 24.0728Z" fill="#3A7498"/>
<path d="M12.9708 60.4639C12.5981 59.9966 12.2786 59.4775 11.9591 58.9584C9.13686 54.6497 7.37962 49.6143 7.06012 44.1635C14.5683 47.1225 21.2778 48.005 27.1352 46.863C20.9583 51.4831 17.2841 56.83 14.4086 62.3327L12.9708 60.4639Z" fill="#3A7498"/>
<path d="M61.3754 65.2399C55.8375 71.2098 47.9033 74.9474 39.0106 74.9474C29.6919 74.9474 21.4382 70.8464 15.847 64.4093L27.5087 55.0652L28.9996 56.4668L38.9573 47.2784L45.72 53.9232L47.9033 51.9505L63.2924 62.9558L61.3754 65.2399Z" fill="#3A7498"/>
<path d="M126.903 37.6907C126.836 37.6343 126.836 37.6343 126.836 37.6907C126.836 37.747 126.903 37.747 126.903 37.6907ZM110.966 22.0872C110.966 26.1993 110.966 30.3677 110.966 34.4798C110.966 35.4938 110.966 36.5641 110.966 37.578C110.966 38.1976 111.033 38.8173 111.703 39.2116C112.439 39.6622 113.511 39.4932 114.381 39.4932C115.586 39.4932 116.792 39.4932 117.997 39.4932C118.867 39.4932 119.671 39.3806 120.073 38.6483C120.541 37.8597 120.274 36.733 120.274 35.8881L120.274 28.9595L120.274 22.8195C120.274 21.8618 120.408 20.8479 120.274 19.8903C120.207 19.2706 119.939 18.7073 119.202 18.651C118.131 18.5383 116.926 18.651 115.854 18.651C114.783 18.651 113.645 18.5383 112.573 18.7073C110.565 18.9327 110.966 20.8479 110.966 22.0872ZM120.073 67.3204C120.474 66.5881 120.274 65.5178 120.274 64.7292C120.274 62.3633 120.274 59.9975 120.274 57.6879C120.274 55.6037 120.274 53.5758 120.274 51.4916C120.274 50.5903 120.408 49.52 120.207 48.6187C120.073 47.9991 119.671 47.6048 118.934 47.4358C117.93 47.2105 116.725 47.3231 115.72 47.3231C114.649 47.3231 113.444 47.2105 112.372 47.3795C110.431 47.7175 110.899 49.9143 110.899 51.0973C110.899 55.2657 110.899 59.3778 110.899 63.5463C110.899 64.5039 110.832 65.5178 110.899 66.4755C110.966 67.0388 111.234 67.4894 111.837 67.7711C112.64 68.109 113.712 67.94 114.582 67.94C115.787 67.94 116.926 67.94 118.131 67.94C118.934 67.8837 119.738 67.8837 120.073 67.3204ZM129.112 69.9679C128.978 71.0945 128.309 71.9958 127.371 72.7845C126.769 73.2351 126.233 73.7421 125.63 74.1927C125.095 74.6434 124.559 75.094 123.755 75.2067C123.019 75.3193 122.215 75.2067 121.412 75.2067C120.474 75.2067 119.537 75.2067 118.6 75.2067C115.118 75.2067 111.703 75.2067 108.221 75.2067L105.944 75.2067C105.141 75.2067 104.203 75.263 103.4 75.1503C102.262 74.9813 102.061 74.249 102.061 73.4041C102.061 70.4749 102.061 67.6021 102.061 64.6729C102.061 58.9272 102.061 53.1252 102.061 47.3795L102.061 43.0984L102.061 25.636L102.061 16.9611C102.061 15.4965 101.927 14.0319 102.061 12.5673C102.195 11.3844 103.199 11.2154 104.404 11.2154C107.886 11.2154 111.368 11.2154 114.783 11.2154C116.524 11.2154 118.332 11.2154 120.073 11.2154C120.876 11.2154 121.68 11.2154 122.483 11.2154C123.22 11.2154 123.956 11.1591 124.626 11.4971C125.229 11.7787 125.764 12.2857 126.233 12.7363C126.769 13.187 127.304 13.6376 127.84 14.0883C128.844 14.9895 129.179 16.0598 129.179 17.2427C129.179 20.0593 129.179 22.8758 129.179 25.6923C129.179 28.6215 129.179 31.5507 129.179 34.4235C129.179 35.8318 129.313 37.24 129.179 38.6483C129.112 40.0002 127.639 40.5072 126.97 41.5775C126.233 42.8731 127.974 43.718 128.777 44.6756C129.179 45.1263 129.179 45.6332 129.179 46.1965C129.179 46.9288 129.179 47.6048 129.179 48.3371C129.179 51.2663 129.179 54.1954 129.179 57.1246C129.179 59.9975 129.179 62.8703 129.179 65.7995C129.179 67.1514 129.313 68.616 129.112 69.9679Z" fill="#3A7498"/>
<path d="M138.102 14.5343C138.102 13.7457 137.901 12.7318 138.37 11.9995C139.039 11.0418 140.847 11.2672 141.919 11.3235C143.124 11.3798 144.463 11.0982 145.668 11.4362C146.271 11.6051 146.74 11.9431 146.874 12.4501C147.141 13.3514 147.007 14.4217 147.007 15.3229C147.074 17.3508 147.007 19.3787 146.94 21.4066C146.807 29.6309 146.874 37.9114 146.874 46.1357C146.874 48.2199 146.874 50.3041 146.874 52.4447C146.874 53.8529 146.405 56.3878 148.681 56.6694C149.686 56.7821 150.824 56.6694 151.828 56.6694C152.833 56.6694 154.038 56.8384 154.976 56.5568C156.85 56.0498 156.315 53.4586 156.315 52.2193C156.181 43.9388 156.248 35.7145 156.248 27.434C156.248 23.2655 156.315 19.0971 156.248 14.9286C156.181 13.5204 155.779 11.6051 158.056 11.4362C159.127 11.3798 160.198 11.3798 161.203 11.3798C162.073 11.3798 163.278 11.2672 164.149 11.4925C165.086 11.7741 165.22 12.7318 165.22 13.464C165.22 14.4217 165.22 15.3229 165.22 16.2806L165.22 22.5332L165.22 34.8133L165.22 47.3186C165.22 49.4028 165.22 51.4307 165.22 53.5149C165.22 54.5852 165.22 55.6555 165.22 56.7258C165.22 57.6834 165.287 58.641 165.019 59.5423C164.752 60.3309 164.149 61.0069 163.479 61.5702C162.743 62.1898 162.073 62.8658 161.203 63.3728C159.529 64.274 157.453 64.0487 155.578 64.0487C153.235 63.9924 150.891 64.0487 148.547 64.0487C146.673 64.0487 144.53 64.3304 142.722 63.7107C141.718 63.3728 141.048 62.7531 140.378 62.1335C139.709 61.5139 138.905 60.8942 138.504 60.1056C138.035 59.2043 138.102 58.303 138.102 57.3454C138.102 56.3315 138.102 55.3738 138.102 54.3599C138.102 50.1914 138.102 46.023 138.102 41.8546C138.102 39.8267 138.102 37.7988 138.102 35.7709C138.102 31.6588 138.102 27.4903 138.102 23.3782C138.102 21.4066 138.102 19.3787 138.102 17.4072C138.035 16.4496 138.102 15.4919 138.102 14.5343ZM164.952 74.7515C164.551 75.3148 163.747 75.4838 162.944 75.4838C161.872 75.5401 160.801 75.4838 159.797 75.4838C158.257 75.4838 156.783 75.4838 155.243 75.4838C152.096 75.4838 148.882 75.4838 145.735 75.4838C144.195 75.4838 142.655 75.4838 141.182 75.4838C140.178 75.4838 138.838 75.6528 138.303 74.6952C137.834 73.8502 138.102 72.5546 138.035 71.6533C138.035 70.752 137.7 69.2874 138.37 68.4988C139.039 67.7102 140.713 67.8792 141.718 67.9355C142.32 67.9355 142.856 67.9918 143.459 67.9918C144.195 67.9918 151.695 67.9918 151.695 67.9918C154.775 67.9918 157.922 68.0482 161.002 67.9918C162.073 67.9918 164.015 67.7102 164.818 68.4988C165.555 69.2311 165.22 70.583 165.22 71.4843C165.287 72.4419 165.622 73.8502 164.952 74.7515Z" fill="#3A7498"/>
<path d="M184.682 18.7025C183.678 18.8715 183.209 19.4348 183.075 20.2234C182.941 21.2374 183.008 22.3076 183.075 23.3216C183.075 25.5185 183.075 27.7154 183.075 29.9686L183.075 43.2625C183.075 47.1493 183.075 51.0925 183.075 54.9793C183.075 56.9508 183.075 58.9224 183.075 60.8939C183.075 61.7952 183.008 62.7528 183.008 63.6541C183.008 64.5554 182.874 65.6257 183.142 66.527C183.477 67.9916 185.352 67.8789 186.758 67.8789C187.762 67.8789 188.7 67.8789 189.704 67.8789C190.575 67.8789 191.579 67.8789 192.115 67.2029C192.584 66.5833 192.45 65.682 192.517 64.9497C192.517 63.9358 192.517 62.8655 192.517 61.8516L192.517 55.9369C192.517 48.0506 192.517 40.2207 192.517 32.3344C192.517 28.6166 192.517 24.8988 192.517 21.181C192.517 20.1671 192.316 18.9278 190.91 18.7588C189.838 18.5898 188.767 18.7025 187.696 18.7025C186.624 18.7025 185.62 18.5335 184.682 18.7025ZM200.953 71.3151C200.418 72.329 199.346 73.1176 198.409 73.8499C197.405 74.6949 196.4 75.2582 194.927 75.3709C193.387 75.4835 191.847 75.3709 190.307 75.3709C186.892 75.3709 183.477 75.3709 180.062 75.3709C179.259 75.3709 178.455 75.3709 177.719 75.3709C176.982 75.3709 176.179 75.4835 175.442 75.3145C174.237 75.0329 174.103 74.0189 174.103 73.1176C174.103 70.3011 174.103 67.4283 174.103 64.6118C174.103 58.9224 174.103 53.2893 174.103 47.6C174.103 46.1917 174.103 44.7271 174.103 43.3189C174.103 37.5732 174.103 31.8275 174.103 26.0254C174.103 23.1526 174.103 20.2234 174.103 17.3506C174.103 15.9986 174.036 14.5904 174.103 13.2384C174.17 12.1118 174.572 11.3795 175.978 11.2106C177.451 11.0416 178.991 11.2669 180.464 11.2669C182.138 11.2669 183.879 11.2669 185.553 11.2669C187.227 11.2669 188.901 11.2106 190.642 11.2106C192.249 11.2106 193.99 11.0416 195.597 11.3232C197.07 11.5485 198.007 12.3372 199.012 13.2384C200.016 14.1961 201.02 14.9847 201.288 16.2803C201.489 17.5759 201.355 18.9278 201.355 20.2234L201.355 24.5045L201.355 59.035C201.355 61.9079 201.288 64.7244 201.355 67.5973C201.422 68.8365 201.556 70.1321 200.953 71.3151Z" fill="#3A7498"/>
<path d="M220.805 18.7025C219.8 18.8715 219.331 19.4348 219.197 20.2234C219.064 21.2374 219.131 22.3076 219.197 23.3216C219.197 25.5185 219.197 27.7154 219.197 29.9686L219.197 43.2625C219.197 47.1493 219.197 51.0925 219.197 54.9793C219.197 56.9508 219.197 58.9224 219.197 60.8939C219.197 61.7952 219.131 62.7528 219.131 63.6541C219.131 64.5554 218.997 65.6257 219.264 66.527C219.599 67.9916 221.474 67.8789 222.88 67.8789C223.885 67.8789 224.822 67.8789 225.826 67.8789C226.697 67.8789 227.701 67.8789 228.237 67.2029C228.706 66.5833 228.572 65.682 228.639 64.9497C228.639 63.9358 228.639 62.8655 228.639 61.8516L228.639 55.9369C228.639 48.0506 228.639 40.2207 228.639 32.3344C228.639 28.6166 228.639 24.8988 228.639 21.181C228.639 20.1671 228.438 18.9278 227.032 18.7588C225.96 18.5898 224.889 18.7025 223.818 18.7025C222.746 18.7025 221.742 18.5335 220.805 18.7025ZM237.009 71.3151C236.473 72.329 235.402 73.1176 234.464 73.8499C233.46 74.6949 232.455 75.2582 230.982 75.3709C229.442 75.4835 227.902 75.3709 226.362 75.3709C222.947 75.3709 219.532 75.3709 216.117 75.3709C215.314 75.3709 214.51 75.3709 213.774 75.3709C213.037 75.3709 212.234 75.4835 211.497 75.3145C210.292 75.0329 210.158 74.0189 210.158 73.1176C210.158 70.3011 210.158 67.4283 210.158 64.6118C210.158 58.9224 210.158 53.2893 210.158 47.6C210.158 46.1917 210.158 44.7271 210.158 43.3189C210.158 37.5732 210.158 31.8275 210.158 26.0254C210.158 23.1526 210.158 20.2234 210.158 17.3506C210.158 15.9986 210.091 14.5904 210.158 13.2384C210.225 12.1118 210.627 11.3795 212.033 11.2106C213.506 11.0416 215.046 11.2669 216.519 11.2669C218.193 11.2669 219.934 11.2669 221.608 11.2669C223.282 11.2669 224.956 11.2106 226.697 11.2106C228.304 11.2106 230.045 11.0416 231.652 11.3232C233.125 11.5485 234.062 12.3372 235.067 13.2384C236.071 14.1961 237.076 14.9847 237.343 16.2803C237.544 17.5759 237.41 18.9278 237.41 20.2234L237.41 24.5045L237.41 59.035C237.41 61.9079 237.343 64.7244 237.41 67.5973C237.477 68.8365 237.611 70.1321 237.009 71.3151Z" fill="#3A7498"/>
<path d="M276.903 13.0138C276.501 14.6474 275.898 16.281 275.43 17.9146C273.488 24.5615 271.479 31.1522 269.537 37.7992C268.533 41.1227 267.529 44.5025 266.591 47.826C266.122 49.4596 265.855 50.9805 265.855 52.6704C265.855 54.3603 265.855 56.1065 265.855 57.7965C265.855 58.1908 265.855 62.4719 265.855 62.4719C265.855 65.9644 265.788 69.4005 265.855 72.893C265.855 73.9633 265.788 75.1462 264.248 75.3152C263.31 75.3715 262.373 75.3152 261.435 75.3152C260.498 75.3152 259.56 75.3715 258.623 75.3715C257.351 75.3152 256.815 74.6392 256.815 73.6253C256.748 71.9354 256.815 70.2455 256.815 68.5556C256.815 65.1194 256.815 61.6832 256.815 58.2471C256.815 54.9236 257.083 51.5438 256.28 48.2766C255.476 44.9531 254.472 41.686 253.534 38.4188C251.659 31.7155 249.718 25.0685 247.843 18.3652C247.374 16.7316 246.905 15.0417 246.437 13.4081C246.303 12.8448 245.901 12.0562 246.504 11.6056C247.106 11.0986 248.311 11.2676 249.115 11.2676C250.052 11.2676 250.99 11.2676 251.927 11.2676C252.731 11.2676 253.601 11.2112 254.338 11.3802C255.744 11.6619 255.878 12.9575 256.146 13.9714C257.083 17.2949 257.953 20.6184 258.891 23.9982C259.36 25.6881 259.828 27.4344 260.297 29.1243C260.498 29.9129 260.699 30.7016 260.9 31.4338C260.967 31.7718 261.101 33.1238 261.636 33.1801C262.172 33.2364 262.239 32.3915 262.306 32.1098C262.574 31.2649 262.841 30.4199 263.109 29.5749C263.645 27.885 264.114 26.1951 264.649 24.5052C265.654 21.1817 266.658 17.8582 267.663 14.5911C267.997 13.5771 268.064 11.9435 269.47 11.4929C270.073 11.2676 270.81 11.3239 271.479 11.3239C272.484 11.3239 273.488 11.3239 274.492 11.3239C275.162 11.3239 276.233 11.1549 276.836 11.5492C277.171 11.7746 277.037 12.5068 276.903 13.0138Z" fill="#3A7498"/>
<line x1="84.6008" y1="1.76016" x2="84.6008" y2="85.0747" stroke="#3A7498" stroke-width="2.34689"/>
</svg>
